%
M48
M72
T01C0.0236
T02C0.0394
T03C0.0400
T04C0.0520
T05C0.0669
%
T01
X6687Y16628
T02
X4785Y16525
X4785Y15147
X3791Y18397
X8711Y16466
X8711Y15088
X9697Y18397
X9697Y8555
X3803Y8555
T03
X3805Y8545
X5246Y7486
X5246Y11486
X5246Y12486
X8246Y12486
X8246Y11486
X9699Y8561
X8246Y7486
X9711Y18387
X3805Y18387
T04
X4827Y4332
X6797Y4332
X8767Y4332
T05
X3140Y4013
X10455Y4013
M30
