G75*
%MOIN*%
%OFA0B0*%
%FSLAX24Y24*%
%IPPOS*%
%LPD*%
%AMOC8*
5,1,8,0,0,1.08239X$1,22.5*
%
%ADD10C,0.0000*%
%ADD11C,0.0040*%
%ADD12C,0.0030*%
%ADD13R,0.0472X0.0472*%
%ADD14C,0.1181*%
%ADD15C,0.0780*%
%ADD16C,0.0600*%
%ADD17C,0.0594*%
%ADD18C,0.0860*%
%ADD19OC8,0.0600*%
%ADD20C,0.0400*%
%ADD21C,0.0396*%
%ADD22C,0.1000*%
D10*
X002466Y003151D02*
X011128Y003151D01*
X011108Y019151D01*
X002474Y019151D01*
X002466Y003151D01*
D11*
X002537Y010100D02*
X002998Y010100D01*
X002767Y010100D02*
X002767Y010407D01*
X002767Y010561D02*
X002767Y010868D01*
X002691Y010868D02*
X002998Y010868D01*
X002998Y010561D02*
X002691Y010561D01*
X002537Y010714D01*
X002691Y010868D01*
X002767Y011021D02*
X002767Y011328D01*
X002537Y011481D02*
X002537Y011712D01*
X002614Y011788D01*
X002921Y011788D01*
X002998Y011712D01*
X002998Y011481D01*
X002537Y011481D01*
X002537Y011942D02*
X002537Y012172D01*
X002614Y012249D01*
X002767Y012249D01*
X002844Y012172D01*
X002844Y011942D01*
X002844Y012095D02*
X002998Y012249D01*
X002998Y012402D02*
X002998Y012556D01*
X002998Y012479D02*
X002537Y012479D01*
X002537Y012402D02*
X002537Y012556D01*
X002537Y012709D02*
X002844Y012709D01*
X002998Y012863D01*
X002844Y013016D01*
X002537Y013016D01*
X002537Y013170D02*
X002998Y013170D01*
X002998Y013477D01*
X002998Y013630D02*
X002537Y013630D01*
X002537Y013860D01*
X002614Y013937D01*
X002767Y013937D01*
X002844Y013860D01*
X002844Y013630D01*
X002844Y013783D02*
X002998Y013937D01*
X002767Y013323D02*
X002767Y013170D01*
X002537Y013170D02*
X002537Y013477D01*
X002537Y011942D02*
X002998Y011942D01*
X002998Y010407D02*
X002537Y010407D01*
D12*
X003303Y011434D02*
X003496Y011434D01*
X003593Y011531D01*
X003496Y011627D01*
X003303Y011627D01*
X003496Y011627D01*
X003593Y011531D01*
X003496Y011434D01*
X003303Y011434D01*
X003303Y011729D02*
X003593Y011729D01*
X003593Y011922D01*
X003593Y011729D01*
X003303Y011729D01*
X003303Y011922D01*
X003303Y011729D01*
X003448Y011729D02*
X003448Y011825D01*
X003448Y011729D01*
X003496Y012023D02*
X003496Y012168D01*
X003448Y012217D01*
X003351Y012217D01*
X003303Y012168D01*
X003303Y012023D01*
X003593Y012023D01*
X003303Y012023D01*
X003303Y012168D01*
X003351Y012217D01*
X003448Y012217D01*
X003496Y012168D01*
X003496Y012023D01*
X003496Y012120D02*
X003593Y012217D01*
X003496Y012120D01*
X003545Y012318D02*
X003593Y012366D01*
X003593Y012463D01*
X003545Y012511D01*
X003496Y012511D01*
X003448Y012463D01*
X003448Y012366D01*
X003400Y012318D01*
X003351Y012318D01*
X003303Y012366D01*
X003303Y012463D01*
X003351Y012511D01*
X003303Y012463D01*
X003303Y012366D01*
X003351Y012318D01*
X003400Y012318D01*
X003448Y012366D01*
X003448Y012463D01*
X003496Y012511D01*
X003545Y012511D01*
X003593Y012463D01*
X003593Y012366D01*
X003545Y012318D01*
X003593Y012613D02*
X003593Y012709D01*
X003593Y012613D01*
X003593Y012661D02*
X003303Y012661D01*
X003593Y012661D01*
X003545Y012809D02*
X003593Y012857D01*
X003593Y012954D01*
X003545Y013002D01*
X003351Y013002D01*
X003303Y012954D01*
X003303Y012857D01*
X003351Y012809D01*
X003545Y012809D01*
X003593Y012857D01*
X003593Y012954D01*
X003545Y013002D01*
X003351Y013002D01*
X003303Y012954D01*
X003303Y012857D01*
X003351Y012809D01*
X003545Y012809D01*
X003593Y013104D02*
X003303Y013104D01*
X003593Y013297D01*
X003303Y013297D01*
X003593Y013297D01*
X003303Y013104D01*
X003593Y013104D01*
X003303Y012709D02*
X003303Y012613D01*
X003303Y012709D01*
X003448Y013693D02*
X003448Y013886D01*
X003448Y013693D01*
X003303Y013838D01*
X003593Y013838D01*
X003303Y013838D01*
X003448Y013693D01*
X010586Y009061D02*
X010780Y008868D01*
X010732Y008916D02*
X010877Y009061D01*
X010877Y008868D02*
X010586Y008868D01*
X010586Y008768D02*
X010586Y008671D01*
X010586Y008720D02*
X010877Y008720D01*
X010877Y008768D02*
X010877Y008671D01*
X010877Y008570D02*
X010586Y008570D01*
X010586Y008377D02*
X010877Y008570D01*
X010877Y008377D02*
X010586Y008377D01*
X010635Y008276D02*
X010586Y008227D01*
X010586Y008130D01*
X010635Y008082D01*
X010828Y008082D01*
X010877Y008130D01*
X010877Y008227D01*
X010828Y008276D01*
X010635Y008276D01*
X010635Y007981D02*
X010732Y007981D01*
X010780Y007933D01*
X010780Y007787D01*
X010877Y007787D02*
X010586Y007787D01*
X010586Y007933D01*
X010635Y007981D01*
X010780Y007884D02*
X010877Y007981D01*
X010877Y007589D02*
X010586Y007589D01*
X010586Y007493D02*
X010586Y007686D01*
X010586Y007393D02*
X010586Y007296D01*
X010586Y007345D02*
X010877Y007345D01*
X010877Y007393D02*
X010877Y007296D01*
X010877Y007195D02*
X010780Y007098D01*
X010780Y007147D02*
X010780Y007002D01*
X010877Y007002D02*
X010586Y007002D01*
X010586Y007147D01*
X010635Y007195D01*
X010732Y007195D01*
X010780Y007147D01*
X010586Y006900D02*
X010586Y006707D01*
X010586Y006804D02*
X010877Y006804D01*
X010877Y006311D02*
X010586Y006311D01*
X010683Y006214D01*
X010586Y006118D01*
X010877Y006118D01*
X010877Y006017D02*
X010877Y005823D01*
X010683Y006017D01*
X010635Y006017D01*
X010586Y005968D01*
X010586Y005871D01*
X010635Y005823D01*
X010586Y005722D02*
X010877Y005722D01*
X010877Y005528D02*
X010586Y005528D01*
X010683Y005625D01*
X010586Y005722D01*
D13*
X007266Y013754D03*
X006439Y013754D03*
D14*
X003140Y004013D03*
X010455Y004013D03*
D15*
X008767Y003942D02*
X008767Y004722D01*
X006797Y004722D02*
X006797Y003942D01*
X004827Y003942D02*
X004827Y004722D01*
D16*
X004946Y007486D02*
X005546Y007486D01*
X005546Y011486D02*
X004946Y011486D01*
X004946Y012486D02*
X005546Y012486D01*
X007946Y012486D02*
X008546Y012486D01*
X008546Y011486D02*
X007946Y011486D01*
X007946Y007486D02*
X008546Y007486D01*
D17*
X009697Y008555D02*
X009277Y008975D01*
X004223Y008975D02*
X003803Y008555D01*
X004211Y017977D02*
X003791Y018397D01*
X009277Y017977D02*
X009697Y018397D01*
D18*
X008711Y016466D03*
X008711Y015088D03*
X004785Y015147D03*
X004785Y016525D03*
D19*
X003805Y018387D03*
X003805Y008545D03*
X009699Y008561D03*
X009711Y018387D03*
D20*
X008711Y015088D02*
X009697Y014102D01*
X009697Y008555D01*
X007266Y013754D02*
X007266Y016049D01*
X006687Y016628D01*
X006439Y015647D02*
X005581Y016506D01*
X004707Y016506D01*
X004785Y016525D01*
X006439Y015647D02*
X006439Y013754D01*
X006435Y013750D01*
X006435Y013206D01*
X006707Y012935D01*
X006707Y011789D01*
X006403Y011486D01*
X005246Y011486D01*
D21*
X006687Y016628D03*
D22*
X005246Y007486D02*
X006797Y005935D01*
X006797Y004332D01*
X008767Y004332D02*
X010136Y004332D01*
X010455Y004013D01*
X004827Y004332D02*
X003459Y004332D01*
X003140Y004013D01*
M02*
