G75*
%MOIN*%
%OFA0B0*%
%FSLAX24Y24*%
%IPPOS*%
%LPD*%
%AMOC8*
5,1,8,0,0,1.08239X$1,22.5*
%
%ADD10C,0.0050*%
%ADD11C,0.0060*%
D10*
X005200Y009454D02*
X008194Y009454D01*
X008194Y009633D01*
X008194Y010714D01*
X005200Y010714D01*
X005200Y010633D01*
X005200Y009454D01*
X005200Y010610D02*
X005200Y010633D01*
X006828Y010259D02*
X006828Y009909D01*
X006978Y010084D01*
X006828Y010259D01*
X006978Y010259D02*
X006978Y009909D01*
X008194Y009633D02*
X008194Y009535D01*
D11*
X004055Y008045D02*
X003555Y008045D01*
X003305Y008295D01*
X003305Y008795D01*
X003555Y009045D01*
X004055Y009045D01*
X004305Y008795D01*
X004305Y008295D01*
X004055Y008045D01*
X009199Y008311D02*
X009449Y008061D01*
X009949Y008061D01*
X010199Y008311D01*
X010199Y008811D01*
X009949Y009061D01*
X009449Y009061D01*
X009199Y008811D01*
X009199Y008311D01*
X009461Y017887D02*
X009961Y017887D01*
X010211Y018137D01*
X010211Y018637D01*
X009961Y018887D01*
X009461Y018887D01*
X009211Y018637D01*
X009211Y018137D01*
X009461Y017887D01*
X004305Y018137D02*
X004055Y017887D01*
X003555Y017887D01*
X003305Y018137D01*
X003305Y018637D01*
X003555Y018887D01*
X004055Y018887D01*
X004305Y018637D01*
X004305Y018137D01*
M02*
