G75*
%MOIN*%
%OFA0B0*%
%FSLAX24Y24*%
%IPPOS*%
%LPD*%
%AMOC8*
5,1,8,0,0,1.08239X$1,22.5*
%
%ADD10R,0.0079X0.0079*%
%ADD11C,0.0060*%
%ADD12C,0.0050*%
%ADD13C,0.0100*%
D10*
X006813Y013754D03*
D11*
X003627Y003782D02*
X003627Y001882D01*
X003827Y001882D01*
X009767Y001882D01*
X009767Y003082D01*
X003827Y003082D01*
X003827Y003682D01*
X003827Y004082D01*
X004177Y004082D01*
X004177Y004232D02*
X004027Y004232D01*
X004027Y006032D01*
X005627Y006032D01*
X005627Y004232D01*
X005467Y004232D01*
X005477Y004082D02*
X006137Y004082D01*
X006147Y004232D02*
X005997Y004232D01*
X005997Y006032D01*
X005997Y006782D01*
X005627Y006782D01*
X004027Y006782D01*
X004027Y006032D01*
X003827Y005932D02*
X003827Y004082D01*
X003627Y003782D02*
X003827Y003682D01*
X003827Y003082D02*
X003827Y001882D01*
X004027Y001982D02*
X004027Y002982D01*
X005627Y002982D01*
X005627Y001982D01*
X004027Y001982D01*
X004267Y002332D02*
X005467Y002582D01*
X005417Y002632D02*
X004217Y002382D01*
X004227Y002342D02*
X004208Y002366D01*
X004192Y002391D01*
X004179Y002419D01*
X004169Y002447D01*
X004162Y002477D01*
X004158Y002507D01*
X004158Y002537D01*
X004162Y002568D01*
X004169Y002597D01*
X004179Y002626D01*
X004192Y002653D01*
X004208Y002679D01*
X004227Y002702D01*
X004249Y002724D01*
X004231Y002710D02*
X004280Y002745D01*
X004332Y002776D01*
X004385Y002804D01*
X004440Y002829D01*
X004496Y002850D01*
X004554Y002868D01*
X004612Y002882D01*
X004672Y002892D01*
X004732Y002899D01*
X004792Y002902D01*
X004852Y002901D01*
X004912Y002896D01*
X004972Y002888D01*
X005031Y002876D01*
X005089Y002860D01*
X005146Y002840D01*
X005202Y002817D01*
X005256Y002791D01*
X005308Y002761D01*
X005359Y002728D01*
X005407Y002692D01*
X005390Y002706D02*
X005416Y002689D01*
X005439Y002670D01*
X005459Y002647D01*
X005476Y002623D01*
X005490Y002596D01*
X005501Y002567D01*
X005507Y002538D01*
X005510Y002508D01*
X005509Y002477D01*
X005504Y002448D01*
X005495Y002419D01*
X005482Y002391D01*
X005466Y002366D01*
X005447Y002342D01*
X005997Y001982D02*
X005997Y002982D01*
X007597Y002982D01*
X007597Y001982D01*
X005997Y001982D01*
X006237Y002332D02*
X007437Y002582D01*
X007387Y002632D02*
X006187Y002382D01*
X006197Y002342D02*
X006178Y002366D01*
X006162Y002391D01*
X006149Y002419D01*
X006139Y002447D01*
X006132Y002477D01*
X006128Y002507D01*
X006128Y002537D01*
X006132Y002568D01*
X006139Y002597D01*
X006149Y002626D01*
X006162Y002653D01*
X006178Y002679D01*
X006197Y002702D01*
X006219Y002724D01*
X006195Y002340D02*
X006232Y002300D01*
X006272Y002263D01*
X006314Y002228D01*
X006358Y002197D01*
X006404Y002168D01*
X006452Y002143D01*
X006502Y002120D01*
X006553Y002102D01*
X006605Y002086D01*
X006659Y002075D01*
X006712Y002067D01*
X006767Y002062D01*
X006821Y002061D01*
X006876Y002064D01*
X006930Y002070D01*
X006983Y002080D01*
X007036Y002094D01*
X007087Y002111D01*
X007138Y002132D01*
X007187Y002155D01*
X007234Y002183D01*
X007279Y002213D01*
X007323Y002246D01*
X007363Y002282D01*
X007402Y002321D01*
X007437Y002362D01*
X007417Y002342D02*
X007436Y002366D01*
X007452Y002391D01*
X007465Y002419D01*
X007474Y002448D01*
X007479Y002477D01*
X007480Y002508D01*
X007477Y002538D01*
X007471Y002567D01*
X007460Y002596D01*
X007446Y002623D01*
X007429Y002647D01*
X007409Y002670D01*
X007386Y002689D01*
X007360Y002706D01*
X007967Y002982D02*
X007967Y001982D01*
X009567Y001982D01*
X009567Y002982D01*
X007967Y002982D01*
X008179Y002724D02*
X008157Y002702D01*
X008138Y002679D01*
X008122Y002653D01*
X008109Y002626D01*
X008099Y002597D01*
X008092Y002568D01*
X008088Y002537D01*
X008088Y002507D01*
X008092Y002477D01*
X008099Y002447D01*
X008109Y002419D01*
X008122Y002391D01*
X008138Y002366D01*
X008157Y002342D01*
X008197Y002332D02*
X009397Y002582D01*
X009347Y002632D02*
X008147Y002382D01*
X008161Y002710D02*
X008210Y002745D01*
X008262Y002776D01*
X008315Y002804D01*
X008370Y002829D01*
X008426Y002850D01*
X008484Y002868D01*
X008542Y002882D01*
X008602Y002892D01*
X008662Y002899D01*
X008722Y002902D01*
X008782Y002901D01*
X008842Y002896D01*
X008902Y002888D01*
X008961Y002876D01*
X009019Y002860D01*
X009076Y002840D01*
X009132Y002817D01*
X009186Y002791D01*
X009238Y002761D01*
X009289Y002728D01*
X009337Y002692D01*
X009320Y002706D02*
X009346Y002689D01*
X009369Y002670D01*
X009389Y002647D01*
X009406Y002623D01*
X009420Y002596D01*
X009431Y002567D01*
X009437Y002538D01*
X009440Y002508D01*
X009439Y002477D01*
X009434Y002448D01*
X009425Y002419D01*
X009412Y002391D01*
X009396Y002366D01*
X009377Y002342D01*
X009767Y003082D02*
X009767Y004082D01*
X009417Y004082D01*
X009417Y004232D02*
X009567Y004232D01*
X009567Y006032D01*
X009567Y006782D01*
X007967Y006782D01*
X007597Y006782D01*
X005997Y006782D01*
X005627Y006782D02*
X005627Y006032D01*
X005477Y005782D02*
X005477Y004532D01*
X006147Y004532D02*
X006147Y005782D01*
X007447Y005782D01*
X007447Y004532D01*
X007447Y004232D02*
X007597Y004232D01*
X007597Y006032D01*
X005997Y006032D01*
X005477Y005782D02*
X004177Y005782D01*
X004177Y004532D01*
X003627Y005832D02*
X003627Y006482D01*
X003827Y006382D01*
X003827Y005932D01*
X003627Y005832D01*
X003827Y006382D02*
X003827Y006782D01*
X004027Y006782D01*
X004596Y006886D02*
X004596Y011236D01*
X004596Y011736D02*
X004596Y012236D01*
X004596Y012736D02*
X004596Y013086D01*
X008896Y013086D01*
X008896Y012736D01*
X008896Y012236D02*
X008896Y011736D01*
X008896Y011236D02*
X008896Y006886D01*
X004596Y006886D01*
X005846Y007486D02*
X006746Y007486D01*
X007646Y007486D01*
X007597Y006782D02*
X007597Y006032D01*
X007967Y006032D02*
X007967Y004232D01*
X008117Y004232D01*
X008117Y004082D02*
X007447Y004082D01*
X008117Y004532D02*
X008117Y005782D01*
X009417Y005782D01*
X009417Y004532D01*
X009767Y004082D02*
X009767Y006782D01*
X009567Y006782D01*
X009567Y006032D02*
X007967Y006032D01*
X007967Y006782D01*
X006746Y007486D02*
X006746Y012086D01*
X006396Y012586D01*
X006446Y012486D02*
X005946Y012486D01*
X005646Y010936D02*
X005646Y010436D01*
X006446Y009936D01*
X006446Y010186D01*
X006446Y010936D01*
X005646Y010936D01*
X005646Y010436D02*
X005646Y010186D01*
X005646Y009486D01*
X006446Y009486D01*
X006446Y009936D01*
X006446Y010186D02*
X008246Y010186D01*
X008246Y010936D01*
X007546Y012486D02*
X007096Y012486D01*
X005646Y010186D02*
X005246Y010186D01*
X005246Y010936D01*
X005467Y002362D02*
X005432Y002321D01*
X005393Y002282D01*
X005352Y002246D01*
X005309Y002213D01*
X005264Y002183D01*
X005217Y002155D01*
X005168Y002132D01*
X005117Y002111D01*
X005066Y002094D01*
X005013Y002080D01*
X004960Y002070D01*
X004905Y002064D01*
X004851Y002061D01*
X004797Y002062D01*
X004742Y002067D01*
X004689Y002075D01*
X004635Y002086D01*
X004583Y002102D01*
X004532Y002121D01*
X004482Y002143D01*
X004434Y002168D01*
X004388Y002197D01*
X004344Y002228D01*
X004302Y002263D01*
X004262Y002300D01*
X004225Y002340D01*
X006201Y002710D02*
X006250Y002745D01*
X006302Y002776D01*
X006355Y002804D01*
X006410Y002829D01*
X006466Y002850D01*
X006524Y002868D01*
X006582Y002882D01*
X006642Y002892D01*
X006702Y002899D01*
X006762Y002902D01*
X006822Y002901D01*
X006882Y002896D01*
X006942Y002888D01*
X007001Y002876D01*
X007059Y002860D01*
X007116Y002840D01*
X007172Y002817D01*
X007226Y002791D01*
X007278Y002761D01*
X007329Y002728D01*
X007377Y002692D01*
X008155Y002340D02*
X008192Y002300D01*
X008232Y002263D01*
X008274Y002228D01*
X008318Y002197D01*
X008364Y002168D01*
X008412Y002143D01*
X008462Y002120D01*
X008513Y002102D01*
X008565Y002086D01*
X008619Y002075D01*
X008672Y002067D01*
X008727Y002062D01*
X008781Y002061D01*
X008836Y002064D01*
X008890Y002070D01*
X008943Y002080D01*
X008996Y002094D01*
X009047Y002111D01*
X009098Y002132D01*
X009147Y002155D01*
X009194Y002183D01*
X009239Y002213D01*
X009283Y002246D01*
X009323Y002282D01*
X009362Y002321D01*
X009397Y002362D01*
D12*
X009412Y003357D02*
X009112Y003357D01*
X009262Y003357D02*
X009262Y003808D01*
X009112Y003658D01*
X007412Y003658D02*
X007412Y003733D01*
X007337Y003808D01*
X007187Y003808D01*
X007112Y003733D01*
X007412Y003658D02*
X007112Y003357D01*
X007412Y003357D01*
X005412Y003432D02*
X005337Y003357D01*
X005187Y003357D01*
X005112Y003432D01*
X005262Y003582D02*
X005337Y003582D01*
X005412Y003507D01*
X005412Y003432D01*
X005337Y003582D02*
X005412Y003658D01*
X005412Y003733D01*
X005337Y003808D01*
X005187Y003808D01*
X005112Y003733D01*
X006124Y014439D02*
X003919Y014439D01*
X003919Y017194D01*
X003368Y017194D01*
X003368Y014439D01*
X003919Y014439D01*
X003919Y017194D02*
X006124Y017194D01*
X006124Y014439D01*
X007372Y014419D02*
X007372Y017175D01*
X009577Y017175D01*
X009577Y014419D01*
X010128Y014419D01*
X010128Y017175D01*
X009577Y017175D01*
X009577Y014419D02*
X007372Y014419D01*
D13*
X006646Y007486D02*
X006648Y007506D01*
X006654Y007524D01*
X006663Y007542D01*
X006675Y007557D01*
X006690Y007569D01*
X006708Y007578D01*
X006726Y007584D01*
X006746Y007586D01*
X006766Y007584D01*
X006784Y007578D01*
X006802Y007569D01*
X006817Y007557D01*
X006829Y007542D01*
X006838Y007524D01*
X006844Y007506D01*
X006846Y007486D01*
X006844Y007466D01*
X006838Y007448D01*
X006829Y007430D01*
X006817Y007415D01*
X006802Y007403D01*
X006784Y007394D01*
X006766Y007388D01*
X006746Y007386D01*
X006726Y007388D01*
X006708Y007394D01*
X006690Y007403D01*
X006675Y007415D01*
X006663Y007430D01*
X006654Y007448D01*
X006648Y007466D01*
X006646Y007486D01*
M02*
