G75*
%MOIN*%
%OFA0B0*%
%FSLAX24Y24*%
%IPPOS*%
%LPD*%
%AMOC8*
5,1,8,0,0,1.08239X$1,22.5*
%
%ADD10C,0.0060*%
%ADD11C,0.0020*%
%ADD12R,0.0050X0.0200*%
%ADD13R,0.0200X0.0050*%
%ADD14R,0.0200X0.0200*%
%ADD15C,0.0080*%
%ADD16C,0.0050*%
D10*
X008800Y053527D02*
X008800Y054527D01*
X009800Y054527D01*
X009800Y062527D01*
X008800Y062527D01*
X008800Y054527D01*
X009050Y054277D01*
X009050Y053777D02*
X008800Y053527D01*
X009800Y053527D01*
X009800Y054527D01*
X009550Y054277D01*
X009550Y053777D02*
X009800Y053527D01*
X007579Y054781D02*
X007329Y054531D01*
X005829Y054531D01*
X005579Y054781D01*
X005579Y055281D01*
X005829Y055531D01*
X007329Y055531D01*
X007579Y055781D01*
X007579Y056281D01*
X007329Y056531D01*
X005829Y056531D01*
X005579Y056781D01*
X005579Y057281D01*
X005829Y057531D01*
X007329Y057531D01*
X007579Y057781D01*
X007579Y058281D01*
X007329Y058531D01*
X005829Y058531D01*
X005579Y058781D01*
X005579Y059281D01*
X005829Y059531D01*
X007329Y059531D01*
X007579Y059781D01*
X007579Y060281D01*
X007329Y060531D01*
X005829Y060531D01*
X005579Y060781D01*
X005579Y061281D01*
X005829Y061531D01*
X007329Y061531D01*
X007579Y061281D01*
X007579Y060781D01*
X007329Y060531D01*
X007329Y059531D02*
X007579Y059281D01*
X007579Y058781D01*
X007329Y058531D01*
X007329Y057531D02*
X007579Y057281D01*
X007579Y056781D01*
X007329Y056531D01*
X007329Y055531D02*
X007579Y055281D01*
X007579Y054781D01*
X005829Y055531D02*
X005579Y055781D01*
X005579Y056281D01*
X005829Y056531D01*
X005829Y057531D02*
X005579Y057781D01*
X005579Y058281D01*
X005829Y058531D01*
X005829Y059531D02*
X005579Y059781D01*
X005579Y060281D01*
X005829Y060531D01*
X005829Y061531D02*
X005579Y061781D01*
X005579Y062281D01*
X005829Y062531D01*
X007329Y062531D01*
X007579Y062281D01*
X007579Y061781D01*
X007329Y061531D01*
X007329Y062531D02*
X007579Y062781D01*
X007579Y063281D01*
X007329Y063531D01*
X005829Y063531D01*
X005579Y063781D01*
X005579Y064281D01*
X005829Y064531D01*
X007329Y064531D01*
X007579Y064281D01*
X007579Y063781D01*
X007329Y063531D01*
X007329Y064531D02*
X007579Y064781D01*
X007579Y065281D01*
X007329Y065531D01*
X005829Y065531D01*
X005579Y065781D01*
X005579Y066281D01*
X005829Y066531D01*
X005579Y066781D01*
X005579Y067281D01*
X005829Y067531D01*
X007329Y067531D01*
X007579Y067281D01*
X007579Y066781D01*
X007329Y066531D01*
X005829Y066531D01*
X005829Y065531D02*
X005579Y065281D01*
X005579Y064781D01*
X005829Y064531D01*
X005829Y063531D02*
X005579Y063281D01*
X005579Y062781D01*
X005829Y062531D01*
X007329Y065531D02*
X007579Y065781D01*
X007579Y066281D01*
X007329Y066531D01*
X008764Y070850D02*
X008764Y071850D01*
X009764Y071850D01*
X009764Y079850D01*
X008764Y079850D01*
X008764Y071850D01*
X009014Y071600D01*
X009014Y071100D02*
X008764Y070850D01*
X009764Y070850D01*
X009764Y071850D01*
X009514Y071600D01*
X009514Y071100D02*
X009764Y070850D01*
X007599Y072104D02*
X007599Y072604D01*
X007349Y072854D01*
X005849Y072854D01*
X005599Y073104D01*
X005599Y073604D01*
X005849Y073854D01*
X007349Y073854D01*
X007599Y074104D01*
X007599Y074604D01*
X007349Y074854D01*
X005849Y074854D01*
X005599Y075104D01*
X005599Y075604D01*
X005849Y075854D01*
X007349Y075854D01*
X007599Y076104D01*
X007599Y076604D01*
X007349Y076854D01*
X005849Y076854D01*
X005599Y077104D01*
X005599Y077604D01*
X005849Y077854D01*
X007349Y077854D01*
X007599Y078104D01*
X007599Y078604D01*
X007349Y078854D01*
X005849Y078854D01*
X005599Y079104D01*
X005599Y079604D01*
X005849Y079854D01*
X007349Y079854D01*
X007599Y079604D01*
X007599Y079104D01*
X007349Y078854D01*
X007349Y077854D02*
X007599Y077604D01*
X007599Y077104D01*
X007349Y076854D01*
X007349Y075854D02*
X007599Y075604D01*
X007599Y075104D01*
X007349Y074854D01*
X007349Y073854D02*
X007599Y073604D01*
X007599Y073104D01*
X007349Y072854D01*
X007599Y072104D02*
X007349Y071854D01*
X005849Y071854D01*
X005599Y072104D01*
X005599Y072604D01*
X005849Y072854D01*
X005849Y073854D02*
X005599Y074104D01*
X005599Y074604D01*
X005849Y074854D01*
X005849Y075854D02*
X005599Y076104D01*
X005599Y076604D01*
X005849Y076854D01*
X005849Y077854D02*
X005599Y078104D01*
X005599Y078604D01*
X005849Y078854D01*
X005849Y079854D02*
X005599Y080104D01*
X005599Y080604D01*
X005849Y080854D01*
X007349Y080854D01*
X007599Y080604D01*
X007599Y080104D01*
X007349Y079854D01*
X007349Y080854D02*
X007599Y081104D01*
X007599Y081604D01*
X007349Y081854D01*
X005849Y081854D01*
X005599Y082104D01*
X005599Y082604D01*
X005849Y082854D01*
X007349Y082854D01*
X007599Y082604D01*
X007599Y082104D01*
X007349Y081854D01*
X007349Y082854D02*
X007599Y083104D01*
X007599Y083604D01*
X007349Y083854D01*
X007599Y084104D01*
X007599Y084604D01*
X007349Y084854D01*
X005849Y084854D01*
X005599Y084604D01*
X005599Y084104D01*
X005849Y083854D01*
X007349Y083854D01*
X005849Y083854D02*
X005599Y083604D01*
X005599Y083104D01*
X005849Y082854D01*
X005849Y081854D02*
X005599Y081604D01*
X005599Y081104D01*
X005849Y080854D01*
X012205Y073120D02*
X012205Y071880D01*
X012207Y071857D01*
X012212Y071834D01*
X012221Y071812D01*
X012234Y071792D01*
X012249Y071774D01*
X012267Y071759D01*
X012287Y071746D01*
X012309Y071737D01*
X012332Y071732D01*
X012355Y071730D01*
X012205Y073120D02*
X012207Y073143D01*
X012212Y073166D01*
X012221Y073188D01*
X012234Y073208D01*
X012249Y073226D01*
X012267Y073241D01*
X012287Y073254D01*
X012309Y073263D01*
X012332Y073268D01*
X012355Y073270D01*
X013118Y075975D02*
X013938Y075975D01*
X014938Y075975D01*
X015758Y075975D01*
X015781Y075977D01*
X015804Y075982D01*
X015826Y075991D01*
X015846Y076004D01*
X015864Y076019D01*
X015879Y076037D01*
X015892Y076057D01*
X015901Y076079D01*
X015906Y076102D01*
X015908Y076125D01*
X015908Y080425D01*
X015906Y080448D01*
X015901Y080471D01*
X015892Y080493D01*
X015879Y080513D01*
X015864Y080531D01*
X015846Y080546D01*
X015826Y080559D01*
X015804Y080568D01*
X015781Y080573D01*
X015758Y080575D01*
X013118Y080575D01*
X013095Y080573D01*
X013072Y080568D01*
X013050Y080559D01*
X013030Y080546D01*
X013012Y080531D01*
X012997Y080513D01*
X012984Y080493D01*
X012975Y080471D01*
X012970Y080448D01*
X012968Y080425D01*
X012968Y076125D01*
X012970Y076102D01*
X012975Y076079D01*
X012984Y076057D01*
X012997Y076037D01*
X013012Y076019D01*
X013030Y076004D01*
X013050Y075991D01*
X013072Y075982D01*
X013095Y075977D01*
X013118Y075975D01*
X013938Y075975D02*
X013940Y076019D01*
X013946Y076062D01*
X013955Y076104D01*
X013968Y076146D01*
X013985Y076186D01*
X014005Y076225D01*
X014028Y076262D01*
X014055Y076296D01*
X014084Y076329D01*
X014117Y076358D01*
X014151Y076385D01*
X014188Y076408D01*
X014227Y076428D01*
X014267Y076445D01*
X014309Y076458D01*
X014351Y076467D01*
X014394Y076473D01*
X014438Y076475D01*
X014482Y076473D01*
X014525Y076467D01*
X014567Y076458D01*
X014609Y076445D01*
X014649Y076428D01*
X014688Y076408D01*
X014725Y076385D01*
X014759Y076358D01*
X014792Y076329D01*
X014821Y076296D01*
X014848Y076262D01*
X014871Y076225D01*
X014891Y076186D01*
X014908Y076146D01*
X014921Y076104D01*
X014930Y076062D01*
X014936Y076019D01*
X014938Y075975D01*
X016055Y073270D02*
X016078Y073268D01*
X016101Y073263D01*
X016123Y073254D01*
X016143Y073241D01*
X016161Y073226D01*
X016176Y073208D01*
X016189Y073188D01*
X016198Y073166D01*
X016203Y073143D01*
X016205Y073120D01*
X016205Y072700D01*
X016205Y072300D01*
X016205Y071880D01*
X016203Y071857D01*
X016198Y071834D01*
X016189Y071812D01*
X016176Y071792D01*
X016161Y071774D01*
X016143Y071759D01*
X016123Y071746D01*
X016101Y071737D01*
X016078Y071732D01*
X016055Y071730D01*
X016205Y072300D02*
X016178Y072302D01*
X016151Y072307D01*
X016125Y072317D01*
X016101Y072329D01*
X016079Y072345D01*
X016059Y072363D01*
X016042Y072385D01*
X016027Y072408D01*
X016017Y072433D01*
X016009Y072459D01*
X016005Y072486D01*
X016005Y072514D01*
X016009Y072541D01*
X016017Y072567D01*
X016027Y072592D01*
X016042Y072615D01*
X016059Y072637D01*
X016079Y072655D01*
X016101Y072671D01*
X016125Y072683D01*
X016151Y072693D01*
X016178Y072698D01*
X016205Y072700D01*
X015954Y065772D02*
X013314Y065772D01*
X013291Y065770D01*
X013268Y065765D01*
X013246Y065756D01*
X013226Y065743D01*
X013208Y065728D01*
X013193Y065710D01*
X013180Y065690D01*
X013171Y065668D01*
X013166Y065645D01*
X013164Y065622D01*
X013164Y061322D01*
X013166Y061299D01*
X013171Y061276D01*
X013180Y061254D01*
X013193Y061234D01*
X013208Y061216D01*
X013226Y061201D01*
X013246Y061188D01*
X013268Y061179D01*
X013291Y061174D01*
X013314Y061172D01*
X014134Y061172D01*
X015134Y061172D01*
X015954Y061172D01*
X015977Y061174D01*
X016000Y061179D01*
X016022Y061188D01*
X016042Y061201D01*
X016060Y061216D01*
X016075Y061234D01*
X016088Y061254D01*
X016097Y061276D01*
X016102Y061299D01*
X016104Y061322D01*
X016104Y065622D01*
X016102Y065645D01*
X016097Y065668D01*
X016088Y065690D01*
X016075Y065710D01*
X016060Y065728D01*
X016042Y065743D01*
X016022Y065756D01*
X016000Y065765D01*
X015977Y065770D01*
X015954Y065772D01*
X015134Y061172D02*
X015132Y061216D01*
X015126Y061259D01*
X015117Y061301D01*
X015104Y061343D01*
X015087Y061383D01*
X015067Y061422D01*
X015044Y061459D01*
X015017Y061493D01*
X014988Y061526D01*
X014955Y061555D01*
X014921Y061582D01*
X014884Y061605D01*
X014845Y061625D01*
X014805Y061642D01*
X014763Y061655D01*
X014721Y061664D01*
X014678Y061670D01*
X014634Y061672D01*
X014590Y061670D01*
X014547Y061664D01*
X014505Y061655D01*
X014463Y061642D01*
X014423Y061625D01*
X014384Y061605D01*
X014347Y061582D01*
X014313Y061555D01*
X014280Y061526D01*
X014251Y061493D01*
X014224Y061459D01*
X014201Y061422D01*
X014181Y061383D01*
X014164Y061343D01*
X014151Y061301D01*
X014142Y061259D01*
X014136Y061216D01*
X014134Y061172D01*
X012336Y058518D02*
X012313Y058516D01*
X012290Y058511D01*
X012268Y058502D01*
X012248Y058489D01*
X012230Y058474D01*
X012215Y058456D01*
X012202Y058436D01*
X012193Y058414D01*
X012188Y058391D01*
X012186Y058368D01*
X012186Y057128D01*
X012188Y057105D01*
X012193Y057082D01*
X012202Y057060D01*
X012215Y057040D01*
X012230Y057022D01*
X012248Y057007D01*
X012268Y056994D01*
X012290Y056985D01*
X012313Y056980D01*
X012336Y056978D01*
X016036Y056978D02*
X016059Y056980D01*
X016082Y056985D01*
X016104Y056994D01*
X016124Y057007D01*
X016142Y057022D01*
X016157Y057040D01*
X016170Y057060D01*
X016179Y057082D01*
X016184Y057105D01*
X016186Y057128D01*
X016186Y057548D01*
X016186Y057948D01*
X016186Y058368D01*
X016184Y058391D01*
X016179Y058414D01*
X016170Y058436D01*
X016157Y058456D01*
X016142Y058474D01*
X016124Y058489D01*
X016104Y058502D01*
X016082Y058511D01*
X016059Y058516D01*
X016036Y058518D01*
X016186Y057948D02*
X016159Y057946D01*
X016132Y057941D01*
X016106Y057931D01*
X016082Y057919D01*
X016060Y057903D01*
X016040Y057885D01*
X016023Y057863D01*
X016008Y057840D01*
X015998Y057815D01*
X015990Y057789D01*
X015986Y057762D01*
X015986Y057734D01*
X015990Y057707D01*
X015998Y057681D01*
X016008Y057656D01*
X016023Y057633D01*
X016040Y057611D01*
X016060Y057593D01*
X016082Y057577D01*
X016106Y057565D01*
X016132Y057555D01*
X016159Y057550D01*
X016186Y057548D01*
X022928Y063811D02*
X023348Y063811D01*
X023748Y063811D01*
X024168Y063811D01*
X024191Y063813D01*
X024214Y063818D01*
X024236Y063827D01*
X024256Y063840D01*
X024274Y063855D01*
X024289Y063873D01*
X024302Y063893D01*
X024311Y063915D01*
X024316Y063938D01*
X024318Y063961D01*
X023748Y063811D02*
X023746Y063838D01*
X023741Y063865D01*
X023731Y063891D01*
X023719Y063915D01*
X023703Y063937D01*
X023685Y063957D01*
X023663Y063974D01*
X023640Y063989D01*
X023615Y063999D01*
X023589Y064007D01*
X023562Y064011D01*
X023534Y064011D01*
X023507Y064007D01*
X023481Y063999D01*
X023456Y063989D01*
X023433Y063974D01*
X023411Y063957D01*
X023393Y063937D01*
X023377Y063915D01*
X023365Y063891D01*
X023355Y063865D01*
X023350Y063838D01*
X023348Y063811D01*
X022928Y063811D02*
X022905Y063813D01*
X022882Y063818D01*
X022860Y063827D01*
X022840Y063840D01*
X022822Y063855D01*
X022807Y063873D01*
X022794Y063893D01*
X022785Y063915D01*
X022780Y063938D01*
X022778Y063961D01*
X022778Y067661D02*
X022780Y067684D01*
X022785Y067707D01*
X022794Y067729D01*
X022807Y067749D01*
X022822Y067767D01*
X022840Y067782D01*
X022860Y067795D01*
X022882Y067804D01*
X022905Y067809D01*
X022928Y067811D01*
X024168Y067811D01*
X024191Y067809D01*
X024214Y067804D01*
X024236Y067795D01*
X024256Y067782D01*
X024274Y067767D01*
X024289Y067749D01*
X024302Y067729D01*
X024311Y067707D01*
X024316Y067684D01*
X024318Y067661D01*
X025753Y071195D02*
X021453Y071195D01*
X021430Y071197D01*
X021407Y071202D01*
X021385Y071211D01*
X021365Y071224D01*
X021347Y071239D01*
X021332Y071257D01*
X021319Y071277D01*
X021310Y071299D01*
X021305Y071322D01*
X021303Y071345D01*
X021303Y072165D01*
X021303Y073165D01*
X021303Y073985D01*
X021305Y074008D01*
X021310Y074031D01*
X021319Y074053D01*
X021332Y074073D01*
X021347Y074091D01*
X021365Y074106D01*
X021385Y074119D01*
X021407Y074128D01*
X021430Y074133D01*
X021453Y074135D01*
X025753Y074135D01*
X025776Y074133D01*
X025799Y074128D01*
X025821Y074119D01*
X025841Y074106D01*
X025859Y074091D01*
X025874Y074073D01*
X025887Y074053D01*
X025896Y074031D01*
X025901Y074008D01*
X025903Y073985D01*
X025903Y071345D01*
X025901Y071322D01*
X025896Y071299D01*
X025887Y071277D01*
X025874Y071257D01*
X025859Y071239D01*
X025841Y071224D01*
X025821Y071211D01*
X025799Y071202D01*
X025776Y071197D01*
X025753Y071195D01*
X021303Y072165D02*
X021347Y072167D01*
X021390Y072173D01*
X021432Y072182D01*
X021474Y072195D01*
X021514Y072212D01*
X021553Y072232D01*
X021590Y072255D01*
X021624Y072282D01*
X021657Y072311D01*
X021686Y072344D01*
X021713Y072378D01*
X021736Y072415D01*
X021756Y072454D01*
X021773Y072494D01*
X021786Y072536D01*
X021795Y072578D01*
X021801Y072621D01*
X021803Y072665D01*
X021801Y072709D01*
X021795Y072752D01*
X021786Y072794D01*
X021773Y072836D01*
X021756Y072876D01*
X021736Y072915D01*
X021713Y072952D01*
X021686Y072986D01*
X021657Y073019D01*
X021624Y073048D01*
X021590Y073075D01*
X021553Y073098D01*
X021514Y073118D01*
X021474Y073135D01*
X021432Y073148D01*
X021390Y073157D01*
X021347Y073163D01*
X021303Y073165D01*
X031020Y073336D02*
X031020Y072916D01*
X031020Y072516D01*
X031020Y072096D01*
X031022Y072073D01*
X031027Y072050D01*
X031036Y072028D01*
X031049Y072008D01*
X031064Y071990D01*
X031082Y071975D01*
X031102Y071962D01*
X031124Y071953D01*
X031147Y071948D01*
X031170Y071946D01*
X031020Y072516D02*
X031047Y072518D01*
X031074Y072523D01*
X031100Y072533D01*
X031124Y072545D01*
X031146Y072561D01*
X031166Y072579D01*
X031183Y072601D01*
X031198Y072624D01*
X031208Y072649D01*
X031216Y072675D01*
X031220Y072702D01*
X031220Y072730D01*
X031216Y072757D01*
X031208Y072783D01*
X031198Y072808D01*
X031183Y072831D01*
X031166Y072853D01*
X031146Y072871D01*
X031124Y072887D01*
X031100Y072899D01*
X031074Y072909D01*
X031047Y072914D01*
X031020Y072916D01*
X031020Y073336D02*
X031022Y073359D01*
X031027Y073382D01*
X031036Y073404D01*
X031049Y073424D01*
X031064Y073442D01*
X031082Y073457D01*
X031102Y073470D01*
X031124Y073479D01*
X031147Y073484D01*
X031170Y073486D01*
X031854Y076156D02*
X034494Y076156D01*
X034517Y076158D01*
X034540Y076163D01*
X034562Y076172D01*
X034582Y076185D01*
X034600Y076200D01*
X034615Y076218D01*
X034628Y076238D01*
X034637Y076260D01*
X034642Y076283D01*
X034644Y076306D01*
X034644Y080606D01*
X034642Y080629D01*
X034637Y080652D01*
X034628Y080674D01*
X034615Y080694D01*
X034600Y080712D01*
X034582Y080727D01*
X034562Y080740D01*
X034540Y080749D01*
X034517Y080754D01*
X034494Y080756D01*
X033674Y080756D01*
X032674Y080756D01*
X031854Y080756D01*
X031831Y080754D01*
X031808Y080749D01*
X031786Y080740D01*
X031766Y080727D01*
X031748Y080712D01*
X031733Y080694D01*
X031720Y080674D01*
X031711Y080652D01*
X031706Y080629D01*
X031704Y080606D01*
X031704Y076306D01*
X031706Y076283D01*
X031711Y076260D01*
X031720Y076238D01*
X031733Y076218D01*
X031748Y076200D01*
X031766Y076185D01*
X031786Y076172D01*
X031808Y076163D01*
X031831Y076158D01*
X031854Y076156D01*
X032674Y080756D02*
X032676Y080712D01*
X032682Y080669D01*
X032691Y080627D01*
X032704Y080585D01*
X032721Y080545D01*
X032741Y080506D01*
X032764Y080469D01*
X032791Y080435D01*
X032820Y080402D01*
X032853Y080373D01*
X032887Y080346D01*
X032924Y080323D01*
X032963Y080303D01*
X033003Y080286D01*
X033045Y080273D01*
X033087Y080264D01*
X033130Y080258D01*
X033174Y080256D01*
X033218Y080258D01*
X033261Y080264D01*
X033303Y080273D01*
X033345Y080286D01*
X033385Y080303D01*
X033424Y080323D01*
X033461Y080346D01*
X033495Y080373D01*
X033528Y080402D01*
X033557Y080435D01*
X033584Y080469D01*
X033607Y080506D01*
X033627Y080545D01*
X033644Y080585D01*
X033657Y080627D01*
X033666Y080669D01*
X033672Y080712D01*
X033674Y080756D01*
X034870Y073486D02*
X034893Y073484D01*
X034916Y073479D01*
X034938Y073470D01*
X034958Y073457D01*
X034976Y073442D01*
X034991Y073424D01*
X035004Y073404D01*
X035013Y073382D01*
X035018Y073359D01*
X035020Y073336D01*
X035020Y072096D01*
X035018Y072073D01*
X035013Y072050D01*
X035004Y072028D01*
X034991Y072008D01*
X034976Y071990D01*
X034958Y071975D01*
X034938Y071962D01*
X034916Y071953D01*
X034893Y071948D01*
X034870Y071946D01*
X038591Y074244D02*
X038591Y075244D01*
X039591Y075244D01*
X039591Y083244D01*
X038591Y083244D01*
X038591Y075244D01*
X038841Y074994D01*
X039341Y074994D02*
X039591Y075244D01*
X039591Y074244D01*
X039341Y074494D01*
X039591Y074244D02*
X038591Y074244D01*
X038841Y074494D01*
X040871Y074498D02*
X040871Y074998D01*
X041121Y075248D01*
X042621Y075248D01*
X042871Y074998D01*
X042871Y074498D01*
X042621Y074248D01*
X041121Y074248D01*
X040871Y074498D01*
X041121Y074248D02*
X040871Y073998D01*
X040871Y073498D01*
X041121Y073248D01*
X040871Y072998D01*
X040871Y072498D01*
X041121Y072248D01*
X042621Y072248D01*
X042871Y072498D01*
X042871Y072998D01*
X042621Y073248D01*
X041121Y073248D01*
X041121Y075248D02*
X040871Y075498D01*
X040871Y075998D01*
X041121Y076248D01*
X042621Y076248D01*
X042871Y075998D01*
X042871Y075498D01*
X042621Y075248D01*
X042621Y076248D02*
X042871Y076498D01*
X042871Y076998D01*
X042621Y077248D01*
X041121Y077248D01*
X040871Y077498D01*
X040871Y077998D01*
X041121Y078248D01*
X042621Y078248D01*
X042871Y077998D01*
X042871Y077498D01*
X042621Y077248D01*
X042621Y078248D02*
X042871Y078498D01*
X042871Y078998D01*
X042621Y079248D01*
X041121Y079248D01*
X040871Y078998D01*
X040871Y078498D01*
X041121Y078248D01*
X041121Y079248D02*
X040871Y079498D01*
X040871Y079998D01*
X041121Y080248D01*
X042621Y080248D01*
X042871Y079998D01*
X042871Y079498D01*
X042621Y079248D01*
X042621Y080248D02*
X042871Y080498D01*
X042871Y080998D01*
X042621Y081248D01*
X041121Y081248D01*
X040871Y080998D01*
X040871Y080498D01*
X041121Y080248D01*
X041121Y081248D02*
X040871Y081498D01*
X040871Y081998D01*
X041121Y082248D01*
X042621Y082248D01*
X042871Y081998D01*
X042871Y081498D01*
X042621Y081248D01*
X042621Y082248D02*
X042871Y082498D01*
X042871Y082998D01*
X042621Y083248D01*
X041121Y083248D01*
X040871Y082998D01*
X040871Y082498D01*
X041121Y082248D01*
X041121Y083248D02*
X040871Y083498D01*
X040871Y083998D01*
X041121Y084248D01*
X042621Y084248D01*
X042871Y083998D01*
X042871Y083498D01*
X042621Y083248D01*
X042621Y084248D02*
X042871Y084498D01*
X042871Y084998D01*
X042621Y085248D01*
X041121Y085248D01*
X040871Y084998D01*
X040871Y084498D01*
X041121Y084248D01*
X041121Y077248D02*
X040871Y076998D01*
X040871Y076498D01*
X041121Y076248D01*
X042621Y074248D02*
X042871Y073998D01*
X042871Y073498D01*
X042621Y073248D01*
X042613Y067913D02*
X041113Y067913D01*
X040863Y067663D01*
X040863Y067163D01*
X041113Y066913D01*
X042613Y066913D01*
X042863Y066663D01*
X042863Y066163D01*
X042613Y065913D01*
X041113Y065913D01*
X040863Y065663D01*
X040863Y065163D01*
X041113Y064913D01*
X042613Y064913D01*
X042863Y064663D01*
X042863Y064163D01*
X042613Y063913D01*
X041113Y063913D01*
X040863Y063663D01*
X040863Y063163D01*
X041113Y062913D01*
X042613Y062913D01*
X042863Y062663D01*
X042863Y062163D01*
X042613Y061913D01*
X041113Y061913D01*
X040863Y061663D01*
X040863Y061163D01*
X041113Y060913D01*
X042613Y060913D01*
X042863Y060663D01*
X042863Y060163D01*
X042613Y059913D01*
X041113Y059913D01*
X040863Y060163D01*
X040863Y060663D01*
X041113Y060913D01*
X041113Y059913D02*
X040863Y059663D01*
X040863Y059163D01*
X041113Y058913D01*
X042613Y058913D01*
X042863Y058663D01*
X042863Y058163D01*
X042613Y057913D01*
X041113Y057913D01*
X040863Y058163D01*
X040863Y058663D01*
X041113Y058913D01*
X041113Y057913D02*
X040863Y057663D01*
X040863Y057163D01*
X041113Y056913D01*
X042613Y056913D01*
X042863Y056663D01*
X042863Y056163D01*
X042613Y055913D01*
X042863Y055663D01*
X042863Y055163D01*
X042613Y054913D01*
X041113Y054913D01*
X040863Y055163D01*
X040863Y055663D01*
X041113Y055913D01*
X042613Y055913D01*
X042613Y056913D02*
X042863Y057163D01*
X042863Y057663D01*
X042613Y057913D01*
X042613Y058913D02*
X042863Y059163D01*
X042863Y059663D01*
X042613Y059913D01*
X042613Y060913D02*
X042863Y061163D01*
X042863Y061663D01*
X042613Y061913D01*
X042613Y062913D02*
X042863Y063163D01*
X042863Y063663D01*
X042613Y063913D01*
X042613Y064913D02*
X042863Y065163D01*
X042863Y065663D01*
X042613Y065913D01*
X042613Y066913D02*
X042863Y067163D01*
X042863Y067663D01*
X042613Y067913D01*
X041113Y066913D02*
X040863Y066663D01*
X040863Y066163D01*
X041113Y065913D01*
X041113Y064913D02*
X040863Y064663D01*
X040863Y064163D01*
X041113Y063913D01*
X041113Y062913D02*
X040863Y062663D01*
X040863Y062163D01*
X041113Y061913D01*
X039650Y057921D02*
X039400Y057671D01*
X039650Y057921D02*
X039650Y056921D01*
X039400Y057171D01*
X039650Y056921D02*
X038650Y056921D01*
X038650Y057921D01*
X039650Y057921D01*
X039650Y065921D01*
X038650Y065921D01*
X038650Y057921D01*
X038900Y057671D01*
X038900Y057171D02*
X038650Y056921D01*
X040863Y056663D02*
X040863Y056163D01*
X041113Y055913D01*
X040863Y056663D02*
X041113Y056913D01*
X034910Y057324D02*
X034910Y056084D01*
X034908Y056061D01*
X034903Y056038D01*
X034894Y056016D01*
X034881Y055996D01*
X034866Y055978D01*
X034848Y055963D01*
X034828Y055950D01*
X034806Y055941D01*
X034783Y055936D01*
X034760Y055934D01*
X034910Y057324D02*
X034908Y057347D01*
X034903Y057370D01*
X034894Y057392D01*
X034881Y057412D01*
X034866Y057430D01*
X034848Y057445D01*
X034828Y057458D01*
X034806Y057467D01*
X034783Y057472D01*
X034760Y057474D01*
X034230Y059798D02*
X031590Y059798D01*
X031567Y059800D01*
X031544Y059805D01*
X031522Y059814D01*
X031502Y059827D01*
X031484Y059842D01*
X031469Y059860D01*
X031456Y059880D01*
X031447Y059902D01*
X031442Y059925D01*
X031440Y059948D01*
X031440Y064248D01*
X031442Y064271D01*
X031447Y064294D01*
X031456Y064316D01*
X031469Y064336D01*
X031484Y064354D01*
X031502Y064369D01*
X031522Y064382D01*
X031544Y064391D01*
X031567Y064396D01*
X031590Y064398D01*
X032410Y064398D01*
X033410Y064398D01*
X034230Y064398D01*
X034253Y064396D01*
X034276Y064391D01*
X034298Y064382D01*
X034318Y064369D01*
X034336Y064354D01*
X034351Y064336D01*
X034364Y064316D01*
X034373Y064294D01*
X034378Y064271D01*
X034380Y064248D01*
X034380Y059948D01*
X034378Y059925D01*
X034373Y059902D01*
X034364Y059880D01*
X034351Y059860D01*
X034336Y059842D01*
X034318Y059827D01*
X034298Y059814D01*
X034276Y059805D01*
X034253Y059800D01*
X034230Y059798D01*
X033410Y064398D02*
X033408Y064354D01*
X033402Y064311D01*
X033393Y064269D01*
X033380Y064227D01*
X033363Y064187D01*
X033343Y064148D01*
X033320Y064111D01*
X033293Y064077D01*
X033264Y064044D01*
X033231Y064015D01*
X033197Y063988D01*
X033160Y063965D01*
X033121Y063945D01*
X033081Y063928D01*
X033039Y063915D01*
X032997Y063906D01*
X032954Y063900D01*
X032910Y063898D01*
X032866Y063900D01*
X032823Y063906D01*
X032781Y063915D01*
X032739Y063928D01*
X032699Y063945D01*
X032660Y063965D01*
X032623Y063988D01*
X032589Y064015D01*
X032556Y064044D01*
X032527Y064077D01*
X032500Y064111D01*
X032477Y064148D01*
X032457Y064187D01*
X032440Y064227D01*
X032427Y064269D01*
X032418Y064311D01*
X032412Y064354D01*
X032410Y064398D01*
X031060Y057474D02*
X031037Y057472D01*
X031014Y057467D01*
X030992Y057458D01*
X030972Y057445D01*
X030954Y057430D01*
X030939Y057412D01*
X030926Y057392D01*
X030917Y057370D01*
X030912Y057347D01*
X030910Y057324D01*
X030910Y056904D01*
X030910Y056504D01*
X030910Y056084D01*
X030912Y056061D01*
X030917Y056038D01*
X030926Y056016D01*
X030939Y055996D01*
X030954Y055978D01*
X030972Y055963D01*
X030992Y055950D01*
X031014Y055941D01*
X031037Y055936D01*
X031060Y055934D01*
X030910Y056504D02*
X030937Y056506D01*
X030964Y056511D01*
X030990Y056521D01*
X031014Y056533D01*
X031036Y056549D01*
X031056Y056567D01*
X031073Y056589D01*
X031088Y056612D01*
X031098Y056637D01*
X031106Y056663D01*
X031110Y056690D01*
X031110Y056718D01*
X031106Y056745D01*
X031098Y056771D01*
X031088Y056796D01*
X031073Y056819D01*
X031056Y056841D01*
X031036Y056859D01*
X031014Y056875D01*
X030990Y056887D01*
X030964Y056897D01*
X030937Y056902D01*
X030910Y056904D01*
D11*
X030910Y056074D02*
X034910Y056074D01*
X031580Y059798D02*
X031580Y064398D01*
X031020Y072086D02*
X035020Y072086D01*
X031844Y076156D02*
X031844Y080756D01*
X025903Y071335D02*
X021303Y071335D01*
X024178Y067811D02*
X024178Y063811D01*
X015964Y065772D02*
X015964Y061172D01*
X016186Y058378D02*
X012186Y058378D01*
X012205Y073130D02*
X016205Y073130D01*
X015768Y075975D02*
X015768Y080575D01*
D12*
X015933Y080275D03*
X015933Y079775D03*
X015933Y079275D03*
X015933Y078775D03*
X015933Y078275D03*
X015933Y077775D03*
X015933Y077275D03*
X015933Y076775D03*
X015933Y076275D03*
X012943Y076275D03*
X012943Y076775D03*
X012943Y077275D03*
X012943Y077775D03*
X012943Y078275D03*
X012943Y078775D03*
X012943Y079275D03*
X012943Y079775D03*
X012943Y080275D03*
X013139Y065472D03*
X013139Y064972D03*
X013139Y064472D03*
X013139Y063972D03*
X013139Y063472D03*
X013139Y062972D03*
X013139Y062472D03*
X013139Y061972D03*
X013139Y061472D03*
X016129Y061472D03*
X016129Y061972D03*
X016129Y062472D03*
X016129Y062972D03*
X016129Y063472D03*
X016129Y063972D03*
X016129Y064472D03*
X016129Y064972D03*
X016129Y065472D03*
X031415Y064098D03*
X031415Y063598D03*
X031415Y063098D03*
X031415Y062598D03*
X031415Y062098D03*
X031415Y061598D03*
X031415Y061098D03*
X031415Y060598D03*
X031415Y060098D03*
X034405Y060098D03*
X034405Y060598D03*
X034405Y061098D03*
X034405Y061598D03*
X034405Y062098D03*
X034405Y062598D03*
X034405Y063098D03*
X034405Y063598D03*
X034405Y064098D03*
X034669Y076456D03*
X034669Y076956D03*
X034669Y077456D03*
X034669Y077956D03*
X034669Y078456D03*
X034669Y078956D03*
X034669Y079456D03*
X034669Y079956D03*
X034669Y080456D03*
X031679Y080456D03*
X031679Y079956D03*
X031679Y079456D03*
X031679Y078956D03*
X031679Y078456D03*
X031679Y077956D03*
X031679Y077456D03*
X031679Y076956D03*
X031679Y076456D03*
D13*
X025603Y074160D03*
X025103Y074160D03*
X024603Y074160D03*
X024103Y074160D03*
X023603Y074160D03*
X023103Y074160D03*
X022603Y074160D03*
X022103Y074160D03*
X021603Y074160D03*
X021603Y071170D03*
X022103Y071170D03*
X022603Y071170D03*
X023103Y071170D03*
X023603Y071170D03*
X024103Y071170D03*
X024603Y071170D03*
X025103Y071170D03*
X025603Y071170D03*
D14*
X041371Y072748D03*
X041371Y073748D03*
X041371Y074748D03*
X041371Y075748D03*
X041371Y076748D03*
X041371Y077748D03*
X041371Y078748D03*
X041371Y079748D03*
X041371Y080748D03*
X041371Y081748D03*
X041371Y082748D03*
X041371Y083748D03*
X041371Y084748D03*
X042371Y084748D03*
X042371Y083748D03*
X042371Y082748D03*
X042371Y081748D03*
X042371Y080748D03*
X042371Y079748D03*
X042371Y078748D03*
X042371Y077748D03*
X042371Y076748D03*
X042371Y075748D03*
X042371Y074748D03*
X042371Y073748D03*
X042371Y072748D03*
X042363Y067413D03*
X042363Y066413D03*
X042363Y065413D03*
X042363Y064413D03*
X042363Y063413D03*
X042363Y062413D03*
X042363Y061413D03*
X042363Y060413D03*
X042363Y059413D03*
X042363Y058413D03*
X042363Y057413D03*
X042363Y056413D03*
X042363Y055413D03*
X041363Y055413D03*
X041363Y056413D03*
X041363Y057413D03*
X041363Y058413D03*
X041363Y059413D03*
X041363Y060413D03*
X041363Y061413D03*
X041363Y062413D03*
X041363Y063413D03*
X041363Y064413D03*
X041363Y065413D03*
X041363Y066413D03*
X041363Y067413D03*
X007079Y067031D03*
X007079Y066031D03*
X007079Y065031D03*
X006079Y065031D03*
X006079Y066031D03*
X006079Y067031D03*
X006079Y064031D03*
X006079Y063031D03*
X006079Y062031D03*
X006079Y061031D03*
X006079Y060031D03*
X006079Y059031D03*
X006079Y058031D03*
X006079Y057031D03*
X006079Y056031D03*
X006079Y055031D03*
X007079Y055031D03*
X007079Y056031D03*
X007079Y057031D03*
X007079Y058031D03*
X007079Y059031D03*
X007079Y060031D03*
X007079Y061031D03*
X007079Y062031D03*
X007079Y063031D03*
X007079Y064031D03*
X007099Y072354D03*
X007099Y073354D03*
X007099Y074354D03*
X007099Y075354D03*
X006099Y075354D03*
X006099Y074354D03*
X006099Y073354D03*
X006099Y072354D03*
X006099Y076354D03*
X006099Y077354D03*
X006099Y078354D03*
X006099Y079354D03*
X006099Y080354D03*
X006099Y081354D03*
X006099Y082354D03*
X006099Y083354D03*
X006099Y084354D03*
X007099Y084354D03*
X007099Y083354D03*
X007099Y082354D03*
X007099Y081354D03*
X007099Y080354D03*
X007099Y079354D03*
X007099Y078354D03*
X007099Y077354D03*
X007099Y076354D03*
D15*
X019162Y057842D02*
X019162Y054299D01*
X027115Y054299D01*
X027115Y054338D02*
X027115Y057842D01*
X024005Y057842D01*
X024005Y057252D01*
X022272Y057252D01*
X022272Y057842D01*
X024005Y057842D01*
X024888Y057163D02*
X025388Y057163D01*
X022272Y057842D02*
X019162Y057842D01*
X019674Y082606D02*
X019674Y086149D01*
X022784Y086149D01*
X022784Y085559D01*
X024516Y085559D01*
X024516Y086149D01*
X027627Y086149D01*
X027627Y082645D01*
X027627Y082606D02*
X019674Y082606D01*
X022784Y086149D02*
X024516Y086149D01*
X025400Y085470D02*
X025900Y085470D01*
D16*
X027115Y048823D02*
X019115Y048823D01*
X019115Y052208D01*
X020115Y052208D01*
X020115Y049208D01*
X020115Y052208D02*
X022115Y052208D01*
X022115Y049208D01*
X022115Y052208D02*
X024115Y052208D01*
X024115Y049208D01*
X024115Y052208D02*
X026115Y052208D01*
X026115Y049208D01*
X027115Y048823D02*
X027115Y052208D01*
X026115Y052208D01*
X027115Y052208D02*
X027115Y053614D01*
X019111Y053614D01*
X019115Y053610D02*
X019115Y052208D01*
X019662Y086480D02*
X027666Y086480D01*
X027662Y086484D02*
X027662Y087885D01*
X026662Y087885D01*
X026662Y090885D01*
X027662Y091271D02*
X019662Y091271D01*
X019662Y087885D01*
X020662Y087885D01*
X020662Y090885D01*
X020662Y087885D02*
X022662Y087885D01*
X022662Y090885D01*
X022662Y087885D02*
X024662Y087885D01*
X024662Y090885D01*
X024662Y087885D02*
X026662Y087885D01*
X027662Y087885D02*
X027662Y091271D01*
X019662Y087885D02*
X019662Y086480D01*
M02*
