%
M48
M72
T01C0.0197
T02C0.0236
T03C0.0276
T04C0.0320
T05C0.0400
T06C0.0433
T07C0.0551
T08C0.1260
%
T01
X13936Y55588
X13436Y55884
X14438Y55874
X14936Y55584
X14936Y59679
X14436Y60006
X13936Y59624
X13436Y60006
X15264Y62488
X15501Y62960
X15264Y63472
X15501Y63984
X15264Y64456
X15501Y64968
X15272Y65472
X15501Y61976
X15816Y61464
X12981Y69023
X13453Y70362
X13965Y70637
X14461Y70362
X14949Y70637
X14949Y74338
X14461Y74618
X13965Y74338
X13453Y74614
X13296Y77015
X14949Y76740
X15186Y77252
X14949Y77763
X15186Y78275
X14949Y78787
X15186Y79260
X14938Y79767
X16367Y75913
X16879Y75559
X21516Y71602
X22107Y71799
X22619Y72035
X23091Y71799
X23603Y72035
X24115Y71799
X24627Y72035
X25138Y71799
X25611Y72035
X23737Y69326
X25451Y66061
X25796Y66567
X25816Y65559
X25457Y65055
X23571Y64063
X21682Y64023
X21695Y65061
X21487Y65561
X21692Y66061
X21485Y66582
X22115Y69653
X21012Y62252
X28060Y80952
X28611Y80952
X27839Y83720
X27942Y84653
X31957Y80401
X32347Y79952
X32071Y79441
X32308Y78968
X32071Y78456
X32308Y77984
X32071Y77472
X32308Y76960
X32764Y74885
X32272Y74574
X33280Y74582
X33768Y74889
X33768Y70874
X33272Y70677
X32770Y70887
X32272Y70637
X33768Y69417
X34516Y67606
X35107Y67882
X35619Y68157
X36091Y68433
X37036Y67685
X38020Y67409
X39556Y67409
X39477Y66385
X33650Y58905
X33158Y58590
X32666Y58905
X32178Y58594
X32280Y60090
X32044Y60602
X32280Y61074
X32044Y61586
X32280Y62098
X32005Y62571
X32280Y63082
X32005Y63594
X31682Y64141
X30579Y59496
X32154Y54850
X32660Y54580
X33162Y54830
X33660Y54584
X37587Y80913
X37154Y81228
X36721Y81543
X36288Y81858
X39044Y83748
X39438Y84771
X41347Y84771
X9308Y81354
X8611Y80362
X9320Y64023
X9320Y63039
T02
X9201Y64811
X9989Y65598
X10776Y66385
X10973Y67370
X9989Y67370
X9005Y67370
X8938Y68157
X9005Y68945
X7276Y68819
X7276Y70000
X7627Y71110
X9005Y66189
X10579Y68945
X10973Y70519
X10383Y71110
X11327Y72370
X12745Y72488
X12745Y72488
X12591Y74921
X13335Y78197
X13257Y80401
X14713Y82330
X13926Y82921
X13926Y83708
X13926Y84496
X14910Y84496
X15894Y84496
X15894Y84496
X16879Y84496
X16879Y84496
X17863Y84496
X17863Y84496
X18847Y84496
X19871Y84496
X20697Y84023
X20697Y82921
X21091Y81425
X19634Y82330
X18650Y82330
X17666Y82330
X16682Y82330
X15697Y82330
X15501Y80362
X17430Y78078
X19162Y78984
X18926Y80047
X18375Y80441
X19796Y78830
X20194Y78275
X20575Y77724
X21005Y77173
X21308Y76614
X21087Y75535
X21036Y74445
X22784Y73669
X24658Y76063
X25654Y75878
X25867Y76618
X26272Y77177
X26662Y77724
X27075Y78275
X27473Y78819
X27831Y79382
X29201Y80952
X29910Y80913
X30107Y79929
X31012Y80913
X30658Y83511
X29871Y83708
X29871Y84496
X29871Y85283
X30855Y85283
X31839Y85283
X32823Y85283
X33808Y85283
X34792Y85283
X35186Y84102
X35776Y84693
X35776Y85283
X36957Y83748
X37272Y84771
X34595Y83511
X33611Y83511
X32627Y83511
X31642Y83511
X32745Y81425
X32071Y76448
X31760Y74889
X30619Y75992
X30461Y73669
X29681Y71314
X29078Y70908
X28491Y70518
X27897Y70124
X27322Y69742
X26707Y69324
X25737Y67173
X24556Y68354
X23571Y67370
X23052Y67913
X23571Y65401
X23099Y64574
X22312Y62527
X23138Y62212
X22627Y61031
X22312Y58905
X21512Y59547
X20619Y59496
X20028Y59496
X19438Y59496
X18847Y59496
X18257Y59496
X17666Y59496
X17194Y60559
X16642Y60874
X15934Y59653
X15434Y59976
X15701Y57952
X15461Y55913
X16512Y55767
X17103Y56752
X17497Y55767
X18481Y55767
X18953Y57106
X18323Y57697
X17654Y54626
X17182Y53996
X16434Y54626
X14741Y54193
X13560Y54193
X12508Y55126
X12788Y57992
X12575Y60689
X14150Y61279
X12587Y65952
X13768Y67134
X14150Y66200
X14544Y67972
X15331Y68563
X15922Y67775
X16445Y67134
X16879Y66071
X17351Y66582
X15725Y66200
X14938Y69744
X15461Y70323
X15501Y72685
X16918Y74456
X16918Y75008
X12942Y68157
X10501Y80992
X10973Y82330
X10776Y84496
X9398Y84496
X9438Y83315
X8375Y82370
X8020Y83315
X8020Y84496
X12154Y84496
X12154Y83118
X19404Y66423
X19940Y65884
X20475Y65348
X21481Y64555
X21012Y61543
X21131Y53905
X18481Y53799
X25343Y59299
X25934Y59299
X26524Y59299
X27115Y59299
X27705Y59299
X28296Y59299
X28138Y58000
X27575Y57027
X28245Y56397
X28087Y54980
X28087Y53996
X27339Y53681
X26434Y54074
X27103Y55334
X26524Y55779
X27154Y58000
X29556Y58000
X29741Y56948
X30646Y56397
X31162Y54854
X31662Y54618
X32457Y56279
X31670Y56948
X30579Y58000
X31131Y59260
X31662Y58862
X32154Y59417
X33138Y59417
X35213Y59429
X35461Y60086
X35213Y57145
X35134Y55019
X35095Y54271
X34229Y54704
X35934Y55126
X36788Y55019
X37575Y54271
X38284Y55098
X39162Y53511
X35938Y64700
X34757Y64700
X34757Y65882
X34757Y67063
X36134Y67653
X36331Y66669
X36922Y65882
X37316Y65094
X37906Y65685
X37469Y68866
X37434Y69622
X37473Y70685
X38890Y70409
X39438Y71071
X38847Y71622
X38847Y72330
X39481Y69425
X41119Y69350
X41111Y68492
X42276Y68366
X42280Y69378
X42276Y70728
X41095Y70334
X37508Y75047
X34201Y73078
X33020Y72488
X31776Y70878
X31268Y70637
X31658Y68901
X30725Y68889
X30721Y67968
X31501Y65397
X30674Y64728
X32288Y66185
X33142Y65409
X33182Y67063
X29898Y54783
X29583Y54193
X28205Y51948
X26327Y62685
X26406Y63315
X25902Y64559
X25422Y64063
X26170Y73000
X26170Y74929
X24910Y80047
X25619Y80441
X26288Y80834
X26052Y81425
X27390Y85441
X23335Y81425
T03
X39465Y54901
T04
X39150Y57421
X39150Y58421
X39150Y59421
X39150Y60421
X39150Y61421
X39150Y62421
X39150Y63421
X39150Y64421
X39150Y65421
X39091Y74744
X39091Y75744
X39091Y76744
X39091Y77744
X39091Y78744
X39091Y79744
X39091Y80744
X39091Y81744
X39091Y82744
X9264Y79350
X9264Y78350
X9264Y77350
X9264Y76350
X9264Y75350
X9264Y74350
X9264Y73350
X9264Y72350
X9264Y71350
X9300Y62027
X9300Y61027
X9300Y60027
X9300Y59027
X9300Y58027
X9300Y57027
X9300Y56027
X9300Y55027
X9300Y54027
T05
X7079Y55031
X7079Y56031
X7079Y57031
X7079Y58031
X7079Y59031
X7079Y60031
X7079Y61031
X7079Y62031
X7079Y63031
X7079Y64031
X6079Y64031
X6079Y63031
X6079Y62031
X6079Y61031
X6079Y60031
X6079Y59031
X6079Y58031
X6079Y57031
X6079Y56031
X6079Y55031
X6079Y65031
X6079Y66031
X6079Y67031
X7079Y67031
X7079Y66031
X7079Y65031
X7099Y72354
X7099Y73354
X7099Y74354
X7099Y75354
X6099Y75354
X6099Y74354
X6099Y73354
X6099Y72354
X6099Y76354
X6099Y77354
X6099Y78354
X6099Y79354
X6099Y80354
X6099Y81354
X6099Y82354
X6099Y83354
X6099Y84354
X7099Y84354
X7099Y83354
X7099Y82354
X7099Y81354
X7099Y80354
X7099Y79354
X7099Y78354
X7099Y77354
X7099Y76354
X21138Y56571
X21138Y55571
X22138Y55571
X22138Y56571
X23138Y56571
X24138Y56571
X25138Y56571
X25138Y55571
X24138Y55571
X23138Y55571
X22650Y83878
X22650Y84878
X21650Y84878
X21650Y83878
X23650Y83878
X23650Y84878
X24650Y84878
X24650Y83878
X25650Y83878
X25650Y84878
X41371Y84748
X41371Y83748
X41371Y82748
X41371Y81748
X41371Y80748
X41371Y79748
X41371Y78748
X41371Y77748
X41371Y76748
X41371Y75748
X41371Y74748
X41371Y73748
X41371Y72748
X42371Y72748
X42371Y73748
X42371Y74748
X42371Y75748
X42371Y76748
X42371Y77748
X42371Y78748
X42371Y79748
X42371Y80748
X42371Y81748
X42371Y82748
X42371Y83748
X42371Y84748
X42363Y67413
X42363Y66413
X42363Y65413
X42363Y64413
X42363Y63413
X42363Y62413
X42363Y61413
X42363Y60413
X42363Y59413
X42363Y58413
X42363Y57413
X42363Y56413
X42363Y55413
X41363Y55413
X41363Y56413
X41363Y57413
X41363Y58413
X41363Y59413
X41363Y60413
X41363Y61413
X41363Y62413
X41363Y63413
X41363Y64413
X41363Y65413
X41363Y66413
X41363Y67413
T06
X16839Y52015
T07
X20115Y52834
X22111Y52823
X24119Y52823
X26119Y52823
X26662Y87260
X24666Y87271
X22658Y87271
X20658Y87271
T08
X6052Y51228
X6052Y88630
X42233Y88630
X42272Y51228
M30
