G75*
%MOIN*%
%OFA0B0*%
%FSLAX24Y24*%
%IPPOS*%
%LPD*%
%AMOC8*
5,1,8,0,0,1.08239X$1,22.5*
%
%ADD10C,0.0060*%
%ADD11C,0.0020*%
D10*
X031172Y059846D02*
X032412Y059846D01*
X032435Y059848D01*
X032458Y059853D01*
X032480Y059862D01*
X032500Y059875D01*
X032518Y059890D01*
X032533Y059908D01*
X032546Y059928D01*
X032555Y059950D01*
X032560Y059973D01*
X032562Y059996D01*
X031172Y059846D02*
X031149Y059848D01*
X031126Y059853D01*
X031104Y059862D01*
X031084Y059875D01*
X031066Y059890D01*
X031051Y059908D01*
X031038Y059928D01*
X031029Y059950D01*
X031024Y059973D01*
X031022Y059996D01*
X031022Y063696D02*
X031024Y063719D01*
X031029Y063742D01*
X031038Y063764D01*
X031051Y063784D01*
X031066Y063802D01*
X031084Y063817D01*
X031104Y063830D01*
X031126Y063839D01*
X031149Y063844D01*
X031172Y063846D01*
X031592Y063846D01*
X031992Y063846D01*
X032412Y063846D01*
X032435Y063844D01*
X032458Y063839D01*
X032480Y063830D01*
X032500Y063817D01*
X032518Y063802D01*
X032533Y063784D01*
X032546Y063764D01*
X032555Y063742D01*
X032560Y063719D01*
X032562Y063696D01*
X031992Y063846D02*
X031990Y063819D01*
X031985Y063792D01*
X031975Y063766D01*
X031963Y063742D01*
X031947Y063720D01*
X031929Y063700D01*
X031907Y063683D01*
X031884Y063668D01*
X031859Y063658D01*
X031833Y063650D01*
X031806Y063646D01*
X031778Y063646D01*
X031751Y063650D01*
X031725Y063658D01*
X031700Y063668D01*
X031677Y063683D01*
X031655Y063700D01*
X031637Y063720D01*
X031621Y063742D01*
X031609Y063766D01*
X031599Y063792D01*
X031594Y063819D01*
X031592Y063846D01*
X025863Y070919D02*
X025863Y072159D01*
X025861Y072182D01*
X025856Y072205D01*
X025847Y072227D01*
X025834Y072247D01*
X025819Y072265D01*
X025801Y072280D01*
X025781Y072293D01*
X025759Y072302D01*
X025736Y072307D01*
X025713Y072309D01*
X025863Y070919D02*
X025861Y070896D01*
X025856Y070873D01*
X025847Y070851D01*
X025834Y070831D01*
X025819Y070813D01*
X025801Y070798D01*
X025781Y070785D01*
X025759Y070776D01*
X025736Y070771D01*
X025713Y070769D01*
X022013Y070769D02*
X021990Y070771D01*
X021967Y070776D01*
X021945Y070785D01*
X021925Y070798D01*
X021907Y070813D01*
X021892Y070831D01*
X021879Y070851D01*
X021870Y070873D01*
X021865Y070896D01*
X021863Y070919D01*
X021863Y071339D01*
X021863Y071739D01*
X021863Y072159D01*
X021865Y072182D01*
X021870Y072205D01*
X021879Y072227D01*
X021892Y072247D01*
X021907Y072265D01*
X021925Y072280D01*
X021945Y072293D01*
X021967Y072302D01*
X021990Y072307D01*
X022013Y072309D01*
X021863Y071739D02*
X021890Y071737D01*
X021917Y071732D01*
X021943Y071722D01*
X021967Y071710D01*
X021989Y071694D01*
X022009Y071676D01*
X022026Y071654D01*
X022041Y071631D01*
X022051Y071606D01*
X022059Y071580D01*
X022063Y071553D01*
X022063Y071525D01*
X022059Y071498D01*
X022051Y071472D01*
X022041Y071447D01*
X022026Y071424D01*
X022009Y071402D01*
X021989Y071384D01*
X021967Y071368D01*
X021943Y071356D01*
X021917Y071346D01*
X021890Y071341D01*
X021863Y071339D01*
X016058Y076508D02*
X015638Y076508D01*
X015238Y076508D01*
X014818Y076508D01*
X014795Y076510D01*
X014772Y076515D01*
X014750Y076524D01*
X014730Y076537D01*
X014712Y076552D01*
X014697Y076570D01*
X014684Y076590D01*
X014675Y076612D01*
X014670Y076635D01*
X014668Y076658D01*
X015238Y076508D02*
X015240Y076535D01*
X015245Y076562D01*
X015255Y076588D01*
X015267Y076612D01*
X015283Y076634D01*
X015301Y076654D01*
X015323Y076671D01*
X015346Y076686D01*
X015371Y076696D01*
X015397Y076704D01*
X015424Y076708D01*
X015452Y076708D01*
X015479Y076704D01*
X015505Y076696D01*
X015530Y076686D01*
X015553Y076671D01*
X015575Y076654D01*
X015593Y076634D01*
X015609Y076612D01*
X015621Y076588D01*
X015631Y076562D01*
X015636Y076535D01*
X015638Y076508D01*
X016058Y076508D02*
X016081Y076510D01*
X016104Y076515D01*
X016126Y076524D01*
X016146Y076537D01*
X016164Y076552D01*
X016179Y076570D01*
X016192Y076590D01*
X016201Y076612D01*
X016206Y076635D01*
X016208Y076658D01*
X016208Y080358D02*
X016206Y080381D01*
X016201Y080404D01*
X016192Y080426D01*
X016179Y080446D01*
X016164Y080464D01*
X016146Y080479D01*
X016126Y080492D01*
X016104Y080501D01*
X016081Y080506D01*
X016058Y080508D01*
X014818Y080508D01*
X014795Y080506D01*
X014772Y080501D01*
X014750Y080492D01*
X014730Y080479D01*
X014712Y080464D01*
X014697Y080446D01*
X014684Y080426D01*
X014675Y080404D01*
X014670Y080381D01*
X014668Y080358D01*
X015062Y065732D02*
X016302Y065732D01*
X016325Y065730D01*
X016348Y065725D01*
X016370Y065716D01*
X016390Y065703D01*
X016408Y065688D01*
X016423Y065670D01*
X016436Y065650D01*
X016445Y065628D01*
X016450Y065605D01*
X016452Y065582D01*
X015062Y065732D02*
X015039Y065730D01*
X015016Y065725D01*
X014994Y065716D01*
X014974Y065703D01*
X014956Y065688D01*
X014941Y065670D01*
X014928Y065650D01*
X014919Y065628D01*
X014914Y065605D01*
X014912Y065582D01*
X014912Y061882D02*
X014914Y061859D01*
X014919Y061836D01*
X014928Y061814D01*
X014941Y061794D01*
X014956Y061776D01*
X014974Y061761D01*
X014994Y061748D01*
X015016Y061739D01*
X015039Y061734D01*
X015062Y061732D01*
X015482Y061732D01*
X015882Y061732D01*
X016302Y061732D01*
X016325Y061734D01*
X016348Y061739D01*
X016370Y061748D01*
X016390Y061761D01*
X016408Y061776D01*
X016423Y061794D01*
X016436Y061814D01*
X016445Y061836D01*
X016450Y061859D01*
X016452Y061882D01*
X015882Y061732D02*
X015880Y061759D01*
X015875Y061786D01*
X015865Y061812D01*
X015853Y061836D01*
X015837Y061858D01*
X015819Y061878D01*
X015797Y061895D01*
X015774Y061910D01*
X015749Y061920D01*
X015723Y061928D01*
X015696Y061932D01*
X015668Y061932D01*
X015641Y061928D01*
X015615Y061920D01*
X015590Y061910D01*
X015567Y061895D01*
X015545Y061878D01*
X015527Y061858D01*
X015511Y061836D01*
X015499Y061812D01*
X015489Y061786D01*
X015484Y061759D01*
X015482Y061732D01*
X031475Y076224D02*
X032715Y076224D01*
X032738Y076226D01*
X032761Y076231D01*
X032783Y076240D01*
X032803Y076253D01*
X032821Y076268D01*
X032836Y076286D01*
X032849Y076306D01*
X032858Y076328D01*
X032863Y076351D01*
X032865Y076374D01*
X031475Y076224D02*
X031452Y076226D01*
X031429Y076231D01*
X031407Y076240D01*
X031387Y076253D01*
X031369Y076268D01*
X031354Y076286D01*
X031341Y076306D01*
X031332Y076328D01*
X031327Y076351D01*
X031325Y076374D01*
X031325Y080074D02*
X031327Y080097D01*
X031332Y080120D01*
X031341Y080142D01*
X031354Y080162D01*
X031369Y080180D01*
X031387Y080195D01*
X031407Y080208D01*
X031429Y080217D01*
X031452Y080222D01*
X031475Y080224D01*
X031895Y080224D01*
X032295Y080224D01*
X032715Y080224D01*
X032738Y080222D01*
X032761Y080217D01*
X032783Y080208D01*
X032803Y080195D01*
X032821Y080180D01*
X032836Y080162D01*
X032849Y080142D01*
X032858Y080120D01*
X032863Y080097D01*
X032865Y080074D01*
X032295Y080224D02*
X032293Y080197D01*
X032288Y080170D01*
X032278Y080144D01*
X032266Y080120D01*
X032250Y080098D01*
X032232Y080078D01*
X032210Y080061D01*
X032187Y080046D01*
X032162Y080036D01*
X032136Y080028D01*
X032109Y080024D01*
X032081Y080024D01*
X032054Y080028D01*
X032028Y080036D01*
X032003Y080046D01*
X031980Y080061D01*
X031958Y080078D01*
X031940Y080098D01*
X031924Y080120D01*
X031912Y080144D01*
X031902Y080170D01*
X031897Y080197D01*
X031895Y080224D01*
D11*
X032725Y080224D02*
X032725Y076224D01*
X032422Y063846D02*
X032422Y059846D01*
X025863Y072169D02*
X021863Y072169D01*
X015052Y065732D02*
X015052Y061732D01*
X014808Y076508D02*
X014808Y080508D01*
M02*
