G75*
%MOIN*%
%OFA0B0*%
%FSLAX24Y24*%
%IPPOS*%
%LPD*%
%AMOC8*
5,1,8,0,0,1.08239X$1,22.5*
%
%ADD10C,0.0520*%
%ADD11R,0.0800X0.0260*%
%ADD12R,0.0260X0.0800*%
%ADD13OC8,0.0600*%
%ADD14R,0.0591X0.0512*%
%ADD15R,0.0512X0.0591*%
%ADD16OC8,0.0740*%
%ADD17C,0.0827*%
%ADD18C,0.0160*%
%ADD19C,0.0357*%
%ADD20C,0.0396*%
%ADD21C,0.0240*%
%ADD22C,0.1660*%
%ADD23C,0.0436*%
%ADD24C,0.0650*%
%ADD25C,0.0100*%
%ADD26C,0.0320*%
%ADD27C,0.0400*%
%ADD28C,0.0500*%
%ADD29C,0.0560*%
%ADD30C,0.0660*%
D10*
X009040Y054027D02*
X009560Y054027D01*
X009560Y055027D02*
X009040Y055027D01*
X009040Y056027D02*
X009560Y056027D01*
X009560Y057027D02*
X009040Y057027D01*
X009040Y058027D02*
X009560Y058027D01*
X009560Y059027D02*
X009040Y059027D01*
X009040Y060027D02*
X009560Y060027D01*
X009560Y061027D02*
X009040Y061027D01*
X009040Y062027D02*
X009560Y062027D01*
X009524Y071350D02*
X009004Y071350D01*
X009004Y072350D02*
X009524Y072350D01*
X009524Y073350D02*
X009004Y073350D01*
X009004Y074350D02*
X009524Y074350D01*
X009524Y075350D02*
X009004Y075350D01*
X009004Y076350D02*
X009524Y076350D01*
X009524Y077350D02*
X009004Y077350D01*
X009004Y078350D02*
X009524Y078350D01*
X009524Y079350D02*
X009004Y079350D01*
X038831Y079744D02*
X039351Y079744D01*
X039351Y080744D02*
X038831Y080744D01*
X038831Y081744D02*
X039351Y081744D01*
X039351Y082744D02*
X038831Y082744D01*
X038831Y078744D02*
X039351Y078744D01*
X039351Y077744D02*
X038831Y077744D01*
X038831Y076744D02*
X039351Y076744D01*
X039351Y075744D02*
X038831Y075744D01*
X038831Y074744D02*
X039351Y074744D01*
X039410Y065421D02*
X038890Y065421D01*
X038890Y064421D02*
X039410Y064421D01*
X039410Y063421D02*
X038890Y063421D01*
X038890Y062421D02*
X039410Y062421D01*
X039410Y061421D02*
X038890Y061421D01*
X038890Y060421D02*
X039410Y060421D01*
X039410Y059421D02*
X038890Y059421D01*
X038890Y058421D02*
X039410Y058421D01*
X039410Y057421D02*
X038890Y057421D01*
D11*
X033002Y060096D03*
X033002Y060596D03*
X033002Y061096D03*
X033002Y061596D03*
X033002Y062096D03*
X033002Y062596D03*
X033002Y063096D03*
X033002Y063596D03*
X030582Y063596D03*
X030582Y063096D03*
X030582Y062596D03*
X030582Y062096D03*
X030582Y061596D03*
X030582Y061096D03*
X030582Y060596D03*
X030582Y060096D03*
X030885Y076474D03*
X030885Y076974D03*
X030885Y077474D03*
X030885Y077974D03*
X030885Y078474D03*
X030885Y078974D03*
X030885Y079474D03*
X030885Y079974D03*
X033305Y079974D03*
X033305Y079474D03*
X033305Y078974D03*
X033305Y078474D03*
X033305Y077974D03*
X033305Y077474D03*
X033305Y076974D03*
X033305Y076474D03*
X016892Y065482D03*
X016892Y064982D03*
X016892Y064482D03*
X016892Y063982D03*
X016892Y063482D03*
X016892Y062982D03*
X016892Y062482D03*
X016892Y061982D03*
X014472Y061982D03*
X014472Y062482D03*
X014472Y062982D03*
X014472Y063482D03*
X014472Y063982D03*
X014472Y064482D03*
X014472Y064982D03*
X014472Y065482D03*
X014228Y076758D03*
X014228Y077258D03*
X014228Y077758D03*
X014228Y078258D03*
X014228Y078758D03*
X014228Y079258D03*
X014228Y079758D03*
X014228Y080258D03*
X016648Y080258D03*
X016648Y079758D03*
X016648Y079258D03*
X016648Y078758D03*
X016648Y078258D03*
X016648Y077758D03*
X016648Y077258D03*
X016648Y076758D03*
D12*
X022113Y072749D03*
X022613Y072749D03*
X023113Y072749D03*
X023613Y072749D03*
X024113Y072749D03*
X024613Y072749D03*
X025113Y072749D03*
X025613Y072749D03*
X025613Y070329D03*
X025113Y070329D03*
X024613Y070329D03*
X024113Y070329D03*
X023613Y070329D03*
X023113Y070329D03*
X022613Y070329D03*
X022113Y070329D03*
D13*
X007099Y072354D03*
X007099Y073354D03*
X007099Y074354D03*
X007099Y075354D03*
X006099Y075354D03*
X006099Y074354D03*
X006099Y073354D03*
X006099Y072354D03*
X006099Y076354D03*
X006099Y077354D03*
X006099Y078354D03*
X006099Y079354D03*
X006099Y080354D03*
X006099Y081354D03*
X006099Y082354D03*
X006099Y083354D03*
X006099Y084354D03*
X007099Y084354D03*
X007099Y083354D03*
X007099Y082354D03*
X007099Y081354D03*
X007099Y080354D03*
X007099Y079354D03*
X007099Y078354D03*
X007099Y077354D03*
X007099Y076354D03*
X007079Y067031D03*
X007079Y066031D03*
X007079Y065031D03*
X006079Y065031D03*
X006079Y066031D03*
X006079Y067031D03*
X006079Y064031D03*
X006079Y063031D03*
X006079Y062031D03*
X006079Y061031D03*
X006079Y060031D03*
X006079Y059031D03*
X006079Y058031D03*
X006079Y057031D03*
X006079Y056031D03*
X006079Y055031D03*
X007079Y055031D03*
X007079Y056031D03*
X007079Y057031D03*
X007079Y058031D03*
X007079Y059031D03*
X007079Y060031D03*
X007079Y061031D03*
X007079Y062031D03*
X007079Y063031D03*
X007079Y064031D03*
X041363Y064413D03*
X041363Y063413D03*
X041363Y062413D03*
X041363Y061413D03*
X041363Y060413D03*
X041363Y059413D03*
X042363Y059413D03*
X042363Y060413D03*
X042363Y061413D03*
X042363Y062413D03*
X042363Y063413D03*
X042363Y064413D03*
X042363Y065413D03*
X042363Y066413D03*
X042363Y067413D03*
X041363Y067413D03*
X041363Y066413D03*
X041363Y065413D03*
X041363Y058413D03*
X041363Y057413D03*
X041363Y056413D03*
X041363Y055413D03*
X042363Y055413D03*
X042363Y056413D03*
X042363Y057413D03*
X042363Y058413D03*
X042371Y072748D03*
X042371Y073748D03*
X042371Y074748D03*
X042371Y075748D03*
X042371Y076748D03*
X042371Y077748D03*
X042371Y078748D03*
X042371Y079748D03*
X042371Y080748D03*
X042371Y081748D03*
X042371Y082748D03*
X042371Y083748D03*
X042371Y084748D03*
X041371Y084748D03*
X041371Y083748D03*
X041371Y082748D03*
X041371Y081748D03*
X041371Y080748D03*
X041371Y079748D03*
X041371Y078748D03*
X041371Y077748D03*
X041371Y076748D03*
X041371Y075748D03*
X041371Y074748D03*
X041371Y073748D03*
X041371Y072748D03*
D14*
X039123Y056445D03*
X039123Y055775D03*
D15*
X015245Y067173D03*
X014575Y067173D03*
X013040Y079338D03*
X012371Y079338D03*
D16*
X021650Y083878D03*
X021650Y084878D03*
X022650Y084878D03*
X022650Y083878D03*
X023650Y083878D03*
X023650Y084878D03*
X024650Y084878D03*
X024650Y083878D03*
X025650Y083878D03*
X025650Y084878D03*
X025138Y056571D03*
X024138Y056571D03*
X023138Y056571D03*
X022138Y056571D03*
X022138Y055571D03*
X023138Y055571D03*
X024138Y055571D03*
X025138Y055571D03*
X021138Y055571D03*
X021138Y056571D03*
D17*
X022111Y052823D03*
X020115Y052834D03*
X024119Y052823D03*
X026119Y052823D03*
X026662Y087260D03*
X024666Y087271D03*
X022658Y087271D03*
X020658Y087271D03*
D18*
X014938Y079767D02*
X014230Y079767D01*
X014228Y079758D01*
X014226Y079260D02*
X015186Y079260D01*
X014949Y078787D02*
X014198Y078787D01*
X014228Y078758D01*
X014210Y078275D02*
X015186Y078275D01*
X014949Y077763D02*
X014222Y077763D01*
X014228Y077758D01*
X014228Y078258D02*
X014210Y078275D01*
X014228Y079258D02*
X014226Y079260D01*
X014228Y077258D02*
X014222Y077252D01*
X015186Y077252D01*
X015501Y076937D02*
X015501Y076307D01*
X015894Y075913D01*
X016367Y075913D01*
X016406Y074811D02*
X015225Y075992D01*
X013493Y075992D01*
X010422Y079063D01*
X010422Y080409D01*
X009477Y081354D01*
X009308Y081354D01*
X009516Y080362D02*
X008611Y080362D01*
X009516Y080362D02*
X010107Y079771D01*
X010107Y078945D01*
X013375Y075677D01*
X015107Y075677D01*
X016091Y074693D01*
X016091Y074181D01*
X017154Y073118D01*
X017154Y071937D01*
X021760Y067330D01*
X021957Y067330D01*
X022351Y066937D01*
X022351Y066071D01*
X021841Y065561D01*
X021487Y065561D01*
X021692Y066061D02*
X021711Y066061D01*
X022075Y066425D01*
X022075Y066779D01*
X021839Y067015D01*
X021642Y067015D01*
X016839Y071819D01*
X016839Y073000D01*
X015776Y074063D01*
X015776Y074574D01*
X014989Y075362D01*
X013257Y075362D01*
X009268Y079350D01*
X009264Y079350D01*
X009264Y078350D02*
X009835Y078350D01*
X013138Y075047D01*
X014871Y075047D01*
X015461Y074456D01*
X015461Y073945D01*
X016524Y072882D01*
X016524Y071700D01*
X021485Y066740D01*
X021485Y066582D01*
X021879Y067645D02*
X017469Y072055D01*
X017469Y073275D01*
X016406Y074338D01*
X016406Y074811D01*
X015501Y076937D02*
X015821Y077258D01*
X016648Y077258D01*
X014949Y076740D02*
X014210Y076740D01*
X014228Y076758D01*
X014461Y074618D02*
X014461Y073535D01*
X014280Y073354D01*
X012142Y073354D01*
X010146Y075350D01*
X009264Y075350D01*
X009264Y074350D02*
X010079Y074350D01*
X011390Y073039D01*
X014831Y073039D01*
X014949Y073157D01*
X014949Y074338D01*
X013965Y074338D02*
X013965Y073826D01*
X013808Y073669D01*
X012469Y073669D01*
X009792Y076346D01*
X009268Y076346D01*
X009264Y076350D01*
X009276Y076350D01*
X009264Y077350D02*
X009418Y077350D01*
X012784Y073984D01*
X013375Y073984D01*
X013453Y074063D01*
X013453Y074614D01*
X014162Y071582D02*
X011406Y071582D01*
X009634Y073354D01*
X009268Y073354D01*
X009264Y073350D01*
X009264Y072350D02*
X010087Y072350D01*
X011170Y071267D01*
X013965Y071267D01*
X014461Y070771D01*
X014461Y070362D01*
X014949Y070637D02*
X014949Y070795D01*
X014162Y071582D01*
X013768Y070952D02*
X013965Y070756D01*
X013965Y070637D01*
X013768Y070952D02*
X013296Y070952D01*
X012981Y070637D01*
X012981Y070204D01*
X013808Y069378D01*
X013808Y068472D01*
X013138Y067803D01*
X009320Y064023D01*
X009753Y063984D02*
X009753Y063472D01*
X009320Y063039D01*
X009300Y062027D02*
X009977Y062027D01*
X010737Y061267D01*
X010776Y059732D01*
X010894Y059614D01*
X013296Y059614D01*
X013436Y059754D01*
X013436Y060006D01*
X013936Y059624D02*
X013611Y059299D01*
X010540Y059299D01*
X010461Y059378D01*
X010461Y060519D01*
X009949Y061031D01*
X009304Y061031D01*
X009300Y061027D01*
X009363Y061027D01*
X009386Y062027D02*
X009300Y062027D01*
X009300Y060027D02*
X010087Y060027D01*
X010186Y059929D01*
X010186Y059102D01*
X010304Y058984D01*
X014241Y058984D01*
X014436Y059179D01*
X014436Y060006D01*
X014936Y059679D02*
X014936Y059206D01*
X014398Y058669D01*
X010107Y058669D01*
X009749Y059027D01*
X009300Y059027D01*
X009300Y058027D02*
X009410Y058027D01*
X010540Y056897D01*
X014123Y056897D01*
X014936Y056084D01*
X014936Y055584D01*
X014438Y055874D02*
X014438Y056071D01*
X013926Y056582D01*
X010107Y056582D01*
X009662Y057027D01*
X009300Y057027D01*
X009304Y056031D02*
X009300Y056027D01*
X009304Y056031D02*
X009871Y056031D01*
X010107Y056267D01*
X013729Y056267D01*
X013936Y056061D01*
X013936Y055588D01*
X013436Y055884D02*
X010255Y055884D01*
X009390Y055027D01*
X009300Y055027D01*
X009300Y060027D02*
X009418Y060027D01*
X009753Y063984D02*
X014123Y068354D01*
X014123Y069771D01*
X013532Y070362D01*
X013453Y070362D01*
X014472Y064982D02*
X014458Y064968D01*
X015501Y064968D01*
X015264Y064456D02*
X014446Y064456D01*
X014472Y064482D01*
X014470Y063984D02*
X015501Y063984D01*
X015264Y063472D02*
X014634Y063472D01*
X014625Y063482D01*
X014472Y063482D01*
X014472Y063982D02*
X014470Y063984D01*
X014472Y062982D02*
X014450Y062960D01*
X015501Y062960D01*
X015264Y062488D02*
X014466Y062488D01*
X014472Y062482D01*
X014472Y061982D02*
X014466Y061976D01*
X015501Y061976D01*
X016012Y062212D02*
X016282Y062482D01*
X016892Y062482D01*
X016012Y062212D02*
X016012Y061543D01*
X015934Y061464D01*
X015816Y061464D01*
X017627Y053157D02*
X017705Y053157D01*
X021695Y065061D02*
X021774Y065061D01*
X022666Y065952D01*
X022666Y067055D01*
X022075Y067645D01*
X021879Y067645D01*
X022107Y071799D02*
X022107Y072755D01*
X022113Y072749D01*
X022613Y072749D02*
X022619Y072755D01*
X022619Y072035D01*
X023091Y071799D02*
X023091Y072771D01*
X023113Y072749D01*
X023603Y072759D02*
X023603Y072035D01*
X024115Y071799D02*
X024115Y072751D01*
X024113Y072749D01*
X024613Y072749D02*
X024627Y072763D01*
X024627Y072035D01*
X025138Y071799D02*
X025138Y072775D01*
X025113Y072749D01*
X025611Y072751D02*
X025611Y072035D01*
X025613Y072749D02*
X025611Y072751D01*
X023613Y072749D02*
X023603Y072759D01*
X030885Y079474D02*
X031345Y079474D01*
X031957Y080086D01*
X031957Y080401D01*
X032347Y079952D02*
X033091Y079952D01*
X033305Y079974D01*
X033305Y079474D02*
X033102Y079441D01*
X032071Y079441D01*
X032308Y078968D02*
X033075Y078968D01*
X033305Y078974D01*
X033305Y078474D02*
X033323Y078456D01*
X032071Y078456D01*
X032308Y077984D02*
X033315Y077984D01*
X033305Y077974D01*
X033305Y077474D02*
X033307Y077472D01*
X032071Y077472D01*
X032308Y076960D02*
X033319Y076960D01*
X033305Y076974D01*
X033305Y076474D02*
X033280Y076448D01*
X032071Y076448D01*
X032764Y074885D02*
X032764Y074043D01*
X032902Y073905D01*
X035619Y073905D01*
X036052Y074338D01*
X036052Y075913D01*
X038883Y078744D01*
X039091Y078744D01*
X039091Y079744D02*
X035737Y076389D01*
X035737Y074456D01*
X035501Y074220D01*
X033414Y074220D01*
X033280Y074354D01*
X033280Y074582D01*
X033768Y074653D02*
X033886Y074535D01*
X035383Y074535D01*
X035422Y074574D01*
X035422Y077074D01*
X039091Y080744D01*
X039091Y081744D02*
X038418Y081744D01*
X037587Y080913D01*
X037194Y081228D02*
X038709Y082744D01*
X039091Y082744D01*
X039044Y083748D02*
X036839Y081543D01*
X036721Y081543D01*
X036524Y081858D02*
X039438Y084771D01*
X041347Y084771D02*
X041371Y084748D01*
X039091Y077744D02*
X038749Y077744D01*
X037508Y076504D01*
X037115Y076504D01*
X036367Y075756D01*
X036367Y074181D01*
X035776Y073590D01*
X032508Y073590D01*
X032272Y073826D01*
X032272Y074574D01*
X033768Y074653D02*
X033768Y074889D01*
X032784Y071937D02*
X036524Y071937D01*
X036682Y072094D01*
X036682Y075637D01*
X037233Y076189D01*
X038217Y076189D01*
X038768Y076740D01*
X039087Y076740D01*
X039091Y076744D01*
X039091Y075744D02*
X037221Y075744D01*
X036997Y075519D01*
X036997Y071976D01*
X036642Y071622D01*
X032863Y071622D01*
X032770Y071529D01*
X032770Y070887D01*
X033272Y070677D02*
X033272Y071244D01*
X033335Y071307D01*
X036603Y071307D01*
X036957Y070952D01*
X036957Y068511D01*
X037115Y068354D01*
X039320Y068354D01*
X039556Y068118D01*
X039556Y067409D01*
X039398Y066897D02*
X039477Y066819D01*
X039477Y066385D01*
X039398Y066897D02*
X037036Y066897D01*
X036642Y067291D01*
X036642Y070834D01*
X036485Y070992D01*
X033886Y070992D01*
X033768Y070874D01*
X032784Y071937D02*
X032272Y071425D01*
X032272Y070637D01*
X032005Y063594D02*
X033004Y063594D01*
X033002Y063596D01*
X033002Y063096D02*
X033016Y063082D01*
X032280Y063082D01*
X032005Y062571D02*
X033028Y062571D01*
X033002Y062596D01*
X033004Y062098D02*
X032280Y062098D01*
X032044Y061586D02*
X033012Y061586D01*
X033002Y061596D01*
X033002Y061096D02*
X033024Y061074D01*
X032280Y061074D01*
X032044Y060602D02*
X033008Y060602D01*
X033002Y060596D01*
X033002Y060096D02*
X033008Y060090D01*
X032280Y060090D01*
X032666Y058905D02*
X032666Y058393D01*
X033099Y057960D01*
X033690Y057960D01*
X033926Y058197D01*
X035934Y058197D01*
X036524Y058787D01*
X036524Y061385D01*
X038560Y063421D01*
X039150Y063421D01*
X039146Y064417D02*
X038571Y064417D01*
X036209Y062055D01*
X036209Y058905D01*
X035816Y058511D01*
X033808Y058511D01*
X033611Y058315D01*
X033257Y058315D01*
X033158Y058413D01*
X033158Y058590D01*
X033650Y058905D02*
X033886Y058826D01*
X035697Y058826D01*
X035894Y059023D01*
X035894Y062724D01*
X038591Y065421D01*
X039150Y065421D01*
X039150Y064421D02*
X039146Y064417D01*
X039150Y062421D02*
X038544Y062421D01*
X036839Y060716D01*
X036839Y058669D01*
X036052Y057882D01*
X034044Y057882D01*
X033808Y057645D01*
X032863Y057645D01*
X032178Y058330D01*
X032178Y058594D01*
X033493Y056543D02*
X037075Y056543D01*
X037154Y056622D01*
X037154Y058984D01*
X038099Y059929D01*
X038099Y060480D01*
X038375Y060756D01*
X038375Y061031D01*
X038764Y061421D01*
X039150Y061421D01*
X039150Y060421D02*
X038670Y060421D01*
X038414Y060165D01*
X038414Y059811D01*
X037469Y058866D01*
X037469Y056385D01*
X037312Y056228D01*
X033729Y056228D01*
X032660Y055159D01*
X032660Y054580D01*
X033162Y054830D02*
X033162Y055189D01*
X033886Y055913D01*
X037430Y055913D01*
X037784Y056267D01*
X037784Y058590D01*
X038611Y059417D01*
X039146Y059417D01*
X039150Y059421D01*
X039150Y058421D02*
X038520Y058421D01*
X038099Y058000D01*
X038099Y056149D01*
X037548Y055598D01*
X034005Y055598D01*
X033660Y055254D01*
X033660Y054584D01*
X032154Y054850D02*
X032154Y055204D01*
X033493Y056543D01*
X033002Y062096D02*
X033004Y062098D01*
X037312Y067409D02*
X037036Y067685D01*
X037312Y067409D02*
X038020Y067409D01*
X037194Y081228D02*
X037154Y081228D01*
X036524Y081858D02*
X036288Y081858D01*
D19*
X036288Y081858D03*
X036721Y081543D03*
X037154Y081228D03*
X037587Y080913D03*
X039044Y083748D03*
X039438Y084771D03*
X041347Y084771D03*
X033768Y074889D03*
X033280Y074582D03*
X032764Y074885D03*
X032272Y074574D03*
X032308Y076960D03*
X032071Y077472D03*
X032308Y077984D03*
X032071Y078456D03*
X032308Y078968D03*
X032071Y079441D03*
X032347Y079952D03*
X031957Y080401D03*
X028611Y080952D03*
X028060Y080952D03*
X027839Y083720D03*
X027942Y084653D03*
X025611Y072035D03*
X025138Y071799D03*
X024627Y072035D03*
X024115Y071799D03*
X023603Y072035D03*
X023091Y071799D03*
X022619Y072035D03*
X022107Y071799D03*
X021516Y071602D03*
X022115Y069653D03*
X021485Y066582D03*
X021692Y066061D03*
X021487Y065561D03*
X021695Y065061D03*
X021682Y064023D03*
X021012Y062252D03*
X023571Y064063D03*
X025457Y065055D03*
X025816Y065559D03*
X025451Y066061D03*
X025796Y066567D03*
X023737Y069326D03*
X016879Y075559D03*
X016367Y075913D03*
X014949Y076740D03*
X015186Y077252D03*
X014949Y077763D03*
X015186Y078275D03*
X014949Y078787D03*
X015186Y079260D03*
X014938Y079767D03*
X013296Y077015D03*
X013453Y074614D03*
X013965Y074338D03*
X014461Y074618D03*
X014949Y074338D03*
X014949Y070637D03*
X014461Y070362D03*
X013965Y070637D03*
X013453Y070362D03*
X012981Y069023D03*
X015272Y065472D03*
X015501Y064968D03*
X015264Y064456D03*
X015501Y063984D03*
X015264Y063472D03*
X015501Y062960D03*
X015264Y062488D03*
X015501Y061976D03*
X015816Y061464D03*
X014936Y059679D03*
X014436Y060006D03*
X013936Y059624D03*
X013436Y060006D03*
X013436Y055884D03*
X013936Y055588D03*
X014438Y055874D03*
X014936Y055584D03*
X009320Y063039D03*
X009320Y064023D03*
X008611Y080362D03*
X009308Y081354D03*
X030579Y059496D03*
X032044Y060602D03*
X032280Y061074D03*
X032044Y061586D03*
X032280Y062098D03*
X032005Y062571D03*
X032280Y063082D03*
X032005Y063594D03*
X031682Y064141D03*
X032280Y060090D03*
X032666Y058905D03*
X032178Y058594D03*
X033158Y058590D03*
X033650Y058905D03*
X033162Y054830D03*
X033660Y054584D03*
X032660Y054580D03*
X032154Y054850D03*
X034516Y067606D03*
X035107Y067882D03*
X035619Y068157D03*
X036091Y068433D03*
X037036Y067685D03*
X038020Y067409D03*
X039556Y067409D03*
X039477Y066385D03*
X033768Y069417D03*
X033272Y070677D03*
X033768Y070874D03*
X032770Y070887D03*
X032272Y070637D03*
D20*
X031776Y070878D03*
X031268Y070637D03*
X031658Y068901D03*
X030725Y068889D03*
X030721Y067968D03*
X031501Y065397D03*
X030674Y064728D03*
X032288Y066185D03*
X033142Y065409D03*
X033182Y067063D03*
X034757Y067063D03*
X034757Y065882D03*
X034757Y064700D03*
X035938Y064700D03*
X036922Y065882D03*
X037316Y065094D03*
X037906Y065685D03*
X036331Y066669D03*
X036134Y067653D03*
X037469Y068866D03*
X037434Y069622D03*
X037473Y070685D03*
X038890Y070409D03*
X039438Y071071D03*
X038847Y071622D03*
X038847Y072330D03*
X039481Y069425D03*
X041119Y069350D03*
X041111Y068492D03*
X042276Y068366D03*
X042280Y069378D03*
X042276Y070728D03*
X041095Y070334D03*
X037508Y075047D03*
X034201Y073078D03*
X033020Y072488D03*
X031760Y074889D03*
X032071Y076448D03*
X030619Y075992D03*
X030461Y073669D03*
X029681Y071314D03*
X029078Y070908D03*
X028491Y070518D03*
X027897Y070124D03*
X027322Y069742D03*
X026707Y069324D03*
X025737Y067173D03*
X024556Y068354D03*
X023571Y067370D03*
X023052Y067913D03*
X023571Y065401D03*
X023099Y064574D03*
X022312Y062527D03*
X023138Y062212D03*
X022627Y061031D03*
X022312Y058905D03*
X021512Y059547D03*
X020619Y059496D03*
X020028Y059496D03*
X019438Y059496D03*
X018847Y059496D03*
X018257Y059496D03*
X017666Y059496D03*
X017194Y060559D03*
X016642Y060874D03*
X015934Y059653D03*
X015434Y059976D03*
X015701Y057952D03*
X015461Y055913D03*
X016512Y055767D03*
X017103Y056752D03*
X017497Y055767D03*
X018481Y055767D03*
X018953Y057106D03*
X018323Y057697D03*
X017654Y054626D03*
X017182Y053996D03*
X016434Y054626D03*
X014741Y054193D03*
X013560Y054193D03*
X012508Y055126D03*
X012788Y057992D03*
X012575Y060689D03*
X014150Y061279D03*
X012587Y065952D03*
X013768Y067134D03*
X014150Y066200D03*
X014544Y067972D03*
X015331Y068563D03*
X015922Y067775D03*
X016445Y067134D03*
X016879Y066071D03*
X017351Y066582D03*
X015725Y066200D03*
X014938Y069744D03*
X015461Y070323D03*
X015501Y072685D03*
X016918Y074456D03*
X016918Y075008D03*
X017430Y078078D03*
X019162Y078984D03*
X018926Y080047D03*
X018375Y080441D03*
X018650Y082330D03*
X017666Y082330D03*
X016682Y082330D03*
X015697Y082330D03*
X014713Y082330D03*
X013926Y082921D03*
X013926Y083708D03*
X013926Y084496D03*
X014910Y084496D03*
X015894Y084496D03*
X015894Y084496D03*
X016879Y084496D03*
X016879Y084496D03*
X017863Y084496D03*
X017863Y084496D03*
X018847Y084496D03*
X019871Y084496D03*
X020697Y084023D03*
X020697Y082921D03*
X021091Y081425D03*
X019634Y082330D03*
X019796Y078830D03*
X020194Y078275D03*
X020575Y077724D03*
X021005Y077173D03*
X021308Y076614D03*
X021087Y075535D03*
X021036Y074445D03*
X022784Y073669D03*
X024658Y076063D03*
X025654Y075878D03*
X025867Y076618D03*
X026272Y077177D03*
X026662Y077724D03*
X027075Y078275D03*
X027473Y078819D03*
X027831Y079382D03*
X029201Y080952D03*
X029910Y080913D03*
X030107Y079929D03*
X031012Y080913D03*
X030658Y083511D03*
X029871Y083708D03*
X029871Y084496D03*
X029871Y085283D03*
X030855Y085283D03*
X031839Y085283D03*
X032823Y085283D03*
X033808Y085283D03*
X034792Y085283D03*
X035186Y084102D03*
X035776Y084693D03*
X035776Y085283D03*
X036957Y083748D03*
X037272Y084771D03*
X034595Y083511D03*
X033611Y083511D03*
X032627Y083511D03*
X031642Y083511D03*
X032745Y081425D03*
X027390Y085441D03*
X026052Y081425D03*
X026288Y080834D03*
X025619Y080441D03*
X024910Y080047D03*
X023335Y081425D03*
X026170Y074929D03*
X026170Y073000D03*
X025902Y064559D03*
X025422Y064063D03*
X026406Y063315D03*
X026327Y062685D03*
X026524Y059299D03*
X027115Y059299D03*
X027705Y059299D03*
X028296Y059299D03*
X028138Y058000D03*
X027575Y057027D03*
X028245Y056397D03*
X028087Y054980D03*
X028087Y053996D03*
X027339Y053681D03*
X026434Y054074D03*
X027103Y055334D03*
X026524Y055779D03*
X027154Y058000D03*
X025934Y059299D03*
X025343Y059299D03*
X028205Y051948D03*
X029583Y054193D03*
X029898Y054783D03*
X030646Y056397D03*
X031162Y054854D03*
X031662Y054618D03*
X032457Y056279D03*
X031670Y056948D03*
X030579Y058000D03*
X031131Y059260D03*
X031662Y058862D03*
X032154Y059417D03*
X033138Y059417D03*
X035213Y059429D03*
X035461Y060086D03*
X035213Y057145D03*
X035134Y055019D03*
X035095Y054271D03*
X034229Y054704D03*
X035934Y055126D03*
X036788Y055019D03*
X037575Y054271D03*
X038284Y055098D03*
X039162Y053511D03*
X029741Y056948D03*
X029556Y058000D03*
X021481Y064555D03*
X020475Y065348D03*
X019940Y065884D03*
X019404Y066423D03*
X021012Y061543D03*
X021131Y053905D03*
X018481Y053799D03*
X012942Y068157D03*
X010973Y067370D03*
X010776Y066385D03*
X009989Y065598D03*
X009201Y064811D03*
X009005Y066189D03*
X009005Y067370D03*
X008938Y068157D03*
X009005Y068945D03*
X009989Y067370D03*
X010579Y068945D03*
X010973Y070519D03*
X010383Y071110D03*
X011327Y072370D03*
X012745Y072488D03*
X012745Y072488D03*
X012591Y074921D03*
X013335Y078197D03*
X013257Y080401D03*
X012154Y083118D03*
X012154Y084496D03*
X010776Y084496D03*
X010973Y082330D03*
X010501Y080992D03*
X009438Y083315D03*
X009398Y084496D03*
X008375Y082370D03*
X008020Y083315D03*
X008020Y084496D03*
X007627Y071110D03*
X007276Y070000D03*
X007276Y068819D03*
X015501Y080362D03*
D21*
X016648Y080258D02*
X017798Y080258D01*
X017902Y080362D01*
X017902Y080716D01*
X018493Y081307D01*
X020973Y081307D01*
X021091Y081425D01*
X018926Y080047D02*
X018926Y079850D01*
X018333Y079258D01*
X016648Y079258D01*
X016648Y079758D02*
X018085Y079758D01*
X018375Y080047D01*
X018375Y080441D01*
X019162Y078984D02*
X018936Y078758D01*
X016648Y078758D01*
X016648Y077758D02*
X017109Y077758D01*
X017430Y078078D01*
X016648Y076758D02*
X016879Y076527D01*
X016879Y075559D01*
X016918Y075008D02*
X017859Y075008D01*
X020575Y077724D01*
X021005Y077173D02*
X018288Y074456D01*
X016918Y074456D01*
X017390Y070323D02*
X015461Y070323D01*
X014575Y067173D02*
X013808Y067173D01*
X013768Y067134D01*
X012587Y065952D01*
X012942Y068157D02*
X008938Y068157D01*
X011591Y069023D02*
X009264Y071350D01*
X011591Y069023D02*
X012981Y069023D01*
X014472Y065482D02*
X014482Y065472D01*
X015272Y065472D01*
X015705Y065472D01*
X016052Y065126D01*
X016052Y063748D01*
X016318Y063482D01*
X016892Y063482D01*
X016892Y063982D02*
X017392Y063982D01*
X018178Y063197D01*
X018178Y060834D01*
X017666Y060323D01*
X017666Y059496D01*
X017390Y058984D02*
X019162Y058984D01*
X019438Y059260D01*
X019438Y059496D01*
X020028Y059496D02*
X020028Y059260D01*
X019359Y058590D01*
X017194Y058590D01*
X016131Y059653D01*
X015934Y059653D01*
X016288Y060086D02*
X017390Y058984D01*
X018257Y059496D02*
X018257Y060283D01*
X018571Y060598D01*
X018571Y063393D01*
X017483Y064482D01*
X016892Y064482D01*
X016892Y064982D02*
X017613Y064982D01*
X018965Y063630D01*
X018965Y060323D01*
X018847Y060204D01*
X018847Y059496D01*
X019595Y058197D02*
X020619Y059220D01*
X020619Y059496D01*
X019595Y058197D02*
X016564Y058197D01*
X015934Y058826D01*
X015619Y058826D01*
X014910Y058118D01*
X014910Y057645D01*
X015461Y057094D01*
X015461Y055913D01*
X015434Y059976D02*
X015434Y059980D01*
X015540Y060086D01*
X016288Y060086D01*
X016642Y060874D02*
X016892Y061123D01*
X016892Y061982D01*
X016892Y062982D02*
X017408Y062982D01*
X017784Y062606D01*
X017784Y061149D01*
X017194Y060559D01*
X021012Y062685D02*
X018886Y064811D01*
X018886Y066700D01*
X018453Y067134D01*
X016445Y067134D01*
X016603Y067134D01*
X016879Y066071D02*
X016892Y066057D01*
X016892Y065482D01*
X019404Y064884D02*
X019404Y066423D01*
X019940Y065884D02*
X019940Y064929D01*
X021317Y063551D01*
X024162Y063551D01*
X024674Y064063D01*
X025422Y064063D01*
X025902Y063795D02*
X025902Y064559D01*
X026217Y065055D02*
X025457Y065055D01*
X025816Y065559D02*
X030264Y065559D01*
X032863Y068157D01*
X034831Y068157D01*
X035107Y067882D01*
X035619Y068157D02*
X035225Y068551D01*
X032666Y068551D01*
X030186Y066071D01*
X030146Y066071D01*
X030136Y066061D01*
X025451Y066061D01*
X025796Y066567D02*
X030091Y066567D01*
X032469Y068945D01*
X035579Y068945D01*
X036091Y068433D01*
X037469Y068866D02*
X040264Y068866D01*
X040264Y074732D02*
X040253Y074744D01*
X039091Y074744D01*
X035028Y076149D02*
X034280Y075401D01*
X031249Y075401D01*
X030190Y074342D01*
X022705Y074338D01*
X021012Y072645D01*
X021012Y069771D01*
X021642Y069141D01*
X023020Y069141D01*
X023113Y069234D01*
X023113Y070329D01*
X022613Y070329D02*
X022613Y070899D01*
X022461Y071051D01*
X022068Y071051D01*
X021516Y071602D01*
X022113Y070329D02*
X022113Y069655D01*
X022115Y069653D01*
X023052Y067913D02*
X025115Y067913D01*
X025383Y067645D01*
X028099Y067645D01*
X029871Y069417D01*
X033768Y069417D01*
X034359Y067763D02*
X033060Y067763D01*
X030461Y065165D01*
X026327Y065165D01*
X026217Y065055D01*
X025902Y063795D02*
X025658Y063551D01*
X024792Y063551D01*
X024398Y063157D01*
X021131Y063157D01*
X019404Y064884D01*
X020475Y065126D02*
X020475Y065348D01*
X020475Y067198D01*
X017390Y070323D01*
X020619Y069614D02*
X023099Y067134D01*
X023099Y064574D01*
X023571Y064063D02*
X021721Y064063D01*
X021682Y064023D01*
X021481Y064555D02*
X021046Y064555D01*
X020475Y065126D01*
X021012Y062685D02*
X021012Y062252D01*
X023138Y062212D02*
X029300Y062212D01*
X029684Y062596D01*
X030582Y062596D01*
X030582Y062096D02*
X031168Y062096D01*
X030582Y061596D02*
X029806Y061596D01*
X028926Y060716D01*
X028926Y059496D01*
X028729Y059299D01*
X028296Y059299D01*
X028020Y058826D02*
X027705Y059141D01*
X027705Y059299D01*
X028020Y058826D02*
X028886Y058826D01*
X029359Y059299D01*
X029359Y060519D01*
X029936Y061096D01*
X030582Y061096D01*
X030582Y060596D02*
X030066Y060596D01*
X029792Y060323D01*
X029792Y059102D01*
X029123Y058433D01*
X027666Y058433D01*
X027115Y058984D01*
X027115Y059299D01*
X026918Y057527D02*
X025343Y059102D01*
X025343Y059299D01*
X024871Y059574D02*
X025068Y059771D01*
X025737Y059771D01*
X025934Y059574D01*
X025934Y059299D01*
X024871Y059574D02*
X024871Y058984D01*
X027981Y055874D01*
X030776Y055874D01*
X031162Y055488D01*
X031162Y054854D01*
X030658Y054653D02*
X030973Y054338D01*
X031383Y054338D01*
X031662Y054618D01*
X030658Y054653D02*
X030658Y055323D01*
X030501Y055480D01*
X027784Y055480D01*
X024438Y058826D01*
X025138Y056571D02*
X025733Y056571D01*
X026524Y055779D01*
X026918Y057527D02*
X031406Y057527D01*
X031662Y057783D01*
X031662Y058862D01*
X030582Y059498D02*
X030579Y059496D01*
X030582Y059498D02*
X030582Y060096D01*
X030582Y063096D02*
X031188Y063096D01*
X031367Y063275D01*
X031367Y063826D01*
X031682Y064141D01*
X034516Y067606D02*
X034359Y067763D01*
X031776Y070220D02*
X031682Y070126D01*
X031052Y070126D01*
X030776Y070401D01*
X030776Y071346D01*
X030186Y071937D01*
X029320Y071937D01*
X027897Y070514D01*
X027897Y070124D01*
X028491Y069732D02*
X027625Y068866D01*
X026052Y068866D01*
X025113Y069805D01*
X025113Y070329D01*
X025613Y070329D02*
X026170Y070886D01*
X026170Y073000D01*
X026367Y074732D02*
X030028Y074732D01*
X031131Y075834D01*
X034123Y075834D01*
X034634Y076346D01*
X034634Y080323D01*
X034044Y080913D01*
X031760Y080913D01*
X031249Y080401D01*
X029792Y080401D01*
X029634Y080244D01*
X029634Y079535D01*
X030186Y078984D01*
X030639Y078984D01*
X030885Y078974D01*
X030885Y077974D02*
X029239Y077974D01*
X027831Y079382D01*
X027473Y078819D02*
X028818Y077474D01*
X030885Y077474D01*
X030885Y076974D02*
X028377Y076974D01*
X027075Y078275D01*
X028060Y080952D02*
X028060Y083504D01*
X027839Y083720D01*
X028611Y083984D02*
X027942Y084653D01*
X028611Y083984D02*
X028611Y080952D01*
X029201Y080952D02*
X029201Y086071D01*
X029162Y086110D01*
X026052Y081425D02*
X023335Y081425D01*
X025934Y075401D02*
X025304Y074771D01*
X022587Y074771D01*
X020619Y072803D01*
X020619Y069614D01*
X024113Y069624D02*
X025697Y068039D01*
X027905Y068039D01*
X029677Y069811D01*
X029677Y071310D01*
X029681Y071314D01*
X029078Y070908D02*
X029078Y069771D01*
X027740Y068433D01*
X025855Y068472D01*
X024613Y069714D01*
X024613Y070329D01*
X024113Y070329D02*
X024113Y069624D01*
X026707Y069324D02*
X026707Y070559D01*
X028872Y072724D01*
X030619Y072724D01*
X031760Y073866D01*
X031760Y074889D01*
X030885Y076474D02*
X029865Y076471D01*
X028532Y075165D01*
X026760Y075165D01*
X026524Y075401D01*
X025934Y075401D01*
X026170Y074929D02*
X026367Y074732D01*
X029133Y072330D02*
X027322Y070519D01*
X027322Y069742D01*
X028491Y069732D02*
X028491Y070518D01*
X029133Y072330D02*
X030461Y072330D01*
X031268Y071563D01*
X031268Y070637D01*
X031776Y070878D02*
X031776Y070220D01*
X035028Y076149D02*
X035028Y080519D01*
X034123Y081425D01*
X032745Y081425D01*
X030885Y079974D02*
X030152Y079974D01*
X030107Y079929D01*
X036957Y083748D02*
X036957Y084456D01*
X037272Y084771D01*
X037272Y086071D01*
X037233Y086110D01*
X039150Y057421D02*
X039123Y057393D01*
X039123Y056445D01*
X021131Y053905D02*
X021052Y053984D01*
X019044Y053984D01*
X017902Y055126D01*
X012508Y055126D01*
X013040Y079338D02*
X013257Y079555D01*
X013257Y080401D01*
D22*
X006052Y088630D03*
X006052Y051228D03*
X042272Y051228D03*
X042233Y088630D03*
D23*
X039465Y054901D03*
D24*
X016839Y052015D03*
D25*
X005124Y053686D02*
X005124Y050300D01*
X043200Y050300D01*
X043200Y056906D01*
X043156Y056862D01*
X043013Y056803D01*
X043013Y056711D01*
X043033Y056691D01*
X043033Y056136D01*
X043013Y056116D01*
X043013Y055711D01*
X043033Y055691D01*
X043033Y055136D01*
X043013Y055116D01*
X043013Y054693D01*
X042914Y054454D01*
X042731Y054271D01*
X042731Y054271D01*
X042483Y054023D01*
X042244Y053924D01*
X041951Y053924D01*
X040264Y052238D01*
X040081Y052055D01*
X039843Y051956D01*
X036057Y051956D01*
X035818Y052055D01*
X035383Y052491D01*
X035284Y052729D01*
X035284Y052988D01*
X035383Y053227D01*
X035404Y053248D01*
X035404Y054921D01*
X035366Y055013D01*
X035366Y055239D01*
X035378Y055268D01*
X034141Y055268D01*
X033990Y055117D01*
X033990Y054860D01*
X034023Y054827D01*
X034088Y054670D01*
X034088Y054499D01*
X034023Y054342D01*
X033903Y054221D01*
X033745Y054156D01*
X033575Y054156D01*
X033417Y054221D01*
X033297Y054342D01*
X033268Y054411D01*
X033247Y054402D01*
X033077Y054402D01*
X033054Y054411D01*
X033023Y054338D01*
X032903Y054217D01*
X032745Y054152D01*
X032575Y054152D01*
X032417Y054217D01*
X032297Y054338D01*
X032259Y054430D01*
X032239Y054422D01*
X032069Y054422D01*
X032066Y054423D01*
X032042Y054364D01*
X031916Y054238D01*
X031751Y054170D01*
X031737Y054170D01*
X031696Y054129D01*
X031592Y054025D01*
X031456Y053968D01*
X030899Y053968D01*
X030763Y054025D01*
X030449Y054340D01*
X030344Y054444D01*
X030288Y054580D01*
X030288Y055110D01*
X027710Y055110D01*
X027574Y055166D01*
X026972Y055768D01*
X026972Y055690D01*
X026904Y055525D01*
X026778Y055399D01*
X026613Y055331D01*
X026435Y055331D01*
X026270Y055399D01*
X026144Y055525D01*
X026076Y055690D01*
X026076Y055704D01*
X025612Y056168D01*
X025445Y056000D01*
X025658Y055786D01*
X025658Y055621D01*
X025188Y055621D01*
X025188Y055521D01*
X025658Y055521D01*
X025658Y055355D01*
X025354Y055051D01*
X025188Y055051D01*
X025188Y055521D01*
X025088Y055521D01*
X025088Y055051D01*
X024923Y055051D01*
X024709Y055264D01*
X024395Y054951D01*
X023882Y054951D01*
X023638Y055194D01*
X023395Y054951D01*
X023098Y054951D01*
X022217Y054069D01*
X022066Y054007D01*
X021573Y054007D01*
X021579Y053994D01*
X021579Y053816D01*
X021510Y053651D01*
X021384Y053525D01*
X021220Y053457D01*
X021041Y053457D01*
X020877Y053525D01*
X020788Y053614D01*
X020280Y053614D01*
X020559Y053498D01*
X020779Y053278D01*
X020898Y052990D01*
X020898Y052678D01*
X020779Y052391D01*
X020559Y052170D01*
X020271Y052051D01*
X020210Y052051D01*
X020195Y052050D01*
X020172Y052041D01*
X020056Y052041D01*
X019941Y052033D01*
X019918Y052041D01*
X017983Y052041D01*
X017725Y052147D01*
X017528Y052344D01*
X017528Y052344D01*
X017415Y052457D01*
X008356Y052457D01*
X008078Y052457D01*
X007821Y052564D01*
X006904Y053481D01*
X005479Y053481D01*
X005222Y053587D01*
X005124Y053686D01*
X005124Y053593D02*
X005217Y053593D01*
X005124Y053494D02*
X005447Y053494D01*
X005124Y053396D02*
X006989Y053396D01*
X007087Y053297D02*
X005124Y053297D01*
X005124Y053199D02*
X007186Y053199D01*
X007284Y053100D02*
X005124Y053100D01*
X005124Y053002D02*
X007383Y053002D01*
X007481Y052903D02*
X005124Y052903D01*
X005124Y052805D02*
X007580Y052805D01*
X007678Y052706D02*
X005124Y052706D01*
X005124Y052608D02*
X007777Y052608D01*
X007952Y052509D02*
X005124Y052509D01*
X005124Y052411D02*
X017462Y052411D01*
X017560Y052312D02*
X005124Y052312D01*
X005124Y052214D02*
X017659Y052214D01*
X017802Y052115D02*
X005124Y052115D01*
X005124Y052017D02*
X035910Y052017D01*
X035758Y052115D02*
X026458Y052115D01*
X026562Y052158D02*
X026783Y052379D01*
X026902Y052667D01*
X026902Y052978D01*
X026783Y053266D01*
X026562Y053487D01*
X026275Y053606D01*
X025963Y053606D01*
X025675Y053487D01*
X025455Y053266D01*
X025335Y052978D01*
X025335Y052667D01*
X025455Y052379D01*
X025675Y052158D01*
X025963Y052039D01*
X026275Y052039D01*
X026562Y052158D01*
X026618Y052214D02*
X035659Y052214D01*
X035561Y052312D02*
X026716Y052312D01*
X026796Y052411D02*
X035462Y052411D01*
X035375Y052509D02*
X026837Y052509D01*
X026878Y052608D02*
X035334Y052608D01*
X035293Y052706D02*
X026902Y052706D01*
X026902Y052805D02*
X035284Y052805D01*
X035284Y052903D02*
X026902Y052903D01*
X026892Y053002D02*
X035289Y053002D01*
X035330Y053100D02*
X026852Y053100D01*
X026811Y053199D02*
X035371Y053199D01*
X035404Y053297D02*
X026752Y053297D01*
X026653Y053396D02*
X035404Y053396D01*
X035404Y053494D02*
X026544Y053494D01*
X026306Y053593D02*
X035404Y053593D01*
X035404Y053691D02*
X021527Y053691D01*
X021568Y053790D02*
X035404Y053790D01*
X035404Y053888D02*
X021579Y053888D01*
X021579Y053987D02*
X030855Y053987D01*
X030703Y054085D02*
X022233Y054085D01*
X022331Y054184D02*
X030604Y054184D01*
X030506Y054282D02*
X022430Y054282D01*
X022528Y054381D02*
X030407Y054381D01*
X030330Y054479D02*
X022627Y054479D01*
X022725Y054578D02*
X030289Y054578D01*
X030288Y054676D02*
X022824Y054676D01*
X022922Y054775D02*
X030288Y054775D01*
X030288Y054873D02*
X023021Y054873D01*
X023416Y054972D02*
X023860Y054972D01*
X023762Y055070D02*
X023515Y055070D01*
X023613Y055169D02*
X023663Y055169D01*
X024416Y054972D02*
X030288Y054972D01*
X030288Y055070D02*
X025374Y055070D01*
X025472Y055169D02*
X027572Y055169D01*
X027474Y055267D02*
X025571Y055267D01*
X025658Y055366D02*
X026351Y055366D01*
X026205Y055464D02*
X025658Y055464D01*
X025658Y055661D02*
X026088Y055661D01*
X026129Y055563D02*
X025188Y055563D01*
X025188Y055464D02*
X025088Y055464D01*
X025088Y055366D02*
X025188Y055366D01*
X025188Y055267D02*
X025088Y055267D01*
X025088Y055169D02*
X025188Y055169D01*
X025188Y055070D02*
X025088Y055070D01*
X024903Y055070D02*
X024515Y055070D01*
X024613Y055169D02*
X024805Y055169D01*
X025658Y055760D02*
X026020Y055760D01*
X025922Y055858D02*
X025586Y055858D01*
X025488Y055957D02*
X025823Y055957D01*
X025725Y056055D02*
X025500Y056055D01*
X025598Y056154D02*
X025626Y056154D01*
X026697Y055366D02*
X027375Y055366D01*
X027277Y055464D02*
X026843Y055464D01*
X026920Y055563D02*
X027178Y055563D01*
X027080Y055661D02*
X026960Y055661D01*
X026972Y055760D02*
X026981Y055760D01*
X027830Y056548D02*
X033031Y056548D01*
X033129Y056646D02*
X027732Y056646D01*
X027633Y056745D02*
X033228Y056745D01*
X033213Y056730D02*
X031874Y055391D01*
X031824Y055270D01*
X031824Y055126D01*
X031791Y055093D01*
X031776Y055056D01*
X031751Y055066D01*
X031573Y055066D01*
X031561Y055061D01*
X031542Y055108D01*
X031532Y055118D01*
X031532Y055561D01*
X031476Y055697D01*
X031090Y056083D01*
X030986Y056187D01*
X030850Y056244D01*
X028134Y056244D01*
X027221Y057157D01*
X031480Y057157D01*
X031616Y057214D01*
X031720Y057318D01*
X031976Y057574D01*
X032032Y057710D01*
X032032Y058009D01*
X032583Y057458D01*
X032676Y057366D01*
X032797Y057315D01*
X033873Y057315D01*
X033995Y057366D01*
X034181Y057552D01*
X036117Y057552D01*
X036239Y057602D01*
X036824Y058187D01*
X036824Y056873D01*
X033427Y056873D01*
X033306Y056823D01*
X033213Y056730D01*
X033355Y056843D02*
X027535Y056843D01*
X027436Y056942D02*
X036824Y056942D01*
X036824Y057040D02*
X027338Y057040D01*
X027239Y057139D02*
X036824Y057139D01*
X036824Y057237D02*
X031639Y057237D01*
X031738Y057336D02*
X032748Y057336D01*
X032607Y057434D02*
X031836Y057434D01*
X031935Y057533D02*
X032509Y057533D01*
X032410Y057631D02*
X032000Y057631D01*
X032032Y057730D02*
X032312Y057730D01*
X032213Y057828D02*
X032032Y057828D01*
X032032Y057927D02*
X032115Y057927D01*
X031292Y057936D02*
X031292Y058598D01*
X031282Y058608D01*
X031214Y058773D01*
X031214Y058951D01*
X031282Y059116D01*
X031408Y059242D01*
X031573Y059310D01*
X031751Y059310D01*
X031916Y059242D01*
X032042Y059116D01*
X032082Y059018D01*
X032093Y059023D01*
X032251Y059023D01*
X032303Y059148D01*
X032423Y059268D01*
X032581Y059334D01*
X032751Y059334D01*
X032909Y059268D01*
X033029Y059148D01*
X033083Y059019D01*
X033233Y059019D01*
X033287Y059148D01*
X033408Y059268D01*
X033565Y059334D01*
X033735Y059334D01*
X033893Y059268D01*
X034005Y059156D01*
X035561Y059156D01*
X035564Y059160D01*
X035564Y059518D01*
X035348Y059518D01*
X035256Y059556D01*
X034983Y059556D01*
X034788Y059637D01*
X034639Y059786D01*
X034391Y060034D01*
X034310Y060229D01*
X034310Y063008D01*
X033652Y063666D01*
X033652Y063416D01*
X033623Y063346D01*
X033652Y063276D01*
X033652Y062916D01*
X033623Y062846D01*
X033652Y062776D01*
X033652Y062416D01*
X033623Y062346D01*
X033652Y062276D01*
X033652Y061916D01*
X033623Y061846D01*
X033652Y061776D01*
X033652Y061416D01*
X033623Y061346D01*
X033652Y061276D01*
X033652Y060916D01*
X033623Y060846D01*
X033652Y060776D01*
X033652Y060416D01*
X033614Y060325D01*
X033548Y060259D01*
X033552Y060246D01*
X033552Y060111D01*
X033017Y060111D01*
X033017Y060081D01*
X033017Y059816D01*
X033422Y059816D01*
X033460Y059826D01*
X033494Y059846D01*
X033522Y059874D01*
X033542Y059908D01*
X033552Y059946D01*
X033552Y060081D01*
X033017Y060081D01*
X032987Y060081D01*
X032987Y059816D01*
X032582Y059816D01*
X032544Y059826D01*
X032510Y059846D01*
X032482Y059874D01*
X032462Y059908D01*
X032452Y059946D01*
X032452Y060081D01*
X032987Y060081D01*
X032987Y060111D01*
X032452Y060111D01*
X032452Y060246D01*
X032455Y060259D01*
X032442Y060272D01*
X032320Y060272D01*
X032287Y060239D01*
X032129Y060174D01*
X031959Y060174D01*
X031801Y060239D01*
X031681Y060359D01*
X031615Y060517D01*
X031615Y060687D01*
X031681Y060845D01*
X031801Y060965D01*
X031853Y060987D01*
X031852Y060989D01*
X031852Y061160D01*
X031867Y061196D01*
X031801Y061223D01*
X031681Y061344D01*
X031615Y061501D01*
X031615Y061672D01*
X031681Y061829D01*
X031801Y061949D01*
X031867Y061977D01*
X031852Y062013D01*
X031852Y062170D01*
X031762Y062207D01*
X031641Y062328D01*
X031576Y062485D01*
X031576Y062656D01*
X031641Y062813D01*
X031762Y062934D01*
X031861Y062975D01*
X031852Y062997D01*
X031852Y063168D01*
X031861Y063190D01*
X031762Y063231D01*
X031737Y063256D01*
X031737Y063202D01*
X031680Y063066D01*
X031576Y062962D01*
X031397Y062782D01*
X031261Y062726D01*
X031232Y062726D01*
X031232Y062416D01*
X031194Y062325D01*
X031128Y062259D01*
X031132Y062246D01*
X031132Y062111D01*
X030597Y062111D01*
X030597Y062081D01*
X031132Y062081D01*
X031132Y061946D01*
X031128Y061933D01*
X031194Y061868D01*
X031232Y061776D01*
X031232Y061416D01*
X031203Y061346D01*
X031232Y061276D01*
X031232Y060916D01*
X031203Y060846D01*
X031232Y060776D01*
X031232Y060416D01*
X031203Y060346D01*
X031232Y060276D01*
X031232Y059916D01*
X031194Y059825D01*
X031124Y059754D01*
X031032Y059716D01*
X030952Y059716D01*
X030952Y059716D01*
X031008Y059581D01*
X031008Y059411D01*
X030943Y059253D01*
X030822Y059133D01*
X030665Y059067D01*
X030494Y059067D01*
X030337Y059133D01*
X030216Y059253D01*
X030162Y059384D01*
X030162Y059028D01*
X030106Y058892D01*
X029436Y058223D01*
X029332Y058119D01*
X029196Y058063D01*
X027592Y058063D01*
X027456Y058119D01*
X026905Y058670D01*
X026801Y058774D01*
X026747Y058906D01*
X026613Y058851D01*
X026435Y058851D01*
X026270Y058919D01*
X026229Y058960D01*
X026188Y058919D01*
X026090Y058879D01*
X027071Y057897D01*
X031253Y057897D01*
X031292Y057936D01*
X031282Y057927D02*
X027042Y057927D01*
X026943Y058025D02*
X031292Y058025D01*
X031292Y058124D02*
X029337Y058124D01*
X029435Y058222D02*
X031292Y058222D01*
X031292Y058321D02*
X029534Y058321D01*
X029632Y058419D02*
X031292Y058419D01*
X031292Y058518D02*
X029731Y058518D01*
X029829Y058616D02*
X031279Y058616D01*
X031238Y058715D02*
X029928Y058715D01*
X030026Y058813D02*
X031214Y058813D01*
X031214Y058912D02*
X030114Y058912D01*
X030154Y059010D02*
X031238Y059010D01*
X031279Y059109D02*
X030765Y059109D01*
X030897Y059207D02*
X031374Y059207D01*
X031563Y059306D02*
X030964Y059306D01*
X031005Y059404D02*
X035564Y059404D01*
X035564Y059306D02*
X033803Y059306D01*
X033954Y059207D02*
X035564Y059207D01*
X035564Y059503D02*
X031008Y059503D01*
X030999Y059601D02*
X034874Y059601D01*
X034725Y059700D02*
X030959Y059700D01*
X031168Y059798D02*
X034627Y059798D01*
X034528Y059897D02*
X033535Y059897D01*
X033552Y059995D02*
X034430Y059995D01*
X034366Y060094D02*
X033017Y060094D01*
X033017Y060111D02*
X032987Y060111D01*
X032987Y060216D01*
X033017Y060216D01*
X033017Y060111D01*
X032987Y060094D02*
X031232Y060094D01*
X031232Y060192D02*
X031914Y060192D01*
X031749Y060291D02*
X031226Y060291D01*
X031221Y060389D02*
X031668Y060389D01*
X031628Y060488D02*
X031232Y060488D01*
X031232Y060586D02*
X031615Y060586D01*
X031615Y060685D02*
X031232Y060685D01*
X031229Y060783D02*
X031655Y060783D01*
X031718Y060882D02*
X031218Y060882D01*
X031232Y060980D02*
X031838Y060980D01*
X031852Y061079D02*
X031232Y061079D01*
X031232Y061177D02*
X031859Y061177D01*
X031749Y061276D02*
X031232Y061276D01*
X031215Y061374D02*
X031668Y061374D01*
X031627Y061473D02*
X031232Y061473D01*
X031232Y061571D02*
X031615Y061571D01*
X031615Y061670D02*
X031232Y061670D01*
X031232Y061768D02*
X031656Y061768D01*
X031719Y061867D02*
X031194Y061867D01*
X031132Y061965D02*
X031839Y061965D01*
X031852Y062064D02*
X031132Y062064D01*
X031132Y062162D02*
X031852Y062162D01*
X031708Y062261D02*
X031130Y062261D01*
X031208Y062359D02*
X031628Y062359D01*
X031588Y062458D02*
X031232Y062458D01*
X031232Y062556D02*
X031576Y062556D01*
X031576Y062655D02*
X031232Y062655D01*
X031327Y062753D02*
X031617Y062753D01*
X031680Y062852D02*
X031467Y062852D01*
X031565Y062950D02*
X031802Y062950D01*
X031852Y063049D02*
X031664Y063049D01*
X031714Y063147D02*
X031852Y063147D01*
X031747Y063246D02*
X031737Y063246D01*
X030635Y064671D02*
X030957Y064993D01*
X031106Y065142D01*
X031301Y065223D01*
X033480Y065223D01*
X033675Y065142D01*
X035140Y063676D01*
X035289Y063527D01*
X035370Y063333D01*
X035370Y060654D01*
X035564Y060654D01*
X035564Y062790D01*
X035615Y062911D01*
X038311Y065608D01*
X038404Y065701D01*
X038480Y065732D01*
X038601Y065853D01*
X038789Y065931D01*
X039512Y065931D01*
X039644Y065876D01*
X039644Y065991D01*
X039562Y065957D01*
X039392Y065957D01*
X039234Y066022D01*
X039114Y066143D01*
X039049Y066300D01*
X039049Y066471D01*
X039089Y066567D01*
X036970Y066567D01*
X036849Y066618D01*
X036756Y066710D01*
X036363Y067104D01*
X036312Y067225D01*
X036312Y068061D01*
X036176Y068004D01*
X036019Y068004D01*
X035982Y067914D01*
X035861Y067794D01*
X035704Y067729D01*
X035534Y067729D01*
X035511Y067738D01*
X035470Y067639D01*
X035350Y067518D01*
X035192Y067453D01*
X035022Y067453D01*
X034932Y067490D01*
X034880Y067363D01*
X034759Y067243D01*
X034602Y067178D01*
X034431Y067178D01*
X034274Y067243D01*
X034153Y067363D01*
X034141Y067393D01*
X033213Y067393D01*
X030775Y064955D01*
X030775Y064955D01*
X030671Y064851D01*
X030535Y064795D01*
X026481Y064795D01*
X026427Y064741D01*
X026329Y064700D01*
X026350Y064648D01*
X026350Y064470D01*
X026282Y064305D01*
X026272Y064295D01*
X026272Y063874D01*
X026293Y063883D01*
X026519Y063883D01*
X026611Y063845D01*
X028391Y063845D01*
X028988Y064442D01*
X029137Y064591D01*
X029332Y064671D01*
X030635Y064671D01*
X030687Y064723D02*
X026384Y064723D01*
X026350Y064625D02*
X029220Y064625D01*
X029073Y064526D02*
X026350Y064526D01*
X026333Y064428D02*
X028974Y064428D01*
X028876Y064329D02*
X026292Y064329D01*
X026272Y064231D02*
X028777Y064231D01*
X028679Y064132D02*
X026272Y064132D01*
X026272Y064034D02*
X028580Y064034D01*
X028482Y063935D02*
X026272Y063935D01*
X025838Y063225D02*
X025838Y063202D01*
X025897Y063060D01*
X025844Y063008D01*
X025757Y062798D01*
X025757Y062582D01*
X023402Y062582D01*
X023392Y062592D01*
X023228Y062660D01*
X023049Y062660D01*
X022885Y062592D01*
X022759Y062466D01*
X022690Y062301D01*
X022690Y062123D01*
X022759Y061958D01*
X022885Y061832D01*
X023049Y061764D01*
X023228Y061764D01*
X023392Y061832D01*
X023402Y061842D01*
X023803Y061842D01*
X023168Y061208D01*
X023108Y061353D01*
X022948Y061513D01*
X022740Y061599D01*
X022514Y061599D01*
X022305Y061513D01*
X022145Y061353D01*
X022107Y061261D01*
X022011Y061166D01*
X021862Y061016D01*
X021782Y060822D01*
X021782Y059110D01*
X021744Y059018D01*
X021744Y058792D01*
X021820Y058607D01*
X020528Y058607D01*
X020828Y058906D01*
X020932Y059011D01*
X020989Y059147D01*
X020989Y059232D01*
X020999Y059242D01*
X021067Y059407D01*
X021067Y059585D01*
X020999Y059750D01*
X020873Y059876D01*
X020708Y059944D01*
X020530Y059944D01*
X020365Y059876D01*
X020323Y059834D01*
X020282Y059876D01*
X020117Y059944D01*
X019939Y059944D01*
X019774Y059876D01*
X019733Y059834D01*
X019691Y059876D01*
X019527Y059944D01*
X019348Y059944D01*
X019217Y059889D01*
X019217Y060051D01*
X019279Y060113D01*
X019335Y060249D01*
X019335Y063703D01*
X019279Y063839D01*
X017822Y065296D01*
X017686Y065352D01*
X017542Y065352D01*
X017542Y065662D01*
X017504Y065754D01*
X017433Y065824D01*
X017341Y065862D01*
X017277Y065862D01*
X017327Y065981D01*
X017327Y066160D01*
X017258Y066324D01*
X017132Y066450D01*
X016968Y066519D01*
X016789Y066519D01*
X016625Y066450D01*
X016499Y066324D01*
X016430Y066160D01*
X016430Y065981D01*
X016480Y065862D01*
X016442Y065862D01*
X016350Y065824D01*
X016280Y065754D01*
X016242Y065662D01*
X016242Y065302D01*
X016271Y065232D01*
X016242Y065162D01*
X016242Y064802D01*
X016271Y064732D01*
X016242Y064662D01*
X016242Y064302D01*
X016271Y064232D01*
X016242Y064162D01*
X016242Y063802D01*
X016280Y063710D01*
X016345Y063645D01*
X016342Y063632D01*
X016342Y063497D01*
X016877Y063497D01*
X016877Y063467D01*
X016342Y063467D01*
X016342Y063332D01*
X016345Y063319D01*
X016280Y063254D01*
X016242Y063162D01*
X016242Y062812D01*
X016216Y062812D01*
X016095Y062762D01*
X016002Y062669D01*
X015733Y062399D01*
X015713Y062352D01*
X015678Y062366D01*
X015693Y062403D01*
X015693Y062573D01*
X015692Y062576D01*
X015743Y062597D01*
X015864Y062718D01*
X015929Y062875D01*
X015929Y063046D01*
X015864Y063203D01*
X015743Y063324D01*
X015678Y063351D01*
X015693Y063387D01*
X015693Y063557D01*
X015678Y063594D01*
X015743Y063621D01*
X015864Y063741D01*
X015929Y063899D01*
X015929Y064069D01*
X015864Y064227D01*
X015743Y064347D01*
X015692Y064368D01*
X015693Y064371D01*
X015693Y064542D01*
X015678Y064578D01*
X015743Y064605D01*
X015864Y064725D01*
X015929Y064883D01*
X015929Y065053D01*
X015864Y065211D01*
X015743Y065331D01*
X015586Y065397D01*
X015415Y065397D01*
X015258Y065331D01*
X015225Y065298D01*
X015039Y065298D01*
X015018Y065319D01*
X015022Y065332D01*
X015022Y065467D01*
X014487Y065467D01*
X014487Y065497D01*
X015022Y065497D01*
X015022Y065632D01*
X015011Y065670D01*
X014992Y065704D01*
X014964Y065732D01*
X014930Y065752D01*
X014891Y065762D01*
X014487Y065762D01*
X014487Y065497D01*
X014457Y065497D01*
X014457Y065762D01*
X014052Y065762D01*
X014014Y065752D01*
X013980Y065732D01*
X013952Y065704D01*
X013932Y065670D01*
X013922Y065632D01*
X013922Y065497D01*
X014457Y065497D01*
X014457Y065467D01*
X014487Y065467D01*
X014487Y065362D01*
X014457Y065362D01*
X014457Y065467D01*
X013922Y065467D01*
X013922Y065332D01*
X013925Y065319D01*
X013860Y065254D01*
X013822Y065162D01*
X013822Y064802D01*
X013851Y064732D01*
X013822Y064662D01*
X013822Y064302D01*
X013851Y064232D01*
X013822Y064162D01*
X013822Y063802D01*
X013851Y063732D01*
X013822Y063662D01*
X013822Y063302D01*
X013851Y063232D01*
X013822Y063162D01*
X013822Y062802D01*
X013851Y062732D01*
X013822Y062662D01*
X013822Y062302D01*
X013851Y062232D01*
X013822Y062162D01*
X010309Y062162D01*
X010257Y062214D02*
X010164Y062307D01*
X010043Y062357D01*
X009951Y062357D01*
X009849Y062460D01*
X009661Y062537D01*
X008938Y062537D01*
X008905Y062523D01*
X008905Y062921D01*
X008956Y062796D01*
X009077Y062676D01*
X009234Y062611D01*
X009405Y062611D01*
X009562Y062676D01*
X009683Y062796D01*
X009748Y062954D01*
X009748Y063001D01*
X010032Y063285D01*
X010083Y063406D01*
X010083Y063847D01*
X012035Y065800D01*
X012106Y065631D01*
X012265Y065471D01*
X012474Y065384D01*
X012700Y065384D01*
X012909Y065471D01*
X013069Y065631D01*
X013147Y065819D01*
X013902Y066574D01*
X014042Y066632D01*
X014110Y066564D01*
X014246Y066508D01*
X014905Y066508D01*
X015041Y066564D01*
X015145Y066668D01*
X015170Y066728D01*
X015195Y066728D01*
X015195Y066788D01*
X015201Y066804D01*
X015201Y067123D01*
X015295Y067123D01*
X015295Y067223D01*
X015651Y067223D01*
X015651Y067488D01*
X015640Y067526D01*
X015621Y067560D01*
X015593Y067588D01*
X015559Y067608D01*
X015520Y067618D01*
X015295Y067618D01*
X015295Y067223D01*
X015201Y067223D01*
X015201Y067542D01*
X015195Y067558D01*
X015195Y067618D01*
X015170Y067618D01*
X015145Y067678D01*
X015041Y067782D01*
X014905Y067838D01*
X014246Y067838D01*
X014110Y067782D01*
X014006Y067678D01*
X014000Y067663D01*
X013975Y067663D01*
X013921Y067685D01*
X014402Y068167D01*
X014453Y068288D01*
X014453Y069837D01*
X014413Y069933D01*
X014546Y069933D01*
X014704Y069999D01*
X014824Y070119D01*
X014862Y070210D01*
X014864Y070209D01*
X015023Y070209D01*
X015081Y070069D01*
X015207Y069943D01*
X015372Y069874D01*
X015550Y069874D01*
X015715Y069943D01*
X015725Y069953D01*
X017236Y069953D01*
X020105Y067046D01*
X020105Y066300D01*
X020029Y066332D01*
X019851Y066332D01*
X019852Y066334D01*
X019852Y066512D01*
X019784Y066677D01*
X019658Y066803D01*
X019493Y066871D01*
X019315Y066871D01*
X019231Y066836D01*
X019200Y066910D01*
X018767Y067343D01*
X018663Y067447D01*
X018527Y067504D01*
X016709Y067504D01*
X016699Y067513D01*
X016535Y067582D01*
X016356Y067582D01*
X016192Y067513D01*
X016066Y067387D01*
X015997Y067223D01*
X015997Y067044D01*
X016066Y066880D01*
X016192Y066754D01*
X016356Y066685D01*
X016535Y066685D01*
X016699Y066754D01*
X016709Y066764D01*
X018300Y066764D01*
X018516Y066547D01*
X018516Y064737D01*
X018573Y064601D01*
X018677Y064497D01*
X020642Y062531D01*
X020642Y062478D01*
X020584Y062337D01*
X020584Y062166D01*
X020649Y062009D01*
X020770Y061888D01*
X020927Y061823D01*
X021098Y061823D01*
X021255Y061888D01*
X021376Y062009D01*
X021441Y062166D01*
X021441Y062337D01*
X021382Y062478D01*
X021382Y062758D01*
X021370Y062787D01*
X024472Y062787D01*
X024608Y062843D01*
X024712Y062948D01*
X024945Y063181D01*
X025732Y063181D01*
X025838Y063225D01*
X025861Y063147D02*
X024912Y063147D01*
X024813Y063049D02*
X025885Y063049D01*
X025820Y062950D02*
X024715Y062950D01*
X024616Y062852D02*
X025780Y062852D01*
X025757Y062753D02*
X021382Y062753D01*
X021382Y062655D02*
X023036Y062655D01*
X023241Y062655D02*
X025757Y062655D01*
X025158Y064433D02*
X024600Y064433D01*
X024464Y064376D01*
X024120Y064032D01*
X024120Y064172D01*
X024036Y064373D01*
X023882Y064528D01*
X023681Y064611D01*
X023547Y064611D01*
X023547Y064664D01*
X023479Y064828D01*
X023469Y064838D01*
X023469Y067207D01*
X023413Y067343D01*
X023309Y067447D01*
X023309Y067447D01*
X023247Y067509D01*
X023306Y067533D01*
X023316Y067543D01*
X024962Y067543D01*
X025069Y067436D01*
X025173Y067332D01*
X025309Y067275D01*
X028173Y067275D01*
X028309Y067332D01*
X030024Y069047D01*
X032048Y069047D01*
X029938Y066937D01*
X026022Y066937D01*
X025881Y066995D01*
X025711Y066995D01*
X025553Y066930D01*
X025433Y066809D01*
X025367Y066652D01*
X025367Y066489D01*
X025366Y066489D01*
X025209Y066424D01*
X025088Y066303D01*
X025023Y066146D01*
X025023Y065975D01*
X025088Y065818D01*
X025209Y065697D01*
X025366Y065632D01*
X025387Y065632D01*
X025387Y065483D01*
X025372Y065483D01*
X025215Y065418D01*
X025094Y065297D01*
X025029Y065140D01*
X025029Y064970D01*
X025094Y064812D01*
X025215Y064692D01*
X025372Y064626D01*
X025454Y064626D01*
X025454Y064511D01*
X025333Y064511D01*
X025168Y064443D01*
X025158Y064433D01*
X025183Y064723D02*
X023522Y064723D01*
X023547Y064625D02*
X025454Y064625D01*
X025454Y064526D02*
X023883Y064526D01*
X023982Y064428D02*
X024589Y064428D01*
X024417Y064329D02*
X024055Y064329D01*
X024095Y064231D02*
X024319Y064231D01*
X024220Y064132D02*
X024120Y064132D01*
X024120Y064034D02*
X024122Y064034D01*
X023482Y064822D02*
X025090Y064822D01*
X025049Y064920D02*
X023469Y064920D01*
X023469Y065019D02*
X025029Y065019D01*
X025029Y065117D02*
X023469Y065117D01*
X023469Y065216D02*
X025060Y065216D01*
X025111Y065314D02*
X023469Y065314D01*
X023469Y065413D02*
X025209Y065413D01*
X025387Y065511D02*
X023469Y065511D01*
X023469Y065610D02*
X025387Y065610D01*
X025198Y065708D02*
X023469Y065708D01*
X023469Y065807D02*
X025099Y065807D01*
X025052Y065905D02*
X023469Y065905D01*
X023469Y066004D02*
X025023Y066004D01*
X025023Y066102D02*
X023469Y066102D01*
X023469Y066201D02*
X025046Y066201D01*
X025087Y066299D02*
X023469Y066299D01*
X023469Y066398D02*
X025183Y066398D01*
X025367Y066496D02*
X023469Y066496D01*
X023469Y066595D02*
X025367Y066595D01*
X025385Y066693D02*
X023469Y066693D01*
X023469Y066792D02*
X025425Y066792D01*
X025514Y066890D02*
X023469Y066890D01*
X023469Y066989D02*
X025696Y066989D01*
X025896Y066989D02*
X029990Y066989D01*
X030089Y067087D02*
X023469Y067087D01*
X023469Y067186D02*
X030187Y067186D01*
X030286Y067284D02*
X028194Y067284D01*
X028360Y067383D02*
X030384Y067383D01*
X030483Y067481D02*
X028458Y067481D01*
X028557Y067580D02*
X030581Y067580D01*
X030680Y067678D02*
X028655Y067678D01*
X028754Y067777D02*
X030778Y067777D01*
X030877Y067875D02*
X028852Y067875D01*
X028951Y067974D02*
X030975Y067974D01*
X031074Y068072D02*
X029049Y068072D01*
X029148Y068171D02*
X031172Y068171D01*
X031271Y068269D02*
X029246Y068269D01*
X029345Y068368D02*
X031369Y068368D01*
X031468Y068466D02*
X029443Y068466D01*
X029542Y068565D02*
X031566Y068565D01*
X031665Y068663D02*
X029640Y068663D01*
X029739Y068762D02*
X031763Y068762D01*
X031862Y068860D02*
X029837Y068860D01*
X029936Y068959D02*
X031960Y068959D01*
X033104Y067284D02*
X034232Y067284D01*
X034145Y067383D02*
X033202Y067383D01*
X033005Y067186D02*
X034411Y067186D01*
X034622Y067186D02*
X036329Y067186D01*
X036312Y067284D02*
X034801Y067284D01*
X034888Y067383D02*
X036312Y067383D01*
X036312Y067481D02*
X035260Y067481D01*
X035411Y067580D02*
X036312Y067580D01*
X036312Y067678D02*
X035486Y067678D01*
X035820Y067777D02*
X036312Y067777D01*
X036312Y067875D02*
X035943Y067875D01*
X036007Y067974D02*
X036312Y067974D01*
X036379Y067087D02*
X032907Y067087D01*
X032808Y066989D02*
X036478Y066989D01*
X036576Y066890D02*
X032710Y066890D01*
X032611Y066792D02*
X036675Y066792D01*
X036773Y066693D02*
X032513Y066693D01*
X032414Y066595D02*
X036904Y066595D01*
X037919Y065216D02*
X033496Y065216D01*
X033699Y065117D02*
X037821Y065117D01*
X037722Y065019D02*
X033798Y065019D01*
X033896Y064920D02*
X037624Y064920D01*
X037525Y064822D02*
X033995Y064822D01*
X034093Y064723D02*
X037427Y064723D01*
X037328Y064625D02*
X034192Y064625D01*
X034290Y064526D02*
X037230Y064526D01*
X037131Y064428D02*
X034389Y064428D01*
X034487Y064329D02*
X037033Y064329D01*
X036934Y064231D02*
X034586Y064231D01*
X034684Y064132D02*
X036836Y064132D01*
X036737Y064034D02*
X034783Y064034D01*
X034881Y063935D02*
X036639Y063935D01*
X036540Y063837D02*
X034980Y063837D01*
X035078Y063738D02*
X036442Y063738D01*
X036343Y063640D02*
X035177Y063640D01*
X035275Y063541D02*
X036245Y063541D01*
X036146Y063443D02*
X035324Y063443D01*
X035365Y063344D02*
X036048Y063344D01*
X035949Y063246D02*
X035370Y063246D01*
X035370Y063147D02*
X035851Y063147D01*
X035752Y063049D02*
X035370Y063049D01*
X035370Y062950D02*
X035654Y062950D01*
X035590Y062852D02*
X035370Y062852D01*
X035370Y062753D02*
X035564Y062753D01*
X035564Y062655D02*
X035370Y062655D01*
X035370Y062556D02*
X035564Y062556D01*
X035564Y062458D02*
X035370Y062458D01*
X035370Y062359D02*
X035564Y062359D01*
X035564Y062261D02*
X035370Y062261D01*
X035370Y062162D02*
X035564Y062162D01*
X035564Y062064D02*
X035370Y062064D01*
X035370Y061965D02*
X035564Y061965D01*
X035564Y061867D02*
X035370Y061867D01*
X035370Y061768D02*
X035564Y061768D01*
X035564Y061670D02*
X035370Y061670D01*
X035370Y061571D02*
X035564Y061571D01*
X035564Y061473D02*
X035370Y061473D01*
X035370Y061374D02*
X035564Y061374D01*
X035564Y061276D02*
X035370Y061276D01*
X035370Y061177D02*
X035564Y061177D01*
X035564Y061079D02*
X035370Y061079D01*
X035370Y060980D02*
X035564Y060980D01*
X035564Y060882D02*
X035370Y060882D01*
X035370Y060783D02*
X035564Y060783D01*
X035564Y060685D02*
X035370Y060685D01*
X034310Y060685D02*
X033652Y060685D01*
X033649Y060783D02*
X034310Y060783D01*
X034310Y060882D02*
X033638Y060882D01*
X033652Y060980D02*
X034310Y060980D01*
X034310Y061079D02*
X033652Y061079D01*
X033652Y061177D02*
X034310Y061177D01*
X034310Y061276D02*
X033652Y061276D01*
X033635Y061374D02*
X034310Y061374D01*
X034310Y061473D02*
X033652Y061473D01*
X033652Y061571D02*
X034310Y061571D01*
X034310Y061670D02*
X033652Y061670D01*
X033652Y061768D02*
X034310Y061768D01*
X034310Y061867D02*
X033631Y061867D01*
X033652Y061965D02*
X034310Y061965D01*
X034310Y062064D02*
X033652Y062064D01*
X033652Y062162D02*
X034310Y062162D01*
X034310Y062261D02*
X033652Y062261D01*
X033628Y062359D02*
X034310Y062359D01*
X034310Y062458D02*
X033652Y062458D01*
X033652Y062556D02*
X034310Y062556D01*
X034310Y062655D02*
X033652Y062655D01*
X033652Y062753D02*
X034310Y062753D01*
X034310Y062852D02*
X033625Y062852D01*
X033652Y062950D02*
X034310Y062950D01*
X034269Y063049D02*
X033652Y063049D01*
X033652Y063147D02*
X034170Y063147D01*
X034072Y063246D02*
X033652Y063246D01*
X033624Y063344D02*
X033973Y063344D01*
X033875Y063443D02*
X033652Y063443D01*
X033652Y063541D02*
X033776Y063541D01*
X033678Y063640D02*
X033652Y063640D01*
X031823Y066004D02*
X039279Y066004D01*
X039154Y066102D02*
X031922Y066102D01*
X032020Y066201D02*
X039090Y066201D01*
X039049Y066299D02*
X032119Y066299D01*
X032217Y066398D02*
X039049Y066398D01*
X039059Y066496D02*
X032316Y066496D01*
X031725Y065905D02*
X038727Y065905D01*
X038555Y065807D02*
X031626Y065807D01*
X031528Y065708D02*
X038423Y065708D01*
X038313Y065610D02*
X031429Y065610D01*
X031331Y065511D02*
X038215Y065511D01*
X038116Y065413D02*
X031232Y065413D01*
X031134Y065314D02*
X038018Y065314D01*
X039574Y065905D02*
X039644Y065905D01*
X040884Y067712D02*
X041135Y067963D01*
X041591Y067963D01*
X041863Y067691D01*
X042135Y067963D01*
X042528Y067963D01*
X042528Y071671D01*
X042121Y072078D01*
X042093Y072078D01*
X041715Y072456D01*
X041557Y072298D01*
X041421Y072298D01*
X041421Y072698D01*
X041321Y072698D01*
X041321Y072298D01*
X041184Y072298D01*
X040921Y072561D01*
X040921Y072698D01*
X041321Y072698D01*
X041321Y072798D01*
X041321Y073198D01*
X041184Y073198D01*
X040921Y072934D01*
X040921Y072798D01*
X041321Y072798D01*
X041421Y072798D01*
X041421Y073198D01*
X041557Y073198D01*
X041715Y073040D01*
X041721Y073045D01*
X041721Y073450D01*
X041715Y073456D01*
X041557Y073298D01*
X041421Y073298D01*
X041421Y073698D01*
X041321Y073698D01*
X041321Y073298D01*
X041184Y073298D01*
X040921Y073561D01*
X040921Y073698D01*
X041321Y073698D01*
X041321Y073798D01*
X041321Y074198D01*
X041184Y074198D01*
X040921Y073934D01*
X040921Y073798D01*
X041321Y073798D01*
X041421Y073798D01*
X041421Y074198D01*
X041557Y074198D01*
X041715Y074040D01*
X041721Y074045D01*
X041721Y074450D01*
X041715Y074456D01*
X041557Y074298D01*
X041421Y074298D01*
X041421Y074698D01*
X041321Y074698D01*
X041321Y074298D01*
X041184Y074298D01*
X040921Y074561D01*
X040921Y074698D01*
X041321Y074698D01*
X041321Y074798D01*
X041321Y075198D01*
X041184Y075198D01*
X040921Y074934D01*
X040921Y074798D01*
X041321Y074798D01*
X041421Y074798D01*
X041421Y075198D01*
X041557Y075198D01*
X041715Y075040D01*
X042008Y075333D01*
X041871Y075470D01*
X041599Y075198D01*
X041143Y075198D01*
X040884Y075456D01*
X040884Y067712D01*
X040884Y067777D02*
X040949Y067777D01*
X040884Y067875D02*
X041047Y067875D01*
X040884Y067974D02*
X042528Y067974D01*
X042528Y068072D02*
X040884Y068072D01*
X040884Y068171D02*
X042528Y068171D01*
X042528Y068269D02*
X040884Y068269D01*
X040884Y068368D02*
X042528Y068368D01*
X042528Y068466D02*
X040884Y068466D01*
X040884Y068565D02*
X042528Y068565D01*
X042528Y068663D02*
X040884Y068663D01*
X040884Y068762D02*
X042528Y068762D01*
X042528Y068860D02*
X040884Y068860D01*
X040884Y068959D02*
X042528Y068959D01*
X042528Y069057D02*
X040884Y069057D01*
X040884Y069156D02*
X042528Y069156D01*
X042528Y069254D02*
X040884Y069254D01*
X040884Y069353D02*
X042528Y069353D01*
X042528Y069451D02*
X040884Y069451D01*
X040884Y069550D02*
X042528Y069550D01*
X042528Y069648D02*
X040884Y069648D01*
X040884Y069747D02*
X042528Y069747D01*
X042528Y069845D02*
X040884Y069845D01*
X040884Y069944D02*
X042528Y069944D01*
X042528Y070042D02*
X040884Y070042D01*
X040884Y070141D02*
X042528Y070141D01*
X042528Y070239D02*
X040884Y070239D01*
X040884Y070338D02*
X042528Y070338D01*
X042528Y070436D02*
X040884Y070436D01*
X040884Y070535D02*
X042528Y070535D01*
X042528Y070633D02*
X040884Y070633D01*
X040884Y070732D02*
X042528Y070732D01*
X042528Y070830D02*
X040884Y070830D01*
X040884Y070929D02*
X042528Y070929D01*
X042528Y071027D02*
X040884Y071027D01*
X040884Y071126D02*
X042528Y071126D01*
X042528Y071224D02*
X040884Y071224D01*
X040884Y071323D02*
X042528Y071323D01*
X042528Y071421D02*
X040884Y071421D01*
X040884Y071520D02*
X042528Y071520D01*
X042528Y071618D02*
X040884Y071618D01*
X040884Y071717D02*
X042482Y071717D01*
X042384Y071815D02*
X040884Y071815D01*
X040884Y071914D02*
X042285Y071914D01*
X042187Y072012D02*
X040884Y072012D01*
X040884Y072111D02*
X042060Y072111D01*
X041962Y072209D02*
X040884Y072209D01*
X040884Y072308D02*
X041174Y072308D01*
X041076Y072406D02*
X040884Y072406D01*
X040884Y072505D02*
X040977Y072505D01*
X040921Y072603D02*
X040884Y072603D01*
X040884Y072702D02*
X041321Y072702D01*
X041321Y072800D02*
X041421Y072800D01*
X041421Y072899D02*
X041321Y072899D01*
X041321Y072997D02*
X041421Y072997D01*
X041421Y073096D02*
X041321Y073096D01*
X041321Y073194D02*
X041421Y073194D01*
X041560Y073194D02*
X041721Y073194D01*
X041721Y073096D02*
X041659Y073096D01*
X041721Y073293D02*
X040884Y073293D01*
X040884Y073391D02*
X041091Y073391D01*
X040992Y073490D02*
X040884Y073490D01*
X040884Y073588D02*
X040921Y073588D01*
X040921Y073687D02*
X040884Y073687D01*
X040884Y073785D02*
X041321Y073785D01*
X041321Y073687D02*
X041421Y073687D01*
X041421Y073588D02*
X041321Y073588D01*
X041321Y073490D02*
X041421Y073490D01*
X041421Y073391D02*
X041321Y073391D01*
X041181Y073194D02*
X040884Y073194D01*
X040884Y073096D02*
X041082Y073096D01*
X040984Y072997D02*
X040884Y072997D01*
X040884Y072899D02*
X040921Y072899D01*
X040921Y072800D02*
X040884Y072800D01*
X041321Y072603D02*
X041421Y072603D01*
X041421Y072505D02*
X041321Y072505D01*
X041321Y072406D02*
X041421Y072406D01*
X041421Y072308D02*
X041321Y072308D01*
X041567Y072308D02*
X041863Y072308D01*
X041765Y072406D02*
X041666Y072406D01*
X041651Y073391D02*
X041721Y073391D01*
X041421Y073884D02*
X041321Y073884D01*
X041321Y073982D02*
X041421Y073982D01*
X041421Y074081D02*
X041321Y074081D01*
X041321Y074179D02*
X041421Y074179D01*
X041575Y074179D02*
X041721Y074179D01*
X041721Y074081D02*
X041674Y074081D01*
X041721Y074278D02*
X040884Y074278D01*
X040884Y074376D02*
X041106Y074376D01*
X041007Y074475D02*
X040884Y074475D01*
X040884Y074573D02*
X040921Y074573D01*
X040921Y074672D02*
X040884Y074672D01*
X040884Y074770D02*
X041321Y074770D01*
X041321Y074672D02*
X041421Y074672D01*
X041421Y074573D02*
X041321Y074573D01*
X041321Y074475D02*
X041421Y074475D01*
X041421Y074376D02*
X041321Y074376D01*
X041166Y074179D02*
X040884Y074179D01*
X040884Y074081D02*
X041067Y074081D01*
X040969Y073982D02*
X040884Y073982D01*
X040884Y073884D02*
X040921Y073884D01*
X041636Y074376D02*
X041721Y074376D01*
X041421Y074869D02*
X041321Y074869D01*
X041321Y074967D02*
X041421Y074967D01*
X041421Y075066D02*
X041321Y075066D01*
X041321Y075164D02*
X041421Y075164D01*
X041590Y075164D02*
X041840Y075164D01*
X041741Y075066D02*
X041689Y075066D01*
X041664Y075263D02*
X041938Y075263D01*
X041979Y075361D02*
X041762Y075361D01*
X041861Y075460D02*
X041881Y075460D01*
X042733Y075333D02*
X042921Y075520D01*
X042921Y075976D01*
X042649Y076248D01*
X043200Y076248D01*
X043200Y076346D02*
X042747Y076346D01*
X042649Y076248D02*
X042921Y076520D01*
X042921Y076976D01*
X042649Y077248D01*
X042921Y077520D01*
X042921Y077976D01*
X042649Y078248D01*
X042921Y078520D01*
X042921Y078976D01*
X042649Y079248D01*
X042921Y079520D01*
X042921Y079976D01*
X042649Y080248D01*
X042921Y080520D01*
X042921Y080976D01*
X042649Y081248D01*
X042921Y081520D01*
X042921Y081976D01*
X042649Y082248D01*
X042921Y082520D01*
X042921Y082976D01*
X042649Y083248D01*
X042921Y083520D01*
X042921Y083976D01*
X042649Y084248D01*
X042921Y084520D01*
X042921Y084976D01*
X042599Y085298D01*
X042143Y085298D01*
X041871Y085026D01*
X041599Y085298D01*
X041143Y085298D01*
X040884Y085039D01*
X040884Y085288D01*
X040790Y085516D01*
X039845Y086461D01*
X039671Y086636D01*
X039443Y086730D01*
X028068Y086730D01*
X027445Y087353D01*
X027445Y087415D01*
X027326Y087703D01*
X027106Y087924D01*
X026818Y088043D01*
X026506Y088043D01*
X026218Y087924D01*
X025998Y087703D01*
X025879Y087415D01*
X025879Y087104D01*
X025998Y086816D01*
X026218Y086595D01*
X026506Y086476D01*
X026569Y086476D01*
X027199Y085846D01*
X027137Y085821D01*
X027088Y085772D01*
X027071Y085788D01*
X026442Y086418D01*
X026291Y086481D01*
X023762Y086481D01*
X023611Y086418D01*
X023496Y086303D01*
X022690Y085498D01*
X022393Y085498D01*
X022080Y085184D01*
X021866Y085398D01*
X021700Y085398D01*
X021700Y084928D01*
X021600Y084928D01*
X021600Y085398D01*
X021435Y085398D01*
X021130Y085093D01*
X021130Y084928D01*
X021600Y084928D01*
X021600Y084828D01*
X021130Y084828D01*
X021130Y084662D01*
X021344Y084448D01*
X021030Y084134D01*
X021030Y083621D01*
X021193Y083458D01*
X021193Y081868D01*
X021180Y081873D01*
X021002Y081873D01*
X020837Y081805D01*
X020711Y081679D01*
X020710Y081677D01*
X018419Y081677D01*
X018283Y081620D01*
X018179Y081516D01*
X017589Y080926D01*
X017532Y080790D01*
X017532Y080628D01*
X017121Y080628D01*
X017097Y080638D01*
X016198Y080638D01*
X016106Y080599D01*
X016036Y080529D01*
X015998Y080437D01*
X015998Y080078D01*
X016027Y080008D01*
X015998Y079937D01*
X015998Y079578D01*
X016027Y079508D01*
X015998Y079437D01*
X015998Y079078D01*
X016027Y079008D01*
X015998Y078937D01*
X015998Y078578D01*
X016036Y078486D01*
X016101Y078420D01*
X016098Y078407D01*
X016098Y078273D01*
X016633Y078273D01*
X016633Y078243D01*
X016098Y078243D01*
X016098Y078108D01*
X016101Y078095D01*
X016036Y078029D01*
X015998Y077937D01*
X015998Y077588D01*
X015756Y077588D01*
X015635Y077537D01*
X015561Y077464D01*
X015549Y077494D01*
X015428Y077615D01*
X015363Y077642D01*
X015378Y077678D01*
X015378Y077849D01*
X015363Y077885D01*
X015428Y077912D01*
X015549Y078033D01*
X015614Y078190D01*
X015614Y078360D01*
X015549Y078518D01*
X015428Y078638D01*
X015363Y078666D01*
X015378Y078702D01*
X015378Y078872D01*
X015377Y078875D01*
X015428Y078896D01*
X015549Y079017D01*
X015614Y079174D01*
X015614Y079345D01*
X015549Y079502D01*
X015428Y079623D01*
X015354Y079653D01*
X015366Y079682D01*
X015366Y079853D01*
X015301Y080010D01*
X015180Y080131D01*
X015023Y080196D01*
X014852Y080196D01*
X014778Y080165D01*
X014778Y080243D01*
X014243Y080243D01*
X014243Y080273D01*
X014213Y080273D01*
X014213Y080538D01*
X013815Y080538D01*
X013787Y080606D01*
X013787Y084780D01*
X019870Y084780D01*
X020008Y084780D01*
X020009Y084780D01*
X020010Y084780D01*
X020138Y084833D01*
X020266Y084886D01*
X020267Y084887D01*
X020365Y084984D01*
X021143Y085758D01*
X021241Y085854D01*
X021241Y085856D01*
X021243Y085858D01*
X021296Y085984D01*
X021349Y086111D01*
X021349Y086113D01*
X021350Y086115D01*
X021350Y086252D01*
X021355Y086907D01*
X021441Y087115D01*
X021441Y087427D01*
X021322Y087715D01*
X021102Y087935D01*
X020814Y088055D01*
X020502Y088055D01*
X020214Y087935D01*
X019994Y087715D01*
X019875Y087427D01*
X019875Y087115D01*
X019955Y086921D01*
X019952Y086549D01*
X019582Y086180D01*
X006542Y086180D01*
X006285Y086073D01*
X005703Y085491D01*
X005506Y085294D01*
X005399Y085037D01*
X005399Y082644D01*
X005124Y082369D01*
X005124Y089558D01*
X043200Y089558D01*
X043200Y072837D01*
X043041Y072997D01*
X043041Y073025D01*
X043021Y073045D01*
X043021Y073450D01*
X043041Y073470D01*
X043041Y074025D01*
X043021Y074045D01*
X043021Y074450D01*
X043041Y074470D01*
X043041Y075025D01*
X042733Y075333D01*
X042762Y075361D02*
X043200Y075361D01*
X043200Y075263D02*
X042803Y075263D01*
X042902Y075164D02*
X043200Y075164D01*
X043200Y075066D02*
X043000Y075066D01*
X043041Y074967D02*
X043200Y074967D01*
X043200Y074869D02*
X043041Y074869D01*
X043041Y074770D02*
X043200Y074770D01*
X043200Y074672D02*
X043041Y074672D01*
X043041Y074573D02*
X043200Y074573D01*
X043200Y074475D02*
X043041Y074475D01*
X043021Y074376D02*
X043200Y074376D01*
X043200Y074278D02*
X043021Y074278D01*
X043021Y074179D02*
X043200Y074179D01*
X043200Y074081D02*
X043021Y074081D01*
X043041Y073982D02*
X043200Y073982D01*
X043200Y073884D02*
X043041Y073884D01*
X043041Y073785D02*
X043200Y073785D01*
X043200Y073687D02*
X043041Y073687D01*
X043041Y073588D02*
X043200Y073588D01*
X043200Y073490D02*
X043041Y073490D01*
X043021Y073391D02*
X043200Y073391D01*
X043200Y073293D02*
X043021Y073293D01*
X043021Y073194D02*
X043200Y073194D01*
X043200Y073096D02*
X043021Y073096D01*
X043041Y072997D02*
X043200Y072997D01*
X043200Y072899D02*
X043139Y072899D01*
X043200Y075460D02*
X042861Y075460D01*
X042921Y075558D02*
X043200Y075558D01*
X043200Y075657D02*
X042921Y075657D01*
X042921Y075755D02*
X043200Y075755D01*
X043200Y075854D02*
X042921Y075854D01*
X042921Y075952D02*
X043200Y075952D01*
X043200Y076051D02*
X042845Y076051D01*
X042747Y076149D02*
X043200Y076149D01*
X043200Y076445D02*
X042846Y076445D01*
X042921Y076543D02*
X043200Y076543D01*
X043200Y076642D02*
X042921Y076642D01*
X042921Y076740D02*
X043200Y076740D01*
X043200Y076839D02*
X042921Y076839D01*
X042921Y076937D02*
X043200Y076937D01*
X043200Y077036D02*
X042860Y077036D01*
X042762Y077134D02*
X043200Y077134D01*
X043200Y077233D02*
X042663Y077233D01*
X042732Y077331D02*
X043200Y077331D01*
X043200Y077430D02*
X042831Y077430D01*
X042921Y077528D02*
X043200Y077528D01*
X043200Y077627D02*
X042921Y077627D01*
X042921Y077725D02*
X043200Y077725D01*
X043200Y077824D02*
X042921Y077824D01*
X042921Y077922D02*
X043200Y077922D01*
X043200Y078021D02*
X042875Y078021D01*
X042777Y078119D02*
X043200Y078119D01*
X043200Y078218D02*
X042678Y078218D01*
X042717Y078316D02*
X043200Y078316D01*
X043200Y078415D02*
X042816Y078415D01*
X042914Y078513D02*
X043200Y078513D01*
X043200Y078612D02*
X042921Y078612D01*
X042921Y078710D02*
X043200Y078710D01*
X043200Y078809D02*
X042921Y078809D01*
X042921Y078907D02*
X043200Y078907D01*
X043200Y079006D02*
X042890Y079006D01*
X042792Y079104D02*
X043200Y079104D01*
X043200Y079203D02*
X042693Y079203D01*
X042702Y079301D02*
X043200Y079301D01*
X043200Y079400D02*
X042801Y079400D01*
X042899Y079498D02*
X043200Y079498D01*
X043200Y079597D02*
X042921Y079597D01*
X042921Y079695D02*
X043200Y079695D01*
X043200Y079794D02*
X042921Y079794D01*
X042921Y079892D02*
X043200Y079892D01*
X043200Y079991D02*
X042905Y079991D01*
X042807Y080089D02*
X043200Y080089D01*
X043200Y080188D02*
X042708Y080188D01*
X042687Y080286D02*
X043200Y080286D01*
X043200Y080385D02*
X042786Y080385D01*
X042884Y080483D02*
X043200Y080483D01*
X043200Y080582D02*
X042921Y080582D01*
X042921Y080680D02*
X043200Y080680D01*
X043200Y080779D02*
X042921Y080779D01*
X042921Y080877D02*
X043200Y080877D01*
X043200Y080976D02*
X042920Y080976D01*
X042822Y081074D02*
X043200Y081074D01*
X043200Y081173D02*
X042723Y081173D01*
X042672Y081271D02*
X043200Y081271D01*
X043200Y081370D02*
X042771Y081370D01*
X042869Y081468D02*
X043200Y081468D01*
X043200Y081567D02*
X042921Y081567D01*
X042921Y081665D02*
X043200Y081665D01*
X043200Y081764D02*
X042921Y081764D01*
X042921Y081862D02*
X043200Y081862D01*
X043200Y081961D02*
X042921Y081961D01*
X042837Y082059D02*
X043200Y082059D01*
X043200Y082158D02*
X042738Y082158D01*
X042657Y082256D02*
X043200Y082256D01*
X043200Y082355D02*
X042756Y082355D01*
X042854Y082453D02*
X043200Y082453D01*
X043200Y082552D02*
X042921Y082552D01*
X042921Y082650D02*
X043200Y082650D01*
X043200Y082749D02*
X042921Y082749D01*
X042921Y082847D02*
X043200Y082847D01*
X043200Y082946D02*
X042921Y082946D01*
X042852Y083044D02*
X043200Y083044D01*
X043200Y083143D02*
X042753Y083143D01*
X042655Y083241D02*
X043200Y083241D01*
X043200Y083340D02*
X042741Y083340D01*
X042839Y083438D02*
X043200Y083438D01*
X043200Y083537D02*
X042921Y083537D01*
X042921Y083635D02*
X043200Y083635D01*
X043200Y083734D02*
X042921Y083734D01*
X042921Y083832D02*
X043200Y083832D01*
X043200Y083931D02*
X042921Y083931D01*
X042867Y084029D02*
X043200Y084029D01*
X043200Y084128D02*
X042768Y084128D01*
X042670Y084226D02*
X043200Y084226D01*
X043200Y084325D02*
X042726Y084325D01*
X042824Y084423D02*
X043200Y084423D01*
X043200Y084522D02*
X042921Y084522D01*
X042921Y084620D02*
X043200Y084620D01*
X043200Y084719D02*
X042921Y084719D01*
X042921Y084817D02*
X043200Y084817D01*
X043200Y084916D02*
X042921Y084916D01*
X042882Y085014D02*
X043200Y085014D01*
X043200Y085113D02*
X042783Y085113D01*
X042685Y085211D02*
X043200Y085211D01*
X043200Y085310D02*
X040875Y085310D01*
X040884Y085211D02*
X041057Y085211D01*
X040958Y085113D02*
X040884Y085113D01*
X040835Y085408D02*
X043200Y085408D01*
X043200Y085507D02*
X040794Y085507D01*
X040701Y085605D02*
X043200Y085605D01*
X043200Y085704D02*
X040602Y085704D01*
X040504Y085802D02*
X043200Y085802D01*
X043200Y085901D02*
X040405Y085901D01*
X040307Y085999D02*
X043200Y085999D01*
X043200Y086098D02*
X040208Y086098D01*
X040110Y086196D02*
X043200Y086196D01*
X043200Y086295D02*
X040011Y086295D01*
X039913Y086393D02*
X043200Y086393D01*
X043200Y086492D02*
X039814Y086492D01*
X039716Y086590D02*
X043200Y086590D01*
X043200Y086689D02*
X039542Y086689D01*
X039063Y085490D02*
X039353Y085200D01*
X039352Y085200D01*
X039195Y085135D01*
X039074Y085014D01*
X039009Y084857D01*
X039009Y084810D01*
X036453Y082253D01*
X036373Y082286D01*
X036203Y082286D01*
X036045Y082221D01*
X035925Y082101D01*
X035860Y081943D01*
X035860Y081773D01*
X035925Y081615D01*
X036045Y081495D01*
X036203Y081430D01*
X036304Y081430D01*
X036358Y081300D01*
X036478Y081180D01*
X036636Y081115D01*
X036737Y081115D01*
X036791Y080985D01*
X036911Y080865D01*
X037069Y080800D01*
X037171Y080800D01*
X037224Y080670D01*
X037345Y080550D01*
X037502Y080485D01*
X037672Y080485D01*
X037830Y080550D01*
X037950Y080670D01*
X038016Y080828D01*
X038016Y080875D01*
X038497Y081356D01*
X038542Y081311D01*
X038706Y081244D01*
X038542Y081176D01*
X038399Y081033D01*
X038321Y080845D01*
X038321Y080642D01*
X038380Y080500D01*
X035398Y077517D01*
X035398Y080593D01*
X035342Y080729D01*
X035238Y080833D01*
X034436Y081634D01*
X034436Y081634D01*
X034332Y081739D01*
X034196Y081795D01*
X033008Y081795D01*
X032999Y081805D01*
X032834Y081873D01*
X032656Y081873D01*
X032491Y081805D01*
X032365Y081679D01*
X032297Y081514D01*
X032297Y081336D01*
X032318Y081283D01*
X031687Y081283D01*
X031551Y081227D01*
X031447Y081123D01*
X031095Y080771D01*
X029741Y080771D01*
X029770Y080839D01*
X029770Y081065D01*
X029691Y081254D01*
X029691Y085490D01*
X036782Y085490D01*
X036782Y085073D01*
X036713Y084905D01*
X036542Y084734D01*
X036467Y084554D01*
X036467Y084049D01*
X036389Y083861D01*
X036389Y083635D01*
X036476Y083426D01*
X036636Y083266D01*
X036844Y083180D01*
X037070Y083180D01*
X037279Y083266D01*
X037439Y083426D01*
X037525Y083635D01*
X037525Y083861D01*
X037447Y084049D01*
X037447Y084229D01*
X037594Y084290D01*
X037754Y084450D01*
X037840Y084658D01*
X037840Y084884D01*
X037762Y085073D01*
X037762Y085490D01*
X039063Y085490D01*
X039144Y085408D02*
X037762Y085408D01*
X037762Y085310D02*
X039243Y085310D01*
X039341Y085211D02*
X037762Y085211D01*
X037762Y085113D02*
X039173Y085113D01*
X039075Y085014D02*
X037787Y085014D01*
X037827Y084916D02*
X039034Y084916D01*
X039009Y084817D02*
X037840Y084817D01*
X037840Y084719D02*
X038918Y084719D01*
X038820Y084620D02*
X037825Y084620D01*
X037784Y084522D02*
X038721Y084522D01*
X038623Y084423D02*
X037728Y084423D01*
X037629Y084325D02*
X038524Y084325D01*
X038426Y084226D02*
X037447Y084226D01*
X037447Y084128D02*
X038327Y084128D01*
X038229Y084029D02*
X037456Y084029D01*
X037496Y083931D02*
X038130Y083931D01*
X038032Y083832D02*
X037525Y083832D01*
X037525Y083734D02*
X037933Y083734D01*
X037835Y083635D02*
X037525Y083635D01*
X037485Y083537D02*
X037736Y083537D01*
X037638Y083438D02*
X037444Y083438D01*
X037353Y083340D02*
X037539Y083340D01*
X037441Y083241D02*
X037219Y083241D01*
X037342Y083143D02*
X029691Y083143D01*
X029691Y083241D02*
X036695Y083241D01*
X036562Y083340D02*
X029691Y083340D01*
X029691Y083438D02*
X036471Y083438D01*
X036430Y083537D02*
X029691Y083537D01*
X029691Y083635D02*
X036389Y083635D01*
X036389Y083734D02*
X029691Y083734D01*
X029691Y083832D02*
X036389Y083832D01*
X036418Y083931D02*
X029691Y083931D01*
X029691Y084029D02*
X036459Y084029D01*
X036467Y084128D02*
X029691Y084128D01*
X029691Y084226D02*
X036467Y084226D01*
X036467Y084325D02*
X029691Y084325D01*
X029691Y084423D02*
X036467Y084423D01*
X036467Y084522D02*
X029691Y084522D01*
X029691Y084620D02*
X036495Y084620D01*
X036536Y084719D02*
X029691Y084719D01*
X029691Y084817D02*
X036625Y084817D01*
X036717Y084916D02*
X029691Y084916D01*
X029691Y085014D02*
X036758Y085014D01*
X036782Y085113D02*
X029691Y085113D01*
X029691Y085211D02*
X036782Y085211D01*
X036782Y085310D02*
X029691Y085310D01*
X029691Y085408D02*
X036782Y085408D01*
X037244Y083044D02*
X029691Y083044D01*
X029691Y082946D02*
X037145Y082946D01*
X037047Y082847D02*
X029691Y082847D01*
X029691Y082749D02*
X036948Y082749D01*
X036850Y082650D02*
X029691Y082650D01*
X029691Y082552D02*
X036751Y082552D01*
X036653Y082453D02*
X029691Y082453D01*
X029691Y082355D02*
X036554Y082355D01*
X036456Y082256D02*
X036446Y082256D01*
X036130Y082256D02*
X029691Y082256D01*
X029691Y082158D02*
X035982Y082158D01*
X035908Y082059D02*
X029691Y082059D01*
X029691Y081961D02*
X035867Y081961D01*
X035860Y081862D02*
X032860Y081862D01*
X032630Y081862D02*
X029691Y081862D01*
X029691Y081764D02*
X032450Y081764D01*
X032359Y081665D02*
X029691Y081665D01*
X029691Y081567D02*
X032318Y081567D01*
X032297Y081468D02*
X029691Y081468D01*
X029691Y081370D02*
X032297Y081370D01*
X032362Y080543D02*
X033891Y080543D01*
X034264Y080169D01*
X034264Y076499D01*
X033969Y076204D01*
X033763Y076204D01*
X033797Y076224D01*
X033825Y076252D01*
X033845Y076286D01*
X033855Y076324D01*
X033855Y076459D01*
X033320Y076459D01*
X033320Y076204D01*
X033290Y076204D01*
X033290Y076459D01*
X032755Y076459D01*
X032755Y076324D01*
X032765Y076286D01*
X032785Y076252D01*
X032813Y076224D01*
X032847Y076204D01*
X031498Y076204D01*
X031535Y076294D01*
X031535Y076654D01*
X031506Y076724D01*
X031535Y076794D01*
X031535Y077154D01*
X031506Y077224D01*
X031535Y077294D01*
X031535Y077654D01*
X031506Y077724D01*
X031535Y077794D01*
X031535Y078154D01*
X031497Y078246D01*
X031432Y078311D01*
X031435Y078324D01*
X031435Y078459D01*
X030900Y078459D01*
X030900Y078489D01*
X031435Y078489D01*
X031435Y078624D01*
X031432Y078637D01*
X031497Y078702D01*
X031535Y078794D01*
X031535Y079154D01*
X031520Y079189D01*
X031532Y079194D01*
X031625Y079287D01*
X031625Y079287D01*
X031658Y079320D01*
X031708Y079198D01*
X031829Y079077D01*
X031880Y079056D01*
X031879Y079053D01*
X031879Y078883D01*
X031894Y078847D01*
X031829Y078820D01*
X031708Y078699D01*
X031643Y078542D01*
X031643Y078371D01*
X031708Y078214D01*
X031829Y078093D01*
X031880Y078072D01*
X031879Y078069D01*
X031879Y077899D01*
X031894Y077862D01*
X031829Y077835D01*
X031708Y077715D01*
X031643Y077557D01*
X031643Y077387D01*
X031708Y077229D01*
X031829Y077109D01*
X031894Y077082D01*
X031879Y077046D01*
X031879Y076875D01*
X031945Y076718D01*
X032065Y076597D01*
X032222Y076532D01*
X032393Y076532D01*
X032550Y076597D01*
X032584Y076630D01*
X032757Y076630D01*
X032755Y076624D01*
X032755Y076489D01*
X033290Y076489D01*
X033290Y076459D01*
X033320Y076459D01*
X033320Y076489D01*
X033290Y076489D01*
X033290Y076594D01*
X033320Y076594D01*
X033320Y076489D01*
X033855Y076489D01*
X033855Y076624D01*
X033852Y076637D01*
X033917Y076702D01*
X033955Y076794D01*
X033955Y077154D01*
X033926Y077224D01*
X033955Y077294D01*
X033955Y077654D01*
X033926Y077724D01*
X033955Y077794D01*
X033955Y078154D01*
X033926Y078224D01*
X033955Y078294D01*
X033955Y078654D01*
X033926Y078724D01*
X033955Y078794D01*
X033955Y079154D01*
X033926Y079224D01*
X033955Y079294D01*
X033955Y079654D01*
X033926Y079724D01*
X033955Y079794D01*
X034264Y079794D01*
X034264Y079892D02*
X033955Y079892D01*
X033955Y079794D02*
X033955Y080154D01*
X033917Y080246D01*
X033847Y080316D01*
X033755Y080354D01*
X032855Y080354D01*
X032763Y080316D01*
X032730Y080282D01*
X032623Y080282D01*
X032590Y080316D01*
X032432Y080381D01*
X032386Y080381D01*
X032386Y080486D01*
X032362Y080543D01*
X032386Y080483D02*
X033950Y080483D01*
X034049Y080385D02*
X032386Y080385D01*
X032619Y080286D02*
X032734Y080286D01*
X033876Y080286D02*
X034147Y080286D01*
X034246Y080188D02*
X033941Y080188D01*
X033955Y080089D02*
X034264Y080089D01*
X034264Y079991D02*
X033955Y079991D01*
X033938Y079695D02*
X034264Y079695D01*
X034264Y079597D02*
X033955Y079597D01*
X033955Y079498D02*
X034264Y079498D01*
X034264Y079400D02*
X033955Y079400D01*
X033955Y079301D02*
X034264Y079301D01*
X034264Y079203D02*
X033935Y079203D01*
X033955Y079104D02*
X034264Y079104D01*
X034264Y079006D02*
X033955Y079006D01*
X033955Y078907D02*
X034264Y078907D01*
X034264Y078809D02*
X033955Y078809D01*
X033932Y078710D02*
X034264Y078710D01*
X034264Y078612D02*
X033955Y078612D01*
X033955Y078513D02*
X034264Y078513D01*
X034264Y078415D02*
X033955Y078415D01*
X033955Y078316D02*
X034264Y078316D01*
X034264Y078218D02*
X033929Y078218D01*
X033955Y078119D02*
X034264Y078119D01*
X034264Y078021D02*
X033955Y078021D01*
X033955Y077922D02*
X034264Y077922D01*
X034264Y077824D02*
X033955Y077824D01*
X033927Y077725D02*
X034264Y077725D01*
X034264Y077627D02*
X033955Y077627D01*
X033955Y077528D02*
X034264Y077528D01*
X034264Y077430D02*
X033955Y077430D01*
X033955Y077331D02*
X034264Y077331D01*
X034264Y077233D02*
X033930Y077233D01*
X033955Y077134D02*
X034264Y077134D01*
X034264Y077036D02*
X033955Y077036D01*
X033955Y076937D02*
X034264Y076937D01*
X034264Y076839D02*
X033955Y076839D01*
X033933Y076740D02*
X034264Y076740D01*
X034264Y076642D02*
X033856Y076642D01*
X033855Y076543D02*
X034264Y076543D01*
X034210Y076445D02*
X033855Y076445D01*
X033855Y076346D02*
X034111Y076346D01*
X034013Y076248D02*
X033821Y076248D01*
X033320Y076248D02*
X033290Y076248D01*
X033290Y076346D02*
X033320Y076346D01*
X033320Y076445D02*
X033290Y076445D01*
X033290Y076543D02*
X033320Y076543D01*
X032755Y076543D02*
X032421Y076543D01*
X032195Y076543D02*
X031535Y076543D01*
X031535Y076445D02*
X032755Y076445D01*
X032755Y076346D02*
X031535Y076346D01*
X031516Y076248D02*
X032789Y076248D01*
X032020Y076642D02*
X031535Y076642D01*
X031513Y076740D02*
X031935Y076740D01*
X031894Y076839D02*
X031535Y076839D01*
X031535Y076937D02*
X031879Y076937D01*
X031879Y077036D02*
X031535Y077036D01*
X031535Y077134D02*
X031803Y077134D01*
X031707Y077233D02*
X031510Y077233D01*
X031535Y077331D02*
X031666Y077331D01*
X031643Y077430D02*
X031535Y077430D01*
X031535Y077528D02*
X031643Y077528D01*
X031672Y077627D02*
X031535Y077627D01*
X031507Y077725D02*
X031719Y077725D01*
X031817Y077824D02*
X031535Y077824D01*
X031535Y077922D02*
X031879Y077922D01*
X031879Y078021D02*
X031535Y078021D01*
X031535Y078119D02*
X031803Y078119D01*
X031707Y078218D02*
X031509Y078218D01*
X031433Y078316D02*
X031666Y078316D01*
X031643Y078415D02*
X031435Y078415D01*
X031435Y078513D02*
X031643Y078513D01*
X031672Y078612D02*
X031435Y078612D01*
X031500Y078710D02*
X031720Y078710D01*
X031818Y078809D02*
X031535Y078809D01*
X031535Y078907D02*
X031879Y078907D01*
X031879Y079006D02*
X031535Y079006D01*
X031535Y079104D02*
X031802Y079104D01*
X031706Y079203D02*
X031541Y079203D01*
X031639Y079301D02*
X031665Y079301D01*
X030870Y078489D02*
X030870Y078459D01*
X030335Y078459D01*
X030335Y078344D01*
X029392Y078344D01*
X028279Y079457D01*
X028279Y079471D01*
X028211Y079635D01*
X028085Y079761D01*
X027920Y079830D01*
X027742Y079830D01*
X027650Y079792D01*
X027282Y079792D01*
X027780Y080290D01*
X027780Y080290D01*
X027895Y080405D01*
X027949Y080535D01*
X027974Y080524D01*
X028145Y080524D01*
X028302Y080589D01*
X028335Y080622D01*
X028368Y080589D01*
X028526Y080524D01*
X028696Y080524D01*
X028788Y080562D01*
X028880Y080471D01*
X029088Y080384D01*
X029292Y080384D01*
X029264Y080317D01*
X029264Y079462D01*
X029321Y079326D01*
X029872Y078774D01*
X029976Y078670D01*
X030112Y078614D01*
X030335Y078614D01*
X030335Y078489D01*
X030870Y078489D01*
X030335Y078513D02*
X029223Y078513D01*
X029321Y078415D02*
X030335Y078415D01*
X030335Y078612D02*
X029124Y078612D01*
X029026Y078710D02*
X029936Y078710D01*
X029837Y078809D02*
X028927Y078809D01*
X028829Y078907D02*
X029739Y078907D01*
X029640Y079006D02*
X028730Y079006D01*
X028632Y079104D02*
X029542Y079104D01*
X029443Y079203D02*
X028533Y079203D01*
X028435Y079301D02*
X029345Y079301D01*
X029290Y079400D02*
X028336Y079400D01*
X028268Y079498D02*
X029264Y079498D01*
X029264Y079597D02*
X028227Y079597D01*
X028151Y079695D02*
X029264Y079695D01*
X029264Y079794D02*
X028007Y079794D01*
X027656Y079794D02*
X027284Y079794D01*
X027383Y079892D02*
X029264Y079892D01*
X029264Y079991D02*
X027481Y079991D01*
X027580Y080089D02*
X029264Y080089D01*
X029264Y080188D02*
X027678Y080188D01*
X027777Y080286D02*
X029264Y080286D01*
X029087Y080385D02*
X027875Y080385D01*
X027928Y080483D02*
X028867Y080483D01*
X028386Y080582D02*
X028285Y080582D01*
X029744Y080779D02*
X031103Y080779D01*
X031201Y080877D02*
X029770Y080877D01*
X029770Y080976D02*
X031300Y080976D01*
X031398Y081074D02*
X029766Y081074D01*
X029725Y081173D02*
X031497Y081173D01*
X031659Y081271D02*
X029691Y081271D01*
X027496Y077331D02*
X026885Y077331D01*
X026916Y077344D02*
X027042Y077470D01*
X027110Y077635D01*
X027110Y077717D01*
X028167Y076660D01*
X028303Y076604D01*
X029473Y076604D01*
X028381Y075535D01*
X026914Y075535D01*
X026838Y075611D01*
X026734Y075715D01*
X026598Y075771D01*
X025860Y075771D01*
X025724Y075715D01*
X025151Y075141D01*
X022514Y075141D01*
X022378Y075085D01*
X022274Y074981D01*
X022274Y074981D01*
X020409Y073116D01*
X020305Y073012D01*
X020249Y072876D01*
X020249Y069742D01*
X017799Y072191D01*
X017799Y073341D01*
X017749Y073462D01*
X017145Y074066D01*
X017172Y074076D01*
X017182Y074086D01*
X018362Y074086D01*
X018498Y074143D01*
X020865Y076511D01*
X020928Y076360D01*
X021054Y076234D01*
X021219Y076166D01*
X021397Y076166D01*
X021489Y076204D01*
X025695Y076204D01*
X025778Y076170D01*
X025956Y076170D01*
X026121Y076238D01*
X026247Y076364D01*
X026315Y076529D01*
X026315Y076707D01*
X026306Y076729D01*
X026361Y076729D01*
X026526Y076797D01*
X026652Y076923D01*
X026720Y077088D01*
X026720Y077266D01*
X026716Y077276D01*
X026751Y077276D01*
X026916Y077344D01*
X027002Y077430D02*
X027398Y077430D01*
X027299Y077528D02*
X027066Y077528D01*
X027107Y077627D02*
X027201Y077627D01*
X027595Y077233D02*
X026720Y077233D01*
X026720Y077134D02*
X027693Y077134D01*
X027792Y077036D02*
X026699Y077036D01*
X026658Y076937D02*
X027890Y076937D01*
X027989Y076839D02*
X026568Y076839D01*
X026389Y076740D02*
X028087Y076740D01*
X028212Y076642D02*
X026315Y076642D01*
X026315Y076543D02*
X029411Y076543D01*
X029310Y076445D02*
X026280Y076445D01*
X026229Y076346D02*
X029210Y076346D01*
X029109Y076248D02*
X026131Y076248D01*
X025822Y075755D02*
X020110Y075755D01*
X020012Y075657D02*
X025666Y075657D01*
X025568Y075558D02*
X019913Y075558D01*
X019815Y075460D02*
X025469Y075460D01*
X025371Y075361D02*
X019716Y075361D01*
X019618Y075263D02*
X025272Y075263D01*
X025174Y075164D02*
X019519Y075164D01*
X019421Y075066D02*
X022358Y075066D01*
X022260Y074967D02*
X019322Y074967D01*
X019224Y074869D02*
X022161Y074869D01*
X022063Y074770D02*
X019125Y074770D01*
X019027Y074672D02*
X021964Y074672D01*
X021866Y074573D02*
X018928Y074573D01*
X018830Y074475D02*
X021767Y074475D01*
X021669Y074376D02*
X018731Y074376D01*
X018633Y074278D02*
X021570Y074278D01*
X021472Y074179D02*
X018534Y074179D01*
X017799Y073293D02*
X020585Y073293D01*
X020487Y073194D02*
X017799Y073194D01*
X017799Y073096D02*
X020388Y073096D01*
X020409Y073116D02*
X020409Y073116D01*
X020299Y072997D02*
X017799Y072997D01*
X017799Y072899D02*
X020258Y072899D01*
X020249Y072800D02*
X017799Y072800D01*
X017799Y072702D02*
X020249Y072702D01*
X020249Y072603D02*
X017799Y072603D01*
X017799Y072505D02*
X020249Y072505D01*
X020249Y072406D02*
X017799Y072406D01*
X017799Y072308D02*
X020249Y072308D01*
X020249Y072209D02*
X017799Y072209D01*
X017880Y072111D02*
X020249Y072111D01*
X020249Y072012D02*
X017978Y072012D01*
X018077Y071914D02*
X020249Y071914D01*
X020249Y071815D02*
X018175Y071815D01*
X018274Y071717D02*
X020249Y071717D01*
X020249Y071618D02*
X018372Y071618D01*
X018471Y071520D02*
X020249Y071520D01*
X020249Y071421D02*
X018569Y071421D01*
X018668Y071323D02*
X020249Y071323D01*
X020249Y071224D02*
X018766Y071224D01*
X018865Y071126D02*
X020249Y071126D01*
X020249Y071027D02*
X018963Y071027D01*
X019062Y070929D02*
X020249Y070929D01*
X020249Y070830D02*
X019160Y070830D01*
X019259Y070732D02*
X020249Y070732D01*
X020249Y070633D02*
X019357Y070633D01*
X019456Y070535D02*
X020249Y070535D01*
X020249Y070436D02*
X019554Y070436D01*
X019653Y070338D02*
X020249Y070338D01*
X020249Y070239D02*
X019751Y070239D01*
X019850Y070141D02*
X020249Y070141D01*
X020249Y070042D02*
X019948Y070042D01*
X020047Y069944D02*
X020249Y069944D01*
X020249Y069845D02*
X020145Y069845D01*
X020244Y069747D02*
X020249Y069747D01*
X019287Y067875D02*
X014111Y067875D01*
X014105Y067777D02*
X014012Y067777D01*
X014006Y067678D02*
X013938Y067678D01*
X014209Y067974D02*
X019190Y067974D01*
X019092Y068072D02*
X014308Y068072D01*
X014404Y068171D02*
X018995Y068171D01*
X018898Y068269D02*
X014445Y068269D01*
X014453Y068368D02*
X018800Y068368D01*
X018703Y068466D02*
X014453Y068466D01*
X014453Y068565D02*
X018606Y068565D01*
X018509Y068663D02*
X014453Y068663D01*
X014453Y068762D02*
X018411Y068762D01*
X018314Y068860D02*
X014453Y068860D01*
X014453Y068959D02*
X018217Y068959D01*
X018120Y069057D02*
X014453Y069057D01*
X014453Y069156D02*
X018022Y069156D01*
X017925Y069254D02*
X014453Y069254D01*
X014453Y069353D02*
X017828Y069353D01*
X017731Y069451D02*
X014453Y069451D01*
X014453Y069550D02*
X017633Y069550D01*
X017536Y069648D02*
X014453Y069648D01*
X014453Y069747D02*
X017439Y069747D01*
X017342Y069845D02*
X014449Y069845D01*
X014571Y069944D02*
X015206Y069944D01*
X015108Y070042D02*
X014748Y070042D01*
X014833Y070141D02*
X015051Y070141D01*
X015716Y069944D02*
X017244Y069944D01*
X017066Y070693D02*
X015725Y070693D01*
X015715Y070702D01*
X015550Y070771D01*
X015372Y070771D01*
X015360Y070766D01*
X015313Y070880D01*
X015242Y070951D01*
X015229Y070982D01*
X014349Y071862D01*
X014228Y071912D01*
X011543Y071912D01*
X010034Y073421D01*
X010034Y073452D01*
X009957Y073639D01*
X009813Y073782D01*
X009650Y073850D01*
X009813Y073918D01*
X009916Y074020D01*
X009943Y074020D01*
X011203Y072759D01*
X011325Y072709D01*
X014897Y072709D01*
X015018Y072759D01*
X015111Y072852D01*
X015111Y072852D01*
X015229Y072970D01*
X015279Y073092D01*
X015279Y073660D01*
X016194Y072745D01*
X016194Y071635D01*
X016244Y071514D01*
X016337Y071421D01*
X016337Y071421D01*
X017066Y070693D01*
X017026Y070732D02*
X015644Y070732D01*
X015333Y070830D02*
X016928Y070830D01*
X016829Y070929D02*
X015264Y070929D01*
X015184Y071027D02*
X016731Y071027D01*
X016632Y071126D02*
X015085Y071126D01*
X014987Y071224D02*
X016534Y071224D01*
X016435Y071323D02*
X014888Y071323D01*
X014790Y071421D02*
X016337Y071421D01*
X016242Y071520D02*
X014691Y071520D01*
X014593Y071618D02*
X016201Y071618D01*
X016194Y071717D02*
X014494Y071717D01*
X014396Y071815D02*
X016194Y071815D01*
X016194Y071914D02*
X011541Y071914D01*
X011443Y072012D02*
X016194Y072012D01*
X016194Y072111D02*
X011344Y072111D01*
X011246Y072209D02*
X016194Y072209D01*
X016194Y072308D02*
X011147Y072308D01*
X011049Y072406D02*
X016194Y072406D01*
X016194Y072505D02*
X010950Y072505D01*
X010852Y072603D02*
X016194Y072603D01*
X016194Y072702D02*
X010753Y072702D01*
X010655Y072800D02*
X011162Y072800D01*
X011064Y072899D02*
X010556Y072899D01*
X010458Y072997D02*
X010965Y072997D01*
X010867Y073096D02*
X010359Y073096D01*
X010261Y073194D02*
X010768Y073194D01*
X010670Y073293D02*
X010162Y073293D01*
X010064Y073391D02*
X010571Y073391D01*
X010473Y073490D02*
X010019Y073490D01*
X009978Y073588D02*
X010374Y073588D01*
X010276Y073687D02*
X009909Y073687D01*
X009806Y073785D02*
X010177Y073785D01*
X010079Y073884D02*
X009731Y073884D01*
X009878Y073982D02*
X009980Y073982D01*
X009951Y072020D02*
X010983Y070988D01*
X011104Y070937D01*
X011236Y070937D01*
X012814Y070937D01*
X012794Y070917D01*
X012701Y070824D01*
X012651Y070703D01*
X012651Y070139D01*
X012701Y070017D01*
X013187Y069531D01*
X013090Y069572D01*
X012872Y069572D01*
X012731Y069513D01*
X011794Y069513D01*
X010133Y071174D01*
X010154Y071225D01*
X010154Y071475D01*
X010058Y071707D01*
X009881Y071884D01*
X009807Y071915D01*
X009813Y071918D01*
X009916Y072020D01*
X009951Y072020D01*
X009958Y072012D02*
X009908Y072012D01*
X009810Y071914D02*
X010057Y071914D01*
X010155Y071815D02*
X009950Y071815D01*
X010049Y071717D02*
X010254Y071717D01*
X010352Y071618D02*
X010095Y071618D01*
X010136Y071520D02*
X010451Y071520D01*
X010549Y071421D02*
X010154Y071421D01*
X010154Y071323D02*
X010648Y071323D01*
X010746Y071224D02*
X010154Y071224D01*
X010182Y071126D02*
X010845Y071126D01*
X010943Y071027D02*
X010280Y071027D01*
X010379Y070929D02*
X012806Y070929D01*
X012707Y070830D02*
X010477Y070830D01*
X010576Y070732D02*
X012663Y070732D01*
X012651Y070633D02*
X010674Y070633D01*
X010773Y070535D02*
X012651Y070535D01*
X012651Y070436D02*
X010871Y070436D01*
X010970Y070338D02*
X012651Y070338D01*
X012651Y070239D02*
X011068Y070239D01*
X011167Y070141D02*
X012651Y070141D01*
X012691Y070042D02*
X011265Y070042D01*
X011364Y069944D02*
X012775Y069944D01*
X012873Y069845D02*
X011462Y069845D01*
X011561Y069747D02*
X012972Y069747D01*
X013070Y069648D02*
X011659Y069648D01*
X011758Y069550D02*
X012819Y069550D01*
X013143Y069550D02*
X013169Y069550D01*
X012532Y067667D02*
X009283Y064452D01*
X009234Y064452D01*
X009077Y064386D01*
X008956Y064266D01*
X008905Y064141D01*
X008905Y067589D01*
X009051Y067589D01*
X009239Y067667D01*
X012532Y067667D01*
X012444Y067580D02*
X008905Y067580D01*
X008905Y067481D02*
X012344Y067481D01*
X012245Y067383D02*
X008905Y067383D01*
X008905Y067284D02*
X012145Y067284D01*
X012046Y067186D02*
X008905Y067186D01*
X008905Y067087D02*
X011946Y067087D01*
X011847Y066989D02*
X008905Y066989D01*
X008905Y066890D02*
X011747Y066890D01*
X011648Y066792D02*
X008905Y066792D01*
X008905Y066693D02*
X011548Y066693D01*
X011449Y066595D02*
X008905Y066595D01*
X008905Y066496D02*
X011349Y066496D01*
X011250Y066398D02*
X008905Y066398D01*
X008905Y066299D02*
X011150Y066299D01*
X011051Y066201D02*
X008905Y066201D01*
X008905Y066102D02*
X010951Y066102D01*
X010852Y066004D02*
X008905Y066004D01*
X008905Y065905D02*
X010752Y065905D01*
X010652Y065807D02*
X008905Y065807D01*
X008905Y065708D02*
X010553Y065708D01*
X010453Y065610D02*
X008905Y065610D01*
X008905Y065511D02*
X010354Y065511D01*
X010254Y065413D02*
X008905Y065413D01*
X008905Y065314D02*
X010155Y065314D01*
X010055Y065216D02*
X008905Y065216D01*
X008905Y065117D02*
X009956Y065117D01*
X009856Y065019D02*
X008905Y065019D01*
X008905Y064920D02*
X009757Y064920D01*
X009657Y064822D02*
X008905Y064822D01*
X008905Y064723D02*
X009558Y064723D01*
X009458Y064625D02*
X008905Y064625D01*
X008905Y064526D02*
X009359Y064526D01*
X009177Y064428D02*
X008905Y064428D01*
X008905Y064329D02*
X009020Y064329D01*
X008942Y064231D02*
X008905Y064231D01*
X007845Y064231D02*
X007629Y064231D01*
X007629Y064259D02*
X007307Y064581D01*
X006852Y064581D01*
X006579Y064309D01*
X006458Y064430D01*
X006476Y064438D01*
X006673Y064635D01*
X006703Y064707D01*
X006735Y064739D01*
X006893Y064581D01*
X007029Y064581D01*
X007029Y064981D01*
X007129Y064981D01*
X007129Y064581D01*
X007266Y064581D01*
X007529Y064845D01*
X007529Y064981D01*
X007129Y064981D01*
X007129Y065081D01*
X007029Y065081D01*
X007029Y065481D01*
X006893Y065481D01*
X006779Y065368D01*
X006779Y065695D01*
X006893Y065581D01*
X007029Y065581D01*
X007029Y065981D01*
X007129Y065981D01*
X007129Y065581D01*
X007266Y065581D01*
X007529Y065845D01*
X007529Y065981D01*
X007129Y065981D01*
X007129Y066081D01*
X007029Y066081D01*
X007029Y066481D01*
X006893Y066481D01*
X006779Y066368D01*
X006779Y066695D01*
X006893Y066581D01*
X007029Y066581D01*
X007029Y066981D01*
X007129Y066981D01*
X007129Y066581D01*
X007266Y066581D01*
X007529Y066845D01*
X007529Y066981D01*
X007129Y066981D01*
X007129Y067081D01*
X007029Y067081D01*
X007029Y067481D01*
X006893Y067481D01*
X006779Y067368D01*
X006779Y070985D01*
X006673Y071243D01*
X006476Y071440D01*
X006111Y071804D01*
X006327Y071804D01*
X006599Y072076D01*
X006871Y071804D01*
X007327Y071804D01*
X007649Y072126D01*
X007649Y072217D01*
X007650Y072215D01*
X007799Y072066D01*
X008379Y071486D01*
X008374Y071475D01*
X008374Y071225D01*
X008379Y071214D01*
X007925Y070761D01*
X007845Y070566D01*
X007845Y054520D01*
X007787Y054577D01*
X007595Y054769D01*
X007629Y054803D01*
X007629Y055259D01*
X007357Y055531D01*
X007629Y055803D01*
X007629Y056259D01*
X007357Y056531D01*
X007629Y056803D01*
X007629Y057259D01*
X007357Y057531D01*
X007629Y057803D01*
X007629Y058259D01*
X007357Y058531D01*
X007629Y058803D01*
X007629Y059259D01*
X007357Y059531D01*
X007629Y059803D01*
X007629Y060259D01*
X007357Y060531D01*
X007629Y060803D01*
X007629Y061259D01*
X007357Y061531D01*
X007629Y061803D01*
X007629Y062259D01*
X007357Y062531D01*
X007629Y062803D01*
X007629Y063259D01*
X007357Y063531D01*
X007629Y063803D01*
X007629Y064259D01*
X007559Y064329D02*
X007845Y064329D01*
X007845Y064428D02*
X007461Y064428D01*
X007362Y064526D02*
X007845Y064526D01*
X007845Y064625D02*
X007309Y064625D01*
X007408Y064723D02*
X007845Y064723D01*
X007845Y064822D02*
X007506Y064822D01*
X007529Y064920D02*
X007845Y064920D01*
X007845Y065019D02*
X007129Y065019D01*
X007129Y065081D02*
X007529Y065081D01*
X007529Y065218D01*
X007266Y065481D01*
X007129Y065481D01*
X007129Y065081D01*
X007129Y065117D02*
X007029Y065117D01*
X007029Y065216D02*
X007129Y065216D01*
X007129Y065314D02*
X007029Y065314D01*
X007029Y065413D02*
X007129Y065413D01*
X007129Y065610D02*
X007029Y065610D01*
X007029Y065708D02*
X007129Y065708D01*
X007129Y065807D02*
X007029Y065807D01*
X007029Y065905D02*
X007129Y065905D01*
X007129Y066004D02*
X007845Y066004D01*
X007845Y066102D02*
X007529Y066102D01*
X007529Y066081D02*
X007529Y066218D01*
X007266Y066481D01*
X007129Y066481D01*
X007129Y066081D01*
X007529Y066081D01*
X007529Y066201D02*
X007845Y066201D01*
X007845Y066299D02*
X007448Y066299D01*
X007349Y066398D02*
X007845Y066398D01*
X007845Y066496D02*
X006779Y066496D01*
X006779Y066398D02*
X006810Y066398D01*
X006779Y066595D02*
X006879Y066595D01*
X006781Y066693D02*
X006779Y066693D01*
X007029Y066693D02*
X007129Y066693D01*
X007129Y066595D02*
X007029Y066595D01*
X007029Y066792D02*
X007129Y066792D01*
X007129Y066890D02*
X007029Y066890D01*
X007129Y066989D02*
X007845Y066989D01*
X007845Y067087D02*
X007529Y067087D01*
X007529Y067081D02*
X007529Y067218D01*
X007266Y067481D01*
X007129Y067481D01*
X007129Y067081D01*
X007529Y067081D01*
X007529Y067186D02*
X007845Y067186D01*
X007845Y067284D02*
X007463Y067284D01*
X007364Y067383D02*
X007845Y067383D01*
X007845Y067481D02*
X006779Y067481D01*
X006779Y067383D02*
X006795Y067383D01*
X006779Y067580D02*
X007845Y067580D01*
X007845Y067678D02*
X006779Y067678D01*
X006779Y067777D02*
X007845Y067777D01*
X007845Y067875D02*
X006779Y067875D01*
X006779Y067974D02*
X007845Y067974D01*
X007845Y068072D02*
X006779Y068072D01*
X006779Y068171D02*
X007845Y068171D01*
X007845Y068269D02*
X006779Y068269D01*
X006779Y068368D02*
X007845Y068368D01*
X007845Y068466D02*
X006779Y068466D01*
X006779Y068565D02*
X007845Y068565D01*
X007845Y068663D02*
X006779Y068663D01*
X006779Y068762D02*
X007845Y068762D01*
X007845Y068860D02*
X006779Y068860D01*
X006779Y068959D02*
X007845Y068959D01*
X007845Y069057D02*
X006779Y069057D01*
X006779Y069156D02*
X007845Y069156D01*
X007845Y069254D02*
X006779Y069254D01*
X006779Y069353D02*
X007845Y069353D01*
X007845Y069451D02*
X006779Y069451D01*
X006779Y069550D02*
X007845Y069550D01*
X007845Y069648D02*
X006779Y069648D01*
X006779Y069747D02*
X007845Y069747D01*
X007845Y069845D02*
X006779Y069845D01*
X006779Y069944D02*
X007845Y069944D01*
X007845Y070042D02*
X006779Y070042D01*
X006779Y070141D02*
X007845Y070141D01*
X007845Y070239D02*
X006779Y070239D01*
X006779Y070338D02*
X007845Y070338D01*
X007845Y070436D02*
X006779Y070436D01*
X006779Y070535D02*
X007845Y070535D01*
X007873Y070633D02*
X006779Y070633D01*
X006779Y070732D02*
X007913Y070732D01*
X007995Y070830D02*
X006779Y070830D01*
X006779Y070929D02*
X008094Y070929D01*
X008192Y071027D02*
X006762Y071027D01*
X006721Y071126D02*
X008291Y071126D01*
X008375Y071224D02*
X006680Y071224D01*
X006593Y071323D02*
X008374Y071323D01*
X008374Y071421D02*
X006494Y071421D01*
X006396Y071520D02*
X008345Y071520D01*
X008247Y071618D02*
X006297Y071618D01*
X006199Y071717D02*
X008148Y071717D01*
X008050Y071815D02*
X007338Y071815D01*
X007437Y071914D02*
X007951Y071914D01*
X007853Y072012D02*
X007535Y072012D01*
X007634Y072111D02*
X007754Y072111D01*
X007656Y072209D02*
X007649Y072209D01*
X006860Y071815D02*
X006338Y071815D01*
X006437Y071914D02*
X006761Y071914D01*
X006663Y072012D02*
X006535Y072012D01*
X008905Y070241D02*
X008905Y068725D01*
X009051Y068725D01*
X009239Y068647D01*
X011274Y068647D01*
X011176Y068746D01*
X009293Y070629D01*
X008905Y070241D01*
X008905Y070239D02*
X009682Y070239D01*
X009781Y070141D02*
X008905Y070141D01*
X008905Y070042D02*
X009879Y070042D01*
X009978Y069944D02*
X008905Y069944D01*
X008905Y069845D02*
X010076Y069845D01*
X010175Y069747D02*
X008905Y069747D01*
X008905Y069648D02*
X010273Y069648D01*
X010372Y069550D02*
X008905Y069550D01*
X008905Y069451D02*
X010470Y069451D01*
X010569Y069353D02*
X008905Y069353D01*
X008905Y069254D02*
X010667Y069254D01*
X010766Y069156D02*
X008905Y069156D01*
X008905Y069057D02*
X010864Y069057D01*
X010963Y068959D02*
X008905Y068959D01*
X008905Y068860D02*
X011061Y068860D01*
X011160Y068762D02*
X008905Y068762D01*
X009200Y068663D02*
X011258Y068663D01*
X011944Y065708D02*
X012073Y065708D01*
X012126Y065610D02*
X011845Y065610D01*
X011747Y065511D02*
X012225Y065511D01*
X012405Y065413D02*
X011648Y065413D01*
X011550Y065314D02*
X013921Y065314D01*
X013922Y065413D02*
X012769Y065413D01*
X012950Y065511D02*
X013922Y065511D01*
X013922Y065610D02*
X013048Y065610D01*
X013101Y065708D02*
X013956Y065708D01*
X014457Y065708D02*
X014487Y065708D01*
X014487Y065610D02*
X014457Y065610D01*
X014457Y065511D02*
X014487Y065511D01*
X014487Y065413D02*
X014457Y065413D01*
X015022Y065413D02*
X016242Y065413D01*
X016242Y065511D02*
X015022Y065511D01*
X015022Y065610D02*
X016242Y065610D01*
X016261Y065708D02*
X014988Y065708D01*
X015023Y065314D02*
X015241Y065314D01*
X015760Y065314D02*
X016242Y065314D01*
X016264Y065216D02*
X015859Y065216D01*
X015903Y065117D02*
X016242Y065117D01*
X016242Y065019D02*
X015929Y065019D01*
X015929Y064920D02*
X016242Y064920D01*
X016242Y064822D02*
X015904Y064822D01*
X015862Y064723D02*
X016267Y064723D01*
X016242Y064625D02*
X015763Y064625D01*
X015693Y064526D02*
X016242Y064526D01*
X016242Y064428D02*
X015693Y064428D01*
X015761Y064329D02*
X016242Y064329D01*
X016270Y064231D02*
X015860Y064231D01*
X015903Y064132D02*
X016242Y064132D01*
X016242Y064034D02*
X015929Y064034D01*
X015929Y063935D02*
X016242Y063935D01*
X016242Y063837D02*
X015903Y063837D01*
X015861Y063738D02*
X016268Y063738D01*
X016344Y063640D02*
X015762Y063640D01*
X015693Y063541D02*
X016342Y063541D01*
X016342Y063443D02*
X015693Y063443D01*
X015693Y063344D02*
X016342Y063344D01*
X016277Y063246D02*
X015821Y063246D01*
X015887Y063147D02*
X016242Y063147D01*
X016242Y063049D02*
X015928Y063049D01*
X015929Y062950D02*
X016242Y062950D01*
X016242Y062852D02*
X015919Y062852D01*
X015879Y062753D02*
X016087Y062753D01*
X015988Y062655D02*
X015801Y062655D01*
X015890Y062556D02*
X015693Y062556D01*
X015693Y062458D02*
X015791Y062458D01*
X015716Y062359D02*
X015695Y062359D01*
X015225Y061646D02*
X015258Y061613D01*
X015391Y061558D01*
X015387Y061549D01*
X015387Y061379D01*
X015452Y061222D01*
X015573Y061101D01*
X015730Y061036D01*
X015901Y061036D01*
X016058Y061101D01*
X016179Y061222D01*
X016194Y061258D01*
X016199Y061263D01*
X016292Y061356D01*
X016342Y061477D01*
X016342Y061513D01*
X016402Y061489D01*
X016402Y061389D01*
X016321Y061355D01*
X016161Y061195D01*
X016074Y060987D01*
X016074Y060761D01*
X016161Y060552D01*
X016256Y060456D01*
X015466Y060456D01*
X015389Y060424D01*
X015345Y060424D01*
X015180Y060356D01*
X015054Y060230D01*
X015003Y060107D01*
X014857Y060107D01*
X014799Y060248D01*
X014678Y060369D01*
X014521Y060434D01*
X014350Y060434D01*
X014193Y060369D01*
X014072Y060248D01*
X014007Y060091D01*
X014007Y060052D01*
X013864Y060052D01*
X013864Y060091D01*
X013799Y060248D01*
X013678Y060369D01*
X013521Y060434D01*
X013350Y060434D01*
X013193Y060369D01*
X013072Y060248D01*
X013007Y060091D01*
X013007Y059944D01*
X011101Y059944D01*
X011067Y061272D01*
X011067Y061333D01*
X011065Y061337D01*
X011065Y061341D01*
X011040Y061398D01*
X011017Y061454D01*
X011013Y061457D01*
X011012Y061461D01*
X010967Y061504D01*
X010257Y062214D01*
X010210Y062261D02*
X013839Y062261D01*
X013822Y062359D02*
X009949Y062359D01*
X009851Y062458D02*
X013822Y062458D01*
X013822Y062556D02*
X008905Y062556D01*
X008905Y062655D02*
X009128Y062655D01*
X008999Y062753D02*
X008905Y062753D01*
X008905Y062852D02*
X008933Y062852D01*
X009511Y062655D02*
X013822Y062655D01*
X013842Y062753D02*
X009640Y062753D01*
X009706Y062852D02*
X013822Y062852D01*
X013822Y062950D02*
X009746Y062950D01*
X009796Y063049D02*
X013822Y063049D01*
X013822Y063147D02*
X009894Y063147D01*
X009993Y063246D02*
X013845Y063246D01*
X013822Y063344D02*
X010057Y063344D01*
X010083Y063443D02*
X013822Y063443D01*
X013822Y063541D02*
X010083Y063541D01*
X010083Y063640D02*
X013822Y063640D01*
X013848Y063738D02*
X010083Y063738D01*
X010083Y063837D02*
X013822Y063837D01*
X013822Y063935D02*
X010171Y063935D01*
X010269Y064034D02*
X013822Y064034D01*
X013822Y064132D02*
X010368Y064132D01*
X010466Y064231D02*
X013850Y064231D01*
X013822Y064329D02*
X010565Y064329D01*
X010663Y064428D02*
X013822Y064428D01*
X013822Y064526D02*
X010762Y064526D01*
X010860Y064625D02*
X013822Y064625D01*
X013847Y064723D02*
X010959Y064723D01*
X011057Y064822D02*
X013822Y064822D01*
X013822Y064920D02*
X011156Y064920D01*
X011254Y065019D02*
X013822Y065019D01*
X013822Y065117D02*
X011353Y065117D01*
X011451Y065216D02*
X013844Y065216D01*
X013142Y065807D02*
X016333Y065807D01*
X016462Y065905D02*
X013233Y065905D01*
X013332Y066004D02*
X016430Y066004D01*
X016430Y066102D02*
X013430Y066102D01*
X013529Y066201D02*
X016447Y066201D01*
X016488Y066299D02*
X013627Y066299D01*
X013726Y066398D02*
X016572Y066398D01*
X016736Y066496D02*
X013824Y066496D01*
X013952Y066595D02*
X014079Y066595D01*
X015072Y066595D02*
X018469Y066595D01*
X018516Y066496D02*
X017022Y066496D01*
X017185Y066398D02*
X018516Y066398D01*
X018516Y066299D02*
X017269Y066299D01*
X017310Y066201D02*
X018516Y066201D01*
X018516Y066102D02*
X017327Y066102D01*
X017327Y066004D02*
X018516Y066004D01*
X018516Y065905D02*
X017295Y065905D01*
X017450Y065807D02*
X018516Y065807D01*
X018516Y065708D02*
X017522Y065708D01*
X017542Y065610D02*
X018516Y065610D01*
X018516Y065511D02*
X017542Y065511D01*
X017542Y065413D02*
X018516Y065413D01*
X018516Y065314D02*
X017777Y065314D01*
X017902Y065216D02*
X018516Y065216D01*
X018516Y065117D02*
X018001Y065117D01*
X018099Y065019D02*
X018516Y065019D01*
X018516Y064920D02*
X018198Y064920D01*
X018296Y064822D02*
X018516Y064822D01*
X018522Y064723D02*
X018395Y064723D01*
X018493Y064625D02*
X018563Y064625D01*
X018592Y064526D02*
X018648Y064526D01*
X018690Y064428D02*
X018746Y064428D01*
X018789Y064329D02*
X018845Y064329D01*
X018887Y064231D02*
X018943Y064231D01*
X018986Y064132D02*
X019042Y064132D01*
X019084Y064034D02*
X019140Y064034D01*
X019183Y063935D02*
X019239Y063935D01*
X019280Y063837D02*
X019337Y063837D01*
X019321Y063738D02*
X019436Y063738D01*
X019534Y063640D02*
X019335Y063640D01*
X019335Y063541D02*
X019633Y063541D01*
X019731Y063443D02*
X019335Y063443D01*
X019335Y063344D02*
X019830Y063344D01*
X019928Y063246D02*
X019335Y063246D01*
X019335Y063147D02*
X020027Y063147D01*
X020125Y063049D02*
X019335Y063049D01*
X019335Y062950D02*
X020224Y062950D01*
X020322Y062852D02*
X019335Y062852D01*
X019335Y062753D02*
X020421Y062753D01*
X020519Y062655D02*
X019335Y062655D01*
X019335Y062556D02*
X020618Y062556D01*
X020634Y062458D02*
X019335Y062458D01*
X019335Y062359D02*
X020593Y062359D01*
X020584Y062261D02*
X019335Y062261D01*
X019335Y062162D02*
X020586Y062162D01*
X020627Y062064D02*
X019335Y062064D01*
X019335Y061965D02*
X020693Y061965D01*
X020822Y061867D02*
X019335Y061867D01*
X019335Y061768D02*
X023039Y061768D01*
X023238Y061768D02*
X023729Y061768D01*
X023630Y061670D02*
X019335Y061670D01*
X019335Y061571D02*
X022446Y061571D01*
X022265Y061473D02*
X019335Y061473D01*
X019335Y061374D02*
X022166Y061374D01*
X022113Y061276D02*
X019335Y061276D01*
X019335Y061177D02*
X022023Y061177D01*
X021925Y061079D02*
X019335Y061079D01*
X019335Y060980D02*
X021847Y060980D01*
X021807Y060882D02*
X019335Y060882D01*
X019335Y060783D02*
X021782Y060783D01*
X021782Y060685D02*
X019335Y060685D01*
X019335Y060586D02*
X021782Y060586D01*
X021782Y060488D02*
X019335Y060488D01*
X019335Y060389D02*
X021782Y060389D01*
X021782Y060291D02*
X019335Y060291D01*
X019312Y060192D02*
X021782Y060192D01*
X021782Y060094D02*
X019260Y060094D01*
X019217Y059995D02*
X021782Y059995D01*
X021782Y059897D02*
X020821Y059897D01*
X020950Y059798D02*
X021782Y059798D01*
X021782Y059700D02*
X021019Y059700D01*
X021060Y059601D02*
X021782Y059601D01*
X021782Y059503D02*
X021067Y059503D01*
X021066Y059404D02*
X021782Y059404D01*
X021782Y059306D02*
X021025Y059306D01*
X020989Y059207D02*
X021782Y059207D01*
X021781Y059109D02*
X020973Y059109D01*
X020932Y059010D02*
X021744Y059010D01*
X021744Y058912D02*
X020834Y058912D01*
X020735Y058813D02*
X021744Y058813D01*
X021776Y058715D02*
X020637Y058715D01*
X020538Y058616D02*
X021816Y058616D01*
X020416Y059897D02*
X020231Y059897D01*
X019825Y059897D02*
X019640Y059897D01*
X019235Y059897D02*
X019217Y059897D01*
X019315Y057827D02*
X019284Y057796D01*
X019169Y057681D01*
X019106Y057530D01*
X019106Y055320D01*
X019169Y055169D01*
X019984Y054354D01*
X019197Y054354D01*
X018112Y055439D01*
X017976Y055496D01*
X015625Y055496D01*
X015715Y055533D01*
X015841Y055659D01*
X015909Y055824D01*
X015909Y056002D01*
X015841Y056167D01*
X015831Y056177D01*
X015831Y057168D01*
X015775Y057304D01*
X015280Y057799D01*
X015280Y057965D01*
X015772Y058456D01*
X015780Y058456D01*
X016250Y057987D01*
X016354Y057883D01*
X016490Y057827D01*
X019315Y057827D01*
X019218Y057730D02*
X015349Y057730D01*
X015280Y057828D02*
X016486Y057828D01*
X016310Y057927D02*
X015280Y057927D01*
X015341Y058025D02*
X016212Y058025D01*
X016113Y058124D02*
X015439Y058124D01*
X015538Y058222D02*
X016015Y058222D01*
X015916Y058321D02*
X015636Y058321D01*
X015735Y058419D02*
X015818Y058419D01*
X015845Y059205D02*
X016023Y059205D01*
X016046Y059215D01*
X016104Y059156D01*
X016007Y059196D01*
X015545Y059196D01*
X015409Y059140D01*
X015305Y059036D01*
X014596Y058327D01*
X014540Y058191D01*
X014540Y057572D01*
X014596Y057436D01*
X014700Y057332D01*
X015091Y056941D01*
X015091Y056395D01*
X014402Y057084D01*
X014310Y057177D01*
X014188Y057227D01*
X010677Y057227D01*
X010043Y057861D01*
X010070Y057926D01*
X010070Y058129D01*
X009992Y058316D01*
X009849Y058460D01*
X009685Y058527D01*
X009754Y058556D01*
X009920Y058389D01*
X010041Y058339D01*
X014464Y058339D01*
X014585Y058389D01*
X014678Y058482D01*
X015215Y059019D01*
X015266Y059141D01*
X015266Y059403D01*
X015299Y059436D01*
X015338Y059531D01*
X015345Y059528D01*
X015501Y059528D01*
X015554Y059399D01*
X015680Y059273D01*
X015845Y059205D01*
X015839Y059207D02*
X015266Y059207D01*
X015266Y059306D02*
X015647Y059306D01*
X015552Y059404D02*
X015267Y059404D01*
X015326Y059503D02*
X015511Y059503D01*
X015378Y059109D02*
X015252Y059109D01*
X015279Y059010D02*
X015206Y059010D01*
X015181Y058912D02*
X015108Y058912D01*
X015082Y058813D02*
X015009Y058813D01*
X014984Y058715D02*
X014911Y058715D01*
X014885Y058616D02*
X014812Y058616D01*
X014787Y058518D02*
X014714Y058518D01*
X014688Y058419D02*
X014615Y058419D01*
X014594Y058321D02*
X009988Y058321D01*
X010031Y058222D02*
X014553Y058222D01*
X014540Y058124D02*
X010070Y058124D01*
X010070Y058025D02*
X014540Y058025D01*
X014540Y057927D02*
X010070Y057927D01*
X010076Y057828D02*
X014540Y057828D01*
X014540Y057730D02*
X010174Y057730D01*
X010273Y057631D02*
X014540Y057631D01*
X014556Y057533D02*
X010371Y057533D01*
X010470Y057434D02*
X014598Y057434D01*
X014696Y057336D02*
X010568Y057336D01*
X010667Y057237D02*
X014795Y057237D01*
X014893Y057139D02*
X014348Y057139D01*
X014446Y057040D02*
X014992Y057040D01*
X015090Y056942D02*
X014545Y056942D01*
X014643Y056843D02*
X015091Y056843D01*
X015091Y056745D02*
X014742Y056745D01*
X014840Y056646D02*
X015091Y056646D01*
X015091Y056548D02*
X014939Y056548D01*
X015037Y056449D02*
X015091Y056449D01*
X015831Y056449D02*
X019106Y056449D01*
X019106Y056351D02*
X015831Y056351D01*
X015831Y056252D02*
X019106Y056252D01*
X019106Y056154D02*
X015847Y056154D01*
X015887Y056055D02*
X019106Y056055D01*
X019106Y055957D02*
X015909Y055957D01*
X015909Y055858D02*
X019106Y055858D01*
X019106Y055760D02*
X015883Y055760D01*
X015842Y055661D02*
X019106Y055661D01*
X019106Y055563D02*
X015745Y055563D01*
X015831Y056548D02*
X019106Y056548D01*
X019106Y056646D02*
X015831Y056646D01*
X015831Y056745D02*
X019106Y056745D01*
X019106Y056843D02*
X015831Y056843D01*
X015831Y056942D02*
X019106Y056942D01*
X019106Y057040D02*
X015831Y057040D01*
X015831Y057139D02*
X019106Y057139D01*
X019106Y057237D02*
X015802Y057237D01*
X015743Y057336D02*
X019106Y057336D01*
X019106Y057434D02*
X015644Y057434D01*
X015546Y057533D02*
X019108Y057533D01*
X019148Y057631D02*
X015447Y057631D01*
X016028Y059207D02*
X016053Y059207D01*
X016225Y060488D02*
X011087Y060488D01*
X011084Y060586D02*
X016146Y060586D01*
X016106Y060685D02*
X011082Y060685D01*
X011079Y060783D02*
X016074Y060783D01*
X016074Y060882D02*
X011077Y060882D01*
X011074Y060980D02*
X016074Y060980D01*
X016112Y061079D02*
X016005Y061079D01*
X016135Y061177D02*
X016153Y061177D01*
X016212Y061276D02*
X016241Y061276D01*
X016300Y061374D02*
X016366Y061374D01*
X016341Y061473D02*
X016402Y061473D01*
X015627Y061079D02*
X011072Y061079D01*
X011069Y061177D02*
X015497Y061177D01*
X015430Y061276D02*
X011067Y061276D01*
X011050Y061374D02*
X015389Y061374D01*
X015387Y061473D02*
X011000Y061473D01*
X010900Y061571D02*
X015358Y061571D01*
X015225Y061646D02*
X015019Y061646D01*
X015013Y061640D01*
X014921Y061602D01*
X014022Y061602D01*
X013930Y061640D01*
X013860Y061710D01*
X013822Y061802D01*
X013822Y062162D01*
X013822Y062064D02*
X010407Y062064D01*
X010506Y061965D02*
X013822Y061965D01*
X013822Y061867D02*
X010604Y061867D01*
X010703Y061768D02*
X013836Y061768D01*
X013900Y061670D02*
X010801Y061670D01*
X011089Y060389D02*
X013243Y060389D01*
X013115Y060291D02*
X011092Y060291D01*
X011095Y060192D02*
X013049Y060192D01*
X013008Y060094D02*
X011097Y060094D01*
X011100Y059995D02*
X013007Y059995D01*
X013629Y060389D02*
X014243Y060389D01*
X014115Y060291D02*
X013756Y060291D01*
X013822Y060192D02*
X014049Y060192D01*
X014008Y060094D02*
X013863Y060094D01*
X014629Y060389D02*
X015260Y060389D01*
X015115Y060291D02*
X014756Y060291D01*
X014822Y060192D02*
X015038Y060192D01*
X012772Y054756D02*
X017749Y054756D01*
X018730Y053774D01*
X018834Y053670D01*
X018970Y053614D01*
X019950Y053614D01*
X019671Y053498D01*
X019613Y053441D01*
X018412Y053441D01*
X018102Y053751D01*
X017845Y053857D01*
X010171Y053857D01*
X010190Y053902D01*
X010190Y054153D01*
X010094Y054384D01*
X009917Y054561D01*
X009842Y054592D01*
X009849Y054595D01*
X009992Y054738D01*
X010070Y054926D01*
X010070Y055129D01*
X010038Y055205D01*
X010390Y055554D01*
X012371Y055554D01*
X012255Y055506D01*
X012129Y055379D01*
X012060Y055215D01*
X012060Y055037D01*
X012129Y054872D01*
X012255Y054746D01*
X012419Y054678D01*
X012598Y054678D01*
X012762Y054746D01*
X012772Y054756D01*
X012226Y054775D02*
X010007Y054775D01*
X010048Y054873D02*
X012128Y054873D01*
X012087Y054972D02*
X010070Y054972D01*
X010070Y055070D02*
X012060Y055070D01*
X012060Y055169D02*
X010053Y055169D01*
X010101Y055267D02*
X012082Y055267D01*
X012123Y055366D02*
X010201Y055366D01*
X010300Y055464D02*
X012213Y055464D01*
X010136Y054282D02*
X018222Y054282D01*
X018124Y054381D02*
X010095Y054381D01*
X009999Y054479D02*
X018025Y054479D01*
X017927Y054578D02*
X009877Y054578D01*
X009930Y054676D02*
X017828Y054676D01*
X018321Y054184D02*
X010177Y054184D01*
X010190Y054085D02*
X018419Y054085D01*
X018518Y053987D02*
X010190Y053987D01*
X010184Y053888D02*
X018616Y053888D01*
X018715Y053790D02*
X018007Y053790D01*
X018161Y053691D02*
X018813Y053691D01*
X018358Y053494D02*
X019667Y053494D01*
X019899Y053593D02*
X018260Y053593D01*
X019072Y054479D02*
X019859Y054479D01*
X019957Y054381D02*
X019170Y054381D01*
X018973Y054578D02*
X019760Y054578D01*
X019662Y054676D02*
X018875Y054676D01*
X018776Y054775D02*
X019563Y054775D01*
X019465Y054873D02*
X018678Y054873D01*
X018579Y054972D02*
X019366Y054972D01*
X019268Y055070D02*
X018481Y055070D01*
X018382Y055169D02*
X019169Y055169D01*
X019128Y055267D02*
X018284Y055267D01*
X018185Y055366D02*
X019106Y055366D01*
X019106Y055464D02*
X018052Y055464D01*
X020331Y053593D02*
X020809Y053593D01*
X020952Y053494D02*
X020563Y053494D01*
X020661Y053396D02*
X025584Y053396D01*
X025486Y053297D02*
X024424Y053297D01*
X024414Y053304D02*
X024335Y053345D01*
X024251Y053372D01*
X024169Y053385D01*
X024169Y052873D01*
X024069Y052873D01*
X024069Y053385D01*
X023987Y053372D01*
X023902Y053345D01*
X023823Y053304D01*
X023752Y053252D01*
X023689Y053190D01*
X023637Y053118D01*
X023597Y053039D01*
X023569Y052954D01*
X023556Y052873D01*
X024069Y052873D01*
X024069Y052773D01*
X023556Y052773D01*
X023569Y052691D01*
X023597Y052606D01*
X023637Y052527D01*
X023689Y052455D01*
X023752Y052393D01*
X023823Y052341D01*
X023902Y052300D01*
X023987Y052273D01*
X024069Y052260D01*
X024069Y052773D01*
X024169Y052773D01*
X024169Y052873D01*
X024681Y052873D01*
X024668Y052954D01*
X024641Y053039D01*
X024601Y053118D01*
X024548Y053190D01*
X024486Y053252D01*
X024414Y053304D01*
X024539Y053199D02*
X025427Y053199D01*
X025386Y053100D02*
X024610Y053100D01*
X024653Y053002D02*
X025345Y053002D01*
X025335Y052903D02*
X024676Y052903D01*
X024681Y052773D02*
X024169Y052773D01*
X024169Y052260D01*
X024251Y052273D01*
X024335Y052300D01*
X024414Y052341D01*
X024486Y052393D01*
X024548Y052455D01*
X024601Y052527D01*
X024641Y052606D01*
X024668Y052691D01*
X024681Y052773D01*
X024671Y052706D02*
X025335Y052706D01*
X025335Y052805D02*
X024169Y052805D01*
X024169Y052903D02*
X024069Y052903D01*
X024069Y052805D02*
X022161Y052805D01*
X022161Y052773D02*
X022161Y052873D01*
X022061Y052873D01*
X022061Y053385D01*
X021979Y053372D01*
X021895Y053345D01*
X021816Y053304D01*
X021744Y053252D01*
X021681Y053190D01*
X021629Y053118D01*
X021589Y053039D01*
X021561Y052954D01*
X021548Y052873D01*
X022061Y052873D01*
X022061Y052773D01*
X021548Y052773D01*
X021561Y052691D01*
X021589Y052606D01*
X021629Y052527D01*
X021681Y052455D01*
X021744Y052393D01*
X021816Y052341D01*
X021895Y052300D01*
X021979Y052273D01*
X022061Y052260D01*
X022061Y052773D01*
X022161Y052773D01*
X022673Y052773D01*
X022660Y052691D01*
X022633Y052606D01*
X022593Y052527D01*
X022541Y052455D01*
X022478Y052393D01*
X022406Y052341D01*
X022327Y052300D01*
X022243Y052273D01*
X022161Y052260D01*
X022161Y052773D01*
X022161Y052706D02*
X022061Y052706D01*
X022061Y052608D02*
X022161Y052608D01*
X022161Y052509D02*
X022061Y052509D01*
X022061Y052411D02*
X022161Y052411D01*
X022161Y052312D02*
X022061Y052312D01*
X021871Y052312D02*
X020701Y052312D01*
X020787Y052411D02*
X021726Y052411D01*
X021642Y052509D02*
X020828Y052509D01*
X020869Y052608D02*
X021588Y052608D01*
X021559Y052706D02*
X020898Y052706D01*
X020898Y052805D02*
X022061Y052805D01*
X022061Y052903D02*
X022161Y052903D01*
X022161Y052873D02*
X022161Y053385D01*
X022243Y053372D01*
X022327Y053345D01*
X022406Y053304D01*
X022478Y053252D01*
X022541Y053190D01*
X022593Y053118D01*
X022633Y053039D01*
X022660Y052954D01*
X022673Y052873D01*
X022161Y052873D01*
X022161Y053002D02*
X022061Y053002D01*
X022061Y053100D02*
X022161Y053100D01*
X022161Y053199D02*
X022061Y053199D01*
X022061Y053297D02*
X022161Y053297D01*
X022416Y053297D02*
X023814Y053297D01*
X023698Y053199D02*
X022531Y053199D01*
X022602Y053100D02*
X023628Y053100D01*
X023585Y053002D02*
X022645Y053002D01*
X022668Y052903D02*
X023561Y052903D01*
X023567Y052706D02*
X022663Y052706D01*
X022633Y052608D02*
X023596Y052608D01*
X023650Y052509D02*
X022580Y052509D01*
X022496Y052411D02*
X023734Y052411D01*
X023879Y052312D02*
X022350Y052312D01*
X021690Y053199D02*
X020812Y053199D01*
X020853Y053100D02*
X021620Y053100D01*
X021577Y053002D02*
X020893Y053002D01*
X020898Y052903D02*
X021553Y052903D01*
X021806Y053297D02*
X020760Y053297D01*
X021309Y053494D02*
X025693Y053494D01*
X025931Y053593D02*
X021452Y053593D01*
X020602Y052214D02*
X025620Y052214D01*
X025521Y052312D02*
X024358Y052312D01*
X024504Y052411D02*
X025441Y052411D01*
X025401Y052509D02*
X024588Y052509D01*
X024641Y052608D02*
X025360Y052608D01*
X025779Y052115D02*
X020426Y052115D01*
X024069Y052312D02*
X024169Y052312D01*
X024169Y052411D02*
X024069Y052411D01*
X024069Y052509D02*
X024169Y052509D01*
X024169Y052608D02*
X024069Y052608D01*
X024069Y052706D02*
X024169Y052706D01*
X024169Y053002D02*
X024069Y053002D01*
X024069Y053100D02*
X024169Y053100D01*
X024169Y053199D02*
X024069Y053199D01*
X024069Y053297D02*
X024169Y053297D01*
X026845Y058124D02*
X027452Y058124D01*
X027353Y058222D02*
X026746Y058222D01*
X026648Y058321D02*
X027255Y058321D01*
X027156Y058419D02*
X026549Y058419D01*
X026451Y058518D02*
X027058Y058518D01*
X026959Y058616D02*
X026352Y058616D01*
X026254Y058715D02*
X026861Y058715D01*
X026785Y058813D02*
X026155Y058813D01*
X026170Y058912D02*
X026288Y058912D01*
X028528Y060473D02*
X027159Y061842D01*
X029373Y061842D01*
X029509Y061899D01*
X029837Y062226D01*
X030032Y062226D01*
X030032Y062111D01*
X030567Y062111D01*
X030567Y062081D01*
X030032Y062081D01*
X030032Y061966D01*
X029732Y061966D01*
X029596Y061910D01*
X028716Y061030D01*
X028612Y060926D01*
X028556Y060790D01*
X028556Y060446D01*
X028528Y060473D01*
X028514Y060488D02*
X028556Y060488D01*
X028556Y060586D02*
X028415Y060586D01*
X028317Y060685D02*
X028556Y060685D01*
X028556Y060783D02*
X028218Y060783D01*
X028120Y060882D02*
X028594Y060882D01*
X028667Y060980D02*
X028021Y060980D01*
X027923Y061079D02*
X028765Y061079D01*
X028864Y061177D02*
X027824Y061177D01*
X027726Y061276D02*
X028962Y061276D01*
X029061Y061374D02*
X027627Y061374D01*
X027529Y061473D02*
X029159Y061473D01*
X029258Y061571D02*
X027430Y061571D01*
X027332Y061670D02*
X029356Y061670D01*
X029455Y061768D02*
X027233Y061768D01*
X029433Y061867D02*
X029553Y061867D01*
X029576Y061965D02*
X029730Y061965D01*
X029675Y062064D02*
X030032Y062064D01*
X030032Y062162D02*
X029773Y062162D01*
X031232Y059995D02*
X032452Y059995D01*
X032469Y059897D02*
X031224Y059897D01*
X030394Y059109D02*
X030162Y059109D01*
X030162Y059207D02*
X030262Y059207D01*
X030194Y059306D02*
X030162Y059306D01*
X031019Y056154D02*
X032637Y056154D01*
X032735Y056252D02*
X028126Y056252D01*
X028027Y056351D02*
X032834Y056351D01*
X032932Y056449D02*
X027929Y056449D01*
X031118Y056055D02*
X032538Y056055D01*
X032440Y055957D02*
X031216Y055957D01*
X031315Y055858D02*
X032341Y055858D01*
X032243Y055760D02*
X031413Y055760D01*
X031491Y055661D02*
X032144Y055661D01*
X032046Y055563D02*
X031531Y055563D01*
X031532Y055464D02*
X031947Y055464D01*
X031864Y055366D02*
X031532Y055366D01*
X031532Y055267D02*
X031824Y055267D01*
X031824Y055169D02*
X031532Y055169D01*
X031557Y055070D02*
X031782Y055070D01*
X032049Y054381D02*
X032279Y054381D01*
X032352Y054282D02*
X031960Y054282D01*
X031785Y054184D02*
X032498Y054184D01*
X032822Y054184D02*
X033508Y054184D01*
X033356Y054282D02*
X032968Y054282D01*
X033041Y054381D02*
X033281Y054381D01*
X033813Y054184D02*
X035404Y054184D01*
X035404Y054282D02*
X033964Y054282D01*
X034039Y054381D02*
X035404Y054381D01*
X035404Y054479D02*
X034080Y054479D01*
X034088Y054578D02*
X035404Y054578D01*
X035404Y054676D02*
X034086Y054676D01*
X034045Y054775D02*
X035404Y054775D01*
X035404Y054873D02*
X033990Y054873D01*
X033990Y054972D02*
X035383Y054972D01*
X035366Y055070D02*
X033990Y055070D01*
X034042Y055169D02*
X035366Y055169D01*
X035377Y055267D02*
X034140Y055267D01*
X033923Y057336D02*
X036824Y057336D01*
X036824Y057434D02*
X034063Y057434D01*
X034162Y057533D02*
X036824Y057533D01*
X036824Y057631D02*
X036268Y057631D01*
X036367Y057730D02*
X036824Y057730D01*
X036824Y057828D02*
X036465Y057828D01*
X036564Y057927D02*
X036824Y057927D01*
X036824Y058025D02*
X036662Y058025D01*
X036761Y058124D02*
X036824Y058124D01*
X038429Y056991D02*
X038429Y056084D01*
X038379Y055962D01*
X038286Y055870D01*
X037735Y055318D01*
X037614Y055268D01*
X036490Y055268D01*
X036502Y055239D01*
X036502Y055013D01*
X036464Y054921D01*
X036464Y053256D01*
X038597Y053256D01*
X038542Y053388D01*
X038542Y053635D01*
X038636Y053863D01*
X039644Y054871D01*
X039644Y055892D01*
X039628Y055875D01*
X039568Y055850D01*
X039568Y055825D01*
X039507Y055825D01*
X039492Y055819D01*
X039173Y055819D01*
X039173Y055725D01*
X039568Y055725D01*
X039568Y055500D01*
X039558Y055461D01*
X039538Y055427D01*
X039510Y055399D01*
X039476Y055380D01*
X039438Y055369D01*
X039173Y055369D01*
X039173Y055725D01*
X039073Y055725D01*
X039073Y055369D01*
X038808Y055369D01*
X038769Y055380D01*
X038735Y055399D01*
X038707Y055427D01*
X038688Y055461D01*
X038677Y055500D01*
X038677Y055725D01*
X039073Y055725D01*
X039073Y055819D01*
X038754Y055819D01*
X038738Y055825D01*
X038677Y055825D01*
X038677Y055850D01*
X038618Y055875D01*
X038514Y055979D01*
X038457Y056115D01*
X038457Y056774D01*
X038513Y056908D01*
X038429Y056991D01*
X038429Y056942D02*
X038478Y056942D01*
X038486Y056843D02*
X038429Y056843D01*
X038429Y056745D02*
X038457Y056745D01*
X038457Y056646D02*
X038429Y056646D01*
X038429Y056548D02*
X038457Y056548D01*
X038457Y056449D02*
X038429Y056449D01*
X038429Y056351D02*
X038457Y056351D01*
X038457Y056252D02*
X038429Y056252D01*
X038429Y056154D02*
X038457Y056154D01*
X038482Y056055D02*
X038417Y056055D01*
X038373Y055957D02*
X038536Y055957D01*
X038658Y055858D02*
X038275Y055858D01*
X038176Y055760D02*
X039073Y055760D01*
X039073Y055661D02*
X039173Y055661D01*
X039173Y055563D02*
X039073Y055563D01*
X039073Y055464D02*
X039173Y055464D01*
X039173Y055760D02*
X039644Y055760D01*
X039644Y055858D02*
X039587Y055858D01*
X039568Y055661D02*
X039644Y055661D01*
X039644Y055563D02*
X039568Y055563D01*
X039558Y055464D02*
X039644Y055464D01*
X039644Y055366D02*
X037782Y055366D01*
X037881Y055464D02*
X038687Y055464D01*
X038677Y055563D02*
X037979Y055563D01*
X038078Y055661D02*
X038677Y055661D01*
X039644Y055267D02*
X036490Y055267D01*
X036502Y055169D02*
X039644Y055169D01*
X039644Y055070D02*
X036502Y055070D01*
X036485Y054972D02*
X039644Y054972D01*
X039644Y054873D02*
X036464Y054873D01*
X036464Y054775D02*
X039549Y054775D01*
X039450Y054676D02*
X036464Y054676D01*
X036464Y054578D02*
X039352Y054578D01*
X039253Y054479D02*
X036464Y054479D01*
X036464Y054381D02*
X039155Y054381D01*
X039056Y054282D02*
X036464Y054282D01*
X036464Y054184D02*
X038958Y054184D01*
X038859Y054085D02*
X036464Y054085D01*
X036464Y053987D02*
X038761Y053987D01*
X038662Y053888D02*
X036464Y053888D01*
X036464Y053790D02*
X038606Y053790D01*
X038565Y053691D02*
X036464Y053691D01*
X036464Y053593D02*
X038542Y053593D01*
X038542Y053494D02*
X036464Y053494D01*
X036464Y053396D02*
X038542Y053396D01*
X038580Y053297D02*
X036464Y053297D01*
X035404Y053987D02*
X031501Y053987D01*
X031653Y054085D02*
X035404Y054085D01*
X033271Y059109D02*
X033045Y059109D01*
X032970Y059207D02*
X033346Y059207D01*
X033498Y059306D02*
X032818Y059306D01*
X032514Y059306D02*
X031761Y059306D01*
X031950Y059207D02*
X032362Y059207D01*
X032287Y059109D02*
X032045Y059109D01*
X032174Y060192D02*
X032452Y060192D01*
X032987Y060192D02*
X033017Y060192D01*
X033017Y059995D02*
X032987Y059995D01*
X032987Y059897D02*
X033017Y059897D01*
X033552Y060192D02*
X034325Y060192D01*
X034310Y060291D02*
X033580Y060291D01*
X033641Y060389D02*
X034310Y060389D01*
X034310Y060488D02*
X033652Y060488D01*
X033652Y060586D02*
X034310Y060586D01*
X031284Y065216D02*
X031035Y065216D01*
X031081Y065117D02*
X030937Y065117D01*
X030983Y065019D02*
X030838Y065019D01*
X030884Y064920D02*
X030740Y064920D01*
X030786Y064822D02*
X030599Y064822D01*
X031638Y071306D02*
X031638Y071494D01*
X031640Y071498D01*
X031638Y071567D01*
X031638Y071636D01*
X031636Y071641D01*
X031636Y071645D01*
X031608Y071709D01*
X031582Y071772D01*
X031579Y071776D01*
X031577Y071780D01*
X031527Y071828D01*
X031478Y071876D01*
X031473Y071878D01*
X030870Y072452D01*
X030932Y072514D01*
X032025Y073607D01*
X032229Y073403D01*
X032322Y073310D01*
X032443Y073260D01*
X035842Y073260D01*
X035963Y073310D01*
X036352Y073699D01*
X036352Y072267D01*
X032718Y072267D01*
X032597Y072216D01*
X032504Y072124D01*
X031993Y071612D01*
X031942Y071491D01*
X031942Y071294D01*
X031865Y071326D01*
X031687Y071326D01*
X031638Y071306D01*
X031638Y071323D02*
X031680Y071323D01*
X031638Y071421D02*
X031942Y071421D01*
X031942Y071323D02*
X031872Y071323D01*
X031954Y071520D02*
X031640Y071520D01*
X031638Y071618D02*
X031999Y071618D01*
X032098Y071717D02*
X031605Y071717D01*
X031540Y071815D02*
X032196Y071815D01*
X032295Y071914D02*
X031436Y071914D01*
X031332Y072012D02*
X032393Y072012D01*
X032492Y072111D02*
X031229Y072111D01*
X031125Y072209D02*
X032590Y072209D01*
X032364Y073293D02*
X031711Y073293D01*
X031809Y073391D02*
X032241Y073391D01*
X032142Y073490D02*
X031908Y073490D01*
X032006Y073588D02*
X032044Y073588D01*
X031612Y073194D02*
X036352Y073194D01*
X036352Y073096D02*
X031514Y073096D01*
X031415Y072997D02*
X036352Y072997D01*
X036352Y072899D02*
X031317Y072899D01*
X031218Y072800D02*
X036352Y072800D01*
X036352Y072702D02*
X031120Y072702D01*
X031021Y072603D02*
X036352Y072603D01*
X036352Y072505D02*
X030923Y072505D01*
X030918Y072406D02*
X036352Y072406D01*
X036352Y072308D02*
X031022Y072308D01*
X030465Y073094D02*
X028799Y073094D01*
X028663Y073038D01*
X026540Y070915D01*
X026540Y072736D01*
X026550Y072746D01*
X026618Y072911D01*
X026618Y073089D01*
X026550Y073254D01*
X026424Y073380D01*
X026259Y073448D01*
X026081Y073448D01*
X025916Y073380D01*
X025816Y073280D01*
X025801Y073289D01*
X025763Y073299D01*
X025628Y073299D01*
X025628Y072764D01*
X025782Y072764D01*
X025790Y072746D01*
X025800Y072736D01*
X025800Y072734D01*
X025628Y072734D01*
X025628Y072764D01*
X025598Y072764D01*
X025598Y073299D01*
X025463Y073299D01*
X025450Y073296D01*
X025384Y073361D01*
X025293Y073399D01*
X024933Y073399D01*
X024863Y073370D01*
X024793Y073399D01*
X024433Y073399D01*
X024363Y073370D01*
X024293Y073399D01*
X023933Y073399D01*
X023863Y073370D01*
X023793Y073399D01*
X023433Y073399D01*
X023363Y073370D01*
X023293Y073399D01*
X022933Y073399D01*
X022863Y073370D01*
X022793Y073399D01*
X022433Y073399D01*
X022363Y073370D01*
X022293Y073399D01*
X022289Y073399D01*
X022859Y073968D01*
X030189Y073972D01*
X030263Y073972D01*
X030263Y073972D01*
X030263Y073972D01*
X030330Y074000D01*
X030399Y074029D01*
X030399Y074029D01*
X030399Y074029D01*
X030451Y074080D01*
X031312Y074942D01*
X031312Y074800D01*
X031381Y074636D01*
X031390Y074626D01*
X031390Y074019D01*
X030465Y073094D01*
X030467Y073096D02*
X026615Y073096D01*
X026618Y072997D02*
X028622Y072997D01*
X028524Y072899D02*
X026613Y072899D01*
X026572Y072800D02*
X028425Y072800D01*
X028327Y072702D02*
X026540Y072702D01*
X026540Y072603D02*
X028228Y072603D01*
X028130Y072505D02*
X026540Y072505D01*
X026540Y072406D02*
X028031Y072406D01*
X027933Y072308D02*
X026540Y072308D01*
X026540Y072209D02*
X027834Y072209D01*
X027736Y072111D02*
X026540Y072111D01*
X026540Y072012D02*
X027637Y072012D01*
X027539Y071914D02*
X026540Y071914D01*
X026540Y071815D02*
X027440Y071815D01*
X027342Y071717D02*
X026540Y071717D01*
X026540Y071618D02*
X027243Y071618D01*
X027145Y071520D02*
X026540Y071520D01*
X026540Y071421D02*
X027046Y071421D01*
X026948Y071323D02*
X026540Y071323D01*
X026540Y071224D02*
X026849Y071224D01*
X026751Y071126D02*
X026540Y071126D01*
X026540Y071027D02*
X026652Y071027D01*
X026554Y070929D02*
X026540Y070929D01*
X025800Y071039D02*
X025740Y070979D01*
X025433Y070979D01*
X025363Y070950D01*
X025293Y070979D01*
X024933Y070979D01*
X024863Y070950D01*
X024793Y070979D01*
X024433Y070979D01*
X024363Y070950D01*
X024293Y070979D01*
X023933Y070979D01*
X023841Y070941D01*
X023776Y070876D01*
X023763Y070879D01*
X023628Y070879D01*
X023628Y070344D01*
X023598Y070344D01*
X023598Y070879D01*
X023463Y070879D01*
X023450Y070876D01*
X023384Y070941D01*
X023293Y070979D01*
X022980Y070979D01*
X022926Y071109D01*
X022822Y071213D01*
X022671Y071365D01*
X022535Y071421D01*
X022314Y071421D01*
X022350Y071436D01*
X022470Y071556D01*
X022497Y071622D01*
X022534Y071607D01*
X022704Y071607D01*
X022707Y071608D01*
X022728Y071556D01*
X022848Y071436D01*
X023006Y071370D01*
X023176Y071370D01*
X023334Y071436D01*
X023454Y071556D01*
X023481Y071622D01*
X023518Y071607D01*
X023688Y071607D01*
X023724Y071622D01*
X023752Y071556D01*
X023872Y071436D01*
X024030Y071370D01*
X024200Y071370D01*
X024357Y071436D01*
X024478Y071556D01*
X024505Y071622D01*
X024541Y071607D01*
X024712Y071607D01*
X024748Y071622D01*
X024775Y071556D01*
X024896Y071436D01*
X025053Y071370D01*
X025224Y071370D01*
X025381Y071436D01*
X025502Y071556D01*
X025567Y071714D01*
X025567Y071884D01*
X025502Y072042D01*
X025468Y072075D01*
X025468Y072199D01*
X025598Y072199D01*
X025598Y072734D01*
X025628Y072734D01*
X025628Y072199D01*
X025763Y072199D01*
X025800Y072209D01*
X025800Y071039D01*
X025788Y071027D02*
X022960Y071027D01*
X022910Y071126D02*
X025800Y071126D01*
X025800Y071224D02*
X022811Y071224D01*
X022713Y071323D02*
X025800Y071323D01*
X025800Y071421D02*
X025346Y071421D01*
X025465Y071520D02*
X025800Y071520D01*
X025800Y071618D02*
X025527Y071618D01*
X025567Y071717D02*
X025800Y071717D01*
X025800Y071815D02*
X025567Y071815D01*
X025555Y071914D02*
X025800Y071914D01*
X025800Y072012D02*
X025514Y072012D01*
X025468Y072111D02*
X025800Y072111D01*
X025628Y072209D02*
X025598Y072209D01*
X025598Y072308D02*
X025628Y072308D01*
X025628Y072406D02*
X025598Y072406D01*
X025598Y072505D02*
X025628Y072505D01*
X025628Y072603D02*
X025598Y072603D01*
X025598Y072702D02*
X025628Y072702D01*
X025598Y072734D02*
X025493Y072734D01*
X025493Y072764D01*
X025598Y072764D01*
X025598Y072734D01*
X025598Y072800D02*
X025628Y072800D01*
X025628Y072899D02*
X025598Y072899D01*
X025598Y072997D02*
X025628Y072997D01*
X025628Y073096D02*
X025598Y073096D01*
X025598Y073194D02*
X025628Y073194D01*
X025628Y073293D02*
X025598Y073293D01*
X025786Y073293D02*
X025829Y073293D01*
X025944Y073391D02*
X025311Y073391D01*
X024914Y073391D02*
X024811Y073391D01*
X024414Y073391D02*
X024311Y073391D01*
X023914Y073391D02*
X023811Y073391D01*
X023414Y073391D02*
X023311Y073391D01*
X022914Y073391D02*
X022811Y073391D01*
X022577Y073687D02*
X031058Y073687D01*
X030960Y073588D02*
X022479Y073588D01*
X022380Y073490D02*
X030861Y073490D01*
X030763Y073391D02*
X026395Y073391D01*
X026510Y073293D02*
X030664Y073293D01*
X030566Y073194D02*
X026574Y073194D01*
X026890Y075558D02*
X028405Y075558D01*
X028505Y075657D02*
X026792Y075657D01*
X026636Y075755D02*
X028606Y075755D01*
X028707Y075854D02*
X020209Y075854D01*
X020307Y075952D02*
X028807Y075952D01*
X028908Y076051D02*
X020406Y076051D01*
X020504Y076149D02*
X029008Y076149D01*
X029563Y075657D02*
X030430Y075657D01*
X030528Y075755D02*
X029664Y075755D01*
X029764Y075854D02*
X030627Y075854D01*
X030725Y075952D02*
X029865Y075952D01*
X029965Y076051D02*
X030824Y076051D01*
X030817Y076044D02*
X029875Y075102D01*
X028997Y075102D01*
X030017Y076101D01*
X030415Y076103D01*
X030435Y076094D01*
X030867Y076094D01*
X030817Y076044D01*
X030331Y075558D02*
X029463Y075558D01*
X029362Y075460D02*
X030233Y075460D01*
X030134Y075361D02*
X029261Y075361D01*
X029161Y075263D02*
X030036Y075263D01*
X029937Y075164D02*
X029060Y075164D01*
X030288Y073982D02*
X031354Y073982D01*
X031390Y074081D02*
X030451Y074081D01*
X030550Y074179D02*
X031390Y074179D01*
X031390Y074278D02*
X030648Y074278D01*
X030747Y074376D02*
X031390Y074376D01*
X031390Y074475D02*
X030845Y074475D01*
X030944Y074573D02*
X031390Y074573D01*
X031366Y074672D02*
X031042Y074672D01*
X031141Y074770D02*
X031325Y074770D01*
X031312Y074869D02*
X031239Y074869D01*
X031255Y073884D02*
X022774Y073884D01*
X022676Y073785D02*
X031157Y073785D01*
X034928Y067481D02*
X034954Y067481D01*
X037144Y071232D02*
X036932Y071445D01*
X036997Y071510D01*
X037059Y071361D01*
X037650Y070770D01*
X037799Y070621D01*
X037994Y070541D01*
X039233Y070541D01*
X039325Y070502D01*
X039551Y070502D01*
X039644Y070541D01*
X039644Y069356D01*
X037771Y069356D01*
X037582Y069434D01*
X037356Y069434D01*
X037287Y069405D01*
X037287Y071018D01*
X037237Y071139D01*
X037144Y071232D01*
X037152Y071224D02*
X037196Y071224D01*
X037243Y071126D02*
X037294Y071126D01*
X037283Y071027D02*
X037393Y071027D01*
X037491Y070929D02*
X037287Y070929D01*
X037287Y070830D02*
X037590Y070830D01*
X037688Y070732D02*
X037287Y070732D01*
X037287Y070633D02*
X037787Y070633D01*
X037287Y070535D02*
X039246Y070535D01*
X039629Y070535D02*
X039644Y070535D01*
X039644Y070436D02*
X037287Y070436D01*
X037287Y070338D02*
X039644Y070338D01*
X039644Y070239D02*
X037287Y070239D01*
X037287Y070141D02*
X039644Y070141D01*
X039644Y070042D02*
X037287Y070042D01*
X037287Y069944D02*
X039644Y069944D01*
X039644Y069845D02*
X037287Y069845D01*
X037287Y069747D02*
X039644Y069747D01*
X039644Y069648D02*
X037287Y069648D01*
X037287Y069550D02*
X039644Y069550D01*
X039644Y069451D02*
X037287Y069451D01*
X037097Y071323D02*
X037054Y071323D01*
X037034Y071421D02*
X036955Y071421D01*
X036352Y073293D02*
X035921Y073293D01*
X036044Y073391D02*
X036352Y073391D01*
X036352Y073490D02*
X036142Y073490D01*
X036241Y073588D02*
X036352Y073588D01*
X036339Y073687D02*
X036352Y073687D01*
X037990Y075369D02*
X037945Y075414D01*
X038440Y075414D01*
X038542Y075311D01*
X038549Y075309D01*
X038474Y075278D01*
X038297Y075101D01*
X038201Y074869D01*
X038201Y074618D01*
X038297Y074387D01*
X038474Y074210D01*
X038706Y074114D01*
X039476Y074114D01*
X039644Y074183D01*
X039644Y071600D01*
X039551Y071639D01*
X039325Y071639D01*
X039233Y071601D01*
X038319Y071601D01*
X038038Y071881D01*
X038038Y074842D01*
X038077Y074934D01*
X038077Y075160D01*
X037990Y075369D01*
X037993Y075361D02*
X038492Y075361D01*
X038459Y075263D02*
X038034Y075263D01*
X038075Y075164D02*
X038361Y075164D01*
X038283Y075066D02*
X038077Y075066D01*
X038077Y074967D02*
X038242Y074967D01*
X038201Y074869D02*
X038050Y074869D01*
X038038Y074770D02*
X038201Y074770D01*
X038201Y074672D02*
X038038Y074672D01*
X038038Y074573D02*
X038220Y074573D01*
X038261Y074475D02*
X038038Y074475D01*
X038038Y074376D02*
X038308Y074376D01*
X038406Y074278D02*
X038038Y074278D01*
X038038Y074179D02*
X038548Y074179D01*
X038038Y074081D02*
X039644Y074081D01*
X039635Y074179D02*
X039644Y074179D01*
X039644Y073982D02*
X038038Y073982D01*
X038038Y073884D02*
X039644Y073884D01*
X039644Y073785D02*
X038038Y073785D01*
X038038Y073687D02*
X039644Y073687D01*
X039644Y073588D02*
X038038Y073588D01*
X038038Y073490D02*
X039644Y073490D01*
X039644Y073391D02*
X038038Y073391D01*
X038038Y073293D02*
X039644Y073293D01*
X039644Y073194D02*
X038038Y073194D01*
X038038Y073096D02*
X039644Y073096D01*
X039644Y072997D02*
X038038Y072997D01*
X038038Y072899D02*
X039644Y072899D01*
X039644Y072800D02*
X038038Y072800D01*
X038038Y072702D02*
X039644Y072702D01*
X039644Y072603D02*
X038038Y072603D01*
X038038Y072505D02*
X039644Y072505D01*
X039644Y072406D02*
X038038Y072406D01*
X038038Y072308D02*
X039644Y072308D01*
X039644Y072209D02*
X038038Y072209D01*
X038038Y072111D02*
X039644Y072111D01*
X039644Y072012D02*
X038038Y072012D01*
X038038Y071914D02*
X039644Y071914D01*
X039644Y071815D02*
X038104Y071815D01*
X038202Y071717D02*
X039644Y071717D01*
X039644Y071618D02*
X039600Y071618D01*
X039276Y071618D02*
X038301Y071618D01*
X040884Y074869D02*
X040921Y074869D01*
X040954Y074967D02*
X040884Y074967D01*
X040884Y075066D02*
X041052Y075066D01*
X041151Y075164D02*
X040884Y075164D01*
X040884Y075263D02*
X041078Y075263D01*
X040979Y075361D02*
X040884Y075361D01*
X038069Y080188D02*
X035398Y080188D01*
X035398Y080286D02*
X038167Y080286D01*
X038266Y080385D02*
X035398Y080385D01*
X035398Y080483D02*
X038364Y080483D01*
X038346Y080582D02*
X037862Y080582D01*
X037955Y080680D02*
X038321Y080680D01*
X038321Y080779D02*
X037995Y080779D01*
X038018Y080877D02*
X038334Y080877D01*
X038375Y080976D02*
X038117Y080976D01*
X038215Y081074D02*
X038440Y081074D01*
X038539Y081173D02*
X038314Y081173D01*
X038412Y081271D02*
X038639Y081271D01*
X037970Y080089D02*
X035398Y080089D01*
X035398Y079991D02*
X037872Y079991D01*
X037773Y079892D02*
X035398Y079892D01*
X035398Y079794D02*
X037675Y079794D01*
X037576Y079695D02*
X035398Y079695D01*
X035398Y079597D02*
X037478Y079597D01*
X037379Y079498D02*
X035398Y079498D01*
X035398Y079400D02*
X037281Y079400D01*
X037182Y079301D02*
X035398Y079301D01*
X035398Y079203D02*
X037084Y079203D01*
X036985Y079104D02*
X035398Y079104D01*
X035398Y079006D02*
X036887Y079006D01*
X036788Y078907D02*
X035398Y078907D01*
X035398Y078809D02*
X036690Y078809D01*
X036591Y078710D02*
X035398Y078710D01*
X035398Y078612D02*
X036493Y078612D01*
X036394Y078513D02*
X035398Y078513D01*
X035398Y078415D02*
X036296Y078415D01*
X036197Y078316D02*
X035398Y078316D01*
X035398Y078218D02*
X036099Y078218D01*
X036000Y078119D02*
X035398Y078119D01*
X035398Y078021D02*
X035902Y078021D01*
X035803Y077922D02*
X035398Y077922D01*
X035398Y077824D02*
X035705Y077824D01*
X035606Y077725D02*
X035398Y077725D01*
X035398Y077627D02*
X035508Y077627D01*
X035409Y077528D02*
X035398Y077528D01*
X035398Y080582D02*
X037313Y080582D01*
X037220Y080680D02*
X035362Y080680D01*
X035292Y080779D02*
X037179Y080779D01*
X036899Y080877D02*
X035193Y080877D01*
X035095Y080976D02*
X036800Y080976D01*
X036754Y081074D02*
X034996Y081074D01*
X034898Y081173D02*
X036495Y081173D01*
X036387Y081271D02*
X034799Y081271D01*
X034701Y081370D02*
X036329Y081370D01*
X036109Y081468D02*
X034602Y081468D01*
X034504Y081567D02*
X035973Y081567D01*
X035904Y081665D02*
X034405Y081665D01*
X034271Y081764D02*
X035863Y081764D01*
X041685Y085211D02*
X042057Y085211D01*
X041958Y085113D02*
X041783Y085113D01*
X043200Y086787D02*
X028011Y086787D01*
X027913Y086886D02*
X043200Y086886D01*
X043200Y086984D02*
X027814Y086984D01*
X027716Y087083D02*
X043200Y087083D01*
X043200Y087181D02*
X027617Y087181D01*
X027519Y087280D02*
X043200Y087280D01*
X043200Y087378D02*
X027445Y087378D01*
X027420Y087477D02*
X043200Y087477D01*
X043200Y087575D02*
X027379Y087575D01*
X027338Y087674D02*
X043200Y087674D01*
X043200Y087772D02*
X027257Y087772D01*
X027159Y087871D02*
X043200Y087871D01*
X043200Y087969D02*
X026995Y087969D01*
X026329Y087969D02*
X021020Y087969D01*
X021166Y087871D02*
X026166Y087871D01*
X026067Y087772D02*
X024924Y087772D01*
X024961Y087753D02*
X024882Y087793D01*
X024798Y087821D01*
X024716Y087834D01*
X024716Y087321D01*
X025228Y087321D01*
X025215Y087403D01*
X025188Y087488D01*
X025148Y087567D01*
X025096Y087638D01*
X025033Y087701D01*
X024961Y087753D01*
X025060Y087674D02*
X025986Y087674D01*
X025945Y087575D02*
X025141Y087575D01*
X025192Y087477D02*
X025904Y087477D01*
X025879Y087378D02*
X025219Y087378D01*
X025228Y087221D02*
X024716Y087221D01*
X024716Y086709D01*
X024798Y086722D01*
X024882Y086749D01*
X024961Y086789D01*
X025033Y086842D01*
X025096Y086904D01*
X025148Y086976D01*
X025188Y087055D01*
X025215Y087139D01*
X025228Y087221D01*
X025222Y087181D02*
X025879Y087181D01*
X025887Y087083D02*
X025197Y087083D01*
X025152Y086984D02*
X025928Y086984D01*
X025969Y086886D02*
X025077Y086886D01*
X024957Y086787D02*
X026026Y086787D01*
X026125Y086689D02*
X021354Y086689D01*
X021354Y086787D02*
X022367Y086787D01*
X022363Y086789D02*
X022442Y086749D01*
X022526Y086722D01*
X022608Y086709D01*
X022608Y087221D01*
X022708Y087221D01*
X022708Y086709D01*
X022790Y086722D01*
X022874Y086749D01*
X022953Y086789D01*
X023025Y086842D01*
X023088Y086904D01*
X023140Y086976D01*
X023180Y087055D01*
X023208Y087139D01*
X023221Y087221D01*
X022708Y087221D01*
X022708Y087321D01*
X023221Y087321D01*
X023208Y087403D01*
X023180Y087488D01*
X023140Y087567D01*
X023088Y087638D01*
X023025Y087701D01*
X022953Y087753D01*
X022874Y087793D01*
X022790Y087821D01*
X022708Y087834D01*
X022708Y087321D01*
X022608Y087321D01*
X022608Y087221D01*
X022096Y087221D01*
X022109Y087139D01*
X022136Y087055D01*
X022176Y086976D01*
X022228Y086904D01*
X022291Y086842D01*
X022363Y086789D01*
X022247Y086886D02*
X021355Y086886D01*
X021387Y086984D02*
X022172Y086984D01*
X022127Y087083D02*
X021428Y087083D01*
X021441Y087181D02*
X022102Y087181D01*
X022096Y087321D02*
X022608Y087321D01*
X022608Y087834D01*
X022526Y087821D01*
X022442Y087793D01*
X022363Y087753D01*
X022291Y087701D01*
X022228Y087638D01*
X022176Y087567D01*
X022136Y087488D01*
X022109Y087403D01*
X022096Y087321D01*
X022105Y087378D02*
X021441Y087378D01*
X021441Y087280D02*
X022608Y087280D01*
X022608Y087378D02*
X022708Y087378D01*
X022708Y087280D02*
X024616Y087280D01*
X024616Y087321D02*
X024616Y087221D01*
X024716Y087221D01*
X024716Y087321D01*
X024616Y087321D01*
X024103Y087321D01*
X024116Y087403D01*
X024144Y087488D01*
X024184Y087567D01*
X024236Y087638D01*
X024299Y087701D01*
X024371Y087753D01*
X024450Y087793D01*
X024534Y087821D01*
X024616Y087834D01*
X024616Y087321D01*
X024616Y087378D02*
X024716Y087378D01*
X024716Y087280D02*
X025879Y087280D01*
X026230Y086590D02*
X021353Y086590D01*
X021352Y086492D02*
X026468Y086492D01*
X026466Y086393D02*
X026651Y086393D01*
X026565Y086295D02*
X026750Y086295D01*
X026663Y086196D02*
X026848Y086196D01*
X026762Y086098D02*
X026947Y086098D01*
X026860Y085999D02*
X027045Y085999D01*
X026959Y085901D02*
X027144Y085901D01*
X027118Y085802D02*
X027057Y085802D01*
X025700Y083828D02*
X025700Y083358D01*
X025866Y083358D01*
X025957Y083449D01*
X025957Y081871D01*
X025798Y081805D01*
X025788Y081795D01*
X023599Y081795D01*
X023589Y081805D01*
X023424Y081873D01*
X023246Y081873D01*
X023081Y081805D01*
X022958Y081681D01*
X022958Y082318D01*
X023882Y083243D01*
X023897Y083258D01*
X023907Y083258D01*
X024150Y083501D01*
X024393Y083258D01*
X024907Y083258D01*
X025221Y083572D01*
X025435Y083358D01*
X025600Y083358D01*
X025600Y083828D01*
X025700Y083828D01*
X025700Y083734D02*
X025600Y083734D01*
X025600Y083635D02*
X025700Y083635D01*
X025700Y083537D02*
X025600Y083537D01*
X025600Y083438D02*
X025700Y083438D01*
X025946Y083438D02*
X025957Y083438D01*
X025957Y083340D02*
X024989Y083340D01*
X025088Y083438D02*
X025354Y083438D01*
X025256Y083537D02*
X025186Y083537D01*
X025957Y083241D02*
X023881Y083241D01*
X023783Y083143D02*
X025957Y083143D01*
X025957Y083044D02*
X023684Y083044D01*
X023586Y082946D02*
X025957Y082946D01*
X025957Y082847D02*
X023487Y082847D01*
X023389Y082749D02*
X025957Y082749D01*
X025957Y082650D02*
X023290Y082650D01*
X023192Y082552D02*
X025957Y082552D01*
X025957Y082453D02*
X023093Y082453D01*
X022995Y082355D02*
X025957Y082355D01*
X025957Y082256D02*
X022958Y082256D01*
X022958Y082158D02*
X025957Y082158D01*
X025957Y082059D02*
X022958Y082059D01*
X022958Y081961D02*
X025957Y081961D01*
X025937Y081862D02*
X023450Y081862D01*
X023220Y081862D02*
X022958Y081862D01*
X022958Y081764D02*
X023041Y081764D01*
X023989Y083340D02*
X024311Y083340D01*
X024213Y083438D02*
X024088Y083438D01*
X022700Y085507D02*
X020890Y085507D01*
X020791Y085408D02*
X022304Y085408D01*
X022206Y085310D02*
X021953Y085310D01*
X022052Y085211D02*
X022107Y085211D01*
X021700Y085211D02*
X021600Y085211D01*
X021600Y085113D02*
X021700Y085113D01*
X021700Y085014D02*
X021600Y085014D01*
X021600Y084916D02*
X020297Y084916D01*
X020266Y084886D02*
X020266Y084886D01*
X020100Y084817D02*
X021130Y084817D01*
X021130Y084719D02*
X013787Y084719D01*
X013787Y084620D02*
X021172Y084620D01*
X021271Y084522D02*
X013787Y084522D01*
X013787Y084423D02*
X021319Y084423D01*
X021221Y084325D02*
X013787Y084325D01*
X013787Y084226D02*
X021122Y084226D01*
X021030Y084128D02*
X013787Y084128D01*
X013787Y084029D02*
X021030Y084029D01*
X021030Y083931D02*
X013787Y083931D01*
X013787Y083832D02*
X021030Y083832D01*
X021030Y083734D02*
X013787Y083734D01*
X013787Y083635D02*
X021030Y083635D01*
X021114Y083537D02*
X013787Y083537D01*
X013787Y083438D02*
X021193Y083438D01*
X021193Y083340D02*
X013787Y083340D01*
X013787Y083241D02*
X021193Y083241D01*
X021193Y083143D02*
X013787Y083143D01*
X013787Y083044D02*
X021193Y083044D01*
X021193Y082946D02*
X013787Y082946D01*
X013787Y082847D02*
X021193Y082847D01*
X021193Y082749D02*
X013787Y082749D01*
X013787Y082650D02*
X021193Y082650D01*
X021193Y082552D02*
X013787Y082552D01*
X013787Y082453D02*
X021193Y082453D01*
X021193Y082355D02*
X013787Y082355D01*
X013787Y082256D02*
X021193Y082256D01*
X021193Y082158D02*
X013787Y082158D01*
X013787Y082059D02*
X021193Y082059D01*
X021193Y081961D02*
X013787Y081961D01*
X013787Y081862D02*
X020976Y081862D01*
X020796Y081764D02*
X013787Y081764D01*
X013787Y081665D02*
X018392Y081665D01*
X018230Y081567D02*
X013787Y081567D01*
X013787Y081468D02*
X018131Y081468D01*
X018179Y081516D02*
X018179Y081516D01*
X018033Y081370D02*
X013787Y081370D01*
X013787Y081271D02*
X017934Y081271D01*
X017836Y081173D02*
X013787Y081173D01*
X013787Y081074D02*
X017737Y081074D01*
X017639Y080976D02*
X013787Y080976D01*
X013787Y080877D02*
X017568Y080877D01*
X017532Y080779D02*
X013787Y080779D01*
X013787Y080680D02*
X017532Y080680D01*
X016088Y080582D02*
X013797Y080582D01*
X014213Y080483D02*
X014243Y080483D01*
X014243Y080538D02*
X014243Y080273D01*
X014778Y080273D01*
X014778Y080407D01*
X014767Y080445D01*
X014748Y080480D01*
X014720Y080508D01*
X014686Y080527D01*
X014647Y080538D01*
X014243Y080538D01*
X014243Y080385D02*
X014213Y080385D01*
X014213Y080286D02*
X014243Y080286D01*
X014778Y080286D02*
X015998Y080286D01*
X015998Y080188D02*
X015042Y080188D01*
X015222Y080089D02*
X015998Y080089D01*
X016020Y079991D02*
X015309Y079991D01*
X015350Y079892D02*
X015998Y079892D01*
X015998Y079794D02*
X015366Y079794D01*
X015366Y079695D02*
X015998Y079695D01*
X015998Y079597D02*
X015454Y079597D01*
X015550Y079498D02*
X016023Y079498D01*
X015998Y079400D02*
X015591Y079400D01*
X015614Y079301D02*
X015998Y079301D01*
X015998Y079203D02*
X015614Y079203D01*
X015585Y079104D02*
X015998Y079104D01*
X016026Y079006D02*
X015538Y079006D01*
X015439Y078907D02*
X015998Y078907D01*
X015998Y078809D02*
X015378Y078809D01*
X015378Y078710D02*
X015998Y078710D01*
X015998Y078612D02*
X015455Y078612D01*
X015551Y078513D02*
X016024Y078513D01*
X016100Y078415D02*
X015592Y078415D01*
X015614Y078316D02*
X016098Y078316D01*
X016098Y078218D02*
X015614Y078218D01*
X015585Y078119D02*
X016098Y078119D01*
X016032Y078021D02*
X015537Y078021D01*
X015439Y077922D02*
X015998Y077922D01*
X015998Y077824D02*
X015378Y077824D01*
X015378Y077725D02*
X015998Y077725D01*
X015998Y077627D02*
X015399Y077627D01*
X015515Y077528D02*
X015626Y077528D01*
X014833Y080188D02*
X014778Y080188D01*
X014778Y080385D02*
X015998Y080385D01*
X016017Y080483D02*
X014744Y080483D01*
X013578Y078801D02*
X013578Y078578D01*
X013607Y078508D01*
X013578Y078437D01*
X013578Y078078D01*
X013607Y078008D01*
X013578Y077937D01*
X013578Y077578D01*
X013607Y077508D01*
X013597Y077484D01*
X013405Y077564D01*
X013300Y077564D01*
X011346Y079518D01*
X011346Y080782D01*
X011265Y080977D01*
X011116Y081126D01*
X011116Y081126D01*
X011020Y081222D01*
X010982Y081314D01*
X010822Y081473D01*
X010730Y081512D01*
X010084Y082158D01*
X012727Y082158D01*
X012727Y082256D02*
X009986Y082256D01*
X009935Y082307D02*
X009740Y082388D01*
X008943Y082388D01*
X008943Y082483D01*
X008856Y082692D01*
X008696Y082851D01*
X008488Y082938D01*
X008262Y082938D01*
X008053Y082851D01*
X007893Y082692D01*
X007807Y082483D01*
X007807Y082257D01*
X007836Y082187D01*
X007807Y082158D01*
X007539Y082158D01*
X007549Y082168D02*
X007549Y082304D01*
X007149Y082304D01*
X007149Y081904D01*
X007285Y081904D01*
X007549Y082168D01*
X007549Y082256D02*
X007807Y082256D01*
X007807Y082158D02*
X007650Y082001D01*
X007569Y081806D01*
X007569Y081662D01*
X007327Y081904D01*
X006871Y081904D01*
X006599Y081632D01*
X006483Y081748D01*
X006496Y081761D01*
X006692Y081957D01*
X006722Y082030D01*
X006755Y082062D01*
X006913Y081904D01*
X007049Y081904D01*
X007049Y082304D01*
X007149Y082304D01*
X007149Y082404D01*
X007049Y082404D01*
X007049Y082804D01*
X006913Y082804D01*
X006799Y082690D01*
X006799Y083018D01*
X006913Y082904D01*
X007049Y082904D01*
X007049Y083304D01*
X007149Y083304D01*
X007149Y082904D01*
X007285Y082904D01*
X007549Y083168D01*
X007549Y083304D01*
X007149Y083304D01*
X007149Y083404D01*
X007049Y083404D01*
X007049Y083804D01*
X006913Y083804D01*
X006799Y083690D01*
X006799Y084018D01*
X006913Y083904D01*
X007049Y083904D01*
X007049Y084304D01*
X007149Y084304D01*
X007149Y083904D01*
X007285Y083904D01*
X007549Y084168D01*
X007549Y084304D01*
X007149Y084304D01*
X007149Y084404D01*
X007549Y084404D01*
X007549Y084540D01*
X007309Y084780D01*
X012727Y084780D01*
X012727Y080606D01*
X012688Y080514D01*
X012688Y080288D01*
X012767Y080100D01*
X012767Y080004D01*
X012710Y080004D01*
X012574Y079947D01*
X012470Y079843D01*
X012446Y079784D01*
X012421Y079784D01*
X012421Y079723D01*
X012414Y079707D01*
X012414Y079388D01*
X012321Y079388D01*
X012321Y079288D01*
X012414Y079288D01*
X012414Y078969D01*
X012421Y078953D01*
X012421Y078893D01*
X012446Y078893D01*
X012470Y078833D01*
X012574Y078729D01*
X012710Y078673D01*
X013369Y078673D01*
X013505Y078729D01*
X013578Y078801D01*
X013578Y078710D02*
X013460Y078710D01*
X013578Y078612D02*
X012252Y078612D01*
X012154Y078710D02*
X012620Y078710D01*
X012495Y078809D02*
X012055Y078809D01*
X012095Y078893D02*
X012321Y078893D01*
X012321Y079288D01*
X011965Y079288D01*
X011965Y079023D01*
X011975Y078985D01*
X011995Y078951D01*
X012023Y078923D01*
X012057Y078903D01*
X012095Y078893D01*
X012050Y078907D02*
X011957Y078907D01*
X011969Y079006D02*
X011858Y079006D01*
X011760Y079104D02*
X011965Y079104D01*
X011965Y079203D02*
X011661Y079203D01*
X011563Y079301D02*
X012321Y079301D01*
X012321Y079388D02*
X011965Y079388D01*
X011965Y079653D01*
X011975Y079691D01*
X011995Y079726D01*
X012023Y079754D01*
X012057Y079773D01*
X012095Y079784D01*
X012321Y079784D01*
X012321Y079388D01*
X012321Y079400D02*
X012414Y079400D01*
X012414Y079498D02*
X012321Y079498D01*
X012321Y079597D02*
X012414Y079597D01*
X012414Y079695D02*
X012321Y079695D01*
X012450Y079794D02*
X011346Y079794D01*
X011346Y079892D02*
X012520Y079892D01*
X012680Y079991D02*
X011346Y079991D01*
X011346Y080089D02*
X012767Y080089D01*
X012730Y080188D02*
X011346Y080188D01*
X011346Y080286D02*
X012689Y080286D01*
X012688Y080385D02*
X011346Y080385D01*
X011346Y080483D02*
X012688Y080483D01*
X012716Y080582D02*
X011346Y080582D01*
X011346Y080680D02*
X012727Y080680D01*
X012727Y080779D02*
X011346Y080779D01*
X011306Y080877D02*
X012727Y080877D01*
X012727Y080976D02*
X011265Y080976D01*
X011168Y081074D02*
X012727Y081074D01*
X012727Y081173D02*
X011069Y081173D01*
X011000Y081271D02*
X012727Y081271D01*
X012727Y081370D02*
X010926Y081370D01*
X010827Y081468D02*
X012727Y081468D01*
X012727Y081567D02*
X010675Y081567D01*
X010577Y081665D02*
X012727Y081665D01*
X012727Y081764D02*
X010478Y081764D01*
X010380Y081862D02*
X012727Y081862D01*
X012727Y081961D02*
X010281Y081961D01*
X010183Y082059D02*
X012727Y082059D01*
X012727Y082355D02*
X009820Y082355D01*
X009935Y082307D02*
X010084Y082158D01*
X010084Y082158D01*
X008943Y082453D02*
X012727Y082453D01*
X012727Y082552D02*
X008914Y082552D01*
X008873Y082650D02*
X012727Y082650D01*
X012727Y082749D02*
X008799Y082749D01*
X008700Y082847D02*
X012727Y082847D01*
X012727Y082946D02*
X007327Y082946D01*
X007426Y083044D02*
X012727Y083044D01*
X012727Y083143D02*
X007524Y083143D01*
X007549Y083241D02*
X012727Y083241D01*
X012727Y083340D02*
X007149Y083340D01*
X007149Y083404D02*
X007549Y083404D01*
X007549Y083540D01*
X007285Y083804D01*
X007149Y083804D01*
X007149Y083404D01*
X007149Y083438D02*
X007049Y083438D01*
X007049Y083537D02*
X007149Y083537D01*
X007149Y083635D02*
X007049Y083635D01*
X007049Y083734D02*
X007149Y083734D01*
X007149Y083931D02*
X007049Y083931D01*
X007049Y084029D02*
X007149Y084029D01*
X007149Y084128D02*
X007049Y084128D01*
X007049Y084226D02*
X007149Y084226D01*
X007149Y084325D02*
X012727Y084325D01*
X012727Y084423D02*
X007549Y084423D01*
X007549Y084522D02*
X012727Y084522D01*
X012727Y084620D02*
X007469Y084620D01*
X007371Y084719D02*
X012727Y084719D01*
X012727Y084226D02*
X007549Y084226D01*
X007509Y084128D02*
X012727Y084128D01*
X012727Y084029D02*
X007411Y084029D01*
X007312Y083931D02*
X012727Y083931D01*
X012727Y083832D02*
X006799Y083832D01*
X006799Y083734D02*
X006842Y083734D01*
X006799Y083931D02*
X006886Y083931D01*
X007356Y083734D02*
X012727Y083734D01*
X012727Y083635D02*
X007454Y083635D01*
X007549Y083537D02*
X012727Y083537D01*
X012727Y083438D02*
X007549Y083438D01*
X007149Y083241D02*
X007049Y083241D01*
X007049Y083143D02*
X007149Y083143D01*
X007149Y083044D02*
X007049Y083044D01*
X007049Y082946D02*
X007149Y082946D01*
X007149Y082804D02*
X007149Y082404D01*
X007549Y082404D01*
X007549Y082540D01*
X007285Y082804D01*
X007149Y082804D01*
X007149Y082749D02*
X007049Y082749D01*
X007049Y082650D02*
X007149Y082650D01*
X007149Y082552D02*
X007049Y082552D01*
X007049Y082453D02*
X007149Y082453D01*
X007149Y082355D02*
X007807Y082355D01*
X007807Y082453D02*
X007549Y082453D01*
X007538Y082552D02*
X007835Y082552D01*
X007876Y082650D02*
X007439Y082650D01*
X007341Y082749D02*
X007950Y082749D01*
X008049Y082847D02*
X006799Y082847D01*
X006799Y082749D02*
X006857Y082749D01*
X006871Y082946D02*
X006799Y082946D01*
X007049Y082256D02*
X007149Y082256D01*
X007149Y082158D02*
X007049Y082158D01*
X007049Y082059D02*
X007149Y082059D01*
X007149Y081961D02*
X007049Y081961D01*
X006856Y081961D02*
X006694Y081961D01*
X006752Y082059D02*
X006757Y082059D01*
X006830Y081862D02*
X006597Y081862D01*
X006499Y081764D02*
X006731Y081764D01*
X006633Y081665D02*
X006566Y081665D01*
X006496Y081761D02*
X006496Y081761D01*
X007342Y081961D02*
X007633Y081961D01*
X007592Y081862D02*
X007369Y081862D01*
X007467Y081764D02*
X007569Y081764D01*
X007566Y081665D02*
X007569Y081665D01*
X007441Y082059D02*
X007708Y082059D01*
X005817Y085605D02*
X005124Y085605D01*
X005124Y085507D02*
X005719Y085507D01*
X005620Y085408D02*
X005124Y085408D01*
X005124Y085310D02*
X005522Y085310D01*
X005471Y085211D02*
X005124Y085211D01*
X005124Y085113D02*
X005431Y085113D01*
X005399Y085014D02*
X005124Y085014D01*
X005124Y084916D02*
X005399Y084916D01*
X005399Y084817D02*
X005124Y084817D01*
X005124Y084719D02*
X005399Y084719D01*
X005399Y084620D02*
X005124Y084620D01*
X005124Y084522D02*
X005399Y084522D01*
X005399Y084423D02*
X005124Y084423D01*
X005124Y084325D02*
X005399Y084325D01*
X005399Y084226D02*
X005124Y084226D01*
X005124Y084128D02*
X005399Y084128D01*
X005399Y084029D02*
X005124Y084029D01*
X005124Y083931D02*
X005399Y083931D01*
X005399Y083832D02*
X005124Y083832D01*
X005124Y083734D02*
X005399Y083734D01*
X005399Y083635D02*
X005124Y083635D01*
X005124Y083537D02*
X005399Y083537D01*
X005399Y083438D02*
X005124Y083438D01*
X005124Y083340D02*
X005399Y083340D01*
X005399Y083241D02*
X005124Y083241D01*
X005124Y083143D02*
X005399Y083143D01*
X005399Y083044D02*
X005124Y083044D01*
X005124Y082946D02*
X005399Y082946D01*
X005399Y082847D02*
X005124Y082847D01*
X005124Y082749D02*
X005399Y082749D01*
X005399Y082650D02*
X005124Y082650D01*
X005124Y082552D02*
X005307Y082552D01*
X005208Y082453D02*
X005124Y082453D01*
X005124Y085704D02*
X005916Y085704D01*
X006014Y085802D02*
X005124Y085802D01*
X005124Y085901D02*
X006113Y085901D01*
X006211Y085999D02*
X005124Y085999D01*
X005124Y086098D02*
X006344Y086098D01*
X005124Y086196D02*
X019598Y086196D01*
X019697Y086295D02*
X005124Y086295D01*
X005124Y086393D02*
X019796Y086393D01*
X019895Y086492D02*
X005124Y086492D01*
X005124Y086590D02*
X019953Y086590D01*
X019954Y086689D02*
X005124Y086689D01*
X005124Y086787D02*
X019954Y086787D01*
X019955Y086886D02*
X005124Y086886D01*
X005124Y086984D02*
X019929Y086984D01*
X019888Y087083D02*
X005124Y087083D01*
X005124Y087181D02*
X019875Y087181D01*
X019875Y087280D02*
X005124Y087280D01*
X005124Y087378D02*
X019875Y087378D01*
X019895Y087477D02*
X005124Y087477D01*
X005124Y087575D02*
X019936Y087575D01*
X019977Y087674D02*
X005124Y087674D01*
X005124Y087772D02*
X020051Y087772D01*
X020150Y087871D02*
X005124Y087871D01*
X005124Y087969D02*
X020296Y087969D01*
X021265Y087772D02*
X022400Y087772D01*
X022264Y087674D02*
X021339Y087674D01*
X021380Y087575D02*
X022183Y087575D01*
X022133Y087477D02*
X021421Y087477D01*
X021351Y086393D02*
X023586Y086393D01*
X023488Y086295D02*
X021351Y086295D01*
X021350Y086196D02*
X023389Y086196D01*
X023291Y086098D02*
X021344Y086098D01*
X021302Y085999D02*
X023192Y085999D01*
X023094Y085901D02*
X021261Y085901D01*
X021188Y085802D02*
X022995Y085802D01*
X022897Y085704D02*
X021088Y085704D01*
X020989Y085605D02*
X022798Y085605D01*
X021700Y085310D02*
X021600Y085310D01*
X021347Y085310D02*
X020692Y085310D01*
X020593Y085211D02*
X021249Y085211D01*
X021150Y085113D02*
X020494Y085113D01*
X020395Y085014D02*
X021130Y085014D01*
X022608Y086787D02*
X022708Y086787D01*
X022708Y086886D02*
X022608Y086886D01*
X022608Y086984D02*
X022708Y086984D01*
X022708Y087083D02*
X022608Y087083D01*
X022608Y087181D02*
X022708Y087181D01*
X022708Y087477D02*
X022608Y087477D01*
X022608Y087575D02*
X022708Y087575D01*
X022708Y087674D02*
X022608Y087674D01*
X022608Y087772D02*
X022708Y087772D01*
X022916Y087772D02*
X024408Y087772D01*
X024272Y087674D02*
X023052Y087674D01*
X023134Y087575D02*
X024190Y087575D01*
X024140Y087477D02*
X023184Y087477D01*
X023212Y087378D02*
X024113Y087378D01*
X024103Y087221D02*
X024116Y087139D01*
X024144Y087055D01*
X024184Y086976D01*
X024236Y086904D01*
X024299Y086842D01*
X024371Y086789D01*
X024450Y086749D01*
X024534Y086722D01*
X024616Y086709D01*
X024616Y087221D01*
X024103Y087221D01*
X024110Y087181D02*
X023214Y087181D01*
X023189Y087083D02*
X024135Y087083D01*
X024180Y086984D02*
X023144Y086984D01*
X023069Y086886D02*
X024255Y086886D01*
X024375Y086787D02*
X022949Y086787D01*
X024616Y086787D02*
X024716Y086787D01*
X024716Y086886D02*
X024616Y086886D01*
X024616Y086984D02*
X024716Y086984D01*
X024716Y087083D02*
X024616Y087083D01*
X024616Y087181D02*
X024716Y087181D01*
X024716Y087477D02*
X024616Y087477D01*
X024616Y087575D02*
X024716Y087575D01*
X024716Y087674D02*
X024616Y087674D01*
X024616Y087772D02*
X024716Y087772D01*
X020893Y076445D02*
X020800Y076445D01*
X020701Y076346D02*
X020941Y076346D01*
X021040Y076248D02*
X020603Y076248D01*
X021373Y074081D02*
X017176Y074081D01*
X017229Y073982D02*
X021275Y073982D01*
X021176Y073884D02*
X017327Y073884D01*
X017426Y073785D02*
X021078Y073785D01*
X020979Y073687D02*
X017524Y073687D01*
X017623Y073588D02*
X020881Y073588D01*
X020782Y073490D02*
X017721Y073490D01*
X017778Y073391D02*
X020684Y073391D01*
X022311Y073391D02*
X022414Y073391D01*
X022496Y071618D02*
X022505Y071618D01*
X022434Y071520D02*
X022764Y071520D01*
X022883Y071421D02*
X022315Y071421D01*
X023299Y071421D02*
X023907Y071421D01*
X023788Y071520D02*
X023418Y071520D01*
X023480Y071618D02*
X023490Y071618D01*
X023716Y071618D02*
X023726Y071618D01*
X024323Y071421D02*
X024930Y071421D01*
X024812Y071520D02*
X024442Y071520D01*
X024504Y071618D02*
X024513Y071618D01*
X024740Y071618D02*
X024749Y071618D01*
X023829Y070929D02*
X023397Y070929D01*
X023598Y070830D02*
X023628Y070830D01*
X023628Y070732D02*
X023598Y070732D01*
X023598Y070633D02*
X023628Y070633D01*
X023628Y070535D02*
X023598Y070535D01*
X023598Y070436D02*
X023628Y070436D01*
X023628Y070314D02*
X023628Y069779D01*
X023743Y069779D01*
X023743Y069550D01*
X023483Y069550D01*
X023483Y069648D02*
X023743Y069648D01*
X023743Y069550D02*
X023799Y069414D01*
X024930Y068283D01*
X023316Y068283D01*
X023306Y068293D01*
X023141Y068361D01*
X022963Y068361D01*
X022798Y068293D01*
X022672Y068167D01*
X022648Y068108D01*
X021984Y068771D01*
X023094Y068771D01*
X023230Y068828D01*
X023322Y068920D01*
X023426Y069024D01*
X023483Y069160D01*
X023483Y069779D01*
X023598Y069779D01*
X023598Y070314D01*
X023628Y070314D01*
X023628Y070239D02*
X023598Y070239D01*
X023598Y070141D02*
X023628Y070141D01*
X023628Y070042D02*
X023598Y070042D01*
X023598Y069944D02*
X023628Y069944D01*
X023628Y069845D02*
X023598Y069845D01*
X023483Y069747D02*
X023743Y069747D01*
X023784Y069451D02*
X023483Y069451D01*
X023483Y069353D02*
X023860Y069353D01*
X023959Y069254D02*
X023483Y069254D01*
X023481Y069156D02*
X024057Y069156D01*
X024156Y069057D02*
X023440Y069057D01*
X023361Y068959D02*
X024254Y068959D01*
X024353Y068860D02*
X023262Y068860D01*
X022774Y068269D02*
X022487Y068269D01*
X022585Y068171D02*
X022676Y068171D01*
X022388Y068368D02*
X024845Y068368D01*
X024747Y068466D02*
X022290Y068466D01*
X022191Y068565D02*
X024648Y068565D01*
X024550Y068663D02*
X022093Y068663D01*
X021994Y068762D02*
X024451Y068762D01*
X025023Y067481D02*
X023275Y067481D01*
X023373Y067383D02*
X025122Y067383D01*
X025287Y067284D02*
X023437Y067284D01*
X022849Y062556D02*
X021382Y062556D01*
X021391Y062458D02*
X022755Y062458D01*
X022714Y062359D02*
X021432Y062359D01*
X021441Y062261D02*
X022690Y062261D01*
X022690Y062162D02*
X021439Y062162D01*
X021398Y062064D02*
X022715Y062064D01*
X022756Y061965D02*
X021332Y061965D01*
X021203Y061867D02*
X022850Y061867D01*
X022807Y061571D02*
X023532Y061571D01*
X023433Y061473D02*
X022988Y061473D01*
X023087Y061374D02*
X023335Y061374D01*
X023236Y061276D02*
X023140Y061276D01*
X020105Y066398D02*
X019852Y066398D01*
X019852Y066496D02*
X020105Y066496D01*
X020105Y066595D02*
X019818Y066595D01*
X019767Y066693D02*
X020105Y066693D01*
X020105Y066792D02*
X019669Y066792D01*
X020105Y066890D02*
X019208Y066890D01*
X019121Y066989D02*
X020105Y066989D01*
X020065Y067087D02*
X019023Y067087D01*
X018924Y067186D02*
X019968Y067186D01*
X019870Y067284D02*
X018826Y067284D01*
X018727Y067383D02*
X019773Y067383D01*
X019676Y067481D02*
X018581Y067481D01*
X018370Y066693D02*
X016554Y066693D01*
X016337Y066693D02*
X015155Y066693D01*
X015196Y066792D02*
X015295Y066792D01*
X015295Y066728D02*
X015520Y066728D01*
X015559Y066738D01*
X015593Y066758D01*
X015621Y066786D01*
X015640Y066820D01*
X015651Y066858D01*
X015651Y067123D01*
X015295Y067123D01*
X015295Y066728D01*
X015295Y066890D02*
X015201Y066890D01*
X015201Y066989D02*
X015295Y066989D01*
X015295Y067087D02*
X015201Y067087D01*
X015295Y067186D02*
X015997Y067186D01*
X015997Y067087D02*
X015651Y067087D01*
X015651Y066989D02*
X016020Y066989D01*
X016061Y066890D02*
X015651Y066890D01*
X015624Y066792D02*
X016153Y066792D01*
X016023Y067284D02*
X015651Y067284D01*
X015651Y067383D02*
X016064Y067383D01*
X016160Y067481D02*
X015651Y067481D01*
X015601Y067580D02*
X016352Y067580D01*
X016539Y067580D02*
X019579Y067580D01*
X019481Y067678D02*
X015144Y067678D01*
X015195Y067580D02*
X015295Y067580D01*
X015295Y067481D02*
X015201Y067481D01*
X015201Y067383D02*
X015295Y067383D01*
X015295Y067284D02*
X015201Y067284D01*
X015046Y067777D02*
X019384Y067777D01*
X016139Y072800D02*
X015059Y072800D01*
X015158Y072899D02*
X016040Y072899D01*
X015942Y072997D02*
X015240Y072997D01*
X015279Y073096D02*
X015843Y073096D01*
X015745Y073194D02*
X015279Y073194D01*
X015279Y073293D02*
X015646Y073293D01*
X015548Y073391D02*
X015279Y073391D01*
X015279Y073490D02*
X015449Y073490D01*
X015351Y073588D02*
X015279Y073588D01*
X013123Y074314D02*
X012921Y074314D01*
X010020Y077214D01*
X010034Y077249D01*
X010034Y077452D01*
X009957Y077639D01*
X009813Y077782D01*
X009650Y077850D01*
X009805Y077914D01*
X012951Y074767D01*
X013038Y074731D01*
X013025Y074699D01*
X013025Y074529D01*
X013090Y074371D01*
X013123Y074338D01*
X013123Y074314D01*
X013088Y074376D02*
X012858Y074376D01*
X012760Y074475D02*
X013047Y074475D01*
X013025Y074573D02*
X012661Y074573D01*
X012563Y074672D02*
X013025Y074672D01*
X012948Y074770D02*
X012464Y074770D01*
X012366Y074869D02*
X012850Y074869D01*
X012751Y074967D02*
X012267Y074967D01*
X012169Y075066D02*
X012653Y075066D01*
X012554Y075164D02*
X012070Y075164D01*
X011972Y075263D02*
X012456Y075263D01*
X012357Y075361D02*
X011873Y075361D01*
X011775Y075460D02*
X012259Y075460D01*
X012160Y075558D02*
X011676Y075558D01*
X011578Y075657D02*
X012062Y075657D01*
X011963Y075755D02*
X011479Y075755D01*
X011381Y075854D02*
X011865Y075854D01*
X011766Y075952D02*
X011282Y075952D01*
X011184Y076051D02*
X011668Y076051D01*
X011569Y076149D02*
X011085Y076149D01*
X010987Y076248D02*
X011471Y076248D01*
X011372Y076346D02*
X010888Y076346D01*
X010790Y076445D02*
X011274Y076445D01*
X011175Y076543D02*
X010691Y076543D01*
X010593Y076642D02*
X011077Y076642D01*
X010978Y076740D02*
X010494Y076740D01*
X010396Y076839D02*
X010880Y076839D01*
X010781Y076937D02*
X010297Y076937D01*
X010199Y077036D02*
X010683Y077036D01*
X010584Y077134D02*
X010100Y077134D01*
X010028Y077233D02*
X010486Y077233D01*
X010387Y077331D02*
X010034Y077331D01*
X010034Y077430D02*
X010289Y077430D01*
X010190Y077528D02*
X010003Y077528D01*
X009962Y077627D02*
X010092Y077627D01*
X009993Y077725D02*
X009870Y077725D01*
X009895Y077824D02*
X009713Y077824D01*
X011366Y079498D02*
X011965Y079498D01*
X011965Y079400D02*
X011464Y079400D01*
X011346Y079597D02*
X011965Y079597D01*
X011977Y079695D02*
X011346Y079695D01*
X012321Y079203D02*
X012414Y079203D01*
X012414Y079104D02*
X012321Y079104D01*
X012321Y079006D02*
X012414Y079006D01*
X012421Y078907D02*
X012321Y078907D01*
X012351Y078513D02*
X013604Y078513D01*
X013578Y078415D02*
X012449Y078415D01*
X012548Y078316D02*
X013578Y078316D01*
X013578Y078218D02*
X012646Y078218D01*
X012745Y078119D02*
X013578Y078119D01*
X013601Y078021D02*
X012843Y078021D01*
X012942Y077922D02*
X013578Y077922D01*
X013578Y077824D02*
X013040Y077824D01*
X013139Y077725D02*
X013578Y077725D01*
X013578Y077627D02*
X013237Y077627D01*
X013491Y077528D02*
X013598Y077528D01*
X009387Y070535D02*
X009199Y070535D01*
X009100Y070436D02*
X009485Y070436D01*
X009584Y070338D02*
X009002Y070338D01*
X007129Y067383D02*
X007029Y067383D01*
X007029Y067284D02*
X007129Y067284D01*
X007129Y067186D02*
X007029Y067186D01*
X007029Y067087D02*
X007129Y067087D01*
X007529Y066890D02*
X007845Y066890D01*
X007845Y066792D02*
X007476Y066792D01*
X007378Y066693D02*
X007845Y066693D01*
X007845Y066595D02*
X007279Y066595D01*
X007129Y066398D02*
X007029Y066398D01*
X007029Y066299D02*
X007129Y066299D01*
X007129Y066201D02*
X007029Y066201D01*
X007029Y066102D02*
X007129Y066102D01*
X007529Y065905D02*
X007845Y065905D01*
X007845Y065807D02*
X007491Y065807D01*
X007393Y065708D02*
X007845Y065708D01*
X007845Y065610D02*
X007294Y065610D01*
X007334Y065413D02*
X007845Y065413D01*
X007845Y065511D02*
X006779Y065511D01*
X006779Y065413D02*
X006825Y065413D01*
X006864Y065610D02*
X006779Y065610D01*
X007433Y065314D02*
X007845Y065314D01*
X007845Y065216D02*
X007529Y065216D01*
X007529Y065117D02*
X007845Y065117D01*
X007845Y064132D02*
X007629Y064132D01*
X007629Y064034D02*
X007845Y064034D01*
X007845Y063935D02*
X007629Y063935D01*
X007629Y063837D02*
X007845Y063837D01*
X007845Y063738D02*
X007564Y063738D01*
X007466Y063640D02*
X007845Y063640D01*
X007845Y063541D02*
X007367Y063541D01*
X007446Y063443D02*
X007845Y063443D01*
X007845Y063344D02*
X007544Y063344D01*
X007629Y063246D02*
X007845Y063246D01*
X007845Y063147D02*
X007629Y063147D01*
X007629Y063049D02*
X007845Y063049D01*
X007845Y062950D02*
X007629Y062950D01*
X007629Y062852D02*
X007845Y062852D01*
X007845Y062753D02*
X007579Y062753D01*
X007481Y062655D02*
X007845Y062655D01*
X007845Y062556D02*
X007382Y062556D01*
X007431Y062458D02*
X007845Y062458D01*
X007845Y062359D02*
X007529Y062359D01*
X007628Y062261D02*
X007845Y062261D01*
X007845Y062162D02*
X007629Y062162D01*
X007629Y062064D02*
X007845Y062064D01*
X007845Y061965D02*
X007629Y061965D01*
X007629Y061867D02*
X007845Y061867D01*
X007845Y061768D02*
X007594Y061768D01*
X007496Y061670D02*
X007845Y061670D01*
X007845Y061571D02*
X007397Y061571D01*
X007416Y061473D02*
X007845Y061473D01*
X007845Y061374D02*
X007514Y061374D01*
X007613Y061276D02*
X007845Y061276D01*
X007845Y061177D02*
X007629Y061177D01*
X007629Y061079D02*
X007845Y061079D01*
X007845Y060980D02*
X007629Y060980D01*
X007629Y060882D02*
X007845Y060882D01*
X007845Y060783D02*
X007609Y060783D01*
X007511Y060685D02*
X007845Y060685D01*
X007845Y060586D02*
X007412Y060586D01*
X007401Y060488D02*
X007845Y060488D01*
X007845Y060389D02*
X007499Y060389D01*
X007598Y060291D02*
X007845Y060291D01*
X007845Y060192D02*
X007629Y060192D01*
X007629Y060094D02*
X007845Y060094D01*
X007845Y059995D02*
X007629Y059995D01*
X007629Y059897D02*
X007845Y059897D01*
X007845Y059798D02*
X007624Y059798D01*
X007526Y059700D02*
X007845Y059700D01*
X007845Y059601D02*
X007427Y059601D01*
X007386Y059503D02*
X007845Y059503D01*
X007845Y059404D02*
X007484Y059404D01*
X007583Y059306D02*
X007845Y059306D01*
X007845Y059207D02*
X007629Y059207D01*
X007629Y059109D02*
X007845Y059109D01*
X007845Y059010D02*
X007629Y059010D01*
X007629Y058912D02*
X007845Y058912D01*
X007845Y058813D02*
X007629Y058813D01*
X007541Y058715D02*
X007845Y058715D01*
X007845Y058616D02*
X007442Y058616D01*
X007371Y058518D02*
X007845Y058518D01*
X007845Y058419D02*
X007469Y058419D01*
X007568Y058321D02*
X007845Y058321D01*
X007845Y058222D02*
X007629Y058222D01*
X007629Y058124D02*
X007845Y058124D01*
X007845Y058025D02*
X007629Y058025D01*
X007629Y057927D02*
X007845Y057927D01*
X007845Y057828D02*
X007629Y057828D01*
X007556Y057730D02*
X007845Y057730D01*
X007845Y057631D02*
X007457Y057631D01*
X007359Y057533D02*
X007845Y057533D01*
X007845Y057434D02*
X007454Y057434D01*
X007553Y057336D02*
X007845Y057336D01*
X007845Y057237D02*
X007629Y057237D01*
X007629Y057139D02*
X007845Y057139D01*
X007845Y057040D02*
X007629Y057040D01*
X007629Y056942D02*
X007845Y056942D01*
X007845Y056843D02*
X007629Y056843D01*
X007571Y056745D02*
X007845Y056745D01*
X007845Y056646D02*
X007472Y056646D01*
X007374Y056548D02*
X007845Y056548D01*
X007845Y056449D02*
X007439Y056449D01*
X007538Y056351D02*
X007845Y056351D01*
X007845Y056252D02*
X007629Y056252D01*
X007629Y056154D02*
X007845Y056154D01*
X007845Y056055D02*
X007629Y056055D01*
X007629Y055957D02*
X007845Y055957D01*
X007845Y055858D02*
X007629Y055858D01*
X007586Y055760D02*
X007845Y055760D01*
X007845Y055661D02*
X007487Y055661D01*
X007389Y055563D02*
X007845Y055563D01*
X007845Y055464D02*
X007424Y055464D01*
X007523Y055366D02*
X007845Y055366D01*
X007845Y055267D02*
X007621Y055267D01*
X007629Y055169D02*
X007845Y055169D01*
X007845Y055070D02*
X007629Y055070D01*
X007629Y054972D02*
X007845Y054972D01*
X007845Y054873D02*
X007629Y054873D01*
X007601Y054775D02*
X007845Y054775D01*
X007845Y054676D02*
X007688Y054676D01*
X007786Y054578D02*
X007845Y054578D01*
X009889Y058419D02*
X009890Y058419D01*
X009791Y058518D02*
X009708Y058518D01*
X007129Y064625D02*
X007029Y064625D01*
X007029Y064723D02*
X007129Y064723D01*
X007129Y064822D02*
X007029Y064822D01*
X007029Y064920D02*
X007129Y064920D01*
X006849Y064625D02*
X006663Y064625D01*
X006719Y064723D02*
X006751Y064723D01*
X006797Y064526D02*
X006564Y064526D01*
X006461Y064428D02*
X006698Y064428D01*
X006600Y064329D02*
X006559Y064329D01*
X005124Y051918D02*
X043200Y051918D01*
X043200Y051820D02*
X005124Y051820D01*
X005124Y051721D02*
X043200Y051721D01*
X043200Y051623D02*
X005124Y051623D01*
X005124Y051524D02*
X043200Y051524D01*
X043200Y051426D02*
X005124Y051426D01*
X005124Y051327D02*
X043200Y051327D01*
X043200Y051229D02*
X005124Y051229D01*
X005124Y051130D02*
X043200Y051130D01*
X043200Y051032D02*
X005124Y051032D01*
X005124Y050933D02*
X043200Y050933D01*
X043200Y050835D02*
X005124Y050835D01*
X005124Y050736D02*
X043200Y050736D01*
X043200Y050638D02*
X005124Y050638D01*
X005124Y050539D02*
X043200Y050539D01*
X043200Y050441D02*
X005124Y050441D01*
X005124Y050342D02*
X043200Y050342D01*
X043200Y052017D02*
X039989Y052017D01*
X040142Y052115D02*
X043200Y052115D01*
X043200Y052214D02*
X040240Y052214D01*
X040339Y052312D02*
X043200Y052312D01*
X043200Y052411D02*
X040437Y052411D01*
X040536Y052509D02*
X043200Y052509D01*
X043200Y052608D02*
X040634Y052608D01*
X040733Y052706D02*
X043200Y052706D01*
X043200Y052805D02*
X040831Y052805D01*
X040930Y052903D02*
X043200Y052903D01*
X043200Y053002D02*
X041028Y053002D01*
X041127Y053100D02*
X043200Y053100D01*
X043200Y053199D02*
X041225Y053199D01*
X041324Y053297D02*
X043200Y053297D01*
X043200Y053396D02*
X041422Y053396D01*
X041521Y053494D02*
X043200Y053494D01*
X043200Y053593D02*
X041619Y053593D01*
X041718Y053691D02*
X043200Y053691D01*
X043200Y053790D02*
X041816Y053790D01*
X041915Y053888D02*
X043200Y053888D01*
X043200Y053987D02*
X042394Y053987D01*
X042545Y054085D02*
X043200Y054085D01*
X043200Y054184D02*
X042643Y054184D01*
X042742Y054282D02*
X043200Y054282D01*
X043200Y054381D02*
X042840Y054381D01*
X042924Y054479D02*
X043200Y054479D01*
X043200Y054578D02*
X042965Y054578D01*
X043006Y054676D02*
X043200Y054676D01*
X043200Y054775D02*
X043013Y054775D01*
X043013Y054873D02*
X043200Y054873D01*
X043200Y054972D02*
X043013Y054972D01*
X043013Y055070D02*
X043200Y055070D01*
X043200Y055169D02*
X043033Y055169D01*
X043033Y055267D02*
X043200Y055267D01*
X043200Y055366D02*
X043033Y055366D01*
X043033Y055464D02*
X043200Y055464D01*
X043200Y055563D02*
X043033Y055563D01*
X043033Y055661D02*
X043200Y055661D01*
X043200Y055760D02*
X043013Y055760D01*
X043013Y055858D02*
X043200Y055858D01*
X043200Y055957D02*
X043013Y055957D01*
X043013Y056055D02*
X043200Y056055D01*
X043200Y056154D02*
X043033Y056154D01*
X043033Y056252D02*
X043200Y056252D01*
X043200Y056351D02*
X043033Y056351D01*
X043033Y056449D02*
X043200Y056449D01*
X043200Y056548D02*
X043033Y056548D01*
X043033Y056646D02*
X043200Y056646D01*
X043200Y056745D02*
X043013Y056745D01*
X043111Y056843D02*
X043200Y056843D01*
X042000Y057998D02*
X041707Y057705D01*
X041549Y057863D01*
X041413Y057863D01*
X041413Y057463D01*
X041313Y057463D01*
X041313Y057863D01*
X041176Y057863D01*
X040913Y057599D01*
X040913Y057463D01*
X041313Y057463D01*
X041313Y057363D01*
X041413Y057363D01*
X041413Y056963D01*
X041549Y056963D01*
X041707Y057121D01*
X041713Y057116D01*
X041713Y056711D01*
X041707Y056705D01*
X041549Y056863D01*
X041413Y056863D01*
X041413Y056463D01*
X041313Y056463D01*
X041313Y056863D01*
X041176Y056863D01*
X040913Y056599D01*
X040913Y056463D01*
X041313Y056463D01*
X041313Y056363D01*
X041413Y056363D01*
X041413Y055963D01*
X041549Y055963D01*
X041707Y056121D01*
X041713Y056116D01*
X041713Y055711D01*
X041707Y055705D01*
X041549Y055863D01*
X041413Y055863D01*
X041413Y055463D01*
X041313Y055463D01*
X041313Y055863D01*
X041176Y055863D01*
X040913Y055599D01*
X040913Y055463D01*
X041313Y055463D01*
X041313Y055363D01*
X040913Y055363D01*
X040913Y055227D01*
X041164Y054976D01*
X040884Y054696D01*
X040884Y058114D01*
X041135Y057863D01*
X041591Y057863D01*
X041863Y058135D01*
X042000Y057998D01*
X041973Y058025D02*
X041753Y058025D01*
X041654Y057927D02*
X041929Y057927D01*
X041831Y057828D02*
X041584Y057828D01*
X041682Y057730D02*
X041732Y057730D01*
X041413Y057730D02*
X041313Y057730D01*
X041313Y057828D02*
X041413Y057828D01*
X041413Y057631D02*
X041313Y057631D01*
X041313Y057533D02*
X041413Y057533D01*
X041313Y057434D02*
X040884Y057434D01*
X040913Y057363D02*
X040913Y057227D01*
X041176Y056963D01*
X041313Y056963D01*
X041313Y057363D01*
X040913Y057363D01*
X040913Y057336D02*
X040884Y057336D01*
X040884Y057237D02*
X040913Y057237D01*
X040884Y057139D02*
X041001Y057139D01*
X041099Y057040D02*
X040884Y057040D01*
X040884Y056942D02*
X041713Y056942D01*
X041713Y057040D02*
X041626Y057040D01*
X041569Y056843D02*
X041713Y056843D01*
X041713Y056745D02*
X041667Y056745D01*
X041413Y056745D02*
X041313Y056745D01*
X041313Y056843D02*
X041413Y056843D01*
X041413Y056646D02*
X041313Y056646D01*
X041313Y056548D02*
X041413Y056548D01*
X041313Y056449D02*
X040884Y056449D01*
X040913Y056363D02*
X040913Y056227D01*
X041176Y055963D01*
X041313Y055963D01*
X041313Y056363D01*
X040913Y056363D01*
X040913Y056351D02*
X040884Y056351D01*
X040884Y056252D02*
X040913Y056252D01*
X040884Y056154D02*
X040986Y056154D01*
X041084Y056055D02*
X040884Y056055D01*
X040884Y055957D02*
X041713Y055957D01*
X041713Y056055D02*
X041641Y056055D01*
X041713Y055858D02*
X041554Y055858D01*
X041652Y055760D02*
X041713Y055760D01*
X041413Y055760D02*
X041313Y055760D01*
X041313Y055858D02*
X041413Y055858D01*
X041413Y055661D02*
X041313Y055661D01*
X041313Y055563D02*
X041413Y055563D01*
X041413Y055464D02*
X041313Y055464D01*
X041313Y055366D02*
X040884Y055366D01*
X040884Y055464D02*
X040913Y055464D01*
X040913Y055563D02*
X040884Y055563D01*
X040884Y055661D02*
X040975Y055661D01*
X040884Y055760D02*
X041073Y055760D01*
X041172Y055858D02*
X040884Y055858D01*
X041313Y056055D02*
X041413Y056055D01*
X041413Y056154D02*
X041313Y056154D01*
X041313Y056252D02*
X041413Y056252D01*
X041413Y056351D02*
X041313Y056351D01*
X040913Y056548D02*
X040884Y056548D01*
X040884Y056646D02*
X040960Y056646D01*
X040884Y056745D02*
X041058Y056745D01*
X041157Y056843D02*
X040884Y056843D01*
X041313Y057040D02*
X041413Y057040D01*
X041413Y057139D02*
X041313Y057139D01*
X041313Y057237D02*
X041413Y057237D01*
X041413Y057336D02*
X041313Y057336D01*
X040913Y057533D02*
X040884Y057533D01*
X040884Y057631D02*
X040945Y057631D01*
X040884Y057730D02*
X041043Y057730D01*
X041142Y057828D02*
X040884Y057828D01*
X040884Y057927D02*
X041071Y057927D01*
X040973Y058025D02*
X040884Y058025D01*
X041851Y058124D02*
X041874Y058124D01*
X040913Y055267D02*
X040884Y055267D01*
X040884Y055169D02*
X040971Y055169D01*
X040884Y055070D02*
X041069Y055070D01*
X041160Y054972D02*
X040884Y054972D01*
X040884Y054873D02*
X041061Y054873D01*
X040963Y054775D02*
X040884Y054775D01*
X041777Y067777D02*
X041949Y067777D01*
X042047Y067875D02*
X041678Y067875D01*
X043200Y088068D02*
X005124Y088068D01*
X005124Y088166D02*
X043200Y088166D01*
X043200Y088265D02*
X005124Y088265D01*
X005124Y088363D02*
X043200Y088363D01*
X043200Y088462D02*
X005124Y088462D01*
X005124Y088560D02*
X043200Y088560D01*
X043200Y088659D02*
X005124Y088659D01*
X005124Y088757D02*
X043200Y088757D01*
X043200Y088856D02*
X005124Y088856D01*
X005124Y088954D02*
X043200Y088954D01*
X043200Y089053D02*
X005124Y089053D01*
X005124Y089151D02*
X043200Y089151D01*
X043200Y089250D02*
X005124Y089250D01*
X005124Y089348D02*
X043200Y089348D01*
X043200Y089447D02*
X005124Y089447D01*
X005124Y089545D02*
X043200Y089545D01*
D26*
X037508Y075047D02*
X037508Y071661D01*
X038099Y071071D01*
X039438Y071071D01*
X033375Y064693D02*
X034840Y063227D01*
X034840Y060334D01*
X035088Y060086D01*
X035461Y060086D01*
X035934Y055126D02*
X035934Y052859D01*
X033375Y064693D02*
X031406Y064693D01*
X030855Y064141D01*
X029438Y064141D01*
X028611Y063315D01*
X026406Y063315D01*
X026800Y061622D02*
X028296Y060126D01*
X028296Y059299D01*
X027705Y059299D02*
X027705Y059968D01*
X026524Y061149D01*
X024398Y061149D01*
X023493Y060244D01*
X023493Y058000D01*
X023217Y057724D01*
X020540Y057724D01*
X019989Y057173D01*
X019989Y055637D01*
X020737Y054889D01*
X021457Y054889D01*
X022138Y055571D01*
X023138Y055571D02*
X021985Y054417D01*
X020501Y054417D01*
X019516Y055401D01*
X019516Y057448D01*
X020264Y058197D01*
X022823Y058197D01*
X022981Y058354D01*
X022981Y060441D01*
X024162Y061622D01*
X026800Y061622D01*
X026249Y060677D02*
X027115Y059811D01*
X027115Y059299D01*
X026524Y059299D02*
X026524Y059653D01*
X025973Y060204D01*
X024831Y060204D01*
X024438Y059811D01*
X024438Y058826D01*
X024438Y056870D01*
X024138Y056571D01*
X023611Y057252D02*
X023965Y057606D01*
X023965Y060008D01*
X024634Y060677D01*
X026249Y060677D01*
X023611Y057252D02*
X020816Y057252D01*
X020461Y056897D01*
X020461Y056149D01*
X021040Y055571D01*
X021138Y055571D01*
X022312Y058905D02*
X022312Y060716D01*
X022627Y061031D01*
X021308Y076614D02*
X025863Y076614D01*
X025867Y076618D01*
X026268Y077173D02*
X021005Y077173D01*
X020575Y077724D02*
X026662Y077724D01*
X026272Y077177D02*
X026268Y077173D01*
X027075Y078275D02*
X020194Y078275D01*
X019796Y078830D02*
X027461Y078830D01*
X027473Y078819D01*
X027827Y079378D02*
X027831Y079382D01*
X021406Y079382D01*
X022548Y080523D01*
X022548Y082488D01*
X023650Y083590D01*
X023650Y083878D01*
X022650Y083878D02*
X022650Y083378D01*
X022075Y082803D01*
X022075Y080874D01*
X021367Y080165D01*
X019044Y080165D01*
X018926Y080047D01*
X018375Y080441D02*
X018650Y080716D01*
X021209Y080716D01*
X021603Y081110D01*
X021603Y083830D01*
X021650Y083878D01*
X022650Y084878D02*
X023843Y086071D01*
X026209Y086071D01*
X026839Y085441D01*
X026839Y082173D01*
X027075Y081937D01*
X027075Y080874D01*
X026524Y080323D01*
X025737Y080323D01*
X025619Y080441D01*
X026288Y080834D02*
X026564Y081110D01*
X026564Y081700D01*
X026367Y081897D01*
X026367Y085165D01*
X025934Y085598D01*
X025186Y085598D01*
X024650Y085063D01*
X024650Y084878D01*
X027312Y085362D02*
X027312Y082448D01*
X027548Y082212D01*
X027548Y080637D01*
X026760Y079850D01*
X025107Y079850D01*
X024910Y080047D01*
X027312Y085362D02*
X027390Y085441D01*
X021406Y079382D02*
X019560Y079382D01*
X019162Y078984D01*
X013257Y080401D02*
X013257Y085480D01*
X010501Y080992D02*
X010816Y080677D01*
X010816Y079299D01*
X013099Y077015D01*
X013296Y077015D01*
X010501Y080992D02*
X010481Y081011D01*
X010501Y080992D02*
X009634Y081858D01*
X008375Y081858D01*
X008375Y082370D01*
X008375Y081858D02*
X008257Y081858D01*
X008099Y081700D01*
X008099Y072515D01*
X009264Y071350D01*
X008375Y070460D01*
X008375Y054338D01*
X008686Y054027D01*
X009300Y054027D01*
D27*
X026327Y062685D02*
X028847Y062685D01*
X029758Y063596D01*
X030582Y063596D01*
D28*
X040264Y054614D02*
X039162Y053511D01*
X040264Y054614D02*
X040264Y068866D01*
X040264Y074732D01*
X040264Y085165D01*
X039320Y086110D01*
X037233Y086110D01*
X029162Y086110D01*
X027812Y086110D01*
X026662Y087260D01*
D29*
X042371Y074748D02*
X042371Y073748D01*
X042371Y072748D01*
X043178Y071941D01*
X043178Y057803D01*
X042788Y057413D01*
X042363Y057413D01*
X042363Y056413D01*
X042363Y055413D01*
X042363Y054823D01*
X042115Y054574D01*
X041682Y054574D01*
X039713Y052606D01*
X036186Y052606D01*
X035934Y052859D01*
D30*
X020115Y052834D02*
X020033Y052741D01*
X018122Y052741D01*
X017705Y053157D01*
X017627Y053157D02*
X008217Y053157D01*
X007194Y054181D01*
X005619Y054181D01*
X005186Y054614D01*
X005186Y064771D01*
X005445Y065031D01*
X006079Y065031D01*
X006079Y066031D01*
X006079Y067031D01*
X006079Y070846D01*
X005225Y071700D01*
X005225Y081480D01*
X006099Y082354D01*
X006099Y083354D01*
X006099Y084354D01*
X006099Y084897D01*
X006682Y085480D01*
X013257Y085480D01*
X019871Y085480D01*
X020650Y086256D01*
X020658Y087271D01*
M02*
