G75*
%MOIN*%
%OFA0B0*%
%FSLAX24Y24*%
%IPPOS*%
%LPD*%
%AMOC8*
5,1,8,0,0,1.08239X$1,22.5*
%
%ADD10C,0.0080*%
%ADD11C,0.0060*%
D10*
X008686Y058582D02*
X008686Y058937D01*
X009552Y058937D02*
X009552Y058582D01*
X009670Y058622D02*
X009672Y058634D01*
X009677Y058645D01*
X009686Y058654D01*
X009697Y058659D01*
X009709Y058661D01*
X009721Y058659D01*
X009732Y058654D01*
X009741Y058645D01*
X009746Y058634D01*
X009748Y058622D01*
X009746Y058610D01*
X009741Y058599D01*
X009732Y058590D01*
X009721Y058585D01*
X009709Y058583D01*
X009697Y058585D01*
X009686Y058590D01*
X009677Y058599D01*
X009672Y058610D01*
X009670Y058622D01*
X012493Y075114D02*
X012138Y075468D01*
X012138Y077712D01*
X013005Y077712D01*
X013871Y077712D02*
X014737Y077712D01*
X014737Y075468D01*
X014383Y075114D01*
X013871Y075114D01*
X013812Y075252D02*
X013877Y075275D01*
X013940Y075301D01*
X014001Y075331D01*
X014061Y075365D01*
X014119Y075401D01*
X014175Y075441D01*
X014228Y075484D01*
X014279Y075530D01*
X014327Y075579D01*
X014372Y075630D01*
X014415Y075684D01*
X014454Y075740D01*
X014490Y075798D01*
X014523Y075859D01*
X014552Y075921D01*
X014578Y075984D01*
X014600Y076049D01*
X014619Y076115D01*
X014633Y076182D01*
X014644Y076249D01*
X014651Y076318D01*
X014655Y076386D01*
X014654Y076455D01*
X014650Y076523D01*
X014641Y076591D01*
X014629Y076658D01*
X014614Y076725D01*
X014594Y076791D01*
X014571Y076855D01*
X014544Y076918D01*
X014513Y076980D01*
X014480Y077039D01*
X014443Y077097D01*
X014402Y077152D01*
X014359Y077205D01*
X014313Y077256D01*
X014264Y077304D01*
X014212Y077349D01*
X014158Y077391D01*
X014102Y077430D01*
X014043Y077466D01*
X013983Y077498D01*
X013921Y077527D01*
X013857Y077553D01*
X013792Y077574D01*
X014981Y077697D02*
X014981Y075452D01*
X015335Y075098D01*
X015847Y075098D01*
X016654Y075236D02*
X016719Y075259D01*
X016782Y075285D01*
X016843Y075315D01*
X016903Y075349D01*
X016961Y075385D01*
X017017Y075425D01*
X017070Y075468D01*
X017121Y075514D01*
X017169Y075563D01*
X017214Y075614D01*
X017257Y075668D01*
X017296Y075724D01*
X017332Y075782D01*
X017365Y075843D01*
X017394Y075905D01*
X017420Y075968D01*
X017442Y076033D01*
X017461Y076099D01*
X017475Y076166D01*
X017486Y076233D01*
X017493Y076302D01*
X017497Y076370D01*
X017496Y076439D01*
X017492Y076507D01*
X017483Y076575D01*
X017471Y076642D01*
X017456Y076709D01*
X017436Y076775D01*
X017413Y076839D01*
X017386Y076902D01*
X017355Y076964D01*
X017322Y077023D01*
X017285Y077081D01*
X017244Y077136D01*
X017201Y077189D01*
X017155Y077240D01*
X017106Y077288D01*
X017054Y077333D01*
X017000Y077375D01*
X016944Y077414D01*
X016885Y077450D01*
X016825Y077482D01*
X016763Y077511D01*
X016699Y077537D01*
X016634Y077558D01*
X016713Y077697D02*
X017579Y077697D01*
X017579Y075452D01*
X017225Y075098D01*
X016713Y075098D01*
X015926Y075236D02*
X015861Y075257D01*
X015797Y075283D01*
X015735Y075312D01*
X015675Y075344D01*
X015616Y075380D01*
X015560Y075419D01*
X015506Y075461D01*
X015454Y075506D01*
X015405Y075554D01*
X015359Y075605D01*
X015316Y075658D01*
X015275Y075713D01*
X015238Y075771D01*
X015205Y075830D01*
X015174Y075892D01*
X015147Y075955D01*
X015124Y076019D01*
X015104Y076085D01*
X015089Y076152D01*
X015077Y076219D01*
X015068Y076287D01*
X015064Y076355D01*
X015063Y076424D01*
X015067Y076492D01*
X015074Y076561D01*
X015085Y076628D01*
X015099Y076695D01*
X015118Y076761D01*
X015140Y076826D01*
X015166Y076889D01*
X015195Y076951D01*
X015228Y077012D01*
X015264Y077070D01*
X015303Y077126D01*
X015346Y077180D01*
X015391Y077231D01*
X015439Y077280D01*
X015490Y077326D01*
X015543Y077369D01*
X015599Y077409D01*
X015657Y077445D01*
X015717Y077479D01*
X015778Y077509D01*
X015841Y077535D01*
X015906Y077558D01*
X015847Y077697D02*
X014981Y077697D01*
X013064Y077574D02*
X012999Y077551D01*
X012936Y077525D01*
X012875Y077495D01*
X012815Y077461D01*
X012757Y077425D01*
X012701Y077385D01*
X012648Y077342D01*
X012597Y077296D01*
X012549Y077247D01*
X012504Y077196D01*
X012461Y077142D01*
X012422Y077086D01*
X012386Y077028D01*
X012353Y076967D01*
X012324Y076905D01*
X012298Y076842D01*
X012276Y076777D01*
X012257Y076711D01*
X012243Y076644D01*
X012232Y076577D01*
X012225Y076508D01*
X012221Y076440D01*
X012222Y076371D01*
X012226Y076303D01*
X012235Y076235D01*
X012247Y076168D01*
X012262Y076101D01*
X012282Y076035D01*
X012305Y075971D01*
X012332Y075908D01*
X012363Y075846D01*
X012396Y075787D01*
X012433Y075729D01*
X012474Y075674D01*
X012517Y075621D01*
X012563Y075570D01*
X012612Y075522D01*
X012664Y075477D01*
X012718Y075435D01*
X012774Y075396D01*
X012833Y075360D01*
X012893Y075328D01*
X012955Y075299D01*
X013019Y075273D01*
X013084Y075252D01*
X013005Y075114D02*
X012493Y075114D01*
D11*
X023292Y067543D02*
X023292Y065243D01*
X027292Y065243D01*
X027292Y065993D01*
X027253Y065995D01*
X027214Y066001D01*
X027176Y066010D01*
X027139Y066023D01*
X027103Y066040D01*
X027070Y066060D01*
X027038Y066084D01*
X027009Y066110D01*
X026983Y066139D01*
X026959Y066171D01*
X026939Y066204D01*
X026922Y066240D01*
X026909Y066277D01*
X026900Y066315D01*
X026894Y066354D01*
X026892Y066393D01*
X026894Y066432D01*
X026900Y066471D01*
X026909Y066509D01*
X026922Y066546D01*
X026939Y066582D01*
X026959Y066615D01*
X026983Y066647D01*
X027009Y066676D01*
X027038Y066702D01*
X027070Y066726D01*
X027103Y066746D01*
X027139Y066763D01*
X027176Y066776D01*
X027214Y066785D01*
X027253Y066791D01*
X027292Y066793D01*
X027292Y067543D01*
X023292Y067543D01*
M02*
