G75*
%MOIN*%
%OFA0B0*%
%FSLAX24Y24*%
%IPPOS*%
%LPD*%
%AMOC8*
5,1,8,0,0,1.08239X$1,22.5*
%
%ADD10C,0.0236*%
%ADD11R,0.0394X0.0433*%
%ADD12R,0.0433X0.0394*%
%ADD13R,0.0512X0.0630*%
%ADD14R,0.0472X0.0472*%
%ADD15R,0.0866X0.0236*%
%ADD16R,0.1000X0.0500*%
%ADD17R,0.0591X0.0512*%
D10*
X010981Y065095D02*
X010981Y065645D01*
X011375Y065645D02*
X011375Y065095D01*
X011768Y065095D02*
X011768Y065645D01*
X012162Y065645D02*
X012162Y065095D01*
X012556Y065095D02*
X012556Y065645D01*
X012949Y065645D02*
X012949Y065095D01*
X013343Y065095D02*
X013343Y065645D01*
X013737Y065645D02*
X013737Y065095D01*
X014131Y065095D02*
X014131Y065645D01*
X014524Y065645D02*
X014524Y065095D01*
X014918Y065095D02*
X014918Y065645D01*
X015312Y065645D02*
X015312Y065095D01*
X015705Y065095D02*
X015705Y065645D01*
X016099Y065645D02*
X016099Y065095D01*
X016493Y065095D02*
X016493Y065645D01*
X016886Y065645D02*
X016886Y065095D01*
X017280Y065095D02*
X017280Y065645D01*
X018737Y067102D02*
X019287Y067102D01*
X019287Y067496D02*
X018737Y067496D01*
X018737Y067889D02*
X019287Y067889D01*
X019287Y068283D02*
X018737Y068283D01*
X018737Y068677D02*
X019287Y068677D01*
X019287Y069071D02*
X018737Y069071D01*
X018737Y069464D02*
X019287Y069464D01*
X019287Y069858D02*
X018737Y069858D01*
X018737Y070252D02*
X019287Y070252D01*
X019287Y070645D02*
X018737Y070645D01*
X018737Y071039D02*
X019287Y071039D01*
X019287Y071433D02*
X018737Y071433D01*
X018737Y071826D02*
X019287Y071826D01*
X019287Y072220D02*
X018737Y072220D01*
X018737Y072614D02*
X019287Y072614D01*
X019287Y073008D02*
X018737Y073008D01*
X018737Y073401D02*
X019287Y073401D01*
X017280Y074859D02*
X017280Y075409D01*
X016886Y075409D02*
X016886Y074859D01*
X016493Y074859D02*
X016493Y075409D01*
X016099Y075409D02*
X016099Y074859D01*
X015705Y074859D02*
X015705Y075409D01*
X015312Y075409D02*
X015312Y074859D01*
X014918Y074859D02*
X014918Y075409D01*
X014524Y075409D02*
X014524Y074859D01*
X014131Y074859D02*
X014131Y075409D01*
X013737Y075409D02*
X013737Y074859D01*
X013343Y074859D02*
X013343Y075409D01*
X012949Y075409D02*
X012949Y074859D01*
X012556Y074859D02*
X012556Y075409D01*
X012162Y075409D02*
X012162Y074859D01*
X011768Y074859D02*
X011768Y075409D01*
X011375Y075409D02*
X011375Y074859D01*
X010981Y074859D02*
X010981Y075409D01*
X009524Y073401D02*
X008974Y073401D01*
X008974Y073008D02*
X009524Y073008D01*
X009524Y072614D02*
X008974Y072614D01*
X008974Y072220D02*
X009524Y072220D01*
X009524Y071826D02*
X008974Y071826D01*
X008974Y071433D02*
X009524Y071433D01*
X009524Y071039D02*
X008974Y071039D01*
X008974Y070645D02*
X009524Y070645D01*
X009524Y070252D02*
X008974Y070252D01*
X008974Y069858D02*
X009524Y069858D01*
X009524Y069464D02*
X008974Y069464D01*
X008974Y069071D02*
X009524Y069071D01*
X009524Y068677D02*
X008974Y068677D01*
X008974Y068283D02*
X009524Y068283D01*
X009524Y067889D02*
X008974Y067889D01*
X008974Y067496D02*
X009524Y067496D01*
X009524Y067102D02*
X008974Y067102D01*
D11*
X015241Y064417D03*
X015910Y064417D03*
D12*
X014520Y064425D03*
X014520Y063756D03*
D13*
X007985Y067905D03*
X007237Y067905D03*
X005997Y068374D03*
X005249Y068374D03*
D14*
X005737Y073925D03*
X005737Y074752D03*
X006879Y074791D03*
X006879Y073964D03*
X017607Y058197D03*
X018434Y058197D03*
X019457Y058197D03*
X020284Y058197D03*
X021524Y072823D03*
X021524Y073649D03*
X022745Y073610D03*
X022745Y072783D03*
D15*
X024162Y072789D03*
X024162Y072289D03*
X024162Y073289D03*
X024162Y073789D03*
X026209Y073789D03*
X026209Y073289D03*
X026209Y072789D03*
X026209Y072289D03*
D16*
X015468Y059108D03*
X015468Y058108D03*
X015468Y057108D03*
X015475Y053616D03*
X006078Y053616D03*
X006070Y057108D03*
X006070Y058108D03*
X006070Y059108D03*
D17*
X018414Y051720D03*
X018414Y052389D03*
X019477Y052389D03*
X019477Y051720D03*
M02*
