%
M48
M72
T01C0.0197
T02C0.0236
T03C0.0315
T04C0.0320
T05C0.0394
T06C0.0400
T07C0.0512
T08C0.0551
T09C0.0591
T10C0.0630
T11C0.0906
T12C0.1181
T13C0.1260
%
T01
X10890Y55815
X11678Y57114
X11678Y58295
X11481Y59476
X9906Y59476
X8335Y58905
X8134Y57901
X7347Y57114
X7938Y56130
X6560Y56326
X5379Y56326
X7091Y58405
X5973Y59693
X6363Y60263
X7347Y60263
X8134Y61051
X8331Y62035
X8725Y62823
X8772Y63799
X7741Y63610
X6560Y63610
X5379Y63610
X5379Y60263
X5894Y67291
X7430Y67055
X8257Y67134
X8296Y68669
X8178Y69338
X8571Y69653
X7548Y69102
X6800Y69141
X6170Y69141
X5540Y69141
X4949Y69141
X4949Y72724
X5658Y72724
X5737Y73393
X6406Y72724
X7154Y72724
X7902Y72645
X8296Y72094
X8493Y71425
X10071Y72220
X9241Y73826
X9107Y75354
X9398Y76622
X9398Y77409
X10186Y77409
X10973Y77409
X10973Y76622
X10186Y76622
X8611Y76622
X8611Y77409
X7823Y77409
X7823Y76622
X7036Y77409
X5737Y75401
X10068Y68669
X10064Y67889
X11087Y64594
X10103Y64200
X10221Y63334
X11087Y62823
X12268Y62823
X13646Y62429
X14816Y62366
X14394Y61452
X15634Y61460
X16194Y62366
X16292Y63389
X16540Y64598
X17194Y63952
X18375Y64063
X18650Y63433
X19083Y65086
X19083Y65874
X19083Y66661
X17705Y67055
X17705Y68039
X17705Y69220
X17863Y70323
X17863Y70874
X17823Y71504
X17823Y72094
X17823Y72763
X17784Y73354
X17194Y73000
X17154Y71858
X15579Y71267
X16524Y69417
X16524Y68236
X16524Y67055
X16879Y66071
X15024Y63807
X13449Y64594
X12268Y64594
X13253Y59476
X13253Y58295
X13056Y57114
X13768Y57134
X13768Y55795
X14709Y55815
X16406Y57055
X18414Y60519
X17863Y61071
X17020Y61657
X19359Y59574
X19831Y62370
X21091Y68945
X20162Y72669
X19713Y73590
X19162Y74378
X17784Y74704
X16800Y74181
X15540Y74181
X14359Y74181
X14005Y73039
X13217Y71661
X14201Y71267
X12194Y72882
X12194Y73590
X12194Y74181
X11091Y73866
X10461Y74653
X11760Y77409
X21524Y74220
X22745Y74102
X23375Y72803
X25146Y72291
X26229Y74181
X12111Y55815
T02
X16879Y56149
X20619Y55441
X21288Y51543
X13217Y73905
T03
X30658Y63630
T04
X26792Y64893
X25792Y64893
X24792Y64893
X23792Y64893
X23131Y66480
X22131Y66480
X23792Y67893
X24792Y67893
X25792Y67893
X26792Y67893
X19426Y57098
X18426Y57098
X18426Y54098
X19426Y54098
T05
X23532Y60283
X36957Y56149
X41367Y56149
X47745Y70244
T06
X49032Y70354
X49036Y70354
X49036Y69354
X49032Y69354
X49032Y68354
X49036Y68354
X50032Y68354
X50036Y68354
X50036Y69354
X50032Y69354
X50032Y70354
X50036Y70354
X50036Y71354
X50032Y71354
X49036Y71354
X49032Y71354
X49032Y67354
X49036Y67354
X49036Y66354
X49032Y66354
X49032Y65354
X49036Y65354
X49036Y64354
X49032Y64354
X49032Y63354
X49036Y63354
X50032Y63354
X50036Y63354
X50036Y64354
X50032Y64354
X50032Y65354
X50036Y65354
X50036Y66354
X50032Y66354
X50032Y67354
X50036Y67354
X50036Y62354
X50032Y62354
X50032Y61354
X50036Y61354
X50036Y60354
X50032Y60354
X50032Y59354
X50036Y59354
X49036Y59354
X49032Y59354
X49032Y60354
X49036Y60354
X49036Y61354
X49032Y61354
X49032Y62354
X49036Y62354
X49036Y58354
X49032Y58354
X49032Y57354
X49036Y57354
X49036Y56354
X49032Y56354
X49032Y55354
X49036Y55354
X49036Y54354
X49032Y54354
X50032Y54354
X50036Y54354
X50036Y55354
X50032Y55354
X50032Y56354
X50036Y56354
X50036Y57354
X50032Y57354
X50032Y58354
X50036Y58354
X48044Y52366
X48032Y52354
X47044Y52366
X47032Y52354
X46044Y52366
X46032Y52354
X45044Y52366
X45032Y52354
X44044Y52366
X44032Y52354
X43044Y52366
X43032Y52354
X42044Y52366
X42032Y52354
X41044Y52366
X41032Y52354
X39032Y52354
X39032Y52358
X38032Y52358
X38032Y52354
X37032Y52354
X37032Y52358
X36032Y52358
X36032Y52354
X35032Y52354
X35032Y52358
X34032Y52358
X34032Y52354
X33032Y52354
X33032Y52358
X32032Y52358
X32032Y52354
X30032Y52354
X30032Y52358
X29032Y52358
X29032Y52354
X28032Y52354
X28032Y52358
X27032Y52358
X27032Y52354
X26032Y52354
X26032Y52358
X25032Y52358
X25032Y52354
X24843Y62630
X24843Y63630
X23843Y63630
X23843Y62630
X25843Y62630
X25843Y63630
X26843Y63630
X26843Y62630
X26432Y71354
X26430Y71358
X27430Y71358
X27432Y71354
X28430Y71358
X28432Y71354
X30032Y71354
X30032Y71354
X31032Y71354
X31032Y71354
X32032Y71354
X32032Y71354
X33032Y71354
X33032Y71354
X34032Y71354
X34032Y71354
X35032Y71354
X35032Y71354
X36032Y71354
X36032Y71354
X37032Y71354
X37032Y71354
X39032Y71354
X39032Y71354
X40032Y71354
X40032Y71354
X41032Y71354
X41032Y71354
X42032Y71354
X42032Y71354
X43032Y71354
X43032Y71354
X44032Y71354
X44032Y71354
X45032Y71354
X45032Y71354
X46032Y71354
X46032Y71354
X31398Y74193
X31398Y75193
X30398Y75193
X30398Y74193
X29398Y74193
X29398Y75193
X28398Y75193
X28398Y74193
X27398Y74193
X27398Y75193
X25430Y71358
X25432Y71354
X24432Y71354
X24430Y71358
X23432Y71354
X23430Y71358
X22432Y71354
X22430Y71358
X21432Y71354
X21430Y71358
X8143Y66216
X8143Y64436
X5583Y64436
X5583Y66216
T07
X28560Y66299
X36434Y66299
T08
X36119Y75992
X38119Y75992
X40127Y75992
X42123Y75980
T09
X6438Y70885
T10
X7438Y69885
X7438Y71885
X5438Y71885
X5438Y69885
X21524Y61031
X21524Y54023
X37351Y54023
X39182Y54000
X37351Y61031
X39182Y69826
X46190Y69826
X46190Y54000
T11
X9570Y55644
X9574Y62002
T12
X45095Y75771
X46945Y76913
X46945Y74590
T13
X5855Y51425
X21209Y77409
X5855Y78590
X50737Y77015
X50737Y51425
M30
