G75*
%MOIN*%
%OFA0B0*%
%FSLAX24Y24*%
%IPPOS*%
%LPD*%
%AMOC8*
5,1,8,0,0,1.08239X$1,22.5*
%
%ADD10C,0.0320*%
%ADD11C,0.0050*%
%ADD12C,0.0080*%
%ADD13C,0.0060*%
%ADD14C,0.0020*%
%ADD15C,0.0160*%
%ADD16R,0.0160X0.0230*%
%ADD17C,0.0120*%
%ADD18C,0.0090*%
%ADD19C,0.0030*%
%ADD20R,0.0059X0.0118*%
%ADD21R,0.0118X0.0118*%
%ADD22R,0.0079X0.0079*%
%ADD23R,0.0400X0.0150*%
%ADD24R,0.0118X0.0059*%
D10*
X021012Y053511D02*
X021012Y061543D01*
X037863Y061543D01*
X037863Y053511D01*
X021012Y053511D01*
X010037Y064897D02*
X010039Y064922D01*
X010045Y064946D01*
X010054Y064968D01*
X010067Y064989D01*
X010083Y065008D01*
X010102Y065024D01*
X010123Y065037D01*
X010145Y065046D01*
X010169Y065052D01*
X010194Y065054D01*
X010219Y065052D01*
X010243Y065046D01*
X010265Y065037D01*
X010286Y065024D01*
X010305Y065008D01*
X010321Y064989D01*
X010334Y064968D01*
X010343Y064946D01*
X010349Y064922D01*
X010351Y064897D01*
X010349Y064872D01*
X010343Y064848D01*
X010334Y064826D01*
X010321Y064805D01*
X010305Y064786D01*
X010286Y064770D01*
X010265Y064757D01*
X010243Y064748D01*
X010219Y064742D01*
X010194Y064740D01*
X010169Y064742D01*
X010145Y064748D01*
X010123Y064757D01*
X010102Y064770D01*
X010083Y064786D01*
X010067Y064805D01*
X010054Y064826D01*
X010045Y064848D01*
X010039Y064872D01*
X010037Y064897D01*
X038670Y070338D02*
X038670Y053488D01*
X046701Y053488D01*
X046701Y070338D01*
X038670Y070338D01*
D11*
X004668Y063333D02*
X004668Y052490D01*
X016873Y052490D01*
X016873Y063333D01*
X004668Y063333D01*
X021209Y061027D02*
X021211Y061062D01*
X021217Y061097D01*
X021227Y061131D01*
X021240Y061164D01*
X021257Y061195D01*
X021278Y061223D01*
X021301Y061250D01*
X021328Y061273D01*
X021356Y061294D01*
X021387Y061311D01*
X021420Y061324D01*
X021454Y061334D01*
X021489Y061340D01*
X021524Y061342D01*
X021559Y061340D01*
X021594Y061334D01*
X021628Y061324D01*
X021661Y061311D01*
X021692Y061294D01*
X021720Y061273D01*
X021747Y061250D01*
X021770Y061223D01*
X021791Y061195D01*
X021808Y061164D01*
X021821Y061131D01*
X021831Y061097D01*
X021837Y061062D01*
X021839Y061027D01*
X021837Y060992D01*
X021831Y060957D01*
X021821Y060923D01*
X021808Y060890D01*
X021791Y060859D01*
X021770Y060831D01*
X021747Y060804D01*
X021720Y060781D01*
X021692Y060760D01*
X021661Y060743D01*
X021628Y060730D01*
X021594Y060720D01*
X021559Y060714D01*
X021524Y060712D01*
X021489Y060714D01*
X021454Y060720D01*
X021420Y060730D01*
X021387Y060743D01*
X021356Y060760D01*
X021328Y060781D01*
X021301Y060804D01*
X021278Y060831D01*
X021257Y060859D01*
X021240Y060890D01*
X021227Y060923D01*
X021217Y060957D01*
X021211Y060992D01*
X021209Y061027D01*
X023093Y061880D02*
X023093Y070880D01*
X027593Y070880D01*
X027593Y061880D01*
X023093Y061880D01*
X021205Y054019D02*
X021207Y054054D01*
X021213Y054089D01*
X021223Y054123D01*
X021236Y054156D01*
X021253Y054187D01*
X021274Y054215D01*
X021297Y054242D01*
X021324Y054265D01*
X021352Y054286D01*
X021383Y054303D01*
X021416Y054316D01*
X021450Y054326D01*
X021485Y054332D01*
X021520Y054334D01*
X021555Y054332D01*
X021590Y054326D01*
X021624Y054316D01*
X021657Y054303D01*
X021688Y054286D01*
X021716Y054265D01*
X021743Y054242D01*
X021766Y054215D01*
X021787Y054187D01*
X021804Y054156D01*
X021817Y054123D01*
X021827Y054089D01*
X021833Y054054D01*
X021835Y054019D01*
X021833Y053984D01*
X021827Y053949D01*
X021817Y053915D01*
X021804Y053882D01*
X021787Y053851D01*
X021766Y053823D01*
X021743Y053796D01*
X021716Y053773D01*
X021688Y053752D01*
X021657Y053735D01*
X021624Y053722D01*
X021590Y053712D01*
X021555Y053706D01*
X021520Y053704D01*
X021485Y053706D01*
X021450Y053712D01*
X021416Y053722D01*
X021383Y053735D01*
X021352Y053752D01*
X021324Y053773D01*
X021297Y053796D01*
X021274Y053823D01*
X021253Y053851D01*
X021236Y053882D01*
X021223Y053915D01*
X021213Y053949D01*
X021207Y053984D01*
X021205Y054019D01*
X035123Y075200D02*
X043127Y075200D01*
X043123Y075204D02*
X043123Y076606D01*
X042123Y076606D01*
X042123Y079606D01*
X043123Y079992D02*
X035123Y079992D01*
X035123Y076606D01*
X036123Y076606D01*
X036123Y079606D01*
X036123Y076606D02*
X038123Y076606D01*
X038123Y079606D01*
X038123Y076606D02*
X040123Y076606D01*
X040123Y079606D01*
X040123Y076606D02*
X042123Y076606D01*
X043123Y076606D02*
X043123Y079992D01*
X045095Y079980D02*
X045095Y074232D01*
X048638Y074232D01*
X048638Y079980D01*
X045095Y079980D01*
X048057Y072179D02*
X048057Y072029D01*
X048157Y072079D01*
X048207Y072079D01*
X048257Y072029D01*
X048257Y071929D01*
X048207Y071879D01*
X048107Y071879D01*
X048057Y071929D01*
X048057Y072179D02*
X048257Y072179D01*
X048379Y072179D02*
X048379Y071979D01*
X048479Y071879D01*
X048580Y071979D01*
X048580Y072179D01*
X045871Y069826D02*
X045873Y069861D01*
X045879Y069896D01*
X045889Y069930D01*
X045902Y069963D01*
X045919Y069994D01*
X045940Y070022D01*
X045963Y070049D01*
X045990Y070072D01*
X046018Y070093D01*
X046049Y070110D01*
X046082Y070123D01*
X046116Y070133D01*
X046151Y070139D01*
X046186Y070141D01*
X046221Y070139D01*
X046256Y070133D01*
X046290Y070123D01*
X046323Y070110D01*
X046354Y070093D01*
X046382Y070072D01*
X046409Y070049D01*
X046432Y070022D01*
X046453Y069994D01*
X046470Y069963D01*
X046483Y069930D01*
X046493Y069896D01*
X046499Y069861D01*
X046501Y069826D01*
X046499Y069791D01*
X046493Y069756D01*
X046483Y069722D01*
X046470Y069689D01*
X046453Y069658D01*
X046432Y069630D01*
X046409Y069603D01*
X046382Y069580D01*
X046354Y069559D01*
X046323Y069542D01*
X046290Y069529D01*
X046256Y069519D01*
X046221Y069513D01*
X046186Y069511D01*
X046151Y069513D01*
X046116Y069519D01*
X046082Y069529D01*
X046049Y069542D01*
X046018Y069559D01*
X045990Y069580D01*
X045963Y069603D01*
X045940Y069630D01*
X045919Y069658D01*
X045902Y069689D01*
X045889Y069722D01*
X045879Y069756D01*
X045873Y069791D01*
X045871Y069826D01*
X038863Y069830D02*
X038865Y069865D01*
X038871Y069900D01*
X038881Y069934D01*
X038894Y069967D01*
X038911Y069998D01*
X038932Y070026D01*
X038955Y070053D01*
X038982Y070076D01*
X039010Y070097D01*
X039041Y070114D01*
X039074Y070127D01*
X039108Y070137D01*
X039143Y070143D01*
X039178Y070145D01*
X039213Y070143D01*
X039248Y070137D01*
X039282Y070127D01*
X039315Y070114D01*
X039346Y070097D01*
X039374Y070076D01*
X039401Y070053D01*
X039424Y070026D01*
X039445Y069998D01*
X039462Y069967D01*
X039475Y069934D01*
X039485Y069900D01*
X039491Y069865D01*
X039493Y069830D01*
X039491Y069795D01*
X039485Y069760D01*
X039475Y069726D01*
X039462Y069693D01*
X039445Y069662D01*
X039424Y069634D01*
X039401Y069607D01*
X039374Y069584D01*
X039346Y069563D01*
X039315Y069546D01*
X039282Y069533D01*
X039248Y069523D01*
X039213Y069517D01*
X039178Y069515D01*
X039143Y069517D01*
X039108Y069523D01*
X039074Y069533D01*
X039041Y069546D01*
X039010Y069563D01*
X038982Y069584D01*
X038955Y069607D01*
X038932Y069634D01*
X038911Y069662D01*
X038894Y069693D01*
X038881Y069726D01*
X038871Y069760D01*
X038865Y069795D01*
X038863Y069830D01*
X035123Y075200D02*
X035123Y076606D01*
X037044Y061027D02*
X037046Y061062D01*
X037052Y061097D01*
X037062Y061131D01*
X037075Y061164D01*
X037092Y061195D01*
X037113Y061223D01*
X037136Y061250D01*
X037163Y061273D01*
X037191Y061294D01*
X037222Y061311D01*
X037255Y061324D01*
X037289Y061334D01*
X037324Y061340D01*
X037359Y061342D01*
X037394Y061340D01*
X037429Y061334D01*
X037463Y061324D01*
X037496Y061311D01*
X037527Y061294D01*
X037555Y061273D01*
X037582Y061250D01*
X037605Y061223D01*
X037626Y061195D01*
X037643Y061164D01*
X037656Y061131D01*
X037666Y061097D01*
X037672Y061062D01*
X037674Y061027D01*
X037672Y060992D01*
X037666Y060957D01*
X037656Y060923D01*
X037643Y060890D01*
X037626Y060859D01*
X037605Y060831D01*
X037582Y060804D01*
X037555Y060781D01*
X037527Y060760D01*
X037496Y060743D01*
X037463Y060730D01*
X037429Y060720D01*
X037394Y060714D01*
X037359Y060712D01*
X037324Y060714D01*
X037289Y060720D01*
X037255Y060730D01*
X037222Y060743D01*
X037191Y060760D01*
X037163Y060781D01*
X037136Y060804D01*
X037113Y060831D01*
X037092Y060859D01*
X037075Y060890D01*
X037062Y060923D01*
X037052Y060957D01*
X037046Y060992D01*
X037044Y061027D01*
X037032Y054015D02*
X037034Y054050D01*
X037040Y054085D01*
X037050Y054119D01*
X037063Y054152D01*
X037080Y054183D01*
X037101Y054211D01*
X037124Y054238D01*
X037151Y054261D01*
X037179Y054282D01*
X037210Y054299D01*
X037243Y054312D01*
X037277Y054322D01*
X037312Y054328D01*
X037347Y054330D01*
X037382Y054328D01*
X037417Y054322D01*
X037451Y054312D01*
X037484Y054299D01*
X037515Y054282D01*
X037543Y054261D01*
X037570Y054238D01*
X037593Y054211D01*
X037614Y054183D01*
X037631Y054152D01*
X037644Y054119D01*
X037654Y054085D01*
X037660Y054050D01*
X037662Y054015D01*
X037660Y053980D01*
X037654Y053945D01*
X037644Y053911D01*
X037631Y053878D01*
X037614Y053847D01*
X037593Y053819D01*
X037570Y053792D01*
X037543Y053769D01*
X037515Y053748D01*
X037484Y053731D01*
X037451Y053718D01*
X037417Y053708D01*
X037382Y053702D01*
X037347Y053700D01*
X037312Y053702D01*
X037277Y053708D01*
X037243Y053718D01*
X037210Y053731D01*
X037179Y053748D01*
X037151Y053769D01*
X037124Y053792D01*
X037101Y053819D01*
X037080Y053847D01*
X037063Y053878D01*
X037050Y053911D01*
X037040Y053945D01*
X037034Y053980D01*
X037032Y054015D01*
X038859Y054004D02*
X038861Y054039D01*
X038867Y054074D01*
X038877Y054108D01*
X038890Y054141D01*
X038907Y054172D01*
X038928Y054200D01*
X038951Y054227D01*
X038978Y054250D01*
X039006Y054271D01*
X039037Y054288D01*
X039070Y054301D01*
X039104Y054311D01*
X039139Y054317D01*
X039174Y054319D01*
X039209Y054317D01*
X039244Y054311D01*
X039278Y054301D01*
X039311Y054288D01*
X039342Y054271D01*
X039370Y054250D01*
X039397Y054227D01*
X039420Y054200D01*
X039441Y054172D01*
X039458Y054141D01*
X039471Y054108D01*
X039481Y054074D01*
X039487Y054039D01*
X039489Y054004D01*
X039487Y053969D01*
X039481Y053934D01*
X039471Y053900D01*
X039458Y053867D01*
X039441Y053836D01*
X039420Y053808D01*
X039397Y053781D01*
X039370Y053758D01*
X039342Y053737D01*
X039311Y053720D01*
X039278Y053707D01*
X039244Y053697D01*
X039209Y053691D01*
X039174Y053689D01*
X039139Y053691D01*
X039104Y053697D01*
X039070Y053707D01*
X039037Y053720D01*
X039006Y053737D01*
X038978Y053758D01*
X038951Y053781D01*
X038928Y053808D01*
X038907Y053836D01*
X038890Y053867D01*
X038877Y053900D01*
X038867Y053934D01*
X038861Y053969D01*
X038859Y054004D01*
X045871Y053992D02*
X045873Y054027D01*
X045879Y054062D01*
X045889Y054096D01*
X045902Y054129D01*
X045919Y054160D01*
X045940Y054188D01*
X045963Y054215D01*
X045990Y054238D01*
X046018Y054259D01*
X046049Y054276D01*
X046082Y054289D01*
X046116Y054299D01*
X046151Y054305D01*
X046186Y054307D01*
X046221Y054305D01*
X046256Y054299D01*
X046290Y054289D01*
X046323Y054276D01*
X046354Y054259D01*
X046382Y054238D01*
X046409Y054215D01*
X046432Y054188D01*
X046453Y054160D01*
X046470Y054129D01*
X046483Y054096D01*
X046493Y054062D01*
X046499Y054027D01*
X046501Y053992D01*
X046499Y053957D01*
X046493Y053922D01*
X046483Y053888D01*
X046470Y053855D01*
X046453Y053824D01*
X046432Y053796D01*
X046409Y053769D01*
X046382Y053746D01*
X046354Y053725D01*
X046323Y053708D01*
X046290Y053695D01*
X046256Y053685D01*
X046221Y053679D01*
X046186Y053677D01*
X046151Y053679D01*
X046116Y053685D01*
X046082Y053695D01*
X046049Y053708D01*
X046018Y053725D01*
X045990Y053746D01*
X045963Y053769D01*
X045940Y053796D01*
X045919Y053824D01*
X045902Y053855D01*
X045889Y053888D01*
X045879Y053922D01*
X045873Y053957D01*
X045871Y053992D01*
D12*
X045812Y053880D02*
X046292Y053880D01*
X046292Y053720D02*
X046292Y054040D01*
X046212Y054235D02*
X046292Y054315D01*
X046292Y054475D01*
X046212Y054556D01*
X046132Y054556D01*
X046052Y054475D01*
X046052Y054395D01*
X046052Y054475D02*
X045972Y054556D01*
X045892Y054556D01*
X045812Y054475D01*
X045812Y054315D01*
X045892Y054235D01*
X045812Y053880D02*
X045972Y053720D01*
X045972Y053524D02*
X046292Y053524D01*
X046052Y053524D02*
X046052Y053204D01*
X045972Y053204D02*
X045812Y053364D01*
X045972Y053524D01*
X045972Y053204D02*
X046292Y053204D01*
X046282Y052854D02*
X046532Y052604D01*
X046782Y052854D01*
X047282Y052854D01*
X047532Y052604D01*
X047782Y052854D01*
X048282Y052854D01*
X048532Y052604D01*
X048532Y052104D01*
X048282Y051854D01*
X047782Y051854D01*
X047532Y052104D01*
X047282Y051854D01*
X046782Y051854D01*
X046532Y052104D01*
X046282Y051854D01*
X045782Y051854D01*
X045532Y052104D01*
X045282Y051854D01*
X044782Y051854D01*
X044532Y052104D01*
X044282Y051854D01*
X043782Y051854D01*
X043532Y052104D01*
X043282Y051854D01*
X042782Y051854D01*
X042532Y052104D01*
X042282Y051854D01*
X041782Y051854D01*
X041532Y052104D01*
X041282Y051854D01*
X040782Y051854D01*
X040532Y052104D01*
X040532Y052604D01*
X040782Y052854D01*
X041282Y052854D01*
X041532Y052604D01*
X041782Y052854D01*
X042282Y052854D01*
X042532Y052604D01*
X042782Y052854D01*
X043282Y052854D01*
X043532Y052604D01*
X043782Y052854D01*
X044282Y052854D01*
X044532Y052604D01*
X044782Y052854D01*
X045282Y052854D01*
X045532Y052604D01*
X045782Y052854D01*
X046282Y052854D01*
X046812Y053364D02*
X046972Y053524D01*
X047292Y053524D01*
X047292Y053720D02*
X047292Y054040D01*
X047292Y053880D02*
X046812Y053880D01*
X046972Y053720D01*
X047052Y053524D02*
X047052Y053204D01*
X046972Y053204D02*
X046812Y053364D01*
X046972Y053204D02*
X047292Y053204D01*
X047762Y053364D02*
X047922Y053524D01*
X048242Y053524D01*
X048242Y053720D02*
X048242Y054040D01*
X048242Y053880D02*
X047762Y053880D01*
X047922Y053720D01*
X048002Y053524D02*
X048002Y053204D01*
X047922Y053204D02*
X047762Y053364D01*
X047922Y053204D02*
X048242Y053204D01*
X048782Y053854D02*
X050282Y053854D01*
X050532Y054104D01*
X050532Y054604D01*
X050282Y054854D01*
X048782Y054854D01*
X048532Y054604D01*
X048532Y054104D01*
X048782Y053854D01*
X048242Y054315D02*
X048162Y054235D01*
X048242Y054315D02*
X048242Y054475D01*
X048162Y054556D01*
X048002Y054556D01*
X047922Y054475D01*
X047922Y054395D01*
X048002Y054235D01*
X047762Y054235D01*
X047762Y054556D01*
X047292Y054475D02*
X046812Y054475D01*
X047052Y054235D01*
X047052Y054556D01*
X047462Y055094D02*
X047382Y055174D01*
X047462Y055094D02*
X047622Y055094D01*
X047702Y055174D01*
X047702Y055334D01*
X047622Y055414D01*
X047542Y055414D01*
X047382Y055334D01*
X047382Y055574D01*
X047702Y055574D01*
X047898Y055494D02*
X047978Y055574D01*
X048138Y055574D01*
X048218Y055494D01*
X048218Y055414D01*
X047898Y055094D01*
X048218Y055094D01*
X048138Y056094D02*
X047978Y056094D01*
X047898Y056174D01*
X048218Y056494D01*
X048218Y056174D01*
X048138Y056094D01*
X047898Y056174D02*
X047898Y056494D01*
X047978Y056574D01*
X048138Y056574D01*
X048218Y056494D01*
X047702Y056574D02*
X047382Y056574D01*
X047382Y056334D01*
X047542Y056414D01*
X047622Y056414D01*
X047702Y056334D01*
X047702Y056174D01*
X047622Y056094D01*
X047462Y056094D01*
X047382Y056174D01*
X047622Y057094D02*
X047622Y057574D01*
X047382Y057334D01*
X047702Y057334D01*
X047898Y057254D02*
X047978Y057334D01*
X048138Y057334D01*
X048218Y057254D01*
X048218Y057174D01*
X048138Y057094D01*
X047978Y057094D01*
X047898Y057174D01*
X047898Y057254D01*
X047978Y057334D02*
X047898Y057414D01*
X047898Y057494D01*
X047978Y057574D01*
X048138Y057574D01*
X048218Y057494D01*
X048218Y057414D01*
X048138Y057334D01*
X048138Y058094D02*
X048218Y058174D01*
X048218Y058254D01*
X048138Y058334D01*
X047898Y058334D01*
X047898Y058174D01*
X047978Y058094D01*
X048138Y058094D01*
X047898Y058334D02*
X048058Y058494D01*
X048218Y058574D01*
X048138Y059094D02*
X048138Y059574D01*
X047898Y059334D01*
X048218Y059334D01*
X047702Y059334D02*
X047382Y059334D01*
X047622Y059574D01*
X047622Y059094D01*
X047622Y058574D02*
X047382Y058334D01*
X047702Y058334D01*
X047622Y058094D02*
X047622Y058574D01*
X047622Y060094D02*
X047622Y060574D01*
X047382Y060334D01*
X047702Y060334D01*
X047898Y060494D02*
X047978Y060574D01*
X048138Y060574D01*
X048218Y060494D01*
X048218Y060414D01*
X047898Y060094D01*
X048218Y060094D01*
X048138Y061094D02*
X047978Y061094D01*
X047898Y061174D01*
X048218Y061494D01*
X048218Y061174D01*
X048138Y061094D01*
X047898Y061174D02*
X047898Y061494D01*
X047978Y061574D01*
X048138Y061574D01*
X048218Y061494D01*
X047702Y061334D02*
X047382Y061334D01*
X047622Y061574D01*
X047622Y061094D01*
X047622Y062094D02*
X047462Y062094D01*
X047382Y062174D01*
X047542Y062334D02*
X047622Y062334D01*
X047702Y062254D01*
X047702Y062174D01*
X047622Y062094D01*
X047622Y062334D02*
X047702Y062414D01*
X047702Y062494D01*
X047622Y062574D01*
X047462Y062574D01*
X047382Y062494D01*
X047898Y062494D02*
X047898Y062414D01*
X047978Y062334D01*
X048138Y062334D01*
X048218Y062254D01*
X048218Y062174D01*
X048138Y062094D01*
X047978Y062094D01*
X047898Y062174D01*
X047898Y062254D01*
X047978Y062334D01*
X048138Y062334D02*
X048218Y062414D01*
X048218Y062494D01*
X048138Y062574D01*
X047978Y062574D01*
X047898Y062494D01*
X047978Y063094D02*
X048138Y063094D01*
X048218Y063174D01*
X048218Y063254D01*
X048138Y063334D01*
X047898Y063334D01*
X047898Y063174D01*
X047978Y063094D01*
X047898Y063334D02*
X048058Y063494D01*
X048218Y063574D01*
X047702Y063494D02*
X047702Y063414D01*
X047622Y063334D01*
X047702Y063254D01*
X047702Y063174D01*
X047622Y063094D01*
X047462Y063094D01*
X047382Y063174D01*
X047542Y063334D02*
X047622Y063334D01*
X047702Y063494D02*
X047622Y063574D01*
X047462Y063574D01*
X047382Y063494D01*
X047462Y064094D02*
X047382Y064174D01*
X047462Y064094D02*
X047622Y064094D01*
X047702Y064174D01*
X047702Y064254D01*
X047622Y064334D01*
X047542Y064334D01*
X047622Y064334D02*
X047702Y064414D01*
X047702Y064494D01*
X047622Y064574D01*
X047462Y064574D01*
X047382Y064494D01*
X047898Y064334D02*
X048218Y064334D01*
X048138Y064094D02*
X048138Y064574D01*
X047898Y064334D01*
X047898Y065094D02*
X048218Y065414D01*
X048218Y065494D01*
X048138Y065574D01*
X047978Y065574D01*
X047898Y065494D01*
X047702Y065494D02*
X047702Y065414D01*
X047622Y065334D01*
X047702Y065254D01*
X047702Y065174D01*
X047622Y065094D01*
X047462Y065094D01*
X047382Y065174D01*
X047542Y065334D02*
X047622Y065334D01*
X047702Y065494D02*
X047622Y065574D01*
X047462Y065574D01*
X047382Y065494D01*
X047462Y066094D02*
X047382Y066174D01*
X047462Y066094D02*
X047622Y066094D01*
X047702Y066174D01*
X047702Y066254D01*
X047622Y066334D01*
X047542Y066334D01*
X047622Y066334D02*
X047702Y066414D01*
X047702Y066494D01*
X047622Y066574D01*
X047462Y066574D01*
X047382Y066494D01*
X047898Y066494D02*
X047978Y066574D01*
X048138Y066574D01*
X048218Y066494D01*
X047898Y066174D01*
X047978Y066094D01*
X048138Y066094D01*
X048218Y066174D01*
X048218Y066494D01*
X047898Y066494D02*
X047898Y066174D01*
X047978Y067094D02*
X047898Y067174D01*
X047898Y067254D01*
X047978Y067334D01*
X048138Y067334D01*
X048218Y067254D01*
X048218Y067174D01*
X048138Y067094D01*
X047978Y067094D01*
X047978Y067334D02*
X047898Y067414D01*
X047898Y067494D01*
X047978Y067574D01*
X048138Y067574D01*
X048218Y067494D01*
X048218Y067414D01*
X048138Y067334D01*
X047702Y067414D02*
X047702Y067494D01*
X047622Y067574D01*
X047462Y067574D01*
X047382Y067494D01*
X047702Y067414D02*
X047382Y067094D01*
X047702Y067094D01*
X047702Y068094D02*
X047382Y068094D01*
X047702Y068414D01*
X047702Y068494D01*
X047622Y068574D01*
X047462Y068574D01*
X047382Y068494D01*
X047898Y068334D02*
X047898Y068174D01*
X047978Y068094D01*
X048138Y068094D01*
X048218Y068174D01*
X048218Y068254D01*
X048138Y068334D01*
X047898Y068334D01*
X048058Y068494D01*
X048218Y068574D01*
X048138Y069094D02*
X048138Y069574D01*
X047898Y069334D01*
X048218Y069334D01*
X047702Y069414D02*
X047702Y069494D01*
X047622Y069574D01*
X047462Y069574D01*
X047382Y069494D01*
X047702Y069414D02*
X047382Y069094D01*
X047702Y069094D01*
X047702Y070094D02*
X047382Y070094D01*
X047702Y070414D01*
X047702Y070494D01*
X047622Y070574D01*
X047462Y070574D01*
X047382Y070494D01*
X047898Y070494D02*
X047978Y070574D01*
X048138Y070574D01*
X048218Y070494D01*
X048218Y070414D01*
X047898Y070094D01*
X048218Y070094D01*
X048782Y070854D02*
X050282Y070854D01*
X050532Y071104D01*
X050532Y071604D01*
X050282Y071854D01*
X048782Y071854D01*
X048532Y071604D01*
X048532Y071104D01*
X048782Y070854D01*
X050822Y070504D02*
X050902Y070584D01*
X051062Y070584D01*
X051142Y070504D01*
X051142Y070424D01*
X050822Y070104D01*
X051142Y070104D01*
X051338Y070184D02*
X051418Y070104D01*
X051578Y070104D01*
X051658Y070184D01*
X051658Y070264D01*
X051578Y070344D01*
X051498Y070344D01*
X051578Y070344D02*
X051658Y070424D01*
X051658Y070504D01*
X051578Y070584D01*
X051418Y070584D01*
X051338Y070504D01*
X051338Y069584D02*
X051338Y069344D01*
X051498Y069424D01*
X051578Y069424D01*
X051658Y069344D01*
X051658Y069184D01*
X051578Y069104D01*
X051418Y069104D01*
X051338Y069184D01*
X051142Y069104D02*
X050822Y069104D01*
X051142Y069424D01*
X051142Y069504D01*
X051062Y069584D01*
X050902Y069584D01*
X050822Y069504D01*
X051338Y069584D02*
X051658Y069584D01*
X051658Y068584D02*
X051338Y068584D01*
X051142Y068504D02*
X051062Y068584D01*
X050902Y068584D01*
X050822Y068504D01*
X051142Y068504D02*
X051142Y068424D01*
X050822Y068104D01*
X051142Y068104D01*
X051338Y068104D02*
X051338Y068184D01*
X051658Y068504D01*
X051658Y068584D01*
X051578Y067584D02*
X051418Y067584D01*
X051338Y067504D01*
X051338Y067424D01*
X051418Y067344D01*
X051658Y067344D01*
X051658Y067184D02*
X051658Y067504D01*
X051578Y067584D01*
X051658Y067184D02*
X051578Y067104D01*
X051418Y067104D01*
X051338Y067184D01*
X051142Y067104D02*
X050822Y067104D01*
X051142Y067424D01*
X051142Y067504D01*
X051062Y067584D01*
X050902Y067584D01*
X050822Y067504D01*
X050902Y066584D02*
X051062Y066584D01*
X051142Y066504D01*
X051142Y066424D01*
X051062Y066344D01*
X051142Y066264D01*
X051142Y066184D01*
X051062Y066104D01*
X050902Y066104D01*
X050822Y066184D01*
X050982Y066344D02*
X051062Y066344D01*
X051338Y066424D02*
X051498Y066584D01*
X051498Y066104D01*
X051338Y066104D02*
X051658Y066104D01*
X051578Y065584D02*
X051658Y065504D01*
X051658Y065424D01*
X051578Y065344D01*
X051658Y065264D01*
X051658Y065184D01*
X051578Y065104D01*
X051418Y065104D01*
X051338Y065184D01*
X051142Y065184D02*
X051062Y065104D01*
X050902Y065104D01*
X050822Y065184D01*
X050982Y065344D02*
X051062Y065344D01*
X051142Y065264D01*
X051142Y065184D01*
X051062Y065344D02*
X051142Y065424D01*
X051142Y065504D01*
X051062Y065584D01*
X050902Y065584D01*
X050822Y065504D01*
X051338Y065504D02*
X051418Y065584D01*
X051578Y065584D01*
X051578Y065344D02*
X051498Y065344D01*
X051658Y064584D02*
X051338Y064584D01*
X051338Y064344D01*
X051498Y064424D01*
X051578Y064424D01*
X051658Y064344D01*
X051658Y064184D01*
X051578Y064104D01*
X051418Y064104D01*
X051338Y064184D01*
X051142Y064184D02*
X051062Y064104D01*
X050902Y064104D01*
X050822Y064184D01*
X050982Y064344D02*
X051062Y064344D01*
X051142Y064264D01*
X051142Y064184D01*
X051062Y064344D02*
X051142Y064424D01*
X051142Y064504D01*
X051062Y064584D01*
X050902Y064584D01*
X050822Y064504D01*
X050902Y063584D02*
X051062Y063584D01*
X051142Y063504D01*
X051142Y063424D01*
X051062Y063344D01*
X051142Y063264D01*
X051142Y063184D01*
X051062Y063104D01*
X050902Y063104D01*
X050822Y063184D01*
X050982Y063344D02*
X051062Y063344D01*
X050822Y063504D02*
X050902Y063584D01*
X051338Y063584D02*
X051658Y063584D01*
X051658Y063504D01*
X051338Y063184D01*
X051338Y063104D01*
X051418Y062584D02*
X051338Y062504D01*
X051338Y062424D01*
X051418Y062344D01*
X051658Y062344D01*
X051658Y062184D02*
X051658Y062504D01*
X051578Y062584D01*
X051418Y062584D01*
X051142Y062504D02*
X051142Y062424D01*
X051062Y062344D01*
X051142Y062264D01*
X051142Y062184D01*
X051062Y062104D01*
X050902Y062104D01*
X050822Y062184D01*
X050982Y062344D02*
X051062Y062344D01*
X051142Y062504D02*
X051062Y062584D01*
X050902Y062584D01*
X050822Y062504D01*
X051338Y062184D02*
X051418Y062104D01*
X051578Y062104D01*
X051658Y062184D01*
X051498Y061584D02*
X051498Y061104D01*
X051338Y061104D02*
X051658Y061104D01*
X051338Y061424D02*
X051498Y061584D01*
X051142Y061344D02*
X050822Y061344D01*
X051062Y061584D01*
X051062Y061104D01*
X051062Y060584D02*
X050822Y060344D01*
X051142Y060344D01*
X051338Y060184D02*
X051418Y060104D01*
X051578Y060104D01*
X051658Y060184D01*
X051658Y060264D01*
X051578Y060344D01*
X051498Y060344D01*
X051578Y060344D02*
X051658Y060424D01*
X051658Y060504D01*
X051578Y060584D01*
X051418Y060584D01*
X051338Y060504D01*
X051062Y060584D02*
X051062Y060104D01*
X051062Y059584D02*
X050822Y059344D01*
X051142Y059344D01*
X051338Y059344D02*
X051498Y059424D01*
X051578Y059424D01*
X051658Y059344D01*
X051658Y059184D01*
X051578Y059104D01*
X051418Y059104D01*
X051338Y059184D01*
X051338Y059344D02*
X051338Y059584D01*
X051658Y059584D01*
X051062Y059584D02*
X051062Y059104D01*
X051062Y058584D02*
X050822Y058344D01*
X051142Y058344D01*
X051338Y058184D02*
X051338Y058104D01*
X051338Y058184D02*
X051658Y058504D01*
X051658Y058584D01*
X051338Y058584D01*
X051062Y058584D02*
X051062Y058104D01*
X051062Y057584D02*
X050822Y057344D01*
X051142Y057344D01*
X051338Y057424D02*
X051418Y057344D01*
X051658Y057344D01*
X051658Y057184D02*
X051658Y057504D01*
X051578Y057584D01*
X051418Y057584D01*
X051338Y057504D01*
X051338Y057424D01*
X051338Y057184D02*
X051418Y057104D01*
X051578Y057104D01*
X051658Y057184D01*
X051062Y057104D02*
X051062Y057584D01*
X051142Y056584D02*
X050822Y056584D01*
X050822Y056344D01*
X050982Y056424D01*
X051062Y056424D01*
X051142Y056344D01*
X051142Y056184D01*
X051062Y056104D01*
X050902Y056104D01*
X050822Y056184D01*
X051338Y056104D02*
X051658Y056104D01*
X051498Y056104D02*
X051498Y056584D01*
X051338Y056424D01*
X051418Y055584D02*
X051578Y055584D01*
X051658Y055504D01*
X051658Y055424D01*
X051578Y055344D01*
X051658Y055264D01*
X051658Y055184D01*
X051578Y055104D01*
X051418Y055104D01*
X051338Y055184D01*
X051142Y055184D02*
X051062Y055104D01*
X050902Y055104D01*
X050822Y055184D01*
X050822Y055344D02*
X050982Y055424D01*
X051062Y055424D01*
X051142Y055344D01*
X051142Y055184D01*
X050822Y055344D02*
X050822Y055584D01*
X051142Y055584D01*
X051338Y055504D02*
X051418Y055584D01*
X051498Y055344D02*
X051578Y055344D01*
X045292Y054556D02*
X045292Y054235D01*
X044972Y054556D01*
X044892Y054556D01*
X044812Y054475D01*
X044812Y054315D01*
X044892Y054235D01*
X044812Y053880D02*
X045292Y053880D01*
X045292Y053720D02*
X045292Y054040D01*
X044972Y053720D02*
X044812Y053880D01*
X044972Y053524D02*
X045292Y053524D01*
X045052Y053524D02*
X045052Y053204D01*
X044972Y053204D02*
X045292Y053204D01*
X044972Y053204D02*
X044812Y053364D01*
X044972Y053524D01*
X044292Y053524D02*
X043972Y053524D01*
X043812Y053364D01*
X043972Y053204D01*
X044292Y053204D01*
X044052Y053204D02*
X044052Y053524D01*
X043972Y053720D02*
X043812Y053880D01*
X044292Y053880D01*
X044292Y053720D02*
X044292Y054040D01*
X044292Y054235D02*
X044292Y054556D01*
X044292Y054395D02*
X043812Y054395D01*
X043972Y054235D01*
X043292Y054315D02*
X043212Y054235D01*
X042892Y054556D01*
X043212Y054556D01*
X043292Y054475D01*
X043292Y054315D01*
X043212Y054235D02*
X042892Y054235D01*
X042812Y054315D01*
X042812Y054475D01*
X042892Y054556D01*
X043292Y054040D02*
X043292Y053720D01*
X043292Y053880D02*
X042812Y053880D01*
X042972Y053720D01*
X042972Y053524D02*
X043292Y053524D01*
X043052Y053524D02*
X043052Y053204D01*
X042972Y053204D02*
X042812Y053364D01*
X042972Y053524D01*
X042972Y053204D02*
X043292Y053204D01*
X042292Y053204D02*
X041972Y053204D01*
X041812Y053364D01*
X041972Y053524D01*
X042292Y053524D01*
X042212Y053720D02*
X042292Y053800D01*
X042292Y053960D01*
X042212Y054040D01*
X041892Y054040D01*
X041812Y053960D01*
X041812Y053800D01*
X041892Y053720D01*
X041972Y053720D01*
X042052Y053800D01*
X042052Y054040D01*
X042052Y053524D02*
X042052Y053204D01*
X041292Y053204D02*
X040972Y053204D01*
X040812Y053364D01*
X040972Y053524D01*
X041292Y053524D01*
X041212Y053720D02*
X041132Y053720D01*
X041052Y053800D01*
X041052Y053960D01*
X041132Y054040D01*
X041212Y054040D01*
X041292Y053960D01*
X041292Y053800D01*
X041212Y053720D01*
X041052Y053800D02*
X040972Y053720D01*
X040892Y053720D01*
X040812Y053800D01*
X040812Y053960D01*
X040892Y054040D01*
X040972Y054040D01*
X041052Y053960D01*
X041052Y053524D02*
X041052Y053204D01*
X039532Y052604D02*
X039532Y052104D01*
X039282Y051854D01*
X038782Y051854D01*
X038532Y052104D01*
X038282Y051854D01*
X037782Y051854D01*
X037532Y052104D01*
X037282Y051854D01*
X036782Y051854D01*
X036532Y052104D01*
X036282Y051854D01*
X035782Y051854D01*
X035532Y052104D01*
X035282Y051854D01*
X034782Y051854D01*
X034532Y052104D01*
X034282Y051854D01*
X033782Y051854D01*
X033532Y052104D01*
X033282Y051854D01*
X032782Y051854D01*
X032532Y052104D01*
X032282Y051854D01*
X031782Y051854D01*
X031532Y052104D01*
X031532Y052604D01*
X031782Y052854D01*
X032282Y052854D01*
X032532Y052604D01*
X032782Y052854D01*
X033282Y052854D01*
X033532Y052604D01*
X033782Y052854D01*
X034282Y052854D01*
X034532Y052604D01*
X034782Y052854D01*
X035282Y052854D01*
X035532Y052604D01*
X035782Y052854D01*
X036282Y052854D01*
X036532Y052604D01*
X036782Y052854D01*
X037282Y052854D01*
X037532Y052604D01*
X037782Y052854D01*
X038282Y052854D01*
X038532Y052604D01*
X038782Y052854D01*
X039282Y052854D01*
X039532Y052604D01*
X039292Y053204D02*
X038972Y053204D01*
X038812Y053364D01*
X038972Y053524D01*
X039292Y053524D01*
X039292Y053720D02*
X039212Y053720D01*
X038892Y054040D01*
X038812Y054040D01*
X038812Y053720D01*
X039052Y053524D02*
X039052Y053204D01*
X038242Y053284D02*
X038242Y053444D01*
X038162Y053524D01*
X038082Y053524D01*
X038002Y053444D01*
X038002Y053204D01*
X038162Y053204D01*
X038242Y053284D01*
X038002Y053204D02*
X037842Y053364D01*
X037762Y053524D01*
X037242Y053524D02*
X036922Y053524D01*
X036762Y053364D01*
X036922Y053204D01*
X037242Y053204D01*
X037002Y053204D02*
X037002Y053524D01*
X037002Y053720D02*
X036922Y053880D01*
X036922Y053960D01*
X037002Y054040D01*
X037162Y054040D01*
X037242Y053960D01*
X037242Y053800D01*
X037162Y053720D01*
X037002Y053720D02*
X036762Y053720D01*
X036762Y054040D01*
X036292Y053960D02*
X035812Y053960D01*
X036052Y053720D01*
X036052Y054040D01*
X036052Y053524D02*
X036052Y053204D01*
X035972Y053204D02*
X035812Y053364D01*
X035972Y053524D01*
X036292Y053524D01*
X036292Y053204D02*
X035972Y053204D01*
X035292Y053204D02*
X034972Y053204D01*
X034812Y053364D01*
X034972Y053524D01*
X035292Y053524D01*
X035212Y053720D02*
X035292Y053800D01*
X035292Y053960D01*
X035212Y054040D01*
X035132Y054040D01*
X035052Y053960D01*
X035052Y053880D01*
X035052Y053960D02*
X034972Y054040D01*
X034892Y054040D01*
X034812Y053960D01*
X034812Y053800D01*
X034892Y053720D01*
X035052Y053524D02*
X035052Y053204D01*
X034292Y053204D02*
X033972Y053204D01*
X033812Y053364D01*
X033972Y053524D01*
X034292Y053524D01*
X034292Y053720D02*
X033972Y054040D01*
X033892Y054040D01*
X033812Y053960D01*
X033812Y053800D01*
X033892Y053720D01*
X034052Y053524D02*
X034052Y053204D01*
X034292Y053720D02*
X034292Y054040D01*
X033192Y054040D02*
X033192Y053720D01*
X033192Y053880D02*
X032712Y053880D01*
X032872Y053720D01*
X032872Y053524D02*
X033192Y053524D01*
X032952Y053524D02*
X032952Y053204D01*
X032872Y053204D02*
X033192Y053204D01*
X032872Y053204D02*
X032712Y053364D01*
X032872Y053524D01*
X032292Y053524D02*
X031972Y053524D01*
X031812Y053364D01*
X031972Y053204D01*
X032292Y053204D01*
X032052Y053204D02*
X032052Y053524D01*
X032212Y053720D02*
X031892Y054040D01*
X032212Y054040D01*
X032292Y053960D01*
X032292Y053800D01*
X032212Y053720D01*
X031892Y053720D01*
X031812Y053800D01*
X031812Y053960D01*
X031892Y054040D01*
X030532Y052604D02*
X030532Y052104D01*
X030282Y051854D01*
X029782Y051854D01*
X029532Y052104D01*
X029282Y051854D01*
X028782Y051854D01*
X028532Y052104D01*
X028282Y051854D01*
X027782Y051854D01*
X027532Y052104D01*
X027282Y051854D01*
X026782Y051854D01*
X026532Y052104D01*
X026282Y051854D01*
X025782Y051854D01*
X025532Y052104D01*
X025282Y051854D01*
X024782Y051854D01*
X024532Y052104D01*
X024532Y052604D01*
X024782Y052854D01*
X025282Y052854D01*
X025532Y052604D01*
X025782Y052854D01*
X026282Y052854D01*
X026532Y052604D01*
X026782Y052854D01*
X027282Y052854D01*
X027532Y052604D01*
X027782Y052854D01*
X028282Y052854D01*
X028532Y052604D01*
X028782Y052854D01*
X029282Y052854D01*
X029532Y052604D01*
X029782Y052854D01*
X030282Y052854D01*
X030532Y052604D01*
X029154Y064803D02*
X027981Y064803D01*
X027981Y067795D01*
X029154Y067795D01*
X029662Y070194D02*
X029662Y070514D01*
X029742Y070514D01*
X030062Y070194D01*
X030142Y070194D01*
X030662Y070514D02*
X030742Y070354D01*
X030902Y070194D01*
X030902Y070434D01*
X030982Y070514D01*
X031062Y070514D01*
X031142Y070434D01*
X031142Y070274D01*
X031062Y070194D01*
X030902Y070194D01*
X030782Y070854D02*
X030532Y071104D01*
X030282Y070854D01*
X029782Y070854D01*
X029532Y071104D01*
X029532Y071604D01*
X029782Y071854D01*
X030282Y071854D01*
X030532Y071604D01*
X030782Y071854D01*
X031282Y071854D01*
X031532Y071604D01*
X031782Y071854D01*
X032282Y071854D01*
X032532Y071604D01*
X032782Y071854D01*
X033282Y071854D01*
X033532Y071604D01*
X033782Y071854D01*
X034282Y071854D01*
X034532Y071604D01*
X034782Y071854D01*
X035282Y071854D01*
X035532Y071604D01*
X035782Y071854D01*
X036282Y071854D01*
X036532Y071604D01*
X036782Y071854D01*
X037282Y071854D01*
X037532Y071604D01*
X037532Y071104D01*
X037282Y070854D01*
X036782Y070854D01*
X036532Y071104D01*
X036282Y070854D01*
X035782Y070854D01*
X035532Y071104D01*
X035282Y070854D01*
X034782Y070854D01*
X034532Y071104D01*
X034282Y070854D01*
X033782Y070854D01*
X033532Y071104D01*
X033282Y070854D01*
X032782Y070854D01*
X032532Y071104D01*
X032282Y070854D01*
X031782Y070854D01*
X031532Y071104D01*
X031282Y070854D01*
X030782Y070854D01*
X031662Y070514D02*
X031662Y070194D01*
X031902Y070194D01*
X031822Y070354D01*
X031822Y070434D01*
X031902Y070514D01*
X032062Y070514D01*
X032142Y070434D01*
X032142Y070274D01*
X032062Y070194D01*
X032662Y070434D02*
X032902Y070194D01*
X032902Y070514D01*
X033142Y070434D02*
X032662Y070434D01*
X033662Y070434D02*
X033742Y070514D01*
X033822Y070514D01*
X033902Y070434D01*
X033982Y070514D01*
X034062Y070514D01*
X034142Y070434D01*
X034142Y070274D01*
X034062Y070194D01*
X033902Y070354D02*
X033902Y070434D01*
X033662Y070434D02*
X033662Y070274D01*
X033742Y070194D01*
X034662Y070274D02*
X034742Y070194D01*
X034662Y070274D02*
X034662Y070434D01*
X034742Y070514D01*
X034822Y070514D01*
X035142Y070194D01*
X035142Y070514D01*
X035662Y070354D02*
X036142Y070354D01*
X036142Y070194D02*
X036142Y070514D01*
X035822Y070194D02*
X035662Y070354D01*
X035982Y069854D02*
X036182Y069654D01*
X035982Y069854D02*
X035782Y069654D01*
X035982Y069854D02*
X035982Y069354D01*
X036742Y070194D02*
X036662Y070274D01*
X036662Y070434D01*
X036742Y070514D01*
X037062Y070194D01*
X037142Y070274D01*
X037142Y070434D01*
X037062Y070514D01*
X036742Y070514D01*
X036742Y070194D02*
X037062Y070194D01*
X036982Y069854D02*
X036982Y069354D01*
X036782Y069554D01*
X036982Y069354D02*
X037182Y069554D01*
X037375Y067795D02*
X037375Y064803D01*
X038822Y069844D02*
X038662Y070004D01*
X039142Y070004D01*
X039142Y069844D02*
X039142Y070164D01*
X038902Y070360D02*
X038902Y070680D01*
X038782Y070854D02*
X039282Y070854D01*
X039532Y071104D01*
X039782Y070854D01*
X040282Y070854D01*
X040532Y071104D01*
X040782Y070854D01*
X041282Y070854D01*
X041532Y071104D01*
X041782Y070854D01*
X042282Y070854D01*
X042532Y071104D01*
X042782Y070854D01*
X043282Y070854D01*
X043532Y071104D01*
X043782Y070854D01*
X044282Y070854D01*
X044532Y071104D01*
X044782Y070854D01*
X045282Y070854D01*
X045532Y071104D01*
X045782Y070854D01*
X046282Y070854D01*
X046532Y071104D01*
X046532Y071604D01*
X046282Y071854D01*
X045782Y071854D01*
X045532Y071604D01*
X045282Y071854D01*
X044782Y071854D01*
X044532Y071604D01*
X044282Y071854D01*
X043782Y071854D01*
X043532Y071604D01*
X043282Y071854D01*
X042782Y071854D01*
X042532Y071604D01*
X042282Y071854D01*
X041782Y071854D01*
X041532Y071604D01*
X041282Y071854D01*
X040782Y071854D01*
X040532Y071604D01*
X040282Y071854D01*
X039782Y071854D01*
X039532Y071604D01*
X039282Y071854D01*
X038782Y071854D01*
X038532Y071604D01*
X038532Y071104D01*
X038782Y070854D01*
X038662Y070600D02*
X038902Y070360D01*
X039142Y070600D02*
X038662Y070600D01*
X039662Y070680D02*
X039662Y070360D01*
X039902Y070360D01*
X039822Y070520D01*
X039822Y070600D01*
X039902Y070680D01*
X040062Y070680D01*
X040142Y070600D01*
X040142Y070440D01*
X040062Y070360D01*
X040142Y070164D02*
X040142Y069844D01*
X040142Y070004D02*
X039662Y070004D01*
X039822Y069844D01*
X040662Y070004D02*
X040822Y069844D01*
X040662Y070004D02*
X041142Y070004D01*
X041142Y069844D02*
X041142Y070164D01*
X041062Y070360D02*
X041142Y070440D01*
X041142Y070600D01*
X041062Y070680D01*
X040982Y070680D01*
X040902Y070600D01*
X040902Y070360D01*
X041062Y070360D01*
X040902Y070360D02*
X040742Y070520D01*
X040662Y070680D01*
X041662Y070680D02*
X041742Y070680D01*
X042062Y070360D01*
X042142Y070360D01*
X042142Y070164D02*
X042142Y069844D01*
X042142Y070004D02*
X041662Y070004D01*
X041822Y069844D01*
X041662Y070360D02*
X041662Y070680D01*
X042662Y070600D02*
X042742Y070680D01*
X042822Y070680D01*
X042902Y070600D01*
X042902Y070440D01*
X042822Y070360D01*
X042742Y070360D01*
X042662Y070440D01*
X042662Y070600D01*
X042902Y070600D02*
X042982Y070680D01*
X043062Y070680D01*
X043142Y070600D01*
X043142Y070440D01*
X043062Y070360D01*
X042982Y070360D01*
X042902Y070440D01*
X043142Y070164D02*
X043142Y069844D01*
X043142Y070004D02*
X042662Y070004D01*
X042822Y069844D01*
X043662Y070004D02*
X044142Y070004D01*
X044142Y069844D02*
X044142Y070164D01*
X044062Y070360D02*
X044142Y070440D01*
X044142Y070600D01*
X044062Y070680D01*
X043742Y070680D01*
X043662Y070600D01*
X043662Y070440D01*
X043742Y070360D01*
X043822Y070360D01*
X043902Y070440D01*
X043902Y070680D01*
X043662Y070004D02*
X043822Y069844D01*
X044662Y069924D02*
X044742Y069844D01*
X044662Y069924D02*
X044662Y070084D01*
X044742Y070164D01*
X044822Y070164D01*
X045142Y069844D01*
X045142Y070164D01*
X045062Y070360D02*
X044742Y070680D01*
X045062Y070680D01*
X045142Y070600D01*
X045142Y070440D01*
X045062Y070360D01*
X044742Y070360D01*
X044662Y070440D01*
X044662Y070600D01*
X044742Y070680D01*
X045662Y070520D02*
X046142Y070520D01*
X046142Y070360D02*
X046142Y070680D01*
X045822Y070360D02*
X045662Y070520D01*
X045742Y070164D02*
X045662Y070084D01*
X045662Y069924D01*
X045742Y069844D01*
X045742Y070164D02*
X045822Y070164D01*
X046142Y069844D01*
X046142Y070164D01*
X047898Y065094D02*
X048218Y065094D01*
X050822Y066504D02*
X050902Y066584D01*
X037374Y064803D02*
X037327Y064680D01*
X037276Y064558D01*
X037222Y064438D01*
X037164Y064320D01*
X037102Y064203D01*
X037037Y064089D01*
X036969Y063976D01*
X036897Y063865D01*
X036822Y063757D01*
X036743Y063651D01*
X036662Y063547D01*
X036577Y063446D01*
X036489Y063348D01*
X036399Y063252D01*
X036305Y063159D01*
X036209Y063068D01*
X036110Y062981D01*
X036009Y062897D01*
X035905Y062816D01*
X035799Y062738D01*
X035690Y062663D01*
X035579Y062592D01*
X035466Y062524D01*
X035351Y062459D01*
X035234Y062398D01*
X035116Y062340D01*
X034996Y062286D01*
X034874Y062236D01*
X034750Y062189D01*
X034626Y062146D01*
X034500Y062107D01*
X034373Y062072D01*
X034245Y062040D01*
X034116Y062013D01*
X033986Y061989D01*
X033856Y061969D01*
X033725Y061953D01*
X033593Y061941D01*
X033462Y061933D01*
X033330Y061929D01*
X033198Y061929D01*
X033066Y061933D01*
X032935Y061941D01*
X032803Y061953D01*
X032672Y061969D01*
X032542Y061989D01*
X032412Y062013D01*
X032283Y062040D01*
X032155Y062072D01*
X032028Y062107D01*
X031902Y062146D01*
X031778Y062189D01*
X031654Y062236D01*
X031532Y062286D01*
X031412Y062340D01*
X031294Y062398D01*
X031177Y062459D01*
X031062Y062524D01*
X030949Y062592D01*
X030838Y062663D01*
X030729Y062738D01*
X030623Y062816D01*
X030519Y062897D01*
X030418Y062981D01*
X030319Y063068D01*
X030223Y063159D01*
X030129Y063252D01*
X030039Y063348D01*
X029951Y063446D01*
X029866Y063547D01*
X029785Y063651D01*
X029706Y063757D01*
X029631Y063865D01*
X029559Y063976D01*
X029491Y064089D01*
X029426Y064203D01*
X029364Y064320D01*
X029306Y064438D01*
X029252Y064558D01*
X029201Y064680D01*
X029154Y064803D01*
X026642Y069694D02*
X026642Y070014D01*
X026642Y069854D02*
X026162Y069854D01*
X026322Y069694D01*
X026242Y070210D02*
X026162Y070290D01*
X026162Y070450D01*
X026242Y070530D01*
X026562Y070210D01*
X026642Y070290D01*
X026642Y070450D01*
X026562Y070530D01*
X026242Y070530D01*
X026242Y070210D02*
X026562Y070210D01*
X027162Y070274D02*
X027242Y070194D01*
X027322Y070194D01*
X027402Y070274D01*
X027402Y070514D01*
X027562Y070514D02*
X027242Y070514D01*
X027162Y070434D01*
X027162Y070274D01*
X027562Y070194D02*
X027642Y070274D01*
X027642Y070434D01*
X027562Y070514D01*
X027682Y070854D02*
X027182Y070854D01*
X026932Y071104D01*
X026682Y070854D01*
X026182Y070854D01*
X025932Y071104D01*
X025682Y070854D01*
X025182Y070854D01*
X024932Y071104D01*
X024682Y070854D01*
X024182Y070854D01*
X023932Y071104D01*
X023682Y070854D01*
X023182Y070854D01*
X022932Y071104D01*
X022682Y070854D01*
X022182Y070854D01*
X021932Y071104D01*
X021682Y070854D01*
X021182Y070854D01*
X020932Y071104D01*
X020932Y071604D01*
X021182Y071854D01*
X021682Y071854D01*
X021932Y071604D01*
X022182Y071854D01*
X022682Y071854D01*
X022932Y071604D01*
X023182Y071854D01*
X023682Y071854D01*
X023932Y071604D01*
X024182Y071854D01*
X024682Y071854D01*
X024932Y071604D01*
X025182Y071854D01*
X025682Y071854D01*
X025932Y071604D01*
X026182Y071854D01*
X026682Y071854D01*
X026932Y071604D01*
X027182Y071854D01*
X027682Y071854D01*
X027932Y071604D01*
X028182Y071854D01*
X028682Y071854D01*
X028932Y071604D01*
X028932Y071104D01*
X028682Y070854D01*
X028182Y070854D01*
X027932Y071104D01*
X027682Y070854D01*
X028162Y070434D02*
X028242Y070514D01*
X028322Y070514D01*
X028402Y070434D01*
X028402Y070274D01*
X028322Y070194D01*
X028242Y070194D01*
X028162Y070274D01*
X028162Y070434D01*
X028402Y070434D02*
X028482Y070514D01*
X028562Y070514D01*
X028642Y070434D01*
X028642Y070274D01*
X028562Y070194D01*
X028482Y070194D01*
X028402Y070274D01*
X027648Y073443D02*
X027148Y073443D01*
X026918Y075795D02*
X031879Y075795D01*
X031879Y076779D01*
X026918Y076779D01*
X026918Y075795D01*
X025642Y070530D02*
X025642Y070210D01*
X025642Y070370D02*
X025162Y070370D01*
X025322Y070210D01*
X025642Y070014D02*
X025642Y069694D01*
X025642Y069854D02*
X025162Y069854D01*
X025322Y069694D01*
X024642Y069694D02*
X024642Y070014D01*
X024642Y069854D02*
X024162Y069854D01*
X024322Y069694D01*
X024242Y070210D02*
X024162Y070290D01*
X024162Y070450D01*
X024242Y070530D01*
X024322Y070530D01*
X024642Y070210D01*
X024642Y070530D01*
X023642Y070450D02*
X023642Y070290D01*
X023562Y070210D01*
X023642Y070014D02*
X023642Y069694D01*
X023642Y069854D02*
X023162Y069854D01*
X023322Y069694D01*
X023242Y070210D02*
X023162Y070290D01*
X023162Y070450D01*
X023242Y070530D01*
X023322Y070530D01*
X023402Y070450D01*
X023482Y070530D01*
X023562Y070530D01*
X023642Y070450D01*
X023402Y070450D02*
X023402Y070370D01*
X022652Y070419D02*
X022572Y070499D01*
X022252Y070499D01*
X022172Y070419D01*
X022172Y070178D01*
X022652Y070178D01*
X022652Y070419D01*
X022652Y069983D02*
X022172Y069983D01*
X022172Y069663D02*
X022652Y069983D01*
X022652Y069663D02*
X022172Y069663D01*
X022252Y069467D02*
X022172Y069387D01*
X022172Y069227D01*
X022252Y069147D01*
X022572Y069147D01*
X022652Y069227D01*
X022652Y069387D01*
X022572Y069467D01*
X022412Y069467D01*
X022412Y069307D01*
X021702Y069147D02*
X021222Y069147D01*
X021222Y069387D01*
X021302Y069467D01*
X021462Y069467D01*
X021542Y069387D01*
X021542Y069147D01*
X021542Y069307D02*
X021702Y069467D01*
X021702Y069663D02*
X021702Y069983D01*
X021702Y070178D02*
X021222Y070178D01*
X021222Y070499D01*
X021462Y070338D02*
X021462Y070178D01*
X021222Y069983D02*
X021222Y069663D01*
X021702Y069663D01*
X021462Y069663D02*
X021462Y069823D01*
X021462Y068952D02*
X021462Y068631D01*
X021382Y068631D02*
X021702Y068631D01*
X021382Y068631D02*
X021222Y068792D01*
X021382Y068952D01*
X021702Y068952D01*
X018855Y066708D02*
X018855Y065527D01*
X017674Y065527D01*
X018855Y073795D02*
X018855Y074976D01*
X017674Y074976D01*
X010587Y074976D02*
X009406Y074976D01*
X009406Y073795D01*
X009406Y066708D02*
X009406Y065527D01*
X010587Y065527D01*
X029154Y067795D02*
X029201Y067918D01*
X029252Y068040D01*
X029306Y068160D01*
X029364Y068278D01*
X029426Y068395D01*
X029491Y068509D01*
X029559Y068622D01*
X029631Y068733D01*
X029706Y068841D01*
X029785Y068947D01*
X029866Y069051D01*
X029951Y069152D01*
X030039Y069250D01*
X030129Y069346D01*
X030223Y069439D01*
X030319Y069530D01*
X030418Y069617D01*
X030519Y069701D01*
X030623Y069782D01*
X030729Y069860D01*
X030838Y069935D01*
X030949Y070006D01*
X031062Y070074D01*
X031177Y070139D01*
X031294Y070200D01*
X031412Y070258D01*
X031532Y070312D01*
X031654Y070362D01*
X031778Y070409D01*
X031902Y070452D01*
X032028Y070491D01*
X032155Y070526D01*
X032283Y070558D01*
X032412Y070585D01*
X032542Y070609D01*
X032672Y070629D01*
X032803Y070645D01*
X032935Y070657D01*
X033066Y070665D01*
X033198Y070669D01*
X033330Y070669D01*
X033462Y070665D01*
X033593Y070657D01*
X033725Y070645D01*
X033856Y070629D01*
X033986Y070609D01*
X034116Y070585D01*
X034245Y070558D01*
X034373Y070526D01*
X034500Y070491D01*
X034626Y070452D01*
X034750Y070409D01*
X034874Y070362D01*
X034996Y070312D01*
X035116Y070258D01*
X035234Y070200D01*
X035351Y070139D01*
X035466Y070074D01*
X035579Y070006D01*
X035690Y069935D01*
X035799Y069860D01*
X035905Y069782D01*
X036009Y069701D01*
X036110Y069617D01*
X036209Y069530D01*
X036305Y069439D01*
X036399Y069346D01*
X036489Y069250D01*
X036577Y069152D01*
X036662Y069051D01*
X036743Y068947D01*
X036822Y068841D01*
X036897Y068733D01*
X036969Y068622D01*
X037037Y068509D01*
X037102Y068395D01*
X037164Y068278D01*
X037222Y068160D01*
X037276Y068040D01*
X037327Y067918D01*
X037374Y067795D01*
D13*
X037152Y068184D02*
X036812Y068184D01*
X036812Y068354D01*
X036869Y068411D01*
X036982Y068411D01*
X037039Y068354D01*
X037039Y068184D01*
X037039Y068297D02*
X037152Y068411D01*
X037152Y068552D02*
X036812Y068779D01*
X036869Y068921D02*
X036812Y068977D01*
X036812Y069091D01*
X036869Y069147D01*
X037095Y068921D01*
X037152Y068977D01*
X037152Y069091D01*
X037095Y069147D01*
X036869Y069147D01*
X036869Y068921D02*
X037095Y068921D01*
X037152Y068779D02*
X036812Y068552D01*
X036152Y068552D02*
X035812Y068779D01*
X035869Y068921D02*
X035812Y068977D01*
X035812Y069091D01*
X035869Y069147D01*
X036095Y068921D01*
X036152Y068977D01*
X036152Y069091D01*
X036095Y069147D01*
X035869Y069147D01*
X035869Y068921D02*
X036095Y068921D01*
X036152Y068779D02*
X035812Y068552D01*
X035812Y068411D02*
X035812Y068184D01*
X035812Y068297D02*
X036152Y068297D01*
X038812Y068297D02*
X039152Y068297D01*
X039152Y068552D02*
X038812Y068779D01*
X038869Y068921D02*
X038812Y068977D01*
X038812Y069091D01*
X038869Y069147D01*
X038925Y069147D01*
X038982Y069091D01*
X039039Y069147D01*
X039095Y069147D01*
X039152Y069091D01*
X039152Y068977D01*
X039095Y068921D01*
X039152Y068779D02*
X038812Y068552D01*
X038812Y068411D02*
X038812Y068184D01*
X038982Y069034D02*
X038982Y069091D01*
X039812Y069091D02*
X039812Y068977D01*
X039869Y068921D01*
X039812Y068779D02*
X040152Y068552D01*
X040152Y068411D02*
X040039Y068297D01*
X040039Y068354D02*
X040039Y068184D01*
X040152Y068184D02*
X039812Y068184D01*
X039812Y068354D01*
X039869Y068411D01*
X039982Y068411D01*
X040039Y068354D01*
X039812Y068552D02*
X040152Y068779D01*
X040095Y068921D02*
X040152Y068977D01*
X040152Y069091D01*
X040095Y069147D01*
X040039Y069147D01*
X039982Y069091D01*
X039982Y069034D01*
X039982Y069091D02*
X039925Y069147D01*
X039869Y069147D01*
X039812Y069091D01*
X040812Y069091D02*
X040812Y068977D01*
X040869Y068921D01*
X040812Y068779D02*
X041152Y068552D01*
X041152Y068779D02*
X040812Y068552D01*
X040812Y068411D02*
X040812Y068184D01*
X040812Y068297D02*
X041152Y068297D01*
X041152Y068921D02*
X040925Y069147D01*
X040869Y069147D01*
X040812Y069091D01*
X041152Y069147D02*
X041152Y068921D01*
X041812Y068977D02*
X041869Y068921D01*
X041812Y068977D02*
X041812Y069091D01*
X041869Y069147D01*
X041925Y069147D01*
X042152Y068921D01*
X042152Y069147D01*
X042152Y068779D02*
X041812Y068552D01*
X041869Y068411D02*
X041982Y068411D01*
X042039Y068354D01*
X042039Y068184D01*
X042152Y068184D02*
X041812Y068184D01*
X041812Y068354D01*
X041869Y068411D01*
X042039Y068297D02*
X042152Y068411D01*
X042152Y068552D02*
X041812Y068779D01*
X042812Y068779D02*
X043152Y068552D01*
X043152Y068779D02*
X042812Y068552D01*
X042812Y068411D02*
X042812Y068184D01*
X042812Y068297D02*
X043152Y068297D01*
X043152Y068921D02*
X043152Y069147D01*
X043152Y069034D02*
X042812Y069034D01*
X042925Y068921D01*
X043812Y069034D02*
X044152Y069034D01*
X044152Y068921D02*
X044152Y069147D01*
X043925Y068921D02*
X043812Y069034D01*
X043812Y068779D02*
X044152Y068552D01*
X044152Y068411D02*
X044039Y068297D01*
X044039Y068354D02*
X044039Y068184D01*
X044152Y068184D02*
X043812Y068184D01*
X043812Y068354D01*
X043869Y068411D01*
X043982Y068411D01*
X044039Y068354D01*
X043812Y068552D02*
X044152Y068779D01*
X044812Y068722D02*
X044812Y068552D01*
X045152Y068552D01*
X045152Y068722D01*
X045095Y068779D01*
X044869Y068779D01*
X044812Y068722D01*
X044925Y068921D02*
X044812Y069034D01*
X044925Y069147D01*
X045152Y069147D01*
X044982Y069147D02*
X044982Y068921D01*
X044925Y068921D02*
X045152Y068921D01*
X045095Y068411D02*
X045152Y068354D01*
X045152Y068241D01*
X045095Y068184D01*
X044982Y068241D02*
X044982Y068354D01*
X045039Y068411D01*
X045095Y068411D01*
X044982Y068241D02*
X044925Y068184D01*
X044869Y068184D01*
X044812Y068241D01*
X044812Y068354D01*
X044869Y068411D01*
X045812Y068354D02*
X045812Y068241D01*
X045869Y068184D01*
X045925Y068184D01*
X045982Y068241D01*
X045982Y068354D01*
X046039Y068411D01*
X046095Y068411D01*
X046152Y068354D01*
X046152Y068241D01*
X046095Y068184D01*
X045869Y068411D02*
X045812Y068354D01*
X045869Y068552D02*
X046095Y068552D01*
X046152Y068609D01*
X046152Y068722D01*
X046095Y068779D01*
X046152Y068921D02*
X045812Y068921D01*
X045869Y068779D02*
X045812Y068722D01*
X045812Y068609D01*
X045869Y068552D01*
X046152Y068921D02*
X046152Y069147D01*
X048532Y069104D02*
X048782Y068854D01*
X050282Y068854D01*
X050532Y069104D01*
X050532Y069604D01*
X050282Y069854D01*
X048782Y069854D01*
X048532Y070104D01*
X048532Y070604D01*
X048782Y070854D01*
X048786Y070854D02*
X050286Y070854D01*
X050536Y070604D01*
X050536Y070104D01*
X050286Y069854D01*
X048786Y069854D01*
X048536Y070104D01*
X048536Y070604D01*
X048786Y070854D01*
X048536Y071104D01*
X048536Y071604D01*
X048786Y071854D01*
X050286Y071854D01*
X050536Y071604D01*
X050536Y071104D01*
X050286Y070854D01*
X050282Y070854D02*
X050532Y070604D01*
X050532Y070104D01*
X050282Y069854D01*
X050286Y069854D02*
X050536Y069604D01*
X050536Y069104D01*
X050286Y068854D01*
X048786Y068854D01*
X048536Y069104D01*
X048536Y069604D01*
X048786Y069854D01*
X048782Y069854D02*
X048532Y069604D01*
X048532Y069104D01*
X048782Y068854D02*
X048532Y068604D01*
X048532Y068104D01*
X048782Y067854D01*
X050282Y067854D01*
X050532Y068104D01*
X050532Y068604D01*
X050282Y068854D01*
X050286Y068854D02*
X050536Y068604D01*
X050536Y068104D01*
X050286Y067854D01*
X048786Y067854D01*
X048536Y068104D01*
X048536Y068604D01*
X048786Y068854D01*
X048786Y067854D02*
X048536Y067604D01*
X048536Y067104D01*
X048786Y066854D01*
X050286Y066854D01*
X050536Y066604D01*
X050536Y066104D01*
X050286Y065854D01*
X048786Y065854D01*
X048536Y066104D01*
X048536Y066604D01*
X048786Y066854D01*
X048782Y066854D02*
X050282Y066854D01*
X050532Y067104D01*
X050532Y067604D01*
X050282Y067854D01*
X050286Y067854D02*
X050536Y067604D01*
X050536Y067104D01*
X050286Y066854D01*
X050282Y066854D02*
X050532Y066604D01*
X050532Y066104D01*
X050282Y065854D01*
X048782Y065854D01*
X048532Y066104D01*
X048532Y066604D01*
X048782Y066854D01*
X048532Y067104D01*
X048532Y067604D01*
X048782Y067854D01*
X048782Y065854D02*
X048532Y065604D01*
X048532Y065104D01*
X048782Y064854D01*
X050282Y064854D01*
X050532Y065104D01*
X050532Y065604D01*
X050282Y065854D01*
X050286Y065854D02*
X050536Y065604D01*
X050536Y065104D01*
X050286Y064854D01*
X048786Y064854D01*
X048536Y065104D01*
X048536Y065604D01*
X048786Y065854D01*
X048786Y064854D02*
X048536Y064604D01*
X048536Y064104D01*
X048786Y063854D01*
X050286Y063854D01*
X050536Y063604D01*
X050536Y063104D01*
X050286Y062854D01*
X048786Y062854D01*
X048536Y063104D01*
X048536Y063604D01*
X048786Y063854D01*
X048782Y063854D02*
X050282Y063854D01*
X050532Y064104D01*
X050532Y064604D01*
X050282Y064854D01*
X050286Y064854D02*
X050536Y064604D01*
X050536Y064104D01*
X050286Y063854D01*
X050282Y063854D02*
X050532Y063604D01*
X050532Y063104D01*
X050282Y062854D01*
X048782Y062854D01*
X048532Y062604D01*
X048532Y062104D01*
X048782Y061854D01*
X050282Y061854D01*
X050532Y061604D01*
X050532Y061104D01*
X050282Y060854D01*
X048782Y060854D01*
X048532Y061104D01*
X048532Y061604D01*
X048782Y061854D01*
X048786Y061854D02*
X050286Y061854D01*
X050536Y061604D01*
X050536Y061104D01*
X050286Y060854D01*
X048786Y060854D01*
X048536Y061104D01*
X048536Y061604D01*
X048786Y061854D01*
X048536Y062104D01*
X048536Y062604D01*
X048786Y062854D01*
X048782Y062854D02*
X048532Y063104D01*
X048532Y063604D01*
X048782Y063854D01*
X048532Y064104D01*
X048532Y064604D01*
X048782Y064854D01*
X050282Y062854D02*
X050532Y062604D01*
X050532Y062104D01*
X050282Y061854D01*
X050286Y061854D02*
X050536Y062104D01*
X050536Y062604D01*
X050286Y062854D01*
X050286Y060854D02*
X050536Y060604D01*
X050536Y060104D01*
X050286Y059854D01*
X048786Y059854D01*
X048536Y060104D01*
X048536Y060604D01*
X048786Y060854D01*
X048782Y060854D02*
X048532Y060604D01*
X048532Y060104D01*
X048782Y059854D01*
X050282Y059854D01*
X050532Y060104D01*
X050532Y060604D01*
X050282Y060854D01*
X050282Y059854D02*
X050532Y059604D01*
X050532Y059104D01*
X050282Y058854D01*
X048782Y058854D01*
X048532Y059104D01*
X048532Y059604D01*
X048782Y059854D01*
X048786Y059854D02*
X048536Y059604D01*
X048536Y059104D01*
X048786Y058854D01*
X050286Y058854D01*
X050536Y059104D01*
X050536Y059604D01*
X050286Y059854D01*
X050286Y058854D02*
X050536Y058604D01*
X050536Y058104D01*
X050286Y057854D01*
X048786Y057854D01*
X048536Y058104D01*
X048536Y058604D01*
X048786Y058854D01*
X048782Y058854D02*
X048532Y058604D01*
X048532Y058104D01*
X048782Y057854D01*
X050282Y057854D01*
X050532Y058104D01*
X050532Y058604D01*
X050282Y058854D01*
X050282Y057854D02*
X050532Y057604D01*
X050532Y057104D01*
X050282Y056854D01*
X048782Y056854D01*
X048532Y057104D01*
X048532Y057604D01*
X048782Y057854D01*
X048786Y057854D02*
X048536Y057604D01*
X048536Y057104D01*
X048786Y056854D01*
X050286Y056854D01*
X050536Y057104D01*
X050536Y057604D01*
X050286Y057854D01*
X050286Y056854D02*
X050536Y056604D01*
X050536Y056104D01*
X050286Y055854D01*
X048786Y055854D01*
X048536Y056104D01*
X048536Y056604D01*
X048786Y056854D01*
X048782Y056854D02*
X048532Y056604D01*
X048532Y056104D01*
X048782Y055854D01*
X050282Y055854D01*
X050532Y056104D01*
X050532Y056604D01*
X050282Y056854D01*
X050282Y055854D02*
X050532Y055604D01*
X050532Y055104D01*
X050282Y054854D01*
X050286Y054854D02*
X048786Y054854D01*
X048536Y055104D01*
X048536Y055604D01*
X048786Y055854D01*
X048782Y055854D02*
X048532Y055604D01*
X048532Y055104D01*
X048782Y054854D01*
X048786Y054854D02*
X048536Y054604D01*
X048536Y054104D01*
X048786Y053854D01*
X050286Y053854D01*
X050536Y054104D01*
X050536Y054604D01*
X050286Y054854D01*
X050536Y055104D01*
X050536Y055604D01*
X050286Y055854D01*
X050869Y054434D02*
X050812Y054378D01*
X050812Y054151D01*
X050869Y054094D01*
X050982Y054094D01*
X051039Y054151D01*
X051039Y054264D01*
X050926Y054264D01*
X051039Y054378D02*
X050982Y054434D01*
X050869Y054434D01*
X051180Y054434D02*
X051407Y054094D01*
X051407Y054434D01*
X051549Y054434D02*
X051719Y054434D01*
X051776Y054378D01*
X051776Y054151D01*
X051719Y054094D01*
X051549Y054094D01*
X051549Y054434D01*
X051180Y054434D02*
X051180Y054094D01*
X030202Y054035D02*
X030032Y054035D01*
X029975Y053978D01*
X029975Y053808D01*
X030202Y053808D01*
X030202Y053676D02*
X030202Y053562D01*
X030202Y053619D02*
X029975Y053619D01*
X029975Y053562D01*
X029862Y053619D02*
X029805Y053619D01*
X029862Y053421D02*
X030089Y053421D01*
X030202Y053307D01*
X030089Y053194D01*
X029862Y053194D01*
X029202Y053251D02*
X029202Y053364D01*
X029145Y053421D01*
X029032Y053421D01*
X029032Y053307D01*
X028919Y053194D02*
X029145Y053194D01*
X029202Y053251D01*
X028919Y053194D02*
X028862Y053251D01*
X028862Y053364D01*
X028919Y053421D01*
X028862Y053562D02*
X029202Y053789D01*
X028862Y053789D01*
X028862Y053931D02*
X028862Y054101D01*
X028919Y054157D01*
X029145Y054157D01*
X029202Y054101D01*
X029202Y053931D01*
X028862Y053931D01*
X028862Y053562D02*
X029202Y053562D01*
X028202Y053562D02*
X027862Y053562D01*
X028202Y053789D01*
X027862Y053789D01*
X027862Y053931D02*
X027862Y054101D01*
X027919Y054157D01*
X028145Y054157D01*
X028202Y054101D01*
X028202Y053931D01*
X027862Y053931D01*
X027919Y053421D02*
X027862Y053364D01*
X027862Y053251D01*
X027919Y053194D01*
X028145Y053194D01*
X028202Y053251D01*
X028202Y053364D01*
X028145Y053421D01*
X028032Y053421D01*
X028032Y053307D01*
X027202Y053251D02*
X027145Y053194D01*
X027202Y053251D02*
X027202Y053364D01*
X027145Y053421D01*
X027032Y053421D01*
X026975Y053364D01*
X026975Y053307D01*
X027032Y053194D01*
X026862Y053194D01*
X026862Y053421D01*
X026862Y053562D02*
X027089Y053562D01*
X027202Y053676D01*
X027089Y053789D01*
X026862Y053789D01*
X026202Y053676D02*
X026089Y053789D01*
X025862Y053789D01*
X025862Y053562D02*
X026089Y053562D01*
X026202Y053676D01*
X026145Y053421D02*
X026202Y053364D01*
X026202Y053251D01*
X026145Y053194D01*
X026032Y053194D02*
X025975Y053307D01*
X025975Y053364D01*
X026032Y053421D01*
X026145Y053421D01*
X026032Y053194D02*
X025862Y053194D01*
X025862Y053421D01*
X025202Y053421D02*
X025089Y053307D01*
X025089Y053364D02*
X025089Y053194D01*
X025202Y053194D02*
X024862Y053194D01*
X024862Y053364D01*
X024919Y053421D01*
X025032Y053421D01*
X025089Y053364D01*
X025032Y053562D02*
X025032Y053676D01*
X025202Y053562D02*
X025202Y053789D01*
X025145Y053931D02*
X025202Y053987D01*
X025202Y054101D01*
X025145Y054157D01*
X025089Y054157D01*
X025032Y054101D01*
X025032Y053987D01*
X024975Y053931D01*
X024919Y053931D01*
X024862Y053987D01*
X024862Y054101D01*
X024919Y054157D01*
X024862Y054299D02*
X025202Y054299D01*
X025202Y054526D01*
X025032Y054412D02*
X025032Y054299D01*
X024862Y054299D02*
X024862Y054526D01*
X024862Y054667D02*
X024862Y054894D01*
X024862Y054781D02*
X025202Y054781D01*
X024862Y053789D02*
X024862Y053562D01*
X025202Y053562D01*
X020226Y053648D02*
X020226Y054948D01*
X020226Y056248D01*
X020226Y057548D01*
X017626Y057548D01*
X017626Y056248D01*
X017626Y054948D01*
X017626Y053648D01*
X020226Y053648D01*
X020226Y054948D02*
X020026Y054948D01*
X020026Y056248D01*
X020226Y056248D01*
X019726Y056348D02*
X019726Y054848D01*
X019126Y054848D01*
X019126Y056348D01*
X019726Y056348D01*
X018726Y056348D02*
X018726Y054848D01*
X018126Y054848D01*
X018126Y056348D01*
X018726Y056348D01*
X017826Y056248D02*
X017826Y054948D01*
X017626Y054948D01*
X017626Y056248D02*
X017826Y056248D01*
X023593Y062130D02*
X023343Y062380D01*
X023343Y063880D01*
X023593Y064130D01*
X024093Y064130D01*
X024343Y063880D01*
X024343Y062380D01*
X024093Y062130D01*
X023593Y062130D01*
X024343Y062380D02*
X024593Y062130D01*
X025093Y062130D01*
X025343Y062380D01*
X025343Y063880D01*
X025093Y064130D01*
X024593Y064130D01*
X024343Y063880D01*
X025343Y063880D02*
X025593Y064130D01*
X026093Y064130D01*
X026343Y063880D01*
X026343Y062380D01*
X026093Y062130D01*
X025593Y062130D01*
X025343Y062380D01*
X026343Y062380D02*
X026593Y062130D01*
X027093Y062130D01*
X027343Y062380D01*
X027343Y063880D01*
X027093Y064130D01*
X026593Y064130D01*
X026343Y063880D01*
X022981Y067130D02*
X022981Y067280D01*
X022281Y067280D01*
X022231Y067280D01*
X022231Y069430D01*
X022233Y069447D01*
X022237Y069464D01*
X022244Y069480D01*
X022254Y069494D01*
X022267Y069507D01*
X022281Y069517D01*
X022297Y069524D01*
X022314Y069528D01*
X022331Y069530D01*
X022931Y069530D01*
X022948Y069528D01*
X022965Y069524D01*
X022981Y069517D01*
X022995Y069507D01*
X023008Y069494D01*
X023018Y069480D01*
X023025Y069464D01*
X023029Y069447D01*
X023031Y069430D01*
X023031Y067280D01*
X022981Y067280D01*
X022981Y067130D02*
X022281Y067130D01*
X022281Y067280D01*
X022631Y067930D02*
X022631Y068130D01*
X022831Y068130D01*
X022831Y068280D02*
X022431Y068280D01*
X022431Y068430D01*
X022831Y068430D01*
X022831Y068280D01*
X022631Y068130D02*
X022431Y068130D01*
X022431Y068580D02*
X022631Y068580D01*
X022831Y068580D01*
X022631Y068580D02*
X022631Y068780D01*
X008163Y065626D02*
X008063Y065626D01*
X008063Y065726D01*
X008163Y065626D02*
X008163Y065026D01*
X008063Y065026D01*
X008063Y064926D01*
X007713Y064126D02*
X007363Y064126D01*
X006363Y064126D01*
X006013Y064126D01*
X005663Y064926D02*
X005663Y065026D01*
X005563Y065026D01*
X005563Y065626D01*
X005663Y065626D01*
X005663Y065726D01*
X006013Y066526D02*
X006413Y066526D01*
X007363Y066526D01*
X007713Y066526D01*
X006763Y065326D02*
X006765Y065346D01*
X006771Y065364D01*
X006780Y065382D01*
X006792Y065397D01*
X006807Y065409D01*
X006825Y065418D01*
X006843Y065424D01*
X006863Y065426D01*
X006883Y065424D01*
X006901Y065418D01*
X006919Y065409D01*
X006934Y065397D01*
X006946Y065382D01*
X006955Y065364D01*
X006961Y065346D01*
X006963Y065326D01*
X006961Y065306D01*
X006955Y065288D01*
X006946Y065270D01*
X006934Y065255D01*
X006919Y065243D01*
X006901Y065234D01*
X006883Y065228D01*
X006863Y065226D01*
X006843Y065228D01*
X006825Y065234D01*
X006807Y065243D01*
X006792Y065255D01*
X006780Y065270D01*
X006771Y065288D01*
X006765Y065306D01*
X006763Y065326D01*
X006163Y065326D02*
X006165Y065378D01*
X006171Y065430D01*
X006181Y065482D01*
X006194Y065532D01*
X006211Y065582D01*
X006232Y065630D01*
X006257Y065676D01*
X006285Y065720D01*
X006316Y065762D01*
X006350Y065802D01*
X006387Y065839D01*
X006427Y065873D01*
X006469Y065904D01*
X006513Y065932D01*
X006559Y065957D01*
X006607Y065978D01*
X006657Y065995D01*
X006707Y066008D01*
X006759Y066018D01*
X006811Y066024D01*
X006863Y066026D01*
X006915Y066024D01*
X006967Y066018D01*
X007019Y066008D01*
X007069Y065995D01*
X007119Y065978D01*
X007167Y065957D01*
X007213Y065932D01*
X007257Y065904D01*
X007299Y065873D01*
X007339Y065839D01*
X007376Y065802D01*
X007410Y065762D01*
X007441Y065720D01*
X007469Y065676D01*
X007494Y065630D01*
X007515Y065582D01*
X007532Y065532D01*
X007545Y065482D01*
X007555Y065430D01*
X007561Y065378D01*
X007563Y065326D01*
X007561Y065274D01*
X007555Y065222D01*
X007545Y065170D01*
X007532Y065120D01*
X007515Y065070D01*
X007494Y065022D01*
X007469Y064976D01*
X007441Y064932D01*
X007410Y064890D01*
X007376Y064850D01*
X007339Y064813D01*
X007299Y064779D01*
X007257Y064748D01*
X007213Y064720D01*
X007167Y064695D01*
X007119Y064674D01*
X007069Y064657D01*
X007019Y064644D01*
X006967Y064634D01*
X006915Y064628D01*
X006863Y064626D01*
X006811Y064628D01*
X006759Y064634D01*
X006707Y064644D01*
X006657Y064657D01*
X006607Y064674D01*
X006559Y064695D01*
X006513Y064720D01*
X006469Y064748D01*
X006427Y064779D01*
X006387Y064813D01*
X006350Y064850D01*
X006316Y064890D01*
X006285Y064932D01*
X006257Y064976D01*
X006232Y065022D01*
X006211Y065070D01*
X006194Y065120D01*
X006181Y065170D01*
X006171Y065222D01*
X006165Y065274D01*
X006163Y065326D01*
D14*
X006363Y064226D02*
X006363Y064126D01*
X006363Y064226D02*
X007363Y064226D01*
X007363Y064126D01*
X007363Y066426D02*
X006413Y066426D01*
X006413Y066526D01*
X007363Y066526D02*
X007363Y066426D01*
D15*
X022431Y066780D02*
X022431Y066980D01*
X022831Y066930D02*
X022831Y066780D01*
D16*
X022831Y066995D03*
X022431Y066995D03*
D17*
X023082Y068304D02*
X035432Y068304D01*
X035632Y067004D02*
X045682Y067004D01*
X045992Y066924D02*
X046792Y067724D01*
X046792Y070504D01*
X048732Y072134D02*
X049032Y072134D01*
X050032Y072134D01*
X050032Y071874D01*
X049032Y071884D02*
X049032Y072134D01*
X045992Y066924D02*
X045992Y055854D01*
X045982Y055514D02*
X046652Y054844D01*
X051722Y054844D01*
X051712Y053854D02*
X050532Y053854D01*
X050032Y053834D02*
X050032Y053534D01*
X049032Y053534D01*
X049032Y053824D01*
X045982Y055514D02*
X031682Y055514D01*
X030382Y055514D02*
X024682Y055514D01*
D18*
X027677Y055109D02*
X027677Y054599D01*
X027677Y054769D02*
X027932Y054769D01*
X028017Y054854D01*
X028017Y055024D01*
X027932Y055109D01*
X027677Y055109D01*
X028230Y055024D02*
X028230Y054684D01*
X028315Y054599D01*
X028485Y054599D01*
X028570Y054684D01*
X028570Y055024D01*
X028485Y055109D01*
X028315Y055109D01*
X028230Y055024D01*
X028782Y055109D02*
X028782Y054599D01*
X028952Y054769D01*
X029122Y054599D01*
X029122Y055109D01*
X029335Y055109D02*
X029335Y054599D01*
X029675Y054599D01*
X029887Y054599D02*
X029887Y055109D01*
X030142Y055109D01*
X030227Y055024D01*
X030227Y054854D01*
X030142Y054769D01*
X029887Y054769D01*
X030057Y054769D02*
X030227Y054599D01*
X029675Y055109D02*
X029335Y055109D01*
X029335Y054854D02*
X029505Y054854D01*
X032177Y054854D02*
X032517Y054854D01*
X032517Y054939D02*
X032517Y054599D01*
X032730Y054599D02*
X032730Y055109D01*
X033070Y054599D01*
X033070Y055109D01*
X033282Y054939D02*
X033452Y055109D01*
X033622Y054939D01*
X033622Y054599D01*
X033835Y054599D02*
X034175Y054599D01*
X034387Y054684D02*
X034472Y054599D01*
X034642Y054599D01*
X034727Y054684D01*
X034727Y055024D01*
X034642Y055109D01*
X034472Y055109D01*
X034387Y055024D01*
X034387Y054684D01*
X034939Y054684D02*
X035025Y054599D01*
X035195Y054599D01*
X035280Y054684D01*
X035280Y054854D01*
X035110Y054854D01*
X035280Y055024D02*
X035195Y055109D01*
X035025Y055109D01*
X034939Y055024D01*
X034939Y054684D01*
X033835Y054599D02*
X033835Y055109D01*
X033622Y054854D02*
X033282Y054854D01*
X033282Y054939D02*
X033282Y054599D01*
X032517Y054939D02*
X032347Y055109D01*
X032177Y054939D01*
X032177Y054599D01*
X036044Y054599D02*
X036215Y054599D01*
X036129Y054599D02*
X036129Y055109D01*
X036044Y055109D02*
X036215Y055109D01*
X036413Y055109D02*
X036753Y054599D01*
X036753Y055109D01*
X036413Y055109D02*
X036413Y054599D01*
X036515Y067249D02*
X036685Y067249D01*
X036770Y067334D01*
X036770Y067674D01*
X036685Y067759D01*
X036515Y067759D01*
X036430Y067674D01*
X036430Y067334D01*
X036515Y067249D01*
X036217Y067334D02*
X036132Y067249D01*
X035962Y067249D01*
X035877Y067334D01*
X035877Y067674D01*
X035962Y067759D01*
X036132Y067759D01*
X036217Y067674D01*
X036982Y067759D02*
X036982Y067249D01*
X037322Y067249D02*
X037322Y067759D01*
X037152Y067589D01*
X036982Y067759D01*
X037535Y067759D02*
X037535Y067249D01*
X037875Y067249D02*
X037875Y067759D01*
X037705Y067589D01*
X037535Y067759D01*
X038087Y067759D02*
X038087Y067334D01*
X038172Y067249D01*
X038342Y067249D01*
X038427Y067334D01*
X038427Y067759D01*
X038639Y067759D02*
X038639Y067249D01*
X038980Y067249D02*
X038639Y067759D01*
X038980Y067759D02*
X038980Y067249D01*
X039192Y067249D02*
X039362Y067249D01*
X039277Y067249D02*
X039277Y067759D01*
X039192Y067759D02*
X039362Y067759D01*
X039560Y067674D02*
X039560Y067334D01*
X039645Y067249D01*
X039815Y067249D01*
X039901Y067334D01*
X040113Y067249D02*
X040113Y067589D01*
X040283Y067759D01*
X040453Y067589D01*
X040453Y067249D01*
X040453Y067504D02*
X040113Y067504D01*
X039901Y067674D02*
X039815Y067759D01*
X039645Y067759D01*
X039560Y067674D01*
X040665Y067759D02*
X041005Y067759D01*
X040835Y067759D02*
X040835Y067249D01*
X041218Y067249D02*
X041388Y067249D01*
X041303Y067249D02*
X041303Y067759D01*
X041218Y067759D02*
X041388Y067759D01*
X041586Y067674D02*
X041586Y067334D01*
X041671Y067249D01*
X041841Y067249D01*
X041926Y067334D01*
X041926Y067674D01*
X041841Y067759D01*
X041671Y067759D01*
X041586Y067674D01*
X042138Y067759D02*
X042138Y067249D01*
X042479Y067249D02*
X042138Y067759D01*
X042479Y067759D02*
X042479Y067249D01*
X046837Y059286D02*
X046837Y058946D01*
X046327Y058946D01*
X046497Y058733D02*
X046837Y058733D01*
X046582Y058733D02*
X046582Y058393D01*
X046497Y058393D02*
X046327Y058563D01*
X046497Y058733D01*
X046497Y058393D02*
X046837Y058393D01*
X046837Y058011D02*
X046327Y058011D01*
X046327Y057841D02*
X046327Y058181D01*
X046327Y057642D02*
X046327Y057472D01*
X046327Y057557D02*
X046837Y057557D01*
X046837Y057472D02*
X046837Y057642D01*
X046752Y057260D02*
X046582Y057260D01*
X046582Y057090D01*
X046752Y057260D02*
X046837Y057175D01*
X046837Y057005D01*
X046752Y056920D01*
X046412Y056920D01*
X046327Y057005D01*
X046327Y057175D01*
X046412Y057260D01*
X046327Y056722D02*
X046327Y056551D01*
X046327Y056637D02*
X046837Y056637D01*
X046837Y056722D02*
X046837Y056551D01*
X046752Y056339D02*
X046412Y056339D01*
X046327Y056254D01*
X046327Y055999D01*
X046837Y055999D01*
X046837Y056254D01*
X046752Y056339D01*
X025022Y068649D02*
X025022Y069159D01*
X024852Y068989D01*
X024682Y069159D01*
X024682Y068649D01*
X024470Y068649D02*
X024470Y069159D01*
X024130Y069159D02*
X024130Y068649D01*
X024300Y068819D01*
X024470Y068649D01*
X023917Y068904D02*
X023917Y069074D01*
X023832Y069159D01*
X023577Y069159D01*
X023577Y068649D01*
X023577Y068819D02*
X023832Y068819D01*
X023917Y068904D01*
D19*
X006640Y073578D02*
X006394Y073578D01*
X006517Y073701D02*
X006517Y073454D01*
X005499Y073538D02*
X005252Y073538D01*
X005375Y073415D02*
X005375Y073662D01*
D20*
X005501Y074397D03*
X005973Y074397D03*
X006642Y074437D03*
X007115Y074437D03*
D21*
X006879Y074437D03*
X005737Y074397D03*
X018079Y058197D03*
X019812Y058197D03*
D22*
X022745Y073157D03*
X021524Y073197D03*
D23*
X019426Y055523D03*
X019426Y055273D03*
X019426Y055023D03*
X018426Y055023D03*
X018426Y055273D03*
X018426Y055523D03*
D24*
X018079Y057960D03*
X018079Y058433D03*
X019812Y058433D03*
X019812Y057960D03*
M02*
