G75*
%MOIN*%
%OFA0B0*%
%FSLAX24Y24*%
%IPPOS*%
%LPD*%
%AMOC8*
5,1,8,0,0,1.08239X$1,22.5*
%
%ADD10C,0.0000*%
%ADD11C,0.0040*%
%ADD12C,0.0060*%
%ADD13R,0.0945X0.0945*%
%ADD14OC8,0.0945*%
%ADD15C,0.0945*%
%ADD16C,0.0236*%
%ADD17R,0.0394X0.0433*%
%ADD18R,0.0433X0.0394*%
%ADD19C,0.1000*%
%ADD20R,0.0512X0.0630*%
%ADD21C,0.0600*%
%ADD22C,0.0520*%
%ADD23C,0.0768*%
%ADD24C,0.0520*%
%ADD25OC8,0.0600*%
%ADD26C,0.0740*%
%ADD27OC8,0.0740*%
%ADD28R,0.0472X0.0472*%
%ADD29C,0.1890*%
%ADD30R,0.0866X0.0236*%
%ADD31R,0.1000X0.0500*%
%ADD32R,0.0591X0.0512*%
%ADD33C,0.0827*%
%ADD34OC8,0.0700*%
%ADD35C,0.0357*%
%ADD36C,0.0240*%
%ADD37C,0.0100*%
%ADD38C,0.0160*%
%ADD39C,0.0396*%
%ADD40C,0.0400*%
%ADD41C,0.0660*%
%ADD42C,0.0320*%
%ADD43C,0.0591*%
%ADD44C,0.0475*%
%ADD45C,0.0760*%
D10*
X004674Y050244D02*
X004674Y079771D01*
X051910Y079775D01*
X051918Y050244D01*
X004674Y050244D01*
X005225Y051425D02*
X005227Y051475D01*
X005233Y051525D01*
X005243Y051574D01*
X005257Y051622D01*
X005274Y051669D01*
X005295Y051714D01*
X005320Y051758D01*
X005348Y051799D01*
X005380Y051838D01*
X005414Y051875D01*
X005451Y051909D01*
X005491Y051939D01*
X005533Y051966D01*
X005577Y051990D01*
X005623Y052011D01*
X005670Y052027D01*
X005718Y052040D01*
X005768Y052049D01*
X005817Y052054D01*
X005868Y052055D01*
X005918Y052052D01*
X005967Y052045D01*
X006016Y052034D01*
X006064Y052019D01*
X006110Y052001D01*
X006155Y051979D01*
X006198Y051953D01*
X006239Y051924D01*
X006278Y051892D01*
X006314Y051857D01*
X006346Y051819D01*
X006376Y051779D01*
X006403Y051736D01*
X006426Y051692D01*
X006445Y051646D01*
X006461Y051598D01*
X006473Y051549D01*
X006481Y051500D01*
X006485Y051450D01*
X006485Y051400D01*
X006481Y051350D01*
X006473Y051301D01*
X006461Y051252D01*
X006445Y051204D01*
X006426Y051158D01*
X006403Y051114D01*
X006376Y051071D01*
X006346Y051031D01*
X006314Y050993D01*
X006278Y050958D01*
X006239Y050926D01*
X006198Y050897D01*
X006155Y050871D01*
X006110Y050849D01*
X006064Y050831D01*
X006016Y050816D01*
X005967Y050805D01*
X005918Y050798D01*
X005868Y050795D01*
X005817Y050796D01*
X005768Y050801D01*
X005718Y050810D01*
X005670Y050823D01*
X005623Y050839D01*
X005577Y050860D01*
X005533Y050884D01*
X005491Y050911D01*
X005451Y050941D01*
X005414Y050975D01*
X005380Y051012D01*
X005348Y051051D01*
X005320Y051092D01*
X005295Y051136D01*
X005274Y051181D01*
X005257Y051228D01*
X005243Y051276D01*
X005233Y051325D01*
X005227Y051375D01*
X005225Y051425D01*
X009117Y055644D02*
X009119Y055686D01*
X009125Y055728D01*
X009135Y055770D01*
X009148Y055810D01*
X009166Y055849D01*
X009187Y055886D01*
X009211Y055920D01*
X009239Y055953D01*
X009269Y055983D01*
X009302Y056009D01*
X009337Y056033D01*
X009375Y056053D01*
X009414Y056069D01*
X009454Y056082D01*
X009496Y056091D01*
X009538Y056096D01*
X009581Y056097D01*
X009623Y056094D01*
X009665Y056087D01*
X009706Y056076D01*
X009746Y056061D01*
X009784Y056043D01*
X009821Y056021D01*
X009855Y055996D01*
X009887Y055968D01*
X009915Y055937D01*
X009941Y055903D01*
X009964Y055867D01*
X009983Y055830D01*
X009999Y055790D01*
X010011Y055749D01*
X010019Y055708D01*
X010023Y055665D01*
X010023Y055623D01*
X010019Y055580D01*
X010011Y055539D01*
X009999Y055498D01*
X009983Y055458D01*
X009964Y055421D01*
X009941Y055385D01*
X009915Y055351D01*
X009887Y055320D01*
X009855Y055292D01*
X009821Y055267D01*
X009784Y055245D01*
X009746Y055227D01*
X009706Y055212D01*
X009665Y055201D01*
X009623Y055194D01*
X009581Y055191D01*
X009538Y055192D01*
X009496Y055197D01*
X009454Y055206D01*
X009414Y055219D01*
X009375Y055235D01*
X009337Y055255D01*
X009302Y055279D01*
X009269Y055305D01*
X009239Y055335D01*
X009211Y055368D01*
X009187Y055402D01*
X009166Y055439D01*
X009148Y055478D01*
X009135Y055518D01*
X009125Y055560D01*
X009119Y055602D01*
X009117Y055644D01*
X009121Y062002D02*
X009123Y062044D01*
X009129Y062086D01*
X009139Y062128D01*
X009152Y062168D01*
X009170Y062207D01*
X009191Y062244D01*
X009215Y062278D01*
X009243Y062311D01*
X009273Y062341D01*
X009306Y062367D01*
X009341Y062391D01*
X009379Y062411D01*
X009418Y062427D01*
X009458Y062440D01*
X009500Y062449D01*
X009542Y062454D01*
X009585Y062455D01*
X009627Y062452D01*
X009669Y062445D01*
X009710Y062434D01*
X009750Y062419D01*
X009788Y062401D01*
X009825Y062379D01*
X009859Y062354D01*
X009891Y062326D01*
X009919Y062295D01*
X009945Y062261D01*
X009968Y062225D01*
X009987Y062188D01*
X010003Y062148D01*
X010015Y062107D01*
X010023Y062066D01*
X010027Y062023D01*
X010027Y061981D01*
X010023Y061938D01*
X010015Y061897D01*
X010003Y061856D01*
X009987Y061816D01*
X009968Y061779D01*
X009945Y061743D01*
X009919Y061709D01*
X009891Y061678D01*
X009859Y061650D01*
X009825Y061625D01*
X009788Y061603D01*
X009750Y061585D01*
X009710Y061570D01*
X009669Y061559D01*
X009627Y061552D01*
X009585Y061549D01*
X009542Y061550D01*
X009500Y061555D01*
X009458Y061564D01*
X009418Y061577D01*
X009379Y061593D01*
X009341Y061613D01*
X009306Y061637D01*
X009273Y061663D01*
X009243Y061693D01*
X009215Y061726D01*
X009191Y061760D01*
X009170Y061797D01*
X009152Y061836D01*
X009139Y061876D01*
X009129Y061918D01*
X009123Y061960D01*
X009121Y062002D01*
X005225Y078590D02*
X005227Y078640D01*
X005233Y078690D01*
X005243Y078739D01*
X005257Y078787D01*
X005274Y078834D01*
X005295Y078879D01*
X005320Y078923D01*
X005348Y078964D01*
X005380Y079003D01*
X005414Y079040D01*
X005451Y079074D01*
X005491Y079104D01*
X005533Y079131D01*
X005577Y079155D01*
X005623Y079176D01*
X005670Y079192D01*
X005718Y079205D01*
X005768Y079214D01*
X005817Y079219D01*
X005868Y079220D01*
X005918Y079217D01*
X005967Y079210D01*
X006016Y079199D01*
X006064Y079184D01*
X006110Y079166D01*
X006155Y079144D01*
X006198Y079118D01*
X006239Y079089D01*
X006278Y079057D01*
X006314Y079022D01*
X006346Y078984D01*
X006376Y078944D01*
X006403Y078901D01*
X006426Y078857D01*
X006445Y078811D01*
X006461Y078763D01*
X006473Y078714D01*
X006481Y078665D01*
X006485Y078615D01*
X006485Y078565D01*
X006481Y078515D01*
X006473Y078466D01*
X006461Y078417D01*
X006445Y078369D01*
X006426Y078323D01*
X006403Y078279D01*
X006376Y078236D01*
X006346Y078196D01*
X006314Y078158D01*
X006278Y078123D01*
X006239Y078091D01*
X006198Y078062D01*
X006155Y078036D01*
X006110Y078014D01*
X006064Y077996D01*
X006016Y077981D01*
X005967Y077970D01*
X005918Y077963D01*
X005868Y077960D01*
X005817Y077961D01*
X005768Y077966D01*
X005718Y077975D01*
X005670Y077988D01*
X005623Y078004D01*
X005577Y078025D01*
X005533Y078049D01*
X005491Y078076D01*
X005451Y078106D01*
X005414Y078140D01*
X005380Y078177D01*
X005348Y078216D01*
X005320Y078257D01*
X005295Y078301D01*
X005274Y078346D01*
X005257Y078393D01*
X005243Y078441D01*
X005233Y078490D01*
X005227Y078540D01*
X005225Y078590D01*
X020579Y077409D02*
X020581Y077459D01*
X020587Y077509D01*
X020597Y077558D01*
X020611Y077606D01*
X020628Y077653D01*
X020649Y077698D01*
X020674Y077742D01*
X020702Y077783D01*
X020734Y077822D01*
X020768Y077859D01*
X020805Y077893D01*
X020845Y077923D01*
X020887Y077950D01*
X020931Y077974D01*
X020977Y077995D01*
X021024Y078011D01*
X021072Y078024D01*
X021122Y078033D01*
X021171Y078038D01*
X021222Y078039D01*
X021272Y078036D01*
X021321Y078029D01*
X021370Y078018D01*
X021418Y078003D01*
X021464Y077985D01*
X021509Y077963D01*
X021552Y077937D01*
X021593Y077908D01*
X021632Y077876D01*
X021668Y077841D01*
X021700Y077803D01*
X021730Y077763D01*
X021757Y077720D01*
X021780Y077676D01*
X021799Y077630D01*
X021815Y077582D01*
X021827Y077533D01*
X021835Y077484D01*
X021839Y077434D01*
X021839Y077384D01*
X021835Y077334D01*
X021827Y077285D01*
X021815Y077236D01*
X021799Y077188D01*
X021780Y077142D01*
X021757Y077098D01*
X021730Y077055D01*
X021700Y077015D01*
X021668Y076977D01*
X021632Y076942D01*
X021593Y076910D01*
X021552Y076881D01*
X021509Y076855D01*
X021464Y076833D01*
X021418Y076815D01*
X021370Y076800D01*
X021321Y076789D01*
X021272Y076782D01*
X021222Y076779D01*
X021171Y076780D01*
X021122Y076785D01*
X021072Y076794D01*
X021024Y076807D01*
X020977Y076823D01*
X020931Y076844D01*
X020887Y076868D01*
X020845Y076895D01*
X020805Y076925D01*
X020768Y076959D01*
X020734Y076996D01*
X020702Y077035D01*
X020674Y077076D01*
X020649Y077120D01*
X020628Y077165D01*
X020611Y077212D01*
X020597Y077260D01*
X020587Y077309D01*
X020581Y077359D01*
X020579Y077409D01*
X050107Y077015D02*
X050109Y077065D01*
X050115Y077115D01*
X050125Y077164D01*
X050139Y077212D01*
X050156Y077259D01*
X050177Y077304D01*
X050202Y077348D01*
X050230Y077389D01*
X050262Y077428D01*
X050296Y077465D01*
X050333Y077499D01*
X050373Y077529D01*
X050415Y077556D01*
X050459Y077580D01*
X050505Y077601D01*
X050552Y077617D01*
X050600Y077630D01*
X050650Y077639D01*
X050699Y077644D01*
X050750Y077645D01*
X050800Y077642D01*
X050849Y077635D01*
X050898Y077624D01*
X050946Y077609D01*
X050992Y077591D01*
X051037Y077569D01*
X051080Y077543D01*
X051121Y077514D01*
X051160Y077482D01*
X051196Y077447D01*
X051228Y077409D01*
X051258Y077369D01*
X051285Y077326D01*
X051308Y077282D01*
X051327Y077236D01*
X051343Y077188D01*
X051355Y077139D01*
X051363Y077090D01*
X051367Y077040D01*
X051367Y076990D01*
X051363Y076940D01*
X051355Y076891D01*
X051343Y076842D01*
X051327Y076794D01*
X051308Y076748D01*
X051285Y076704D01*
X051258Y076661D01*
X051228Y076621D01*
X051196Y076583D01*
X051160Y076548D01*
X051121Y076516D01*
X051080Y076487D01*
X051037Y076461D01*
X050992Y076439D01*
X050946Y076421D01*
X050898Y076406D01*
X050849Y076395D01*
X050800Y076388D01*
X050750Y076385D01*
X050699Y076386D01*
X050650Y076391D01*
X050600Y076400D01*
X050552Y076413D01*
X050505Y076429D01*
X050459Y076450D01*
X050415Y076474D01*
X050373Y076501D01*
X050333Y076531D01*
X050296Y076565D01*
X050262Y076602D01*
X050230Y076641D01*
X050202Y076682D01*
X050177Y076726D01*
X050156Y076771D01*
X050139Y076818D01*
X050125Y076866D01*
X050115Y076915D01*
X050109Y076965D01*
X050107Y077015D01*
X050107Y051425D02*
X050109Y051475D01*
X050115Y051525D01*
X050125Y051574D01*
X050139Y051622D01*
X050156Y051669D01*
X050177Y051714D01*
X050202Y051758D01*
X050230Y051799D01*
X050262Y051838D01*
X050296Y051875D01*
X050333Y051909D01*
X050373Y051939D01*
X050415Y051966D01*
X050459Y051990D01*
X050505Y052011D01*
X050552Y052027D01*
X050600Y052040D01*
X050650Y052049D01*
X050699Y052054D01*
X050750Y052055D01*
X050800Y052052D01*
X050849Y052045D01*
X050898Y052034D01*
X050946Y052019D01*
X050992Y052001D01*
X051037Y051979D01*
X051080Y051953D01*
X051121Y051924D01*
X051160Y051892D01*
X051196Y051857D01*
X051228Y051819D01*
X051258Y051779D01*
X051285Y051736D01*
X051308Y051692D01*
X051327Y051646D01*
X051343Y051598D01*
X051355Y051549D01*
X051363Y051500D01*
X051367Y051450D01*
X051367Y051400D01*
X051363Y051350D01*
X051355Y051301D01*
X051343Y051252D01*
X051327Y051204D01*
X051308Y051158D01*
X051285Y051114D01*
X051258Y051071D01*
X051228Y051031D01*
X051196Y050993D01*
X051160Y050958D01*
X051121Y050926D01*
X051080Y050897D01*
X051037Y050871D01*
X050992Y050849D01*
X050946Y050831D01*
X050898Y050816D01*
X050849Y050805D01*
X050800Y050798D01*
X050750Y050795D01*
X050699Y050796D01*
X050650Y050801D01*
X050600Y050810D01*
X050552Y050823D01*
X050505Y050839D01*
X050459Y050860D01*
X050415Y050884D01*
X050373Y050911D01*
X050333Y050941D01*
X050296Y050975D01*
X050262Y051012D01*
X050230Y051051D01*
X050202Y051092D01*
X050177Y051136D01*
X050156Y051181D01*
X050139Y051228D01*
X050125Y051276D01*
X050115Y051325D01*
X050109Y051375D01*
X050107Y051425D01*
D11*
X015257Y051398D02*
X014997Y051225D01*
X015257Y051051D01*
X014997Y051051D02*
X014997Y051572D01*
X014740Y051572D02*
X014740Y051658D01*
X014740Y051398D02*
X014740Y051051D01*
X014653Y051051D02*
X014827Y051051D01*
X014485Y051051D02*
X014485Y051311D01*
X014398Y051398D01*
X014138Y051398D01*
X014138Y051051D01*
X013969Y051138D02*
X013969Y051311D01*
X013882Y051398D01*
X013709Y051398D01*
X013622Y051311D01*
X013622Y051138D01*
X013709Y051051D01*
X013882Y051051D01*
X013969Y051138D01*
X013453Y051398D02*
X013366Y051398D01*
X013192Y051225D01*
X013192Y051398D02*
X013192Y051051D01*
X013022Y051051D02*
X012935Y051138D01*
X012935Y051485D01*
X012849Y051398D02*
X013022Y051398D01*
X012592Y051398D02*
X012592Y051051D01*
X012678Y051051D02*
X012505Y051051D01*
X012505Y051398D02*
X012592Y051398D01*
X012592Y051572D02*
X012592Y051658D01*
X012335Y051398D02*
X012249Y051398D01*
X012075Y051225D01*
X012075Y051398D02*
X012075Y051051D01*
X011733Y051051D02*
X011733Y051572D01*
X011560Y051572D02*
X011907Y051572D01*
X010875Y051572D02*
X010875Y051051D01*
X010528Y051051D02*
X010528Y051572D01*
X010702Y051398D01*
X010875Y051572D01*
X010360Y051485D02*
X010273Y051572D01*
X010099Y051572D01*
X010013Y051485D01*
X009844Y051572D02*
X009844Y051051D01*
X010013Y051051D02*
X010360Y051398D01*
X010360Y051485D01*
X010360Y051051D02*
X010013Y051051D01*
X009670Y051398D02*
X009844Y051572D01*
X009670Y051398D02*
X009497Y051572D01*
X009497Y051051D01*
X014653Y051398D02*
X014740Y051398D01*
D12*
X017801Y076491D02*
X017801Y077132D01*
X017801Y076811D02*
X018228Y076811D01*
X018446Y076811D02*
X018873Y076811D01*
X018873Y076918D02*
X018873Y076491D01*
X018873Y076918D02*
X018659Y077132D01*
X018446Y076918D01*
X018446Y076491D01*
X018228Y076491D02*
X018228Y077132D01*
X019452Y077964D02*
X019452Y078391D01*
X019452Y077964D02*
X019666Y077751D01*
X019879Y077964D01*
X019879Y078391D01*
X020097Y078391D02*
X020097Y077751D01*
X020524Y077751D01*
X020741Y077751D02*
X020741Y078391D01*
X021062Y078391D01*
X021169Y078285D01*
X021169Y078071D01*
X021062Y077964D01*
X020741Y077964D01*
X020955Y077964D02*
X021169Y077751D01*
X021386Y077858D02*
X021493Y077751D01*
X021706Y077751D01*
X021813Y077858D01*
X021813Y077964D01*
X021706Y078071D01*
X021493Y078071D01*
X021386Y078178D01*
X021386Y078285D01*
X021493Y078391D01*
X021706Y078391D01*
X021813Y078285D01*
X022031Y078391D02*
X022244Y078391D01*
X022137Y078391D02*
X022137Y077751D01*
X022031Y077751D02*
X022244Y077751D01*
X022460Y077858D02*
X022567Y077751D01*
X022781Y077751D01*
X022887Y077858D01*
X022887Y078285D01*
X022781Y078391D01*
X022567Y078391D01*
X022460Y078285D01*
X022460Y077858D01*
X022313Y077132D02*
X022633Y077132D01*
X022740Y077025D01*
X022740Y076811D01*
X022633Y076705D01*
X022313Y076705D01*
X022526Y076705D02*
X022740Y076491D01*
X022957Y076598D02*
X023064Y076491D01*
X023278Y076491D01*
X023384Y076598D01*
X023384Y077025D01*
X023278Y077132D01*
X023064Y077132D01*
X022957Y077025D01*
X022957Y076598D01*
X022313Y076491D02*
X022313Y077132D01*
X022095Y077132D02*
X021668Y077132D01*
X021882Y077132D02*
X021882Y076491D01*
X021451Y076491D02*
X021451Y077132D01*
X021024Y077132D02*
X021451Y076491D01*
X021024Y076491D02*
X021024Y077132D01*
X020806Y077025D02*
X020700Y077132D01*
X020486Y077132D01*
X020379Y077025D01*
X020379Y076598D01*
X020486Y076491D01*
X020700Y076491D01*
X020806Y076598D01*
X020806Y077025D01*
X020162Y077025D02*
X020055Y077132D01*
X019841Y077132D01*
X019735Y077025D01*
X019735Y076598D01*
X019841Y076491D01*
X020055Y076491D01*
X020162Y076598D01*
X020097Y078071D02*
X020310Y078071D01*
X020524Y078391D02*
X020097Y078391D01*
X023105Y078391D02*
X023532Y077751D01*
X023532Y078391D01*
X023105Y078391D02*
X023105Y077751D01*
X023602Y077132D02*
X023602Y076491D01*
X024029Y076491D01*
X024247Y076491D02*
X024674Y076491D01*
X024891Y076491D02*
X025318Y076491D01*
X025536Y076491D02*
X025536Y077132D01*
X025856Y077132D01*
X025963Y077025D01*
X025963Y076811D01*
X025856Y076705D01*
X025536Y076705D01*
X025749Y076705D02*
X025963Y076491D01*
X025318Y077132D02*
X024891Y077132D01*
X024891Y076491D01*
X024891Y076811D02*
X025105Y076811D01*
X024247Y076491D02*
X024247Y077132D01*
X024714Y077751D02*
X024714Y078391D01*
X024394Y078071D01*
X024821Y078071D01*
D13*
X021524Y061031D03*
X037351Y061031D03*
X046190Y054000D03*
X046190Y069826D03*
D14*
X039182Y054000D03*
X037351Y054023D03*
D15*
X039182Y069826D03*
X021524Y054023D03*
D16*
X017280Y065095D02*
X017280Y065645D01*
X016886Y065645D02*
X016886Y065095D01*
X016493Y065095D02*
X016493Y065645D01*
X016099Y065645D02*
X016099Y065095D01*
X015705Y065095D02*
X015705Y065645D01*
X015312Y065645D02*
X015312Y065095D01*
X014918Y065095D02*
X014918Y065645D01*
X014524Y065645D02*
X014524Y065095D01*
X014131Y065095D02*
X014131Y065645D01*
X013737Y065645D02*
X013737Y065095D01*
X013343Y065095D02*
X013343Y065645D01*
X012949Y065645D02*
X012949Y065095D01*
X012556Y065095D02*
X012556Y065645D01*
X012162Y065645D02*
X012162Y065095D01*
X011768Y065095D02*
X011768Y065645D01*
X011375Y065645D02*
X011375Y065095D01*
X010981Y065095D02*
X010981Y065645D01*
X009524Y067102D02*
X008974Y067102D01*
X008974Y067496D02*
X009524Y067496D01*
X009524Y067889D02*
X008974Y067889D01*
X008974Y068283D02*
X009524Y068283D01*
X009524Y068677D02*
X008974Y068677D01*
X008974Y069071D02*
X009524Y069071D01*
X009524Y069464D02*
X008974Y069464D01*
X008974Y069858D02*
X009524Y069858D01*
X009524Y070252D02*
X008974Y070252D01*
X008974Y070645D02*
X009524Y070645D01*
X009524Y071039D02*
X008974Y071039D01*
X008974Y071433D02*
X009524Y071433D01*
X009524Y071826D02*
X008974Y071826D01*
X008974Y072220D02*
X009524Y072220D01*
X009524Y072614D02*
X008974Y072614D01*
X008974Y073008D02*
X009524Y073008D01*
X009524Y073401D02*
X008974Y073401D01*
X010981Y074859D02*
X010981Y075409D01*
X011375Y075409D02*
X011375Y074859D01*
X011768Y074859D02*
X011768Y075409D01*
X012162Y075409D02*
X012162Y074859D01*
X012556Y074859D02*
X012556Y075409D01*
X012949Y075409D02*
X012949Y074859D01*
X013343Y074859D02*
X013343Y075409D01*
X013737Y075409D02*
X013737Y074859D01*
X014131Y074859D02*
X014131Y075409D01*
X014524Y075409D02*
X014524Y074859D01*
X014918Y074859D02*
X014918Y075409D01*
X015312Y075409D02*
X015312Y074859D01*
X015705Y074859D02*
X015705Y075409D01*
X016099Y075409D02*
X016099Y074859D01*
X016493Y074859D02*
X016493Y075409D01*
X016886Y075409D02*
X016886Y074859D01*
X017280Y074859D02*
X017280Y075409D01*
X018737Y073401D02*
X019287Y073401D01*
X019287Y073008D02*
X018737Y073008D01*
X018737Y072614D02*
X019287Y072614D01*
X019287Y072220D02*
X018737Y072220D01*
X018737Y071826D02*
X019287Y071826D01*
X019287Y071433D02*
X018737Y071433D01*
X018737Y071039D02*
X019287Y071039D01*
X019287Y070645D02*
X018737Y070645D01*
X018737Y070252D02*
X019287Y070252D01*
X019287Y069858D02*
X018737Y069858D01*
X018737Y069464D02*
X019287Y069464D01*
X019287Y069071D02*
X018737Y069071D01*
X018737Y068677D02*
X019287Y068677D01*
X019287Y068283D02*
X018737Y068283D01*
X018737Y067889D02*
X019287Y067889D01*
X019287Y067496D02*
X018737Y067496D01*
X018737Y067102D02*
X019287Y067102D01*
D17*
X015910Y064417D03*
X015241Y064417D03*
D18*
X014520Y064425D03*
X014520Y063756D03*
D19*
X007438Y069885D03*
X006438Y070885D03*
X005438Y069885D03*
X005438Y071885D03*
X007438Y071885D03*
D20*
X005997Y068374D03*
X005249Y068374D03*
X007237Y067905D03*
X007985Y067905D03*
D21*
X007843Y066216D02*
X008443Y066216D01*
X008443Y064436D02*
X007843Y064436D01*
X005883Y064436D02*
X005283Y064436D01*
X005283Y066216D02*
X005883Y066216D01*
D22*
X018426Y057358D02*
X018426Y056838D01*
X019426Y056838D02*
X019426Y057358D01*
X019426Y054358D02*
X019426Y053838D01*
X018426Y053838D02*
X018426Y054358D01*
X023792Y064633D02*
X023792Y065153D01*
X024792Y065153D02*
X024792Y064633D01*
X025792Y064633D02*
X025792Y065153D01*
X026792Y065153D02*
X026792Y064633D01*
X026792Y067633D02*
X026792Y068153D01*
X025792Y068153D02*
X025792Y067633D01*
X024792Y067633D02*
X024792Y068153D01*
X023792Y068153D02*
X023792Y067633D01*
D23*
X028560Y066299D03*
X036434Y066299D03*
D24*
X023131Y066480D03*
X022131Y066480D03*
D25*
X023843Y063630D03*
X023843Y062630D03*
X024843Y062630D03*
X024843Y063630D03*
X025843Y063630D03*
X026843Y063630D03*
X026843Y062630D03*
X025843Y062630D03*
X049036Y062354D03*
X049036Y061354D03*
X049036Y060354D03*
X049036Y059354D03*
X049036Y058354D03*
X049036Y057354D03*
X049036Y056354D03*
X049036Y055354D03*
X049036Y054354D03*
X050036Y054354D03*
X050036Y055354D03*
X050036Y056354D03*
X050036Y057354D03*
X050036Y058354D03*
X050036Y059354D03*
X050036Y060354D03*
X050036Y061354D03*
X050036Y062354D03*
X050036Y063354D03*
X050036Y064354D03*
X050036Y065354D03*
X050036Y066354D03*
X050036Y067354D03*
X049036Y067354D03*
X049036Y066354D03*
X049036Y065354D03*
X049036Y064354D03*
X049036Y063354D03*
X049036Y068354D03*
X049036Y069354D03*
X049036Y070354D03*
X049036Y071354D03*
X050036Y071354D03*
X050036Y070354D03*
X050036Y069354D03*
X050036Y068354D03*
D26*
X050032Y071354D03*
X049032Y071354D03*
X046032Y071354D03*
X045032Y071354D03*
X044032Y071354D03*
X043032Y071354D03*
X042032Y071354D03*
X041032Y071354D03*
X040032Y071354D03*
X039032Y071354D03*
X037032Y071354D03*
X036032Y071354D03*
X035032Y071354D03*
X034032Y071354D03*
X033032Y071354D03*
X032032Y071354D03*
X031032Y071354D03*
X030032Y071354D03*
X028432Y071354D03*
X027432Y071354D03*
X026432Y071354D03*
X025432Y071354D03*
X024432Y071354D03*
X023432Y071354D03*
X022432Y071354D03*
X021432Y071354D03*
X025032Y052354D03*
X026032Y052354D03*
X027032Y052354D03*
X028032Y052354D03*
X029032Y052354D03*
X030032Y052354D03*
X032032Y052354D03*
X033032Y052354D03*
X034032Y052354D03*
X035032Y052354D03*
X036032Y052354D03*
X037032Y052354D03*
X038032Y052354D03*
X039032Y052354D03*
X041032Y052354D03*
X042032Y052354D03*
X043032Y052354D03*
X044032Y052354D03*
X045032Y052354D03*
X046032Y052354D03*
X047032Y052354D03*
X048032Y052354D03*
X049032Y054354D03*
X050032Y054354D03*
D27*
X050032Y055354D03*
X050032Y056354D03*
X050032Y057354D03*
X050032Y058354D03*
X049032Y058354D03*
X049032Y057354D03*
X049032Y056354D03*
X049032Y055354D03*
X049032Y059354D03*
X049032Y060354D03*
X049032Y061354D03*
X049032Y062354D03*
X049032Y063354D03*
X049032Y064354D03*
X049032Y065354D03*
X049032Y066354D03*
X049032Y067354D03*
X049032Y068354D03*
X049032Y069354D03*
X049032Y070354D03*
X050032Y070354D03*
X050032Y069354D03*
X050032Y068354D03*
X050032Y067354D03*
X050032Y066354D03*
X050032Y065354D03*
X050032Y064354D03*
X050032Y063354D03*
X050032Y062354D03*
X050032Y061354D03*
X050032Y060354D03*
X050032Y059354D03*
X031398Y074193D03*
X031398Y075193D03*
X030398Y075193D03*
X030398Y074193D03*
X029398Y074193D03*
X029398Y075193D03*
X028398Y075193D03*
X028398Y074193D03*
X027398Y074193D03*
X027398Y075193D03*
D28*
X022745Y073610D03*
X022745Y072783D03*
X021524Y072823D03*
X021524Y073649D03*
X020284Y058197D03*
X019457Y058197D03*
X018434Y058197D03*
X017607Y058197D03*
X006879Y073964D03*
X006879Y074791D03*
X005737Y074752D03*
X005737Y073925D03*
D29*
X045095Y075771D03*
X046945Y076913D03*
X046945Y074590D03*
D30*
X026209Y073789D03*
X026209Y073289D03*
X026209Y072789D03*
X026209Y072289D03*
X024162Y072289D03*
X024162Y072789D03*
X024162Y073289D03*
X024162Y073789D03*
D31*
X015468Y059108D03*
X015468Y058108D03*
X015468Y057108D03*
X015475Y053616D03*
X006078Y053616D03*
X006070Y057108D03*
X006070Y058108D03*
X006070Y059108D03*
D32*
X018414Y052389D03*
X018414Y051720D03*
X019477Y051720D03*
X019477Y052389D03*
D33*
X036119Y075992D03*
X038119Y075992D03*
X040127Y075992D03*
X042123Y075980D03*
D34*
X042032Y071354D03*
X041032Y071354D03*
X040032Y071354D03*
X039032Y071354D03*
X037032Y071354D03*
X036032Y071354D03*
X035032Y071354D03*
X034032Y071354D03*
X033032Y071354D03*
X032032Y071354D03*
X031032Y071354D03*
X030032Y071354D03*
X028430Y071358D03*
X027430Y071358D03*
X026430Y071358D03*
X025430Y071358D03*
X024430Y071358D03*
X023430Y071358D03*
X022430Y071358D03*
X021430Y071358D03*
X025032Y052358D03*
X026032Y052358D03*
X027032Y052358D03*
X028032Y052358D03*
X029032Y052358D03*
X030032Y052358D03*
X032032Y052358D03*
X033032Y052358D03*
X034032Y052358D03*
X035032Y052358D03*
X036032Y052358D03*
X037032Y052358D03*
X038032Y052358D03*
X039032Y052358D03*
X041044Y052366D03*
X042044Y052366D03*
X043044Y052366D03*
X044044Y052366D03*
X045044Y052366D03*
X046044Y052366D03*
X047044Y052366D03*
X048044Y052366D03*
X046032Y071354D03*
X045032Y071354D03*
X044032Y071354D03*
X043032Y071354D03*
D35*
X026229Y074181D03*
X025146Y072291D03*
X023375Y072803D03*
X022745Y074102D03*
X021524Y074220D03*
X020162Y072669D03*
X019713Y073590D03*
X019162Y074378D03*
X017784Y074704D03*
X017784Y073354D03*
X017823Y072763D03*
X017823Y072094D03*
X017823Y071504D03*
X017863Y070874D03*
X017863Y070323D03*
X017705Y069220D03*
X017705Y068039D03*
X017705Y067055D03*
X016524Y067055D03*
X016879Y066071D03*
X016540Y064598D03*
X017194Y063952D03*
X016292Y063389D03*
X016194Y062366D03*
X015634Y061460D03*
X014816Y062366D03*
X014394Y061452D03*
X013646Y062429D03*
X012268Y062823D03*
X011087Y062823D03*
X010221Y063334D03*
X010103Y064200D03*
X011087Y064594D03*
X012268Y064594D03*
X013449Y064594D03*
X015024Y063807D03*
X017020Y061657D03*
X017863Y061071D03*
X018414Y060519D03*
X019359Y059574D03*
X019831Y062370D03*
X018650Y063433D03*
X018375Y064063D03*
X019083Y065086D03*
X019083Y065874D03*
X019083Y066661D03*
X016524Y068236D03*
X016524Y069417D03*
X015579Y071267D03*
X014201Y071267D03*
X013217Y071661D03*
X014005Y073039D03*
X014359Y074181D03*
X015540Y074181D03*
X016800Y074181D03*
X017194Y073000D03*
X017154Y071858D03*
X021091Y068945D03*
X013253Y059476D03*
X013253Y058295D03*
X013056Y057114D03*
X013768Y057134D03*
X013768Y055795D03*
X014709Y055815D03*
X016406Y057055D03*
X012111Y055815D03*
X011678Y057114D03*
X011678Y058295D03*
X011481Y059476D03*
X009906Y059476D03*
X008335Y058905D03*
X008134Y057901D03*
X007347Y057114D03*
X007938Y056130D03*
X006560Y056326D03*
X005379Y056326D03*
X007091Y058405D03*
X005973Y059693D03*
X006363Y060263D03*
X007347Y060263D03*
X008134Y061051D03*
X008331Y062035D03*
X008725Y062823D03*
X008772Y063799D03*
X007741Y063610D03*
X006560Y063610D03*
X005379Y063610D03*
X005379Y060263D03*
X005894Y067291D03*
X007430Y067055D03*
X008257Y067134D03*
X008296Y068669D03*
X008178Y069338D03*
X008571Y069653D03*
X007548Y069102D03*
X006800Y069141D03*
X006170Y069141D03*
X005540Y069141D03*
X004949Y069141D03*
X004949Y072724D03*
X005658Y072724D03*
X005737Y073393D03*
X006406Y072724D03*
X007154Y072724D03*
X007902Y072645D03*
X008296Y072094D03*
X008493Y071425D03*
X010071Y072220D03*
X009241Y073826D03*
X009107Y075354D03*
X009398Y076622D03*
X009398Y077409D03*
X010186Y077409D03*
X010973Y077409D03*
X010973Y076622D03*
X010186Y076622D03*
X008611Y076622D03*
X008611Y077409D03*
X007823Y077409D03*
X007823Y076622D03*
X007036Y077409D03*
X005737Y075401D03*
X010068Y068669D03*
X010064Y067889D03*
X012194Y072882D03*
X012194Y073590D03*
X012194Y074181D03*
X011091Y073866D03*
X010461Y074653D03*
X011760Y077409D03*
X010890Y055815D03*
D36*
X008335Y058905D02*
X009516Y060086D01*
X018099Y060086D01*
X018611Y059574D01*
X019359Y059574D01*
X018414Y060519D02*
X009205Y060519D01*
X007091Y058405D01*
X006741Y058059D01*
X006741Y058055D01*
X005953Y058055D01*
X006070Y058108D01*
X006070Y057108D02*
X006503Y057073D01*
X008335Y058905D01*
X007666Y059693D02*
X008926Y060952D01*
X017745Y060952D01*
X017863Y061071D01*
X016957Y062882D02*
X021052Y058787D01*
X024201Y058787D01*
X024792Y059378D01*
X030816Y059378D01*
X034910Y063472D01*
X034910Y069811D01*
X035343Y070244D01*
X036170Y070244D01*
X037036Y071110D01*
X037032Y071354D01*
X036032Y071354D02*
X036036Y071094D01*
X035619Y070677D01*
X035186Y070677D01*
X034477Y069968D01*
X034477Y063669D01*
X030619Y059811D01*
X024595Y059811D01*
X024005Y059220D01*
X021209Y059220D01*
X016012Y064417D01*
X015910Y064417D01*
X015241Y064417D02*
X014516Y064417D01*
X014520Y064413D01*
X014520Y064425D01*
X014524Y065370D01*
X014131Y065370D02*
X014131Y064897D01*
X013965Y064732D01*
X013965Y063157D01*
X014241Y062882D01*
X016957Y062882D01*
X017705Y063315D02*
X021367Y059653D01*
X023808Y059653D01*
X024398Y060244D01*
X030422Y060244D01*
X034044Y063866D01*
X034044Y070126D01*
X035036Y071118D01*
X035032Y071354D01*
X026792Y070015D02*
X026792Y067893D01*
X025934Y066189D02*
X026792Y065330D01*
X026792Y064893D01*
X025792Y064893D02*
X025792Y065307D01*
X025343Y065756D01*
X022855Y065756D01*
X022131Y066480D01*
X023131Y066480D02*
X023422Y066189D01*
X025934Y066189D01*
X026792Y070015D02*
X026288Y070519D01*
X021012Y070519D01*
X020697Y070834D01*
X020697Y071858D01*
X020973Y072134D01*
X023571Y072134D01*
X023727Y072289D01*
X024162Y072289D01*
X022745Y072783D02*
X021564Y072783D01*
X021524Y072823D01*
X021268Y072823D01*
X019713Y074378D01*
X019162Y074378D01*
X019713Y073590D02*
X019713Y064496D01*
X018650Y063433D01*
X018375Y064063D02*
X018257Y064181D01*
X018257Y069614D01*
X018138Y069732D01*
X017666Y069732D01*
X017390Y070008D01*
X017390Y071071D01*
X017823Y071504D01*
X018060Y071504D01*
X018375Y071819D01*
X019005Y071819D01*
X019012Y071826D01*
X019012Y071433D02*
X018619Y071433D01*
X018060Y070874D01*
X017863Y070874D01*
X017863Y070323D02*
X017934Y070252D01*
X019012Y070252D01*
X019012Y072220D02*
X017949Y072220D01*
X017823Y072094D01*
X017918Y072669D02*
X018201Y072669D01*
X018257Y072614D01*
X019012Y072614D01*
X019012Y073008D02*
X018524Y073008D01*
X018257Y073275D01*
X017863Y073275D01*
X017784Y073354D01*
X017823Y072763D02*
X017918Y072669D01*
X015776Y070677D02*
X015934Y070519D01*
X015934Y066740D01*
X016131Y066543D01*
X017587Y066543D01*
X017705Y066425D01*
X017705Y063315D01*
X016886Y065370D02*
X016879Y065378D01*
X016879Y066071D01*
X015776Y070677D02*
X012666Y070677D01*
X012508Y070519D01*
X012508Y068787D01*
X012390Y068669D01*
X010068Y068669D01*
X010064Y067889D02*
X009249Y067889D01*
X008296Y068669D02*
X008178Y068551D01*
X006174Y068551D01*
X005997Y068374D01*
X005249Y068374D02*
X005225Y068350D01*
X005225Y067409D01*
X005343Y067291D01*
X005894Y067291D01*
X007237Y067248D02*
X007430Y067055D01*
X007237Y067248D02*
X007237Y067905D01*
X007985Y067905D02*
X007985Y067405D01*
X008257Y067134D01*
X008761Y065370D02*
X008143Y064436D01*
X008761Y065370D02*
X010981Y065370D01*
X009249Y070252D02*
X008721Y070252D01*
X008087Y070885D01*
X006438Y070885D01*
X005737Y073393D02*
X005737Y073925D01*
X005737Y074752D02*
X005737Y075401D01*
X006879Y074791D02*
X009052Y074791D01*
X009107Y074846D01*
X009107Y075354D01*
X010005Y074299D02*
X010442Y073862D01*
X011087Y073862D01*
X011091Y073866D01*
X010005Y074299D02*
X007213Y074299D01*
X006879Y073964D01*
X009241Y073826D02*
X009249Y073819D01*
X009249Y073401D01*
X009249Y072220D02*
X009249Y071826D01*
X009249Y071433D01*
X009241Y071819D02*
X009249Y071826D01*
X009249Y072220D02*
X010071Y072220D01*
X007666Y059693D02*
X005973Y059693D01*
X013768Y057134D02*
X013768Y055795D01*
X016879Y056149D02*
X016879Y052015D01*
X017863Y051031D01*
X035343Y051031D01*
X036036Y051724D01*
X036032Y052354D01*
X035032Y052354D02*
X035036Y051866D01*
X034871Y051700D01*
X023926Y051700D01*
X023178Y052448D01*
X021445Y052448D01*
X020619Y053275D01*
X020619Y055441D01*
X019426Y057098D02*
X019457Y057130D01*
X019457Y058197D01*
X020284Y058197D02*
X020284Y057783D01*
X020028Y057527D01*
X020028Y052941D01*
X019477Y052389D01*
X018414Y052389D02*
X017607Y053197D01*
X017607Y058197D01*
X018434Y058197D02*
X018434Y057106D01*
X018426Y057098D01*
X019831Y062370D02*
X020146Y062685D01*
X020146Y072653D01*
X020162Y072669D01*
D37*
X020441Y072995D02*
X020405Y073032D01*
X020247Y073097D01*
X020083Y073097D01*
X020083Y073364D01*
X020142Y073505D01*
X020142Y073675D01*
X020076Y073833D01*
X019956Y073953D01*
X019798Y074019D01*
X019628Y074019D01*
X019471Y073953D01*
X019350Y073833D01*
X019324Y073769D01*
X018664Y073769D01*
X018528Y073713D01*
X018425Y073610D01*
X018423Y073607D01*
X018330Y073645D01*
X018099Y073645D01*
X018027Y073717D01*
X017869Y073782D01*
X017699Y073782D01*
X017541Y073717D01*
X017421Y073597D01*
X017356Y073439D01*
X017356Y073269D01*
X017421Y073111D01*
X017493Y073039D01*
X017460Y073006D01*
X017395Y072849D01*
X017395Y072678D01*
X017460Y072521D01*
X017552Y072429D01*
X017460Y072337D01*
X017395Y072179D01*
X017395Y072009D01*
X017460Y071851D01*
X017513Y071799D01*
X017460Y071746D01*
X017402Y071605D01*
X017077Y071280D01*
X017020Y071144D01*
X017020Y069934D01*
X017077Y069798D01*
X017181Y069694D01*
X017352Y069522D01*
X017456Y069418D01*
X017592Y069362D01*
X017887Y069362D01*
X017887Y066767D01*
X017797Y066857D01*
X017661Y066913D01*
X016304Y066913D01*
X016304Y070593D01*
X016247Y070729D01*
X016143Y070833D01*
X015986Y070991D01*
X015850Y071047D01*
X012592Y071047D01*
X012456Y070991D01*
X012352Y070886D01*
X012195Y070729D01*
X012138Y070593D01*
X012138Y069039D01*
X010294Y069039D01*
X010153Y069097D01*
X009982Y069097D01*
X009825Y069032D01*
X009780Y068987D01*
X009782Y068992D01*
X009792Y069044D01*
X009792Y069061D01*
X009258Y069061D01*
X009258Y068686D01*
X009240Y068686D01*
X009240Y068945D01*
X009240Y069061D01*
X009258Y069061D01*
X009258Y069080D01*
X009240Y069080D01*
X009240Y069339D01*
X009240Y069455D01*
X009258Y069455D01*
X009258Y069473D01*
X009792Y069473D01*
X009792Y069491D01*
X009782Y069542D01*
X009762Y069591D01*
X009732Y069635D01*
X009707Y069661D01*
X009732Y069687D01*
X009762Y069731D01*
X009782Y069780D01*
X009792Y069832D01*
X009792Y069849D01*
X009258Y069849D01*
X009258Y069867D01*
X009792Y069867D01*
X009792Y069884D01*
X009782Y069936D01*
X009767Y069973D01*
X009836Y070043D01*
X009892Y070178D01*
X009892Y070325D01*
X009836Y070460D01*
X009767Y070530D01*
X009782Y070567D01*
X009792Y070619D01*
X009792Y070636D01*
X009258Y070636D01*
X009258Y070654D01*
X009792Y070654D01*
X009792Y070672D01*
X009782Y070724D01*
X009762Y070772D01*
X009732Y070816D01*
X009707Y070842D01*
X009732Y070868D01*
X009762Y070912D01*
X009782Y070961D01*
X009792Y071013D01*
X009792Y071015D01*
X009801Y071019D01*
X009938Y071156D01*
X010012Y071336D01*
X010012Y071530D01*
X009971Y071630D01*
X009980Y071650D01*
X013220Y071650D01*
X013430Y071737D01*
X013590Y071897D01*
X013700Y072008D01*
X013787Y072217D01*
X013787Y074019D01*
X013700Y074228D01*
X013540Y074388D01*
X013331Y074475D01*
X020426Y074475D01*
X020425Y074573D02*
X017516Y074573D01*
X017489Y074546D02*
X017592Y074649D01*
X017648Y074785D01*
X017648Y075482D01*
X017592Y075618D01*
X017489Y075721D01*
X017353Y075777D01*
X017207Y075777D01*
X017083Y075726D01*
X016960Y075777D01*
X016813Y075777D01*
X016690Y075726D01*
X016566Y075777D01*
X016420Y075777D01*
X016296Y075726D01*
X016172Y075777D01*
X016026Y075777D01*
X015891Y075721D01*
X015821Y075651D01*
X015784Y075667D01*
X015732Y075677D01*
X015714Y075677D01*
X015714Y075143D01*
X015696Y075143D01*
X015696Y075677D01*
X015679Y075677D01*
X015627Y075667D01*
X015590Y075651D01*
X015520Y075721D01*
X015385Y075777D01*
X015238Y075777D01*
X015115Y075726D01*
X014991Y075777D01*
X014845Y075777D01*
X014721Y075726D01*
X014597Y075777D01*
X014451Y075777D01*
X014327Y075726D01*
X014204Y075777D01*
X014057Y075777D01*
X013934Y075726D01*
X013810Y075777D01*
X013664Y075777D01*
X013528Y075721D01*
X013459Y075651D01*
X013421Y075667D01*
X013370Y075677D01*
X013352Y075677D01*
X013352Y075143D01*
X013334Y075143D01*
X013334Y075677D01*
X013317Y075677D01*
X013265Y075667D01*
X013216Y075647D01*
X013172Y075617D01*
X013146Y075591D01*
X013120Y075617D01*
X013076Y075647D01*
X013028Y075667D01*
X012976Y075677D01*
X012958Y075677D01*
X012958Y075143D01*
X012940Y075143D01*
X012940Y075677D01*
X012923Y075677D01*
X012871Y075667D01*
X012834Y075651D01*
X012764Y075721D01*
X012629Y075777D01*
X012483Y075777D01*
X012359Y075726D01*
X012235Y075777D01*
X012089Y075777D01*
X011965Y075726D01*
X011842Y075777D01*
X011695Y075777D01*
X011571Y075726D01*
X011448Y075777D01*
X011301Y075777D01*
X011178Y075726D01*
X011054Y075777D01*
X010908Y075777D01*
X010772Y075721D01*
X010669Y075618D01*
X010613Y075482D01*
X010613Y074785D01*
X010669Y074649D01*
X010772Y074546D01*
X010908Y074490D01*
X011054Y074490D01*
X011178Y074541D01*
X011301Y074490D01*
X011448Y074490D01*
X011571Y074541D01*
X011695Y074490D01*
X011842Y074490D01*
X011965Y074541D01*
X012089Y074490D01*
X012235Y074490D01*
X012359Y074541D01*
X012483Y074490D01*
X012629Y074490D01*
X012764Y074546D01*
X012834Y074616D01*
X012871Y074600D01*
X012923Y074590D01*
X012940Y074590D01*
X012940Y075124D01*
X012958Y075124D01*
X012958Y074590D01*
X012976Y074590D01*
X013028Y074600D01*
X013076Y074620D01*
X013120Y074650D01*
X013146Y074676D01*
X013172Y074650D01*
X013216Y074620D01*
X013265Y074600D01*
X013317Y074590D01*
X013334Y074590D01*
X013334Y075124D01*
X013352Y075124D01*
X013352Y074590D01*
X013370Y074590D01*
X013421Y074600D01*
X013459Y074616D01*
X013528Y074546D01*
X013664Y074490D01*
X013810Y074490D01*
X013934Y074541D01*
X014057Y074490D01*
X014204Y074490D01*
X014327Y074541D01*
X014451Y074490D01*
X014597Y074490D01*
X014721Y074541D01*
X014845Y074490D01*
X014991Y074490D01*
X015115Y074541D01*
X015238Y074490D01*
X015385Y074490D01*
X015520Y074546D01*
X015590Y074616D01*
X015627Y074600D01*
X015679Y074590D01*
X015696Y074590D01*
X015696Y075124D01*
X015714Y075124D01*
X015714Y074590D01*
X015732Y074590D01*
X015784Y074600D01*
X015821Y074616D01*
X015891Y074546D01*
X016026Y074490D01*
X016172Y074490D01*
X016296Y074541D01*
X016420Y074490D01*
X016566Y074490D01*
X016690Y074541D01*
X016813Y074490D01*
X016960Y074490D01*
X017083Y074541D01*
X017207Y074490D01*
X017353Y074490D01*
X017489Y074546D01*
X017601Y074672D02*
X020424Y074672D01*
X020423Y074770D02*
X017642Y074770D01*
X017666Y074850D02*
X020422Y074850D01*
X020441Y072995D01*
X020440Y072997D02*
X020441Y072997D01*
X020440Y073096D02*
X020251Y073096D01*
X020083Y073194D02*
X020439Y073194D01*
X020438Y073293D02*
X020083Y073293D01*
X020095Y073391D02*
X020437Y073391D01*
X020436Y073490D02*
X020135Y073490D01*
X020142Y073588D02*
X020435Y073588D01*
X020434Y073687D02*
X020137Y073687D01*
X020096Y073785D02*
X020433Y073785D01*
X020432Y073884D02*
X020025Y073884D01*
X019886Y073982D02*
X020431Y073982D01*
X020430Y074081D02*
X013761Y074081D01*
X013787Y073982D02*
X019540Y073982D01*
X019401Y073884D02*
X013787Y073884D01*
X013787Y073785D02*
X019330Y073785D01*
X018502Y073687D02*
X018057Y073687D01*
X017511Y073687D02*
X013787Y073687D01*
X013787Y073588D02*
X017417Y073588D01*
X017377Y073490D02*
X013787Y073490D01*
X013787Y073391D02*
X017356Y073391D01*
X017356Y073293D02*
X013787Y073293D01*
X013787Y073194D02*
X017386Y073194D01*
X017436Y073096D02*
X013787Y073096D01*
X013787Y072997D02*
X017457Y072997D01*
X017416Y072899D02*
X013787Y072899D01*
X013787Y072800D02*
X017395Y072800D01*
X017395Y072702D02*
X013787Y072702D01*
X013787Y072603D02*
X017426Y072603D01*
X017476Y072505D02*
X013787Y072505D01*
X013787Y072406D02*
X017530Y072406D01*
X017448Y072308D02*
X013787Y072308D01*
X013784Y072209D02*
X017407Y072209D01*
X017395Y072111D02*
X013743Y072111D01*
X013702Y072012D02*
X017395Y072012D01*
X017434Y071914D02*
X013607Y071914D01*
X013508Y071815D02*
X017496Y071815D01*
X017448Y071717D02*
X013381Y071717D01*
X012647Y072790D02*
X009958Y072790D01*
X009773Y072714D01*
X009762Y072741D01*
X009732Y072785D01*
X009707Y072811D01*
X009732Y072837D01*
X009762Y072881D01*
X009782Y072929D01*
X009792Y072981D01*
X009792Y072998D01*
X009258Y072998D01*
X009258Y072710D01*
X009240Y072710D01*
X009240Y072882D01*
X009240Y072998D01*
X009258Y072998D01*
X009258Y073017D01*
X009792Y073017D01*
X009792Y073034D01*
X009782Y073086D01*
X009767Y073123D01*
X009836Y073193D01*
X009892Y073328D01*
X009892Y073474D01*
X009836Y073610D01*
X009733Y073713D01*
X009669Y073740D01*
X009669Y073741D01*
X009669Y073912D01*
X009662Y073929D01*
X009851Y073929D01*
X010128Y073652D01*
X010232Y073548D01*
X010368Y073492D01*
X010874Y073492D01*
X011006Y073437D01*
X011176Y073437D01*
X011334Y073503D01*
X011454Y073623D01*
X011520Y073781D01*
X011520Y073951D01*
X011454Y074108D01*
X011334Y074229D01*
X011176Y074294D01*
X011006Y074294D01*
X010855Y074232D01*
X010595Y074232D01*
X010214Y074613D01*
X010078Y074669D01*
X009434Y074669D01*
X009477Y074773D01*
X009477Y075128D01*
X009535Y075269D01*
X009535Y075439D01*
X009470Y075597D01*
X009350Y075717D01*
X009192Y075782D01*
X009022Y075782D01*
X008864Y075717D01*
X008744Y075597D01*
X008678Y075439D01*
X008678Y075269D01*
X008723Y075161D01*
X007330Y075161D01*
X007327Y075169D01*
X007256Y075239D01*
X007165Y075277D01*
X006593Y075277D01*
X006501Y075239D01*
X006430Y075169D01*
X006392Y075077D01*
X006392Y074505D01*
X006430Y074413D01*
X006466Y074378D01*
X006430Y074342D01*
X006392Y074250D01*
X006392Y073678D01*
X006430Y073586D01*
X006501Y073516D01*
X006593Y073478D01*
X007165Y073478D01*
X007256Y073516D01*
X007327Y073586D01*
X007365Y073678D01*
X007365Y073927D01*
X007366Y073929D01*
X008819Y073929D01*
X008812Y073912D01*
X008812Y073741D01*
X008815Y073734D01*
X008765Y073713D01*
X008661Y073610D01*
X008605Y073474D01*
X008605Y073328D01*
X008661Y073193D01*
X008731Y073123D01*
X008715Y073086D01*
X008705Y073034D01*
X008705Y073017D01*
X009240Y073017D01*
X009240Y072998D01*
X008705Y072998D01*
X008705Y072981D01*
X008715Y072929D01*
X008735Y072881D01*
X008765Y072837D01*
X008791Y072811D01*
X008765Y072785D01*
X008735Y072741D01*
X008715Y072692D01*
X008705Y072640D01*
X008705Y072637D01*
X008697Y072634D01*
X008559Y072497D01*
X008485Y072317D01*
X008485Y072123D01*
X008526Y072023D01*
X008485Y071924D01*
X008485Y071729D01*
X008526Y071630D01*
X008485Y071530D01*
X008485Y071336D01*
X008559Y071156D01*
X008697Y071019D01*
X008705Y071015D01*
X008705Y071013D01*
X008715Y070961D01*
X008735Y070912D01*
X008765Y070868D01*
X008791Y070842D01*
X008765Y070816D01*
X008735Y070772D01*
X008732Y070764D01*
X008297Y071199D01*
X008161Y071255D01*
X007598Y071255D01*
X007647Y071269D01*
X007726Y071301D01*
X007800Y071344D01*
X007867Y071396D01*
X007927Y071456D01*
X007979Y071524D01*
X008022Y071597D01*
X008054Y071676D01*
X008077Y071758D01*
X008087Y071835D01*
X007488Y071835D01*
X007488Y071935D01*
X008087Y071935D01*
X008077Y072013D01*
X008054Y072095D01*
X008022Y072174D01*
X007979Y072247D01*
X007927Y072315D01*
X007867Y072375D01*
X007800Y072427D01*
X007726Y072470D01*
X007647Y072502D01*
X007565Y072524D01*
X007488Y072535D01*
X007488Y071936D01*
X007388Y071936D01*
X007388Y072535D01*
X007311Y072524D01*
X007228Y072502D01*
X007150Y072470D01*
X007076Y072427D01*
X007008Y072375D01*
X006948Y072315D01*
X006896Y072247D01*
X006853Y072174D01*
X006821Y072095D01*
X006799Y072013D01*
X006789Y071935D01*
X007388Y071935D01*
X007388Y071835D01*
X006789Y071835D01*
X006799Y071758D01*
X006821Y071676D01*
X006853Y071597D01*
X006896Y071524D01*
X006948Y071456D01*
X007008Y071396D01*
X007076Y071344D01*
X007150Y071301D01*
X007228Y071269D01*
X007277Y071255D01*
X007096Y071255D01*
X007073Y071310D01*
X006862Y071521D01*
X006587Y071635D01*
X006288Y071635D01*
X006013Y071521D01*
X005802Y071310D01*
X005688Y071035D01*
X005688Y070736D01*
X005802Y070461D01*
X006013Y070250D01*
X006288Y070135D01*
X006587Y070135D01*
X006862Y070250D01*
X007073Y070461D01*
X007096Y070515D01*
X007277Y070515D01*
X007228Y070502D01*
X007150Y070470D01*
X007076Y070427D01*
X007008Y070375D01*
X006948Y070315D01*
X006896Y070247D01*
X006853Y070174D01*
X006821Y070095D01*
X006799Y070013D01*
X006789Y069935D01*
X007388Y069935D01*
X007388Y069835D01*
X007488Y069835D01*
X007488Y069236D01*
X007565Y069247D01*
X007647Y069269D01*
X007726Y069301D01*
X007800Y069344D01*
X007867Y069396D01*
X007927Y069456D01*
X007979Y069524D01*
X008022Y069597D01*
X008054Y069676D01*
X008077Y069758D01*
X008087Y069835D01*
X007488Y069835D01*
X007488Y069935D01*
X008087Y069935D01*
X008077Y070013D01*
X008054Y070095D01*
X008022Y070174D01*
X007979Y070247D01*
X007927Y070315D01*
X007867Y070375D01*
X007800Y070427D01*
X007726Y070470D01*
X007647Y070502D01*
X007598Y070515D01*
X007934Y070515D01*
X008407Y070042D01*
X008069Y070042D01*
X008086Y069944D02*
X008506Y069944D01*
X008512Y069938D02*
X008647Y069882D01*
X008705Y069882D01*
X008705Y069867D01*
X009240Y069867D01*
X009240Y069849D01*
X009258Y069849D01*
X009258Y069473D01*
X009240Y069473D01*
X009240Y069732D01*
X009240Y069849D01*
X008705Y069849D01*
X008705Y069832D01*
X008715Y069780D01*
X008735Y069731D01*
X008765Y069687D01*
X008791Y069661D01*
X008765Y069635D01*
X008735Y069591D01*
X008715Y069542D01*
X008705Y069491D01*
X008705Y069473D01*
X009240Y069473D01*
X009240Y069455D01*
X008705Y069455D01*
X008705Y069438D01*
X008715Y069386D01*
X008735Y069337D01*
X008765Y069293D01*
X008791Y069267D01*
X008765Y069241D01*
X008735Y069198D01*
X008715Y069149D01*
X008705Y069097D01*
X008705Y069080D01*
X009240Y069080D01*
X009240Y069061D01*
X008705Y069061D01*
X008705Y069044D01*
X008715Y068992D01*
X008735Y068944D01*
X008765Y068900D01*
X008791Y068874D01*
X008765Y068848D01*
X008735Y068804D01*
X008720Y068766D01*
X008659Y068912D01*
X008539Y069032D01*
X008381Y069097D01*
X008211Y069097D01*
X008053Y069032D01*
X007942Y068921D01*
X006345Y068921D01*
X006302Y068939D01*
X005691Y068939D01*
X005623Y068910D01*
X005554Y068939D01*
X005124Y068939D01*
X005124Y069316D01*
X005150Y069301D01*
X005228Y069269D01*
X005311Y069247D01*
X005388Y069236D01*
X005388Y069835D01*
X005488Y069835D01*
X005488Y069236D01*
X005565Y069247D01*
X005647Y069269D01*
X005726Y069301D01*
X005800Y069344D01*
X005867Y069396D01*
X005927Y069456D01*
X005979Y069524D01*
X006022Y069597D01*
X006054Y069676D01*
X006077Y069758D01*
X006087Y069835D01*
X005488Y069835D01*
X005488Y069935D01*
X006087Y069935D01*
X006077Y070013D01*
X006054Y070095D01*
X006022Y070174D01*
X005979Y070247D01*
X005927Y070315D01*
X005867Y070375D01*
X005800Y070427D01*
X005726Y070470D01*
X005647Y070502D01*
X005565Y070524D01*
X005488Y070535D01*
X005488Y069936D01*
X005388Y069936D01*
X005388Y070535D01*
X005311Y070524D01*
X005228Y070502D01*
X005150Y070470D01*
X005124Y070455D01*
X005124Y071316D01*
X005150Y071301D01*
X005228Y071269D01*
X005311Y071247D01*
X005388Y071236D01*
X005388Y071835D01*
X005488Y071835D01*
X005488Y071236D01*
X005565Y071247D01*
X005647Y071269D01*
X005726Y071301D01*
X005800Y071344D01*
X005867Y071396D01*
X005927Y071456D01*
X005979Y071524D01*
X006022Y071597D01*
X006054Y071676D01*
X006077Y071758D01*
X006087Y071835D01*
X005488Y071835D01*
X005488Y071935D01*
X006087Y071935D01*
X006077Y072013D01*
X006054Y072095D01*
X006022Y072174D01*
X005979Y072247D01*
X005927Y072315D01*
X005867Y072375D01*
X005800Y072427D01*
X005726Y072470D01*
X005647Y072502D01*
X005565Y072524D01*
X005488Y072535D01*
X005488Y071936D01*
X005388Y071936D01*
X005388Y072535D01*
X005311Y072524D01*
X005228Y072502D01*
X005150Y072470D01*
X005124Y072455D01*
X005124Y077794D01*
X005192Y077726D01*
X005438Y077584D01*
X005713Y077510D01*
X005997Y077510D01*
X006272Y077584D01*
X006518Y077726D01*
X006719Y077927D01*
X006861Y078173D01*
X006867Y078197D01*
X017666Y078197D01*
X017666Y074850D01*
X017666Y074869D02*
X017648Y074869D01*
X017648Y074967D02*
X017666Y074967D01*
X017666Y075066D02*
X017648Y075066D01*
X017648Y075164D02*
X017666Y075164D01*
X017666Y075263D02*
X017648Y075263D01*
X017648Y075361D02*
X017666Y075361D01*
X017666Y075460D02*
X017648Y075460D01*
X017666Y075558D02*
X017617Y075558D01*
X017666Y075657D02*
X017553Y075657D01*
X017666Y075755D02*
X017406Y075755D01*
X017154Y075755D02*
X017013Y075755D01*
X016760Y075755D02*
X016619Y075755D01*
X016367Y075755D02*
X016225Y075755D01*
X015973Y075755D02*
X015438Y075755D01*
X015585Y075657D02*
X015603Y075657D01*
X015696Y075657D02*
X015714Y075657D01*
X015808Y075657D02*
X015826Y075657D01*
X015714Y075558D02*
X015696Y075558D01*
X015696Y075460D02*
X015714Y075460D01*
X015714Y075361D02*
X015696Y075361D01*
X015696Y075263D02*
X015714Y075263D01*
X015714Y075164D02*
X015696Y075164D01*
X015696Y075066D02*
X015714Y075066D01*
X015714Y074967D02*
X015696Y074967D01*
X015696Y074869D02*
X015714Y074869D01*
X015714Y074770D02*
X015696Y074770D01*
X015696Y074672D02*
X015714Y074672D01*
X015863Y074573D02*
X015548Y074573D01*
X015186Y075755D02*
X015044Y075755D01*
X014792Y075755D02*
X014650Y075755D01*
X014398Y075755D02*
X014257Y075755D01*
X014004Y075755D02*
X013863Y075755D01*
X013611Y075755D02*
X012682Y075755D01*
X012829Y075657D02*
X012847Y075657D01*
X012940Y075657D02*
X012958Y075657D01*
X013052Y075657D02*
X013241Y075657D01*
X013334Y075657D02*
X013352Y075657D01*
X013446Y075657D02*
X013464Y075657D01*
X013352Y075558D02*
X013334Y075558D01*
X013334Y075460D02*
X013352Y075460D01*
X013352Y075361D02*
X013334Y075361D01*
X013334Y075263D02*
X013352Y075263D01*
X013352Y075164D02*
X013334Y075164D01*
X013334Y075143D02*
X013334Y075124D01*
X012958Y075124D01*
X012958Y075143D01*
X013218Y075143D01*
X013334Y075143D01*
X013334Y075066D02*
X013352Y075066D01*
X013352Y074967D02*
X013334Y074967D01*
X013334Y074869D02*
X013352Y074869D01*
X013352Y074770D02*
X013334Y074770D01*
X013334Y074672D02*
X013352Y074672D01*
X013501Y074573D02*
X012792Y074573D01*
X012940Y074672D02*
X012958Y074672D01*
X012958Y074770D02*
X012940Y074770D01*
X012940Y074869D02*
X012958Y074869D01*
X012958Y074967D02*
X012940Y074967D01*
X012940Y075066D02*
X012958Y075066D01*
X012958Y075164D02*
X012940Y075164D01*
X012940Y075263D02*
X012958Y075263D01*
X012958Y075361D02*
X012940Y075361D01*
X012940Y075460D02*
X012958Y075460D01*
X012958Y075558D02*
X012940Y075558D01*
X012430Y075755D02*
X012288Y075755D01*
X012036Y075755D02*
X011894Y075755D01*
X011642Y075755D02*
X011501Y075755D01*
X011249Y075755D02*
X011107Y075755D01*
X010855Y075755D02*
X009258Y075755D01*
X009410Y075657D02*
X010708Y075657D01*
X010644Y075558D02*
X009486Y075558D01*
X009527Y075460D02*
X010613Y075460D01*
X010613Y075361D02*
X009535Y075361D01*
X009533Y075263D02*
X010613Y075263D01*
X010613Y075164D02*
X009492Y075164D01*
X009477Y075066D02*
X010613Y075066D01*
X010613Y074967D02*
X009477Y074967D01*
X009477Y074869D02*
X010613Y074869D01*
X010619Y074770D02*
X009476Y074770D01*
X009435Y074672D02*
X010660Y074672D01*
X010745Y074573D02*
X010253Y074573D01*
X010352Y074475D02*
X013103Y074475D01*
X013104Y074475D02*
X012894Y074388D01*
X012734Y074228D01*
X012647Y074019D01*
X012647Y072790D01*
X012647Y072800D02*
X009717Y072800D01*
X009769Y072899D02*
X012647Y072899D01*
X012647Y072997D02*
X009792Y072997D01*
X009778Y073096D02*
X012647Y073096D01*
X012647Y073194D02*
X009837Y073194D01*
X009878Y073293D02*
X012647Y073293D01*
X012647Y073391D02*
X009892Y073391D01*
X009886Y073490D02*
X010879Y073490D01*
X011303Y073490D02*
X012647Y073490D01*
X012647Y073588D02*
X011420Y073588D01*
X011481Y073687D02*
X012647Y073687D01*
X012647Y073785D02*
X011520Y073785D01*
X011520Y073884D02*
X012647Y073884D01*
X012647Y073982D02*
X011507Y073982D01*
X011466Y074081D02*
X012673Y074081D01*
X012714Y074179D02*
X011384Y074179D01*
X011216Y074278D02*
X012784Y074278D01*
X012882Y074376D02*
X010450Y074376D01*
X010549Y074278D02*
X010966Y074278D01*
X010192Y073588D02*
X009845Y073588D01*
X009759Y073687D02*
X010093Y073687D01*
X009995Y073785D02*
X009669Y073785D01*
X009669Y073884D02*
X009896Y073884D01*
X008812Y073884D02*
X007365Y073884D01*
X007365Y073785D02*
X008812Y073785D01*
X008738Y073687D02*
X007365Y073687D01*
X007328Y073588D02*
X008652Y073588D01*
X008611Y073490D02*
X007193Y073490D01*
X007238Y072505D02*
X005638Y072505D01*
X005488Y072505D02*
X005388Y072505D01*
X005388Y072406D02*
X005488Y072406D01*
X005488Y072308D02*
X005388Y072308D01*
X005388Y072209D02*
X005488Y072209D01*
X005488Y072111D02*
X005388Y072111D01*
X005388Y072012D02*
X005488Y072012D01*
X005488Y071914D02*
X007388Y071914D01*
X007388Y072012D02*
X007488Y072012D01*
X007488Y071914D02*
X008485Y071914D01*
X008485Y071815D02*
X008084Y071815D01*
X008065Y071717D02*
X008490Y071717D01*
X008522Y071618D02*
X008031Y071618D01*
X007976Y071520D02*
X008485Y071520D01*
X008485Y071421D02*
X007893Y071421D01*
X007763Y071323D02*
X008490Y071323D01*
X008531Y071224D02*
X008236Y071224D01*
X008370Y071126D02*
X008590Y071126D01*
X008688Y071027D02*
X008469Y071027D01*
X008567Y070929D02*
X008729Y070929D01*
X008779Y070830D02*
X008666Y070830D01*
X009240Y070830D02*
X009258Y070830D01*
X009240Y070913D02*
X009240Y070654D01*
X009258Y070654D01*
X009258Y070943D01*
X009240Y070943D01*
X009240Y070913D01*
X009240Y070929D02*
X009258Y070929D01*
X009240Y070732D02*
X009258Y070732D01*
X009718Y070830D02*
X010116Y070830D01*
X010116Y070732D02*
X009779Y070732D01*
X009792Y070633D02*
X010116Y070633D01*
X010116Y070535D02*
X009769Y070535D01*
X009846Y070436D02*
X010116Y070436D01*
X010116Y070338D02*
X009887Y070338D01*
X009892Y070239D02*
X010116Y070239D01*
X010116Y070141D02*
X009877Y070141D01*
X009836Y070042D02*
X010116Y070042D01*
X010116Y069944D02*
X009779Y069944D01*
X009792Y069845D02*
X010116Y069845D01*
X010116Y069747D02*
X009768Y069747D01*
X009719Y069648D02*
X010116Y069648D01*
X010116Y069550D02*
X009779Y069550D01*
X009792Y069455D02*
X009258Y069455D01*
X009258Y069080D01*
X009792Y069080D01*
X009792Y069097D01*
X009782Y069149D01*
X009762Y069198D01*
X009732Y069241D01*
X009707Y069267D01*
X009732Y069293D01*
X009762Y069337D01*
X009782Y069386D01*
X009792Y069438D01*
X009792Y069455D01*
X009792Y069451D02*
X010116Y069451D01*
X010116Y069416D02*
X010145Y069387D01*
X011801Y069387D01*
X011830Y069416D01*
X011830Y069457D01*
X011830Y071072D01*
X011801Y071101D01*
X010145Y071101D01*
X010116Y071072D01*
X010116Y069416D01*
X009768Y069353D02*
X012138Y069353D01*
X012138Y069451D02*
X011830Y069451D01*
X011830Y069550D02*
X012138Y069550D01*
X012138Y069648D02*
X011830Y069648D01*
X011830Y069747D02*
X012138Y069747D01*
X012138Y069845D02*
X011830Y069845D01*
X011830Y069944D02*
X012138Y069944D01*
X012138Y070042D02*
X011830Y070042D01*
X011830Y070141D02*
X012138Y070141D01*
X012138Y070239D02*
X011830Y070239D01*
X011830Y070338D02*
X012138Y070338D01*
X012138Y070436D02*
X011830Y070436D01*
X011830Y070535D02*
X012138Y070535D01*
X012155Y070633D02*
X011830Y070633D01*
X011830Y070732D02*
X012198Y070732D01*
X012296Y070830D02*
X011830Y070830D01*
X011830Y070929D02*
X012395Y070929D01*
X012545Y071027D02*
X011830Y071027D01*
X012878Y070307D02*
X015564Y070307D01*
X015564Y066666D01*
X015620Y066530D01*
X015817Y066333D01*
X015921Y066229D01*
X016057Y066173D01*
X016457Y066173D01*
X016450Y066156D01*
X016450Y066013D01*
X016420Y066013D01*
X016296Y065962D01*
X016172Y066013D01*
X016026Y066013D01*
X015902Y065962D01*
X015779Y066013D01*
X015632Y066013D01*
X015508Y065962D01*
X015385Y066013D01*
X015238Y066013D01*
X015115Y065962D01*
X014991Y066013D01*
X014845Y066013D01*
X014721Y065962D01*
X014597Y066013D01*
X014451Y066013D01*
X014327Y065962D01*
X014204Y066013D01*
X014057Y066013D01*
X013934Y065962D01*
X013810Y066013D01*
X013664Y066013D01*
X013540Y065962D01*
X013416Y066013D01*
X013270Y066013D01*
X013146Y065962D01*
X013023Y066013D01*
X012876Y066013D01*
X012753Y065962D01*
X012629Y066013D01*
X012483Y066013D01*
X012359Y065962D01*
X012235Y066013D01*
X012089Y066013D01*
X011965Y065962D01*
X011842Y066013D01*
X011695Y066013D01*
X011571Y065962D01*
X011448Y066013D01*
X011301Y066013D01*
X011178Y065962D01*
X011054Y066013D01*
X010908Y066013D01*
X010772Y065957D01*
X010669Y065854D01*
X010622Y065740D01*
X008797Y065740D01*
X008760Y065747D01*
X008724Y065740D01*
X008688Y065740D01*
X008653Y065725D01*
X008615Y065718D01*
X008585Y065697D01*
X008552Y065683D01*
X008525Y065657D01*
X008493Y065635D01*
X008473Y065605D01*
X008447Y065579D01*
X008433Y065544D01*
X008063Y064986D01*
X007733Y064986D01*
X007531Y064903D01*
X007377Y064748D01*
X007293Y064546D01*
X007293Y064327D01*
X007377Y064125D01*
X007531Y063970D01*
X007733Y063886D01*
X008552Y063886D01*
X008754Y063970D01*
X008909Y064125D01*
X008993Y064327D01*
X008993Y064546D01*
X008909Y064748D01*
X008839Y064818D01*
X008960Y065000D01*
X010622Y065000D01*
X010669Y064886D01*
X010772Y064782D01*
X010908Y064726D01*
X011054Y064726D01*
X011178Y064777D01*
X011301Y064726D01*
X011448Y064726D01*
X011571Y064777D01*
X011695Y064726D01*
X011842Y064726D01*
X011965Y064777D01*
X012089Y064726D01*
X012235Y064726D01*
X012359Y064777D01*
X012483Y064726D01*
X012629Y064726D01*
X012753Y064777D01*
X012876Y064726D01*
X013023Y064726D01*
X013146Y064777D01*
X013270Y064726D01*
X013416Y064726D01*
X013540Y064777D01*
X013595Y064754D01*
X013595Y063084D01*
X013652Y062948D01*
X013927Y062672D01*
X014031Y062568D01*
X014167Y062512D01*
X016804Y062512D01*
X017817Y061499D01*
X017778Y061499D01*
X017620Y061434D01*
X017509Y061322D01*
X010171Y061322D01*
X010339Y061491D01*
X010477Y061822D01*
X010477Y062182D01*
X010339Y062513D01*
X010085Y062767D01*
X009753Y062905D01*
X009394Y062905D01*
X009062Y062767D01*
X008809Y062513D01*
X008671Y062182D01*
X008671Y061822D01*
X008809Y061491D01*
X008977Y061322D01*
X008852Y061322D01*
X008716Y061266D01*
X008612Y061162D01*
X007513Y060063D01*
X006199Y060063D01*
X006058Y060121D01*
X005888Y060121D01*
X005730Y060056D01*
X005610Y059935D01*
X005545Y059778D01*
X005545Y059608D01*
X005520Y059608D01*
X005428Y059570D01*
X005358Y059500D01*
X005320Y059408D01*
X005320Y058809D01*
X005358Y058717D01*
X005428Y058646D01*
X005520Y058608D01*
X005428Y058570D01*
X005358Y058500D01*
X005320Y058408D01*
X005320Y057809D01*
X005358Y057717D01*
X005428Y057646D01*
X005520Y057608D01*
X005428Y057570D01*
X005358Y057500D01*
X005320Y057408D01*
X005320Y056809D01*
X005358Y056717D01*
X005428Y056646D01*
X005520Y056608D01*
X006620Y056608D01*
X006712Y056646D01*
X006782Y056717D01*
X006820Y056809D01*
X006820Y056867D01*
X008437Y058484D01*
X008578Y058542D01*
X008698Y058663D01*
X008757Y058804D01*
X009670Y059716D01*
X017946Y059716D01*
X018401Y059261D01*
X018537Y059204D01*
X019133Y059204D01*
X019274Y059146D01*
X019444Y059146D01*
X019602Y059211D01*
X019722Y059332D01*
X019787Y059489D01*
X019787Y059528D01*
X020592Y058724D01*
X020592Y058674D01*
X020570Y058683D01*
X019998Y058683D01*
X019906Y058645D01*
X019871Y058609D01*
X019835Y058645D01*
X019743Y058683D01*
X019171Y058683D01*
X019079Y058645D01*
X019009Y058574D01*
X018971Y058482D01*
X018971Y057911D01*
X019009Y057819D01*
X019079Y057748D01*
X019087Y057745D01*
X019087Y057741D01*
X018993Y057647D01*
X018926Y057484D01*
X018858Y057647D01*
X018804Y057701D01*
X018804Y057745D01*
X018812Y057748D01*
X018882Y057819D01*
X018920Y057911D01*
X018920Y058482D01*
X018882Y058574D01*
X018812Y058645D01*
X018720Y058683D01*
X018148Y058683D01*
X018056Y058645D01*
X018020Y058609D01*
X017985Y058645D01*
X017893Y058683D01*
X017321Y058683D01*
X017229Y058645D01*
X017159Y058574D01*
X017121Y058482D01*
X017121Y057911D01*
X017159Y057819D01*
X017229Y057748D01*
X017237Y057745D01*
X017237Y056425D01*
X017132Y056529D01*
X016968Y056597D01*
X016789Y056597D01*
X016625Y056529D01*
X016499Y056403D01*
X016430Y056238D01*
X016430Y056060D01*
X016499Y055895D01*
X016509Y055886D01*
X016509Y052606D01*
X005124Y052606D01*
X005124Y063907D01*
X005173Y063886D01*
X005992Y063886D01*
X006194Y063970D01*
X006349Y064125D01*
X006433Y064327D01*
X006433Y064546D01*
X006349Y064748D01*
X006194Y064903D01*
X005992Y064986D01*
X005173Y064986D01*
X005124Y064966D01*
X005124Y065795D01*
X005177Y065778D01*
X005247Y065766D01*
X005533Y065766D01*
X005533Y066166D01*
X005633Y066166D01*
X005633Y065766D01*
X005918Y065766D01*
X005988Y065778D01*
X006056Y065799D01*
X006119Y065832D01*
X006176Y065873D01*
X006226Y065923D01*
X006268Y065981D01*
X006300Y066044D01*
X006322Y066111D01*
X006331Y066166D01*
X005633Y066166D01*
X005633Y066266D01*
X006331Y066266D01*
X006322Y066322D01*
X006300Y066389D01*
X006268Y066452D01*
X006226Y066510D01*
X006176Y066560D01*
X006119Y066601D01*
X006056Y066633D01*
X005988Y066655D01*
X005918Y066666D01*
X005633Y066666D01*
X005633Y066266D01*
X005533Y066266D01*
X005533Y066666D01*
X005247Y066666D01*
X005177Y066655D01*
X005124Y066638D01*
X005124Y066987D01*
X005134Y066977D01*
X005270Y066921D01*
X005668Y066921D01*
X005809Y066863D01*
X005980Y066863D01*
X006137Y066928D01*
X006258Y067048D01*
X006323Y067206D01*
X006323Y067376D01*
X006258Y067534D01*
X006137Y067654D01*
X005980Y067719D01*
X005809Y067719D01*
X005668Y067661D01*
X005595Y067661D01*
X005595Y067826D01*
X005623Y067837D01*
X005691Y067809D01*
X006302Y067809D01*
X006394Y067847D01*
X006465Y067917D01*
X006503Y068009D01*
X006503Y068181D01*
X006731Y068181D01*
X006731Y067540D01*
X006769Y067449D01*
X006839Y067378D01*
X006867Y067367D01*
X006867Y067174D01*
X006923Y067038D01*
X007008Y066953D01*
X007067Y066812D01*
X007187Y066692D01*
X007345Y066626D01*
X007515Y066626D01*
X007672Y066692D01*
X007793Y066812D01*
X007858Y066970D01*
X007858Y066976D01*
X007893Y066891D01*
X008014Y066770D01*
X008171Y066705D01*
X008342Y066705D01*
X008499Y066770D01*
X008620Y066891D01*
X008641Y066942D01*
X008661Y066894D01*
X008765Y066790D01*
X008900Y066734D01*
X009597Y066734D01*
X009733Y066790D01*
X009836Y066894D01*
X009892Y067029D01*
X009892Y067175D01*
X009841Y067299D01*
X009892Y067423D01*
X009892Y067497D01*
X009978Y067461D01*
X010149Y067461D01*
X010306Y067526D01*
X010427Y067647D01*
X010492Y067804D01*
X010492Y067975D01*
X010427Y068132D01*
X010306Y068253D01*
X010244Y068278D01*
X010294Y068299D01*
X012464Y068299D01*
X012600Y068355D01*
X012704Y068459D01*
X012718Y068473D01*
X012793Y068548D01*
X012793Y066975D01*
X012822Y066946D01*
X015443Y066946D01*
X015472Y066975D01*
X015472Y069989D01*
X015443Y070018D01*
X012878Y070018D01*
X012878Y070307D01*
X012878Y070239D02*
X015564Y070239D01*
X015564Y070141D02*
X012878Y070141D01*
X012878Y070042D02*
X015564Y070042D01*
X015564Y069944D02*
X015472Y069944D01*
X015472Y069845D02*
X015564Y069845D01*
X015564Y069747D02*
X015472Y069747D01*
X015472Y069648D02*
X015564Y069648D01*
X015564Y069550D02*
X015472Y069550D01*
X015472Y069451D02*
X015564Y069451D01*
X015564Y069353D02*
X015472Y069353D01*
X015472Y069254D02*
X015564Y069254D01*
X015564Y069156D02*
X015472Y069156D01*
X015472Y069057D02*
X015564Y069057D01*
X015564Y068959D02*
X015472Y068959D01*
X015472Y068860D02*
X015564Y068860D01*
X015564Y068762D02*
X015472Y068762D01*
X015472Y068663D02*
X015564Y068663D01*
X015564Y068565D02*
X015472Y068565D01*
X015472Y068466D02*
X015564Y068466D01*
X015564Y068368D02*
X015472Y068368D01*
X015472Y068269D02*
X015564Y068269D01*
X015564Y068171D02*
X015472Y068171D01*
X015472Y068072D02*
X015564Y068072D01*
X015564Y067974D02*
X015472Y067974D01*
X015472Y067875D02*
X015564Y067875D01*
X015564Y067777D02*
X015472Y067777D01*
X015472Y067678D02*
X015564Y067678D01*
X015564Y067580D02*
X015472Y067580D01*
X015472Y067481D02*
X015564Y067481D01*
X015564Y067383D02*
X015472Y067383D01*
X015472Y067284D02*
X015564Y067284D01*
X015564Y067186D02*
X015472Y067186D01*
X015472Y067087D02*
X015564Y067087D01*
X015564Y066989D02*
X015472Y066989D01*
X015564Y066890D02*
X009833Y066890D01*
X009876Y066989D02*
X012793Y066989D01*
X012793Y067087D02*
X009892Y067087D01*
X009888Y067186D02*
X012793Y067186D01*
X012793Y067284D02*
X009847Y067284D01*
X009876Y067383D02*
X012793Y067383D01*
X012793Y067481D02*
X010198Y067481D01*
X010360Y067580D02*
X012793Y067580D01*
X012793Y067678D02*
X010440Y067678D01*
X010481Y067777D02*
X012793Y067777D01*
X012793Y067875D02*
X010492Y067875D01*
X010492Y067974D02*
X012793Y067974D01*
X012793Y068072D02*
X010452Y068072D01*
X010388Y068171D02*
X012793Y068171D01*
X012793Y068269D02*
X010266Y068269D01*
X009887Y068280D02*
X009837Y068259D01*
X009792Y068259D01*
X009792Y068274D01*
X009258Y068274D01*
X009258Y068292D01*
X009792Y068292D01*
X009792Y068310D01*
X009785Y068345D01*
X009825Y068306D01*
X009887Y068280D01*
X009861Y068269D02*
X009792Y068269D01*
X009258Y068292D02*
X009240Y068292D01*
X009240Y068409D01*
X009240Y068668D01*
X009258Y068668D01*
X009258Y068292D01*
X009240Y068292D02*
X009240Y068274D01*
X008705Y068274D01*
X008705Y068257D01*
X008715Y068205D01*
X008731Y068168D01*
X008661Y068098D01*
X008605Y067963D01*
X008605Y067816D01*
X008656Y067693D01*
X008605Y067569D01*
X008605Y067423D01*
X008656Y067299D01*
X008654Y067294D01*
X008620Y067376D01*
X008499Y067497D01*
X008477Y067506D01*
X008491Y067540D01*
X008491Y068270D01*
X008485Y068284D01*
X008539Y068306D01*
X008659Y068426D01*
X008723Y068580D01*
X008735Y068550D01*
X008765Y068506D01*
X008791Y068480D01*
X008765Y068454D01*
X008735Y068410D01*
X008715Y068361D01*
X008705Y068310D01*
X008705Y068292D01*
X009240Y068292D01*
X009240Y068368D02*
X009258Y068368D01*
X009258Y068466D02*
X009240Y068466D01*
X009240Y068565D02*
X009258Y068565D01*
X009258Y068663D02*
X009240Y068663D01*
X009240Y068762D02*
X009258Y068762D01*
X009258Y068860D02*
X009240Y068860D01*
X009240Y068959D02*
X009258Y068959D01*
X009258Y069057D02*
X009240Y069057D01*
X009240Y069156D02*
X009258Y069156D01*
X009258Y069254D02*
X009240Y069254D01*
X009240Y069353D02*
X009258Y069353D01*
X009258Y069451D02*
X009240Y069451D01*
X009240Y069550D02*
X009258Y069550D01*
X009258Y069648D02*
X009240Y069648D01*
X009240Y069747D02*
X009258Y069747D01*
X009258Y069845D02*
X009240Y069845D01*
X008778Y069648D02*
X008043Y069648D01*
X008073Y069747D02*
X008729Y069747D01*
X008705Y069845D02*
X007488Y069845D01*
X007488Y069747D02*
X007388Y069747D01*
X007388Y069835D02*
X007388Y069236D01*
X007311Y069247D01*
X007228Y069269D01*
X007150Y069301D01*
X007076Y069344D01*
X007008Y069396D01*
X006948Y069456D01*
X006896Y069524D01*
X006853Y069597D01*
X006821Y069676D01*
X006799Y069758D01*
X006789Y069835D01*
X007388Y069835D01*
X007388Y069845D02*
X005488Y069845D01*
X005488Y069747D02*
X005388Y069747D01*
X005388Y069648D02*
X005488Y069648D01*
X005488Y069550D02*
X005388Y069550D01*
X005388Y069451D02*
X005488Y069451D01*
X005488Y069353D02*
X005388Y069353D01*
X005388Y069254D02*
X005488Y069254D01*
X005593Y069254D02*
X007282Y069254D01*
X007388Y069254D02*
X007488Y069254D01*
X007488Y069353D02*
X007388Y069353D01*
X007388Y069451D02*
X007488Y069451D01*
X007488Y069550D02*
X007388Y069550D01*
X007388Y069648D02*
X007488Y069648D01*
X007593Y069254D02*
X008778Y069254D01*
X008729Y069353D02*
X007811Y069353D01*
X007923Y069451D02*
X008705Y069451D01*
X008718Y069550D02*
X007994Y069550D01*
X008114Y069057D02*
X005124Y069057D01*
X005124Y068959D02*
X007980Y068959D01*
X008478Y069057D02*
X008705Y069057D01*
X008718Y069156D02*
X005124Y069156D01*
X005124Y069254D02*
X005282Y069254D01*
X005811Y069353D02*
X007064Y069353D01*
X006953Y069451D02*
X005923Y069451D01*
X005994Y069550D02*
X006881Y069550D01*
X006832Y069648D02*
X006043Y069648D01*
X006073Y069747D02*
X006802Y069747D01*
X006790Y069944D02*
X006086Y069944D01*
X006069Y070042D02*
X006807Y070042D01*
X006840Y070141D02*
X006600Y070141D01*
X006837Y070239D02*
X006891Y070239D01*
X006951Y070338D02*
X006971Y070338D01*
X007049Y070436D02*
X007092Y070436D01*
X006276Y070141D02*
X006035Y070141D01*
X006038Y070239D02*
X005984Y070239D01*
X005925Y070338D02*
X005905Y070338D01*
X005826Y070436D02*
X005784Y070436D01*
X005771Y070535D02*
X005124Y070535D01*
X005124Y070633D02*
X005730Y070633D01*
X005689Y070732D02*
X005124Y070732D01*
X005124Y070830D02*
X005688Y070830D01*
X005688Y070929D02*
X005124Y070929D01*
X005124Y071027D02*
X005688Y071027D01*
X005725Y071126D02*
X005124Y071126D01*
X005124Y071224D02*
X005766Y071224D01*
X005763Y071323D02*
X005814Y071323D01*
X005893Y071421D02*
X005913Y071421D01*
X005976Y071520D02*
X006011Y071520D01*
X006031Y071618D02*
X006247Y071618D01*
X006065Y071717D02*
X006810Y071717D01*
X006791Y071815D02*
X006084Y071815D01*
X006077Y072012D02*
X006799Y072012D01*
X006827Y072111D02*
X006048Y072111D01*
X006001Y072209D02*
X006874Y072209D01*
X006942Y072308D02*
X005933Y072308D01*
X005827Y072406D02*
X007049Y072406D01*
X007388Y072406D02*
X007488Y072406D01*
X007488Y072308D02*
X007388Y072308D01*
X007388Y072209D02*
X007488Y072209D01*
X007488Y072111D02*
X007388Y072111D01*
X007388Y072505D02*
X007488Y072505D01*
X007638Y072505D02*
X008567Y072505D01*
X008522Y072406D02*
X007827Y072406D01*
X007933Y072308D02*
X008485Y072308D01*
X008485Y072209D02*
X008001Y072209D01*
X008048Y072111D02*
X008490Y072111D01*
X008522Y072012D02*
X008077Y072012D01*
X008666Y072603D02*
X005124Y072603D01*
X005124Y072505D02*
X005238Y072505D01*
X005124Y072702D02*
X008719Y072702D01*
X008780Y072800D02*
X005124Y072800D01*
X005124Y072899D02*
X008728Y072899D01*
X008705Y072997D02*
X005900Y072997D01*
X005822Y072965D02*
X005980Y073030D01*
X006100Y073151D01*
X006165Y073308D01*
X006165Y073479D01*
X006151Y073513D01*
X006185Y073547D01*
X006223Y073639D01*
X006223Y074211D01*
X006185Y074303D01*
X006149Y074338D01*
X006185Y074374D01*
X006223Y074466D01*
X006223Y075038D01*
X006185Y075129D01*
X006116Y075198D01*
X006165Y075316D01*
X006165Y075486D01*
X006100Y075644D01*
X005980Y075764D01*
X005822Y075830D01*
X005652Y075830D01*
X005494Y075764D01*
X005374Y075644D01*
X005308Y075486D01*
X005308Y075316D01*
X005357Y075198D01*
X005289Y075129D01*
X005251Y075038D01*
X005251Y074466D01*
X005289Y074374D01*
X005324Y074338D01*
X005289Y074303D01*
X005251Y074211D01*
X005251Y073639D01*
X005289Y073547D01*
X005323Y073513D01*
X005308Y073479D01*
X005308Y073308D01*
X005374Y073151D01*
X005494Y073030D01*
X005652Y072965D01*
X005822Y072965D01*
X005573Y072997D02*
X005124Y072997D01*
X005124Y073096D02*
X005429Y073096D01*
X005356Y073194D02*
X005124Y073194D01*
X005124Y073293D02*
X005315Y073293D01*
X005308Y073391D02*
X005124Y073391D01*
X005124Y073490D02*
X005313Y073490D01*
X005272Y073588D02*
X005124Y073588D01*
X005124Y073687D02*
X005251Y073687D01*
X005251Y073785D02*
X005124Y073785D01*
X005124Y073884D02*
X005251Y073884D01*
X005251Y073982D02*
X005124Y073982D01*
X005124Y074081D02*
X005251Y074081D01*
X005251Y074179D02*
X005124Y074179D01*
X005124Y074278D02*
X005278Y074278D01*
X005288Y074376D02*
X005124Y074376D01*
X005124Y074475D02*
X005251Y074475D01*
X005251Y074573D02*
X005124Y074573D01*
X005124Y074672D02*
X005251Y074672D01*
X005251Y074770D02*
X005124Y074770D01*
X005124Y074869D02*
X005251Y074869D01*
X005251Y074967D02*
X005124Y074967D01*
X005124Y075066D02*
X005262Y075066D01*
X005324Y075164D02*
X005124Y075164D01*
X005124Y075263D02*
X005330Y075263D01*
X005308Y075361D02*
X005124Y075361D01*
X005124Y075460D02*
X005308Y075460D01*
X005338Y075558D02*
X005124Y075558D01*
X005124Y075657D02*
X005387Y075657D01*
X005485Y075755D02*
X005124Y075755D01*
X005124Y075854D02*
X017666Y075854D01*
X017666Y075952D02*
X005124Y075952D01*
X005124Y076051D02*
X017666Y076051D01*
X017666Y076149D02*
X005124Y076149D01*
X005124Y076248D02*
X017666Y076248D01*
X017666Y076346D02*
X005124Y076346D01*
X005124Y076445D02*
X017666Y076445D01*
X017666Y076543D02*
X005124Y076543D01*
X005124Y076642D02*
X017666Y076642D01*
X017666Y076740D02*
X005124Y076740D01*
X005124Y076839D02*
X017666Y076839D01*
X017666Y076937D02*
X005124Y076937D01*
X005124Y077036D02*
X017666Y077036D01*
X017666Y077134D02*
X005124Y077134D01*
X005124Y077233D02*
X017666Y077233D01*
X017666Y077331D02*
X005124Y077331D01*
X005124Y077430D02*
X017666Y077430D01*
X017666Y077528D02*
X006064Y077528D01*
X006346Y077627D02*
X017666Y077627D01*
X017666Y077725D02*
X006517Y077725D01*
X006616Y077824D02*
X017666Y077824D01*
X017666Y077922D02*
X006714Y077922D01*
X006773Y078021D02*
X017666Y078021D01*
X017666Y078119D02*
X006830Y078119D01*
X005645Y077528D02*
X005124Y077528D01*
X005124Y077627D02*
X005364Y077627D01*
X005193Y077725D02*
X005124Y077725D01*
X005989Y075755D02*
X008956Y075755D01*
X008804Y075657D02*
X006087Y075657D01*
X006135Y075558D02*
X008728Y075558D01*
X008687Y075460D02*
X006165Y075460D01*
X006165Y075361D02*
X008678Y075361D01*
X008681Y075263D02*
X007199Y075263D01*
X007329Y075164D02*
X008722Y075164D01*
X008605Y073391D02*
X006165Y073391D01*
X006159Y073293D02*
X008620Y073293D01*
X008660Y073194D02*
X006118Y073194D01*
X006045Y073096D02*
X008719Y073096D01*
X009240Y072997D02*
X009258Y072997D01*
X009258Y072899D02*
X009240Y072899D01*
X009240Y072800D02*
X009258Y072800D01*
X009976Y071618D02*
X017407Y071618D01*
X017316Y071520D02*
X010012Y071520D01*
X010012Y071421D02*
X017218Y071421D01*
X017119Y071323D02*
X010007Y071323D01*
X009966Y071224D02*
X017054Y071224D01*
X017020Y071126D02*
X009908Y071126D01*
X009809Y071027D02*
X010116Y071027D01*
X010116Y070929D02*
X009769Y070929D01*
X008512Y069938D02*
X008407Y070042D01*
X008309Y070141D02*
X008035Y070141D01*
X007984Y070239D02*
X008210Y070239D01*
X008112Y070338D02*
X007905Y070338D01*
X008013Y070436D02*
X007784Y070436D01*
X007112Y071323D02*
X007061Y071323D01*
X006983Y071421D02*
X006962Y071421D01*
X006899Y071520D02*
X006864Y071520D01*
X006845Y071618D02*
X006628Y071618D01*
X006564Y073490D02*
X006161Y073490D01*
X006202Y073588D02*
X006430Y073588D01*
X006392Y073687D02*
X006223Y073687D01*
X006223Y073785D02*
X006392Y073785D01*
X006392Y073884D02*
X006223Y073884D01*
X006223Y073982D02*
X006392Y073982D01*
X006392Y074081D02*
X006223Y074081D01*
X006223Y074179D02*
X006392Y074179D01*
X006404Y074278D02*
X006195Y074278D01*
X006186Y074376D02*
X006465Y074376D01*
X006405Y074475D02*
X006223Y074475D01*
X006223Y074573D02*
X006392Y074573D01*
X006392Y074672D02*
X006223Y074672D01*
X006223Y074770D02*
X006392Y074770D01*
X006392Y074869D02*
X006223Y074869D01*
X006223Y074967D02*
X006392Y074967D01*
X006392Y075066D02*
X006211Y075066D01*
X006150Y075164D02*
X006429Y075164D01*
X006558Y075263D02*
X006143Y075263D01*
X005488Y071815D02*
X005388Y071815D01*
X005388Y071717D02*
X005488Y071717D01*
X005488Y071618D02*
X005388Y071618D01*
X005388Y071520D02*
X005488Y071520D01*
X005488Y071421D02*
X005388Y071421D01*
X005388Y071323D02*
X005488Y071323D01*
X005488Y070436D02*
X005388Y070436D01*
X005388Y070338D02*
X005488Y070338D01*
X005488Y070239D02*
X005388Y070239D01*
X005388Y070141D02*
X005488Y070141D01*
X005488Y070042D02*
X005388Y070042D01*
X005388Y069944D02*
X005488Y069944D01*
X006503Y068171D02*
X006731Y068171D01*
X006731Y068072D02*
X006503Y068072D01*
X006488Y067974D02*
X006731Y067974D01*
X006731Y067875D02*
X006423Y067875D01*
X006731Y067777D02*
X005595Y067777D01*
X005595Y067678D02*
X005710Y067678D01*
X006079Y067678D02*
X006731Y067678D01*
X006731Y067580D02*
X006211Y067580D01*
X006279Y067481D02*
X006755Y067481D01*
X006835Y067383D02*
X006320Y067383D01*
X006323Y067284D02*
X006867Y067284D01*
X006867Y067186D02*
X006314Y067186D01*
X006274Y067087D02*
X006903Y067087D01*
X006972Y066989D02*
X006198Y066989D01*
X006046Y066890D02*
X007034Y066890D01*
X007087Y066792D02*
X005124Y066792D01*
X005124Y066890D02*
X005742Y066890D01*
X005633Y066595D02*
X005533Y066595D01*
X005533Y066496D02*
X005633Y066496D01*
X005633Y066398D02*
X005533Y066398D01*
X005533Y066299D02*
X005633Y066299D01*
X005633Y066201D02*
X008093Y066201D01*
X008093Y066166D02*
X007395Y066166D01*
X007404Y066111D01*
X007426Y066044D01*
X007458Y065981D01*
X007500Y065923D01*
X007550Y065873D01*
X007607Y065832D01*
X007670Y065799D01*
X007737Y065778D01*
X007807Y065766D01*
X008093Y065766D01*
X008093Y066166D01*
X008193Y066166D01*
X008193Y065766D01*
X008478Y065766D01*
X008548Y065778D01*
X008616Y065799D01*
X008679Y065832D01*
X008736Y065873D01*
X008786Y065923D01*
X008828Y065981D01*
X008860Y066044D01*
X008882Y066111D01*
X008891Y066166D01*
X008193Y066166D01*
X008193Y066266D01*
X008891Y066266D01*
X008882Y066322D01*
X008860Y066389D01*
X008828Y066452D01*
X008786Y066510D01*
X008736Y066560D01*
X008679Y066601D01*
X008616Y066633D01*
X008548Y066655D01*
X008478Y066666D01*
X008193Y066666D01*
X008193Y066266D01*
X008093Y066266D01*
X008093Y066166D01*
X008093Y066102D02*
X008193Y066102D01*
X008193Y066004D02*
X008093Y066004D01*
X008093Y065905D02*
X008193Y065905D01*
X008193Y065807D02*
X008093Y065807D01*
X008193Y066201D02*
X015990Y066201D01*
X015851Y066299D02*
X008885Y066299D01*
X008855Y066398D02*
X015752Y066398D01*
X015654Y066496D02*
X008796Y066496D01*
X008688Y066595D02*
X015593Y066595D01*
X015564Y066693D02*
X007674Y066693D01*
X007670Y066633D02*
X007607Y066601D01*
X007550Y066560D01*
X007500Y066510D01*
X007458Y066452D01*
X007426Y066389D01*
X007404Y066322D01*
X007395Y066266D01*
X008093Y066266D01*
X008093Y066666D01*
X007807Y066666D01*
X007737Y066655D01*
X007670Y066633D01*
X007598Y066595D02*
X006128Y066595D01*
X006236Y066496D02*
X007490Y066496D01*
X007430Y066398D02*
X006295Y066398D01*
X006325Y066299D02*
X007400Y066299D01*
X007407Y066102D02*
X006319Y066102D01*
X006280Y066004D02*
X007446Y066004D01*
X007518Y065905D02*
X006208Y065905D01*
X006070Y065807D02*
X007656Y065807D01*
X008093Y066299D02*
X008193Y066299D01*
X008193Y066398D02*
X008093Y066398D01*
X008093Y066496D02*
X008193Y066496D01*
X008193Y066595D02*
X008093Y066595D01*
X007992Y066792D02*
X007773Y066792D01*
X007825Y066890D02*
X007894Y066890D01*
X008521Y066792D02*
X008763Y066792D01*
X008664Y066890D02*
X008619Y066890D01*
X008613Y067383D02*
X008621Y067383D01*
X008605Y067481D02*
X008515Y067481D01*
X008491Y067580D02*
X008609Y067580D01*
X008650Y067678D02*
X008491Y067678D01*
X008491Y067777D02*
X008621Y067777D01*
X008605Y067875D02*
X008491Y067875D01*
X008491Y067974D02*
X008610Y067974D01*
X008650Y068072D02*
X008491Y068072D01*
X008491Y068171D02*
X008729Y068171D01*
X008705Y068269D02*
X008491Y068269D01*
X008601Y068368D02*
X008718Y068368D01*
X008676Y068466D02*
X008777Y068466D01*
X008729Y068565D02*
X008716Y068565D01*
X008680Y068860D02*
X008777Y068860D01*
X008729Y068959D02*
X008612Y068959D01*
X009720Y069254D02*
X012138Y069254D01*
X012138Y069156D02*
X009779Y069156D01*
X009792Y069057D02*
X009886Y069057D01*
X010250Y069057D02*
X012138Y069057D01*
X012711Y068466D02*
X012793Y068466D01*
X012793Y068368D02*
X012612Y068368D01*
X012652Y066004D02*
X012853Y066004D01*
X013046Y066004D02*
X013247Y066004D01*
X013440Y066004D02*
X013640Y066004D01*
X013833Y066004D02*
X014034Y066004D01*
X014227Y066004D02*
X014428Y066004D01*
X014621Y066004D02*
X014821Y066004D01*
X015014Y066004D02*
X015215Y066004D01*
X015408Y066004D02*
X015609Y066004D01*
X015802Y066004D02*
X016003Y066004D01*
X016196Y066004D02*
X016396Y066004D01*
X016450Y066102D02*
X008879Y066102D01*
X008840Y066004D02*
X010884Y066004D01*
X010720Y065905D02*
X008768Y065905D01*
X008630Y065807D02*
X010649Y065807D01*
X011077Y066004D02*
X011278Y066004D01*
X011471Y066004D02*
X011672Y066004D01*
X011865Y066004D02*
X012066Y066004D01*
X012259Y066004D02*
X012459Y066004D01*
X013595Y064723D02*
X008919Y064723D01*
X008960Y064625D02*
X013595Y064625D01*
X013595Y064526D02*
X008993Y064526D01*
X008993Y064428D02*
X013595Y064428D01*
X013595Y064329D02*
X008993Y064329D01*
X008953Y064231D02*
X013595Y064231D01*
X013595Y064132D02*
X008912Y064132D01*
X008818Y064034D02*
X013595Y064034D01*
X013595Y063935D02*
X008670Y063935D01*
X008842Y064822D02*
X010733Y064822D01*
X010655Y064920D02*
X008907Y064920D01*
X008281Y065314D02*
X005124Y065314D01*
X005124Y065216D02*
X008215Y065216D01*
X008150Y065117D02*
X005124Y065117D01*
X005124Y065019D02*
X008085Y065019D01*
X008346Y065413D02*
X005124Y065413D01*
X005124Y065511D02*
X008411Y065511D01*
X008476Y065610D02*
X005124Y065610D01*
X005124Y065708D02*
X008601Y065708D01*
X007574Y064920D02*
X006152Y064920D01*
X006275Y064822D02*
X007450Y064822D01*
X007366Y064723D02*
X006359Y064723D01*
X006400Y064625D02*
X007326Y064625D01*
X007293Y064526D02*
X006433Y064526D01*
X006433Y064428D02*
X007293Y064428D01*
X007293Y064329D02*
X006433Y064329D01*
X006393Y064231D02*
X007333Y064231D01*
X007373Y064132D02*
X006352Y064132D01*
X006258Y064034D02*
X007468Y064034D01*
X007615Y063935D02*
X006110Y063935D01*
X005124Y063837D02*
X013595Y063837D01*
X013595Y063738D02*
X005124Y063738D01*
X005124Y063640D02*
X013595Y063640D01*
X013595Y063541D02*
X005124Y063541D01*
X005124Y063443D02*
X013595Y063443D01*
X013595Y063344D02*
X005124Y063344D01*
X005124Y063246D02*
X013595Y063246D01*
X013595Y063147D02*
X005124Y063147D01*
X005124Y063049D02*
X013610Y063049D01*
X013650Y062950D02*
X005124Y062950D01*
X005124Y062852D02*
X009266Y062852D01*
X009048Y062753D02*
X005124Y062753D01*
X005124Y062655D02*
X008950Y062655D01*
X008851Y062556D02*
X005124Y062556D01*
X005124Y062458D02*
X008785Y062458D01*
X008745Y062359D02*
X005124Y062359D01*
X005124Y062261D02*
X008704Y062261D01*
X008671Y062162D02*
X005124Y062162D01*
X005124Y062064D02*
X008671Y062064D01*
X008671Y061965D02*
X005124Y061965D01*
X005124Y061867D02*
X008671Y061867D01*
X008694Y061768D02*
X005124Y061768D01*
X005124Y061670D02*
X008734Y061670D01*
X008775Y061571D02*
X005124Y061571D01*
X005124Y061473D02*
X008826Y061473D01*
X008925Y061374D02*
X005124Y061374D01*
X005124Y061276D02*
X008740Y061276D01*
X008627Y061177D02*
X005124Y061177D01*
X005124Y061079D02*
X008529Y061079D01*
X008430Y060980D02*
X005124Y060980D01*
X005124Y060882D02*
X008332Y060882D01*
X008233Y060783D02*
X005124Y060783D01*
X005124Y060685D02*
X008135Y060685D01*
X008036Y060586D02*
X005124Y060586D01*
X005124Y060488D02*
X007938Y060488D01*
X007839Y060389D02*
X005124Y060389D01*
X005124Y060291D02*
X007741Y060291D01*
X007642Y060192D02*
X005124Y060192D01*
X005124Y060094D02*
X005822Y060094D01*
X005670Y059995D02*
X005124Y059995D01*
X005124Y059897D02*
X005594Y059897D01*
X005553Y059798D02*
X005124Y059798D01*
X005124Y059700D02*
X005545Y059700D01*
X005503Y059601D02*
X005124Y059601D01*
X005124Y059503D02*
X005361Y059503D01*
X005320Y059404D02*
X005124Y059404D01*
X005124Y059306D02*
X005320Y059306D01*
X005320Y059207D02*
X005124Y059207D01*
X005124Y059109D02*
X005320Y059109D01*
X005320Y059010D02*
X005124Y059010D01*
X005124Y058912D02*
X005320Y058912D01*
X005320Y058813D02*
X005124Y058813D01*
X005124Y058715D02*
X005360Y058715D01*
X005501Y058616D02*
X005124Y058616D01*
X005124Y058518D02*
X005376Y058518D01*
X005325Y058419D02*
X005124Y058419D01*
X005124Y058321D02*
X005320Y058321D01*
X005320Y058222D02*
X005124Y058222D01*
X005124Y058124D02*
X005320Y058124D01*
X005320Y058025D02*
X005124Y058025D01*
X005124Y057927D02*
X005320Y057927D01*
X005320Y057828D02*
X005124Y057828D01*
X005124Y057730D02*
X005353Y057730D01*
X005465Y057631D02*
X005124Y057631D01*
X005124Y057533D02*
X005391Y057533D01*
X005331Y057434D02*
X005124Y057434D01*
X005124Y057336D02*
X005320Y057336D01*
X005320Y057237D02*
X005124Y057237D01*
X005124Y057139D02*
X005320Y057139D01*
X005320Y057040D02*
X005124Y057040D01*
X005124Y056942D02*
X005320Y056942D01*
X005320Y056843D02*
X005124Y056843D01*
X005124Y056745D02*
X005346Y056745D01*
X005429Y056646D02*
X005124Y056646D01*
X005124Y056548D02*
X013398Y056548D01*
X013398Y056646D02*
X006711Y056646D01*
X006793Y056745D02*
X013398Y056745D01*
X013398Y056843D02*
X006820Y056843D01*
X006895Y056942D02*
X013384Y056942D01*
X013398Y056907D02*
X013398Y056021D01*
X013340Y055880D01*
X013340Y055710D01*
X013405Y055552D01*
X013526Y055432D01*
X013683Y055367D01*
X013854Y055367D01*
X014011Y055432D01*
X014132Y055552D01*
X014197Y055710D01*
X014197Y055880D01*
X014138Y056021D01*
X014138Y056907D01*
X014197Y057048D01*
X014197Y057219D01*
X014132Y057376D01*
X014011Y057497D01*
X013854Y057562D01*
X013683Y057562D01*
X013526Y057497D01*
X013405Y057376D01*
X013340Y057219D01*
X013340Y057048D01*
X013398Y056907D01*
X013343Y057040D02*
X006994Y057040D01*
X007092Y057139D02*
X013340Y057139D01*
X013348Y057237D02*
X007191Y057237D01*
X007289Y057336D02*
X013388Y057336D01*
X013463Y057434D02*
X007388Y057434D01*
X007486Y057533D02*
X013613Y057533D01*
X013924Y057533D02*
X014788Y057533D01*
X014756Y057500D02*
X014718Y057408D01*
X014718Y056809D01*
X014756Y056717D01*
X014826Y056646D01*
X014138Y056646D01*
X014138Y056548D02*
X016670Y056548D01*
X016649Y056692D02*
X016769Y056812D01*
X016835Y056970D01*
X016835Y057140D01*
X016769Y057297D01*
X016649Y057418D01*
X016491Y057483D01*
X016321Y057483D01*
X016276Y057465D01*
X016194Y057465D01*
X016179Y057500D01*
X016109Y057570D01*
X016017Y057608D01*
X016109Y057646D01*
X016179Y057717D01*
X016218Y057809D01*
X016218Y058408D01*
X016179Y058500D01*
X016109Y058570D01*
X016017Y058608D01*
X014918Y058608D01*
X014826Y058570D01*
X014756Y058500D01*
X014718Y058408D01*
X014718Y057809D01*
X014756Y057717D01*
X014826Y057646D01*
X014918Y057608D01*
X014826Y057570D01*
X014756Y057500D01*
X014728Y057434D02*
X014073Y057434D01*
X014148Y057336D02*
X014718Y057336D01*
X014718Y057237D02*
X014189Y057237D01*
X014197Y057139D02*
X014718Y057139D01*
X014718Y057040D02*
X014193Y057040D01*
X014153Y056942D02*
X014718Y056942D01*
X014718Y056843D02*
X014138Y056843D01*
X014138Y056745D02*
X014744Y056745D01*
X014826Y056646D02*
X014918Y056608D01*
X016017Y056608D01*
X016105Y056645D01*
X016276Y056645D01*
X016321Y056626D01*
X016491Y056626D01*
X016649Y056692D01*
X016702Y056745D02*
X017237Y056745D01*
X017237Y056843D02*
X016782Y056843D01*
X016823Y056942D02*
X017237Y056942D01*
X017237Y057040D02*
X016835Y057040D01*
X016835Y057139D02*
X017237Y057139D01*
X017237Y057237D02*
X016794Y057237D01*
X016731Y057336D02*
X017237Y057336D01*
X017237Y057434D02*
X016609Y057434D01*
X016147Y057533D02*
X017237Y057533D01*
X017237Y057631D02*
X016073Y057631D01*
X016017Y057608D02*
X014918Y057608D01*
X016017Y057608D01*
X016185Y057730D02*
X017237Y057730D01*
X017155Y057828D02*
X016218Y057828D01*
X016218Y057927D02*
X017121Y057927D01*
X017121Y058025D02*
X016218Y058025D01*
X016218Y058124D02*
X017121Y058124D01*
X017121Y058222D02*
X016218Y058222D01*
X016218Y058321D02*
X017121Y058321D01*
X017121Y058419D02*
X016213Y058419D01*
X016162Y058518D02*
X017135Y058518D01*
X017201Y058616D02*
X008652Y058616D01*
X008720Y058715D02*
X014924Y058715D01*
X014910Y058719D02*
X014948Y058708D01*
X015418Y058708D01*
X015418Y059058D01*
X015518Y059058D01*
X015518Y059158D01*
X016118Y059158D01*
X016118Y059378D01*
X016107Y059416D01*
X016088Y059450D01*
X016060Y059478D01*
X016025Y059498D01*
X015987Y059508D01*
X015518Y059508D01*
X015518Y059158D01*
X015418Y059158D01*
X015418Y059058D01*
X014818Y059058D01*
X014818Y058839D01*
X014828Y058800D01*
X014848Y058766D01*
X014875Y058738D01*
X014910Y058719D01*
X014824Y058813D02*
X008767Y058813D01*
X008865Y058912D02*
X014818Y058912D01*
X014818Y059010D02*
X008964Y059010D01*
X009062Y059109D02*
X015418Y059109D01*
X015418Y059158D02*
X014818Y059158D01*
X014818Y059378D01*
X014828Y059416D01*
X014848Y059450D01*
X014875Y059478D01*
X014910Y059498D01*
X014948Y059508D01*
X015418Y059508D01*
X015418Y059158D01*
X015418Y059207D02*
X015518Y059207D01*
X015518Y059109D02*
X020207Y059109D01*
X020108Y059207D02*
X019592Y059207D01*
X019696Y059306D02*
X020010Y059306D01*
X019911Y059404D02*
X019752Y059404D01*
X019787Y059503D02*
X019813Y059503D01*
X020305Y059010D02*
X016118Y059010D01*
X016118Y059058D02*
X015518Y059058D01*
X015518Y058708D01*
X015987Y058708D01*
X016025Y058719D01*
X016060Y058738D01*
X016088Y058766D01*
X016107Y058800D01*
X016118Y058839D01*
X016118Y059058D01*
X016118Y058912D02*
X020404Y058912D01*
X020502Y058813D02*
X016111Y058813D01*
X016011Y058715D02*
X020592Y058715D01*
X019878Y058616D02*
X019864Y058616D01*
X019051Y058616D02*
X018840Y058616D01*
X018905Y058518D02*
X018986Y058518D01*
X018971Y058419D02*
X018920Y058419D01*
X018920Y058321D02*
X018971Y058321D01*
X018971Y058222D02*
X018920Y058222D01*
X018920Y058124D02*
X018971Y058124D01*
X018971Y058025D02*
X018920Y058025D01*
X018920Y057927D02*
X018971Y057927D01*
X019005Y057828D02*
X018886Y057828D01*
X018804Y057730D02*
X019076Y057730D01*
X018987Y057631D02*
X018865Y057631D01*
X018905Y057533D02*
X018946Y057533D01*
X018926Y056713D02*
X018993Y056549D01*
X019137Y056406D01*
X019324Y056328D01*
X019527Y056328D01*
X019658Y056382D01*
X019658Y055239D01*
X018826Y054451D01*
X018826Y054454D01*
X018806Y054515D01*
X018776Y054573D01*
X018739Y054625D01*
X018693Y054671D01*
X018641Y054709D01*
X018583Y054738D01*
X018522Y054758D01*
X018458Y054768D01*
X018456Y054768D01*
X018456Y054128D01*
X018396Y054128D01*
X018396Y054768D01*
X018394Y054768D01*
X018330Y054758D01*
X018268Y054738D01*
X018211Y054709D01*
X018159Y054671D01*
X018113Y054625D01*
X018075Y054573D01*
X018046Y054515D01*
X018026Y054454D01*
X018016Y054390D01*
X018016Y054128D01*
X018396Y054128D01*
X018396Y054068D01*
X018016Y054068D01*
X018016Y053806D01*
X018026Y053742D01*
X018038Y053704D01*
X017977Y053647D01*
X017977Y056589D01*
X017993Y056549D01*
X018137Y056406D01*
X018324Y056328D01*
X018527Y056328D01*
X018715Y056406D01*
X018858Y056549D01*
X018926Y056713D01*
X018898Y056646D02*
X018953Y056646D01*
X018995Y056548D02*
X018857Y056548D01*
X018758Y056449D02*
X019093Y056449D01*
X019270Y056351D02*
X018582Y056351D01*
X018270Y056351D02*
X017977Y056351D01*
X017977Y056449D02*
X018093Y056449D01*
X017995Y056548D02*
X017977Y056548D01*
X017977Y056252D02*
X019658Y056252D01*
X019658Y056154D02*
X017977Y056154D01*
X017977Y056055D02*
X019658Y056055D01*
X019658Y055957D02*
X017977Y055957D01*
X017977Y055858D02*
X019658Y055858D01*
X019658Y055760D02*
X017977Y055760D01*
X017977Y055661D02*
X019658Y055661D01*
X019658Y055563D02*
X017977Y055563D01*
X017977Y055464D02*
X019658Y055464D01*
X019658Y055366D02*
X017977Y055366D01*
X017977Y055267D02*
X019658Y055267D01*
X019584Y055169D02*
X017977Y055169D01*
X017977Y055070D02*
X019480Y055070D01*
X019376Y054972D02*
X017977Y054972D01*
X017977Y054873D02*
X019272Y054873D01*
X019168Y054775D02*
X017977Y054775D01*
X017977Y054676D02*
X018166Y054676D01*
X018079Y054578D02*
X017977Y054578D01*
X017977Y054479D02*
X018034Y054479D01*
X018016Y054381D02*
X017977Y054381D01*
X017977Y054282D02*
X018016Y054282D01*
X018016Y054184D02*
X017977Y054184D01*
X017977Y054085D02*
X018396Y054085D01*
X018396Y054184D02*
X018456Y054184D01*
X018456Y054282D02*
X018396Y054282D01*
X018396Y054381D02*
X018456Y054381D01*
X018456Y054479D02*
X018396Y054479D01*
X018396Y054578D02*
X018456Y054578D01*
X018456Y054676D02*
X018396Y054676D01*
X018685Y054676D02*
X019064Y054676D01*
X018960Y054578D02*
X018773Y054578D01*
X018818Y054479D02*
X018856Y054479D01*
X018016Y053987D02*
X017977Y053987D01*
X017977Y053888D02*
X018016Y053888D01*
X018018Y053790D02*
X017977Y053790D01*
X017977Y053691D02*
X018024Y053691D01*
X016509Y053691D02*
X016225Y053691D01*
X016225Y053593D02*
X016509Y053593D01*
X016509Y053494D02*
X016225Y053494D01*
X016225Y053396D02*
X016509Y053396D01*
X016509Y053297D02*
X016217Y053297D01*
X016225Y053316D02*
X016187Y053225D01*
X016117Y053154D01*
X016025Y053116D01*
X014926Y053116D01*
X014834Y053154D01*
X014763Y053225D01*
X014725Y053316D01*
X014725Y053916D01*
X014763Y054008D01*
X014834Y054078D01*
X014926Y054116D01*
X016025Y054116D01*
X016117Y054078D01*
X016187Y054008D01*
X016225Y053916D01*
X016225Y053316D01*
X016162Y053199D02*
X016509Y053199D01*
X016509Y053100D02*
X005124Y053100D01*
X005124Y053002D02*
X016509Y053002D01*
X016509Y052903D02*
X005124Y052903D01*
X005124Y052805D02*
X016509Y052805D01*
X016509Y052706D02*
X005124Y052706D01*
X005124Y052608D02*
X016509Y052608D01*
X016091Y052291D02*
X007823Y052291D01*
X007823Y050694D01*
X016091Y050694D01*
X016091Y052291D01*
X016091Y052214D02*
X007823Y052214D01*
X007823Y052115D02*
X008405Y052115D01*
X008185Y052068D02*
X008706Y052180D01*
X008712Y052185D01*
X008726Y052184D01*
X008739Y052187D01*
X008745Y052182D01*
X008753Y052182D01*
X008762Y052172D01*
X008774Y052164D01*
X008775Y052156D01*
X008780Y052150D01*
X008779Y052137D01*
X008782Y052124D01*
X008778Y052117D01*
X008744Y051679D01*
X008981Y051709D01*
X008984Y051711D01*
X009001Y051711D01*
X009019Y051713D01*
X009022Y051711D01*
X009025Y051711D01*
X009038Y051699D01*
X009052Y051688D01*
X009052Y051684D01*
X009055Y051682D01*
X009055Y051664D01*
X009057Y051647D01*
X009055Y051644D01*
X009055Y051585D01*
X009057Y051568D01*
X009055Y051565D01*
X009055Y051562D01*
X009042Y051549D01*
X009031Y051535D01*
X009028Y051535D01*
X009025Y051532D01*
X009008Y051532D01*
X008733Y051498D01*
X008623Y050839D01*
X008626Y050831D01*
X008620Y050819D01*
X008617Y050806D01*
X008611Y050801D01*
X008608Y050794D01*
X008595Y050790D01*
X008584Y050782D01*
X008576Y050783D01*
X008569Y050780D01*
X008556Y050786D01*
X008543Y050788D01*
X008538Y050795D01*
X008531Y050798D01*
X008527Y050811D01*
X008519Y050822D01*
X008520Y050830D01*
X008300Y051454D01*
X008279Y051454D01*
X007992Y051130D01*
X007992Y051129D01*
X007978Y051115D01*
X007965Y051101D01*
X007963Y051100D01*
X007962Y051099D01*
X007943Y051099D01*
X007924Y051098D01*
X007923Y051099D01*
X007921Y051099D01*
X007907Y051113D01*
X007893Y051126D01*
X007893Y051127D01*
X007892Y051129D01*
X007892Y051148D01*
X007890Y051167D01*
X007892Y051168D01*
X007892Y051249D01*
X007890Y051252D01*
X007892Y051270D01*
X007892Y051288D01*
X007894Y051290D01*
X007897Y051326D01*
X007895Y051331D01*
X007899Y051346D01*
X007901Y051362D01*
X007905Y051366D01*
X007916Y051403D01*
X007915Y051408D01*
X007922Y051422D01*
X007927Y051437D01*
X007932Y051440D01*
X007950Y051474D01*
X007949Y051480D01*
X007960Y051492D01*
X007967Y051506D01*
X007972Y051508D01*
X007997Y051538D01*
X007998Y051543D01*
X008010Y051553D01*
X008020Y051566D01*
X008025Y051566D01*
X008056Y051591D01*
X008057Y051596D01*
X008071Y051604D01*
X008083Y051614D01*
X008089Y051613D01*
X008123Y051632D01*
X008126Y051637D01*
X008141Y051641D01*
X008155Y051649D01*
X008160Y051647D01*
X008198Y051658D01*
X008201Y051663D01*
X008217Y051664D01*
X008230Y051668D01*
X008135Y051983D01*
X008133Y051985D01*
X008129Y052003D01*
X008124Y052021D01*
X008125Y052023D01*
X008125Y052025D01*
X008135Y052041D01*
X008144Y052057D01*
X008146Y052058D01*
X008147Y052060D01*
X008165Y052064D01*
X008183Y052069D01*
X008185Y052068D01*
X008125Y052017D02*
X007823Y052017D01*
X007823Y051918D02*
X008155Y051918D01*
X008184Y051820D02*
X007823Y051820D01*
X007823Y051721D02*
X008214Y051721D01*
X008107Y051623D02*
X007823Y051623D01*
X007823Y051524D02*
X007986Y051524D01*
X007923Y051426D02*
X007823Y051426D01*
X007823Y051327D02*
X007897Y051327D01*
X007892Y051229D02*
X007823Y051229D01*
X007823Y051130D02*
X007892Y051130D01*
X007992Y051130D02*
X008414Y051130D01*
X008449Y051032D02*
X007823Y051032D01*
X007823Y050933D02*
X008484Y050933D01*
X008518Y050835D02*
X007823Y050835D01*
X007823Y050736D02*
X009218Y050736D01*
X009233Y050728D01*
X009248Y050721D01*
X009265Y050717D01*
X009282Y050715D01*
X015931Y050715D01*
X015948Y050717D01*
X015964Y050721D01*
X015980Y050728D01*
X015995Y050736D01*
X016091Y050736D01*
X016031Y050772D02*
X016039Y050787D01*
X016046Y050803D01*
X016050Y050819D01*
X016052Y050836D01*
X016052Y051786D01*
X016050Y051803D01*
X016046Y051820D01*
X016091Y051820D01*
X016046Y051820D02*
X016039Y051835D01*
X016031Y051850D01*
X016020Y051864D01*
X016008Y051876D01*
X015995Y051886D01*
X015980Y051895D01*
X015964Y051901D01*
X015948Y051906D01*
X015931Y051908D01*
X009282Y051908D01*
X009265Y051906D01*
X009248Y051901D01*
X009233Y051895D01*
X009218Y051886D01*
X009204Y051876D01*
X009192Y051864D01*
X009182Y051850D01*
X009173Y051835D01*
X009167Y051820D01*
X008755Y051820D01*
X008763Y051918D02*
X016091Y051918D01*
X016091Y052017D02*
X008770Y052017D01*
X008778Y052115D02*
X016091Y052115D01*
X016091Y051721D02*
X016052Y051721D01*
X016052Y051623D02*
X016091Y051623D01*
X016091Y051524D02*
X016052Y051524D01*
X016052Y051426D02*
X016091Y051426D01*
X016091Y051327D02*
X016052Y051327D01*
X016052Y051229D02*
X016091Y051229D01*
X016091Y051130D02*
X016052Y051130D01*
X016052Y051032D02*
X016091Y051032D01*
X016091Y050933D02*
X016052Y050933D01*
X016052Y050835D02*
X016091Y050835D01*
X016031Y050772D02*
X016020Y050759D01*
X016008Y050747D01*
X015995Y050736D01*
X014789Y053199D02*
X006764Y053199D01*
X006790Y053225D02*
X006828Y053316D01*
X006828Y053916D01*
X006790Y054008D01*
X006719Y054078D01*
X006628Y054116D01*
X005528Y054116D01*
X005436Y054078D01*
X005366Y054008D01*
X005328Y053916D01*
X005328Y053316D01*
X005366Y053225D01*
X005436Y053154D01*
X005528Y053116D01*
X006628Y053116D01*
X006719Y053154D01*
X006790Y053225D01*
X006820Y053297D02*
X014733Y053297D01*
X014725Y053396D02*
X006828Y053396D01*
X006828Y053494D02*
X014725Y053494D01*
X014725Y053593D02*
X006828Y053593D01*
X006828Y053691D02*
X014725Y053691D01*
X014725Y053790D02*
X006828Y053790D01*
X006828Y053888D02*
X014725Y053888D01*
X014755Y053987D02*
X006798Y053987D01*
X006702Y054085D02*
X014851Y054085D01*
X016100Y054085D02*
X016509Y054085D01*
X016509Y053987D02*
X016196Y053987D01*
X016225Y053888D02*
X016509Y053888D01*
X016509Y053790D02*
X016225Y053790D01*
X016509Y054184D02*
X005124Y054184D01*
X005124Y054282D02*
X016509Y054282D01*
X016509Y054381D02*
X005124Y054381D01*
X005124Y054479D02*
X016509Y054479D01*
X016509Y054578D02*
X005124Y054578D01*
X005124Y054676D02*
X016509Y054676D01*
X016509Y054775D02*
X009831Y054775D01*
X009749Y054741D02*
X010081Y054878D01*
X010335Y055132D01*
X010473Y055464D01*
X010473Y055823D01*
X010335Y056155D01*
X010081Y056409D01*
X009749Y056547D01*
X009390Y056547D01*
X009059Y056409D01*
X008805Y056155D01*
X008667Y055823D01*
X008667Y055464D01*
X008805Y055132D01*
X009059Y054878D01*
X009390Y054741D01*
X009749Y054741D01*
X010069Y054873D02*
X016509Y054873D01*
X016509Y054972D02*
X010175Y054972D01*
X010273Y055070D02*
X016509Y055070D01*
X016509Y055169D02*
X010350Y055169D01*
X010391Y055267D02*
X016509Y055267D01*
X016509Y055366D02*
X010432Y055366D01*
X010473Y055464D02*
X013493Y055464D01*
X013401Y055563D02*
X010473Y055563D01*
X010473Y055661D02*
X013360Y055661D01*
X013340Y055760D02*
X010473Y055760D01*
X010458Y055858D02*
X013340Y055858D01*
X013372Y055957D02*
X010417Y055957D01*
X010377Y056055D02*
X013398Y056055D01*
X013398Y056154D02*
X010336Y056154D01*
X010238Y056252D02*
X013398Y056252D01*
X013398Y056351D02*
X010140Y056351D01*
X009984Y056449D02*
X013398Y056449D01*
X014138Y056449D02*
X016545Y056449D01*
X016477Y056351D02*
X014138Y056351D01*
X014138Y056252D02*
X016436Y056252D01*
X016430Y056154D02*
X014138Y056154D01*
X014138Y056055D02*
X016432Y056055D01*
X016473Y055957D02*
X014165Y055957D01*
X014197Y055858D02*
X016509Y055858D01*
X016509Y055760D02*
X014197Y055760D01*
X014177Y055661D02*
X016509Y055661D01*
X016509Y055563D02*
X014136Y055563D01*
X014044Y055464D02*
X016509Y055464D01*
X016539Y056646D02*
X017237Y056646D01*
X017237Y056548D02*
X017087Y056548D01*
X017212Y056449D02*
X017237Y056449D01*
X018013Y058616D02*
X018027Y058616D01*
X018356Y059306D02*
X016118Y059306D01*
X016111Y059404D02*
X018258Y059404D01*
X018159Y059503D02*
X016008Y059503D01*
X016118Y059207D02*
X018530Y059207D01*
X018061Y059601D02*
X009555Y059601D01*
X009653Y059700D02*
X017962Y059700D01*
X017561Y061374D02*
X010223Y061374D01*
X010321Y061473D02*
X017714Y061473D01*
X017744Y061571D02*
X010373Y061571D01*
X010413Y061670D02*
X017646Y061670D01*
X017547Y061768D02*
X010454Y061768D01*
X010477Y061867D02*
X017449Y061867D01*
X017350Y061965D02*
X010477Y061965D01*
X010477Y062064D02*
X017252Y062064D01*
X017153Y062162D02*
X010477Y062162D01*
X010444Y062261D02*
X017055Y062261D01*
X016956Y062359D02*
X010403Y062359D01*
X010362Y062458D02*
X016858Y062458D01*
X016655Y063252D02*
X014394Y063252D01*
X014335Y063310D01*
X014335Y063409D01*
X014472Y063409D01*
X014472Y063707D01*
X014569Y063707D01*
X014569Y063804D01*
X014887Y063804D01*
X014887Y063972D01*
X014877Y064010D01*
X014874Y064014D01*
X014876Y064015D01*
X014902Y063989D01*
X014994Y063950D01*
X015487Y063950D01*
X015575Y063987D01*
X015663Y063950D01*
X015956Y063950D01*
X016655Y063252D01*
X016562Y063344D02*
X014335Y063344D01*
X014472Y063443D02*
X014569Y063443D01*
X014569Y063409D02*
X014757Y063409D01*
X014795Y063419D01*
X014829Y063439D01*
X014857Y063467D01*
X014877Y063501D01*
X014887Y063539D01*
X014887Y063707D01*
X014569Y063707D01*
X014569Y063409D01*
X014569Y063541D02*
X014472Y063541D01*
X014472Y063640D02*
X014569Y063640D01*
X014569Y063738D02*
X016168Y063738D01*
X016266Y063640D02*
X014887Y063640D01*
X014887Y063541D02*
X016365Y063541D01*
X016463Y063443D02*
X014833Y063443D01*
X014887Y063837D02*
X016069Y063837D01*
X015971Y063935D02*
X014887Y063935D01*
X013747Y062852D02*
X009881Y062852D01*
X010099Y062753D02*
X013846Y062753D01*
X013944Y062655D02*
X010198Y062655D01*
X010296Y062556D02*
X014059Y062556D01*
X016357Y064596D02*
X016357Y064683D01*
X016323Y064766D01*
X016420Y064726D01*
X016566Y064726D01*
X016690Y064777D01*
X016813Y064726D01*
X016960Y064726D01*
X017095Y064782D01*
X017165Y064852D01*
X017202Y064836D01*
X017254Y064826D01*
X017271Y064826D01*
X017271Y065361D01*
X017289Y065361D01*
X017289Y064826D01*
X017307Y064826D01*
X017335Y064832D01*
X017335Y063617D01*
X016357Y064596D01*
X016357Y064625D02*
X017335Y064625D01*
X017335Y064723D02*
X016340Y064723D01*
X016426Y064526D02*
X017335Y064526D01*
X017335Y064428D02*
X016525Y064428D01*
X016623Y064329D02*
X017335Y064329D01*
X017335Y064231D02*
X016722Y064231D01*
X016820Y064132D02*
X017335Y064132D01*
X017335Y064034D02*
X016919Y064034D01*
X017017Y063935D02*
X017335Y063935D01*
X017335Y063837D02*
X017116Y063837D01*
X017214Y063738D02*
X017335Y063738D01*
X017335Y063640D02*
X017313Y063640D01*
X017335Y064822D02*
X017135Y064822D01*
X017271Y064920D02*
X017289Y064920D01*
X017289Y065019D02*
X017271Y065019D01*
X017271Y065117D02*
X017289Y065117D01*
X017289Y065216D02*
X017271Y065216D01*
X017271Y065314D02*
X017289Y065314D01*
X017289Y065379D02*
X017271Y065379D01*
X017271Y065899D01*
X017307Y065985D01*
X017307Y066156D01*
X017300Y066173D01*
X017335Y066173D01*
X017335Y065908D01*
X017307Y065913D01*
X017289Y065913D01*
X017289Y065379D01*
X017289Y065413D02*
X017271Y065413D01*
X017271Y065511D02*
X017289Y065511D01*
X017289Y065610D02*
X017271Y065610D01*
X017271Y065708D02*
X017289Y065708D01*
X017289Y065807D02*
X017271Y065807D01*
X017274Y065905D02*
X017289Y065905D01*
X017307Y066004D02*
X017335Y066004D01*
X017335Y066102D02*
X017307Y066102D01*
X017862Y066792D02*
X017887Y066792D01*
X017887Y066890D02*
X017716Y066890D01*
X017887Y066989D02*
X016304Y066989D01*
X016304Y067087D02*
X017887Y067087D01*
X017887Y067186D02*
X016304Y067186D01*
X016304Y067284D02*
X017887Y067284D01*
X017887Y067383D02*
X016304Y067383D01*
X016304Y067481D02*
X017887Y067481D01*
X017887Y067580D02*
X016304Y067580D01*
X016304Y067678D02*
X017887Y067678D01*
X017887Y067777D02*
X016304Y067777D01*
X016304Y067875D02*
X017887Y067875D01*
X017887Y067974D02*
X016304Y067974D01*
X016304Y068072D02*
X017887Y068072D01*
X017887Y068171D02*
X016304Y068171D01*
X016304Y068269D02*
X017887Y068269D01*
X017887Y068368D02*
X016304Y068368D01*
X016304Y068466D02*
X017887Y068466D01*
X017887Y068565D02*
X016304Y068565D01*
X016304Y068663D02*
X017887Y068663D01*
X017887Y068762D02*
X016304Y068762D01*
X016304Y068860D02*
X017887Y068860D01*
X017887Y068959D02*
X016304Y068959D01*
X016304Y069057D02*
X017887Y069057D01*
X017887Y069156D02*
X016304Y069156D01*
X016304Y069254D02*
X017887Y069254D01*
X017887Y069353D02*
X016304Y069353D01*
X016304Y069451D02*
X017423Y069451D01*
X017352Y069522D02*
X017352Y069522D01*
X017325Y069550D02*
X016304Y069550D01*
X016304Y069648D02*
X017226Y069648D01*
X017181Y069694D02*
X017181Y069694D01*
X017128Y069747D02*
X016304Y069747D01*
X016304Y069845D02*
X017057Y069845D01*
X017020Y069944D02*
X016304Y069944D01*
X016304Y070042D02*
X017020Y070042D01*
X017020Y070141D02*
X016304Y070141D01*
X016304Y070239D02*
X017020Y070239D01*
X017020Y070338D02*
X016304Y070338D01*
X016304Y070436D02*
X017020Y070436D01*
X017020Y070535D02*
X016304Y070535D01*
X016287Y070633D02*
X017020Y070633D01*
X017020Y070732D02*
X016244Y070732D01*
X016146Y070830D02*
X017020Y070830D01*
X017020Y070929D02*
X016047Y070929D01*
X015897Y071027D02*
X017020Y071027D01*
X017760Y070917D02*
X017925Y071082D01*
X018050Y071134D01*
X018133Y071134D01*
X018269Y071190D01*
X018472Y071392D01*
X018479Y071355D01*
X018494Y071317D01*
X018425Y071248D01*
X018369Y071112D01*
X018369Y070966D01*
X018420Y070842D01*
X018369Y070719D01*
X018369Y070622D01*
X018170Y070622D01*
X018106Y070686D01*
X017948Y070751D01*
X017778Y070751D01*
X017760Y070744D01*
X017760Y070917D01*
X017772Y070929D02*
X018384Y070929D01*
X018369Y071027D02*
X017870Y071027D01*
X018031Y071126D02*
X018374Y071126D01*
X018415Y071224D02*
X018304Y071224D01*
X018402Y071323D02*
X018492Y071323D01*
X018503Y071424D02*
X018521Y071442D01*
X019003Y071442D01*
X019003Y071424D01*
X018503Y071424D01*
X019003Y071424D02*
X019021Y071424D01*
X019021Y071407D01*
X019003Y071407D01*
X019003Y071424D01*
X019003Y071421D02*
X019021Y071421D01*
X019021Y071424D02*
X019343Y071424D01*
X019343Y071442D01*
X019021Y071442D01*
X019021Y071449D01*
X019003Y071449D01*
X019003Y071442D01*
X019021Y071442D01*
X019021Y071424D01*
X018415Y070830D02*
X017760Y070830D01*
X017994Y070732D02*
X018374Y070732D01*
X018369Y070633D02*
X018158Y070633D01*
X019003Y067093D02*
X019021Y067093D01*
X019021Y066834D01*
X019314Y066834D01*
X019343Y066840D01*
X019343Y064649D01*
X018803Y064109D01*
X018803Y064148D01*
X018738Y064305D01*
X018627Y064417D01*
X018627Y066858D01*
X018659Y066844D01*
X018710Y066834D01*
X019003Y066834D01*
X019003Y067093D01*
X019003Y067087D02*
X019021Y067087D01*
X019021Y066989D02*
X019003Y066989D01*
X019003Y066890D02*
X019021Y066890D01*
X019343Y066792D02*
X018627Y066792D01*
X018627Y066693D02*
X019343Y066693D01*
X019343Y066595D02*
X018627Y066595D01*
X018627Y066496D02*
X019343Y066496D01*
X019343Y066398D02*
X018627Y066398D01*
X018627Y066299D02*
X019343Y066299D01*
X019343Y066201D02*
X018627Y066201D01*
X018627Y066102D02*
X019343Y066102D01*
X019343Y066004D02*
X018627Y066004D01*
X018627Y065905D02*
X019343Y065905D01*
X019343Y065807D02*
X018627Y065807D01*
X018627Y065708D02*
X019343Y065708D01*
X019343Y065610D02*
X018627Y065610D01*
X018627Y065511D02*
X019343Y065511D01*
X019343Y065413D02*
X018627Y065413D01*
X018627Y065314D02*
X019343Y065314D01*
X019343Y065216D02*
X018627Y065216D01*
X018627Y065117D02*
X019343Y065117D01*
X019343Y065019D02*
X018627Y065019D01*
X018627Y064920D02*
X019343Y064920D01*
X019343Y064822D02*
X018627Y064822D01*
X018627Y064723D02*
X019343Y064723D01*
X019319Y064625D02*
X018627Y064625D01*
X018627Y064526D02*
X019221Y064526D01*
X019122Y064428D02*
X018627Y064428D01*
X018714Y064329D02*
X019024Y064329D01*
X018925Y064231D02*
X018769Y064231D01*
X018803Y064132D02*
X018827Y064132D01*
X015564Y066792D02*
X009735Y066792D01*
X009892Y067481D02*
X009929Y067481D01*
X007185Y066693D02*
X005124Y066693D01*
X005533Y066102D02*
X005633Y066102D01*
X005633Y066004D02*
X005533Y066004D01*
X005533Y065905D02*
X005633Y065905D01*
X005633Y065807D02*
X005533Y065807D01*
X006124Y060094D02*
X007544Y060094D01*
X007485Y059323D02*
X006820Y059323D01*
X006820Y058809D01*
X006782Y058717D01*
X006712Y058646D01*
X006620Y058608D01*
X005520Y058608D01*
X006620Y058608D01*
X006698Y058576D01*
X006728Y058648D01*
X006848Y058768D01*
X006990Y058827D01*
X007485Y059323D01*
X007469Y059306D02*
X006820Y059306D01*
X006820Y059207D02*
X007370Y059207D01*
X007272Y059109D02*
X006820Y059109D01*
X006820Y059010D02*
X007173Y059010D01*
X007075Y058912D02*
X006820Y058912D01*
X006820Y058813D02*
X006957Y058813D01*
X006795Y058715D02*
X006780Y058715D01*
X006715Y058616D02*
X006639Y058616D01*
X006515Y057608D02*
X006515Y057608D01*
X005520Y057608D01*
X006515Y057608D01*
X007585Y057631D02*
X014862Y057631D01*
X014750Y057730D02*
X007683Y057730D01*
X007782Y057828D02*
X014718Y057828D01*
X014718Y057927D02*
X007880Y057927D01*
X007979Y058025D02*
X014718Y058025D01*
X014718Y058124D02*
X008077Y058124D01*
X008176Y058222D02*
X014718Y058222D01*
X014718Y058321D02*
X008274Y058321D01*
X008373Y058419D02*
X014722Y058419D01*
X014773Y058518D02*
X008520Y058518D01*
X009161Y059207D02*
X014818Y059207D01*
X014818Y059306D02*
X009259Y059306D01*
X009358Y059404D02*
X014825Y059404D01*
X014927Y059503D02*
X009456Y059503D01*
X009156Y056449D02*
X005124Y056449D01*
X005124Y056351D02*
X009000Y056351D01*
X008902Y056252D02*
X005124Y056252D01*
X005124Y056154D02*
X008804Y056154D01*
X008763Y056055D02*
X005124Y056055D01*
X005124Y055957D02*
X008722Y055957D01*
X008682Y055858D02*
X005124Y055858D01*
X005124Y055760D02*
X008667Y055760D01*
X008667Y055661D02*
X005124Y055661D01*
X005124Y055563D02*
X008667Y055563D01*
X008667Y055464D02*
X005124Y055464D01*
X005124Y055366D02*
X008708Y055366D01*
X008749Y055267D02*
X005124Y055267D01*
X005124Y055169D02*
X008790Y055169D01*
X008867Y055070D02*
X005124Y055070D01*
X005124Y054972D02*
X008965Y054972D01*
X009071Y054873D02*
X005124Y054873D01*
X005124Y054775D02*
X009309Y054775D01*
X009167Y051820D02*
X009163Y051803D01*
X009160Y051786D01*
X009160Y050836D01*
X009163Y050819D01*
X009167Y050803D01*
X009173Y050787D01*
X009182Y050772D01*
X009192Y050759D01*
X009204Y050747D01*
X009218Y050736D01*
X009160Y050835D02*
X008624Y050835D01*
X008639Y050933D02*
X009160Y050933D01*
X009160Y051032D02*
X008655Y051032D01*
X008671Y051130D02*
X009160Y051130D01*
X009160Y051229D02*
X008688Y051229D01*
X008704Y051327D02*
X009160Y051327D01*
X009160Y051426D02*
X008721Y051426D01*
X008943Y051524D02*
X009160Y051524D01*
X009160Y051623D02*
X009055Y051623D01*
X009160Y051721D02*
X008747Y051721D01*
X008310Y051426D02*
X008254Y051426D01*
X008167Y051327D02*
X008344Y051327D01*
X008379Y051229D02*
X008079Y051229D01*
X005392Y053199D02*
X005124Y053199D01*
X005124Y053297D02*
X005336Y053297D01*
X005328Y053396D02*
X005124Y053396D01*
X005124Y053494D02*
X005328Y053494D01*
X005328Y053593D02*
X005124Y053593D01*
X005124Y053691D02*
X005328Y053691D01*
X005328Y053790D02*
X005124Y053790D01*
X005124Y053888D02*
X005328Y053888D01*
X005357Y053987D02*
X005124Y053987D01*
X005124Y054085D02*
X005453Y054085D01*
X015418Y058715D02*
X015518Y058715D01*
X015518Y058813D02*
X015418Y058813D01*
X015418Y058912D02*
X015518Y058912D01*
X015518Y059010D02*
X015418Y059010D01*
X015418Y059306D02*
X015518Y059306D01*
X015518Y059404D02*
X015418Y059404D01*
X015418Y059503D02*
X015518Y059503D01*
X019582Y056351D02*
X019658Y056351D01*
X020429Y074179D02*
X013721Y074179D01*
X013651Y074278D02*
X020428Y074278D01*
X020427Y074376D02*
X013552Y074376D01*
X013331Y074475D02*
X013104Y074475D01*
X013142Y074672D02*
X013150Y074672D01*
X018158Y075980D02*
X026426Y075980D01*
X026426Y076105D01*
X026425Y076104D01*
X026409Y076100D01*
X026392Y076098D01*
X018158Y076098D01*
X018158Y075980D01*
X018158Y076051D02*
X026426Y076051D01*
X026426Y077518D02*
X026425Y077518D01*
X026409Y077522D01*
X026392Y077524D01*
X025372Y077524D01*
X025372Y078663D01*
X025370Y078680D01*
X025365Y078696D01*
X025359Y078712D01*
X025350Y078727D01*
X025343Y078736D01*
X026426Y078736D01*
X026426Y077518D01*
X026426Y077528D02*
X025372Y077528D01*
X025372Y077627D02*
X026426Y077627D01*
X026426Y077725D02*
X025372Y077725D01*
X025372Y077824D02*
X026426Y077824D01*
X026426Y077922D02*
X025372Y077922D01*
X025372Y078021D02*
X026426Y078021D01*
X026426Y078119D02*
X025372Y078119D01*
X025372Y078218D02*
X026426Y078218D01*
X026426Y078316D02*
X025372Y078316D01*
X025372Y078415D02*
X026426Y078415D01*
X026426Y078513D02*
X025372Y078513D01*
X025372Y078612D02*
X026426Y078612D01*
X026426Y078710D02*
X025359Y078710D01*
X019083Y078736D02*
X019076Y078727D01*
X019067Y078712D01*
X019061Y078696D01*
X019056Y078680D01*
X019054Y078663D01*
X019054Y077524D01*
X018158Y077524D01*
X018158Y078736D01*
X019083Y078736D01*
X019067Y078710D02*
X018158Y078710D01*
X018158Y078612D02*
X019054Y078612D01*
X019054Y078513D02*
X018158Y078513D01*
X018158Y078415D02*
X019054Y078415D01*
X019054Y078316D02*
X018158Y078316D01*
X018158Y078218D02*
X019054Y078218D01*
X019054Y078119D02*
X018158Y078119D01*
X018158Y078021D02*
X019054Y078021D01*
X019054Y077922D02*
X018158Y077922D01*
X018158Y077824D02*
X019054Y077824D01*
X019054Y077725D02*
X018158Y077725D01*
X018158Y077627D02*
X019054Y077627D01*
X019054Y077528D02*
X018158Y077528D01*
D38*
X021524Y074220D02*
X021524Y073649D01*
X022745Y073610D02*
X022745Y074102D01*
X023375Y073551D02*
X023375Y072803D01*
X023388Y072789D01*
X024162Y072789D01*
X024162Y073289D02*
X024766Y073289D01*
X024871Y073393D01*
X024871Y074630D01*
X024989Y074744D01*
X026445Y074744D01*
X026642Y074937D01*
X026642Y075401D01*
X027036Y075795D01*
X027796Y075795D01*
X028398Y075193D01*
X027009Y072789D02*
X026209Y072789D01*
X026195Y073275D02*
X025540Y073275D01*
X025146Y072882D01*
X025146Y072291D01*
X025148Y072289D01*
X026209Y072289D01*
X027009Y072789D02*
X028432Y071354D01*
X026209Y073289D02*
X026195Y073275D01*
X026209Y073789D02*
X026229Y073809D01*
X026229Y074181D01*
X024162Y073789D02*
X023613Y073789D01*
X023375Y073551D01*
X006070Y059108D02*
X005973Y059074D01*
X005973Y059693D01*
D39*
X013217Y073905D03*
X016879Y056149D03*
X020619Y055441D03*
X021288Y051543D03*
D40*
X028432Y071354D02*
X028436Y072151D01*
X027390Y073197D01*
X027390Y073594D01*
X027398Y074193D01*
X028398Y074193D02*
X028398Y073476D01*
X030036Y071838D01*
X030032Y071354D01*
X031032Y071354D02*
X031036Y071795D01*
X029398Y073433D01*
X029398Y074193D01*
X030398Y074193D02*
X030398Y073456D01*
X032036Y071819D01*
X032032Y071354D01*
X013217Y072330D02*
X013107Y072220D01*
X010071Y072220D01*
X013217Y072330D02*
X013217Y073905D01*
D41*
X021091Y068945D02*
X021091Y062645D01*
X021288Y062448D01*
X022587Y062448D01*
X023296Y061740D01*
X024162Y061740D01*
X024843Y062421D01*
X024843Y062630D01*
X027469Y055519D02*
X027036Y055086D01*
X027032Y052354D01*
X027469Y055519D02*
X036327Y055519D01*
X036957Y056149D01*
X037351Y054023D02*
X037430Y053984D01*
X039182Y054000D01*
X039186Y067586D01*
X038020Y068752D01*
X038020Y072685D01*
X037508Y072685D01*
X036119Y074074D01*
X036119Y075992D01*
X039182Y069826D02*
X041390Y067606D01*
X041390Y056173D01*
X041367Y056149D01*
X041390Y067606D02*
X046091Y067606D01*
X047745Y069260D01*
X047745Y070244D01*
X047745Y070362D01*
X048745Y071362D01*
X049032Y071354D01*
X050032Y071354D01*
D42*
X034032Y071354D02*
X034036Y070787D01*
X033571Y070323D01*
X033571Y064023D01*
X030264Y060716D01*
X023965Y060716D01*
X023532Y060283D01*
X021111Y051720D02*
X019477Y051720D01*
X018414Y051720D01*
X021111Y051720D02*
X021288Y051543D01*
X016406Y057055D02*
X015351Y057055D01*
X015468Y057108D01*
X030658Y063630D02*
X032390Y063630D01*
X033036Y064275D01*
X033032Y071354D01*
D43*
X023532Y060283D03*
X036957Y056149D03*
X041367Y056149D03*
X047745Y070244D03*
D44*
X030658Y063630D03*
D45*
X038020Y072685D02*
X045052Y072689D01*
X046945Y074590D01*
M02*
