G75*
%MOIN*%
%OFA0B0*%
%FSLAX24Y24*%
%IPPOS*%
%LPD*%
%AMOC8*
5,1,8,0,0,1.08239X$1,22.5*
%
%ADD10C,0.1340*%
%ADD11R,0.0277X0.0277*%
%ADD12R,0.0237X0.0277*%
%ADD13R,0.0493X0.0505*%
%ADD14R,0.1025X0.1025*%
%ADD15OC8,0.1025*%
%ADD16C,0.1025*%
%ADD17R,0.0474X0.0513*%
%ADD18R,0.0513X0.0474*%
%ADD19R,0.0710X0.1458*%
%ADD20C,0.1080*%
%ADD21R,0.0631X0.0474*%
%ADD22C,0.0680*%
%ADD23C,0.0600*%
%ADD24C,0.0848*%
%ADD25C,0.0600*%
%ADD26OC8,0.0680*%
%ADD27C,0.0820*%
%ADD28OC8,0.0820*%
%ADD29C,0.1970*%
%ADD30R,0.0671X0.0592*%
%ADD31R,0.0592X0.0671*%
%ADD32C,0.0986*%
%ADD33C,0.0907*%
%ADD34OC8,0.0780*%
%ADD35C,0.0437*%
%ADD36C,0.0476*%
%ADD37C,0.0671*%
%ADD38C,0.0555*%
D10*
X005855Y051425D03*
X021209Y077409D03*
X005855Y078590D03*
X050737Y077015D03*
X050737Y051425D03*
D11*
X009414Y058405D03*
X008823Y058405D03*
X008823Y059114D03*
X009414Y059114D03*
D12*
X009119Y059114D03*
X009119Y058405D03*
D13*
X010349Y057826D03*
X010353Y057283D03*
X011042Y057283D03*
X011038Y057826D03*
D14*
X021524Y061031D03*
X037351Y061031D03*
X046190Y054000D03*
X046190Y069826D03*
D15*
X039182Y054000D03*
X037351Y054023D03*
D16*
X039182Y069826D03*
X021524Y054023D03*
D17*
X029221Y062582D03*
X029890Y062582D03*
X029910Y063634D03*
X029241Y063634D03*
X019056Y072078D03*
X019052Y072669D03*
X019068Y073279D03*
X018398Y073279D03*
X018383Y072669D03*
X018386Y072078D03*
X011005Y075842D03*
X010335Y075842D03*
X010560Y073862D03*
X009890Y073862D03*
X007280Y073878D03*
X006611Y073878D03*
X006638Y075921D03*
X007308Y075921D03*
D18*
X007351Y075240D03*
X007351Y074571D03*
X011044Y074527D03*
X011044Y075197D03*
X018426Y071508D03*
X018422Y070948D03*
X018423Y070289D03*
X019093Y070289D03*
X019091Y070948D03*
X019095Y071508D03*
X024048Y067011D03*
X024048Y066342D03*
X024945Y066315D03*
X024945Y066984D03*
D19*
X016280Y075334D03*
X016280Y077460D03*
X013438Y077476D03*
X013438Y075350D03*
D20*
X007438Y071885D03*
X006438Y070885D03*
X007438Y069885D03*
X005438Y069885D03*
X005438Y071885D03*
D21*
X006611Y074511D03*
X006611Y075260D03*
X005745Y074885D03*
X009107Y074846D03*
X009973Y074472D03*
X009973Y075220D03*
X007217Y068413D03*
X007217Y067665D03*
X008083Y068039D03*
X006095Y067960D03*
X005229Y067586D03*
X005229Y068334D03*
D22*
X005283Y066216D02*
X005883Y066216D01*
X005883Y064436D02*
X005283Y064436D01*
X007843Y064436D02*
X008443Y064436D01*
X008443Y066216D02*
X007843Y066216D01*
D23*
X018426Y057358D02*
X018426Y056838D01*
X019426Y056838D02*
X019426Y057358D01*
X019426Y054358D02*
X019426Y053838D01*
X018426Y053838D02*
X018426Y054358D01*
X023792Y064633D02*
X023792Y065153D01*
X024792Y065153D02*
X024792Y064633D01*
X025792Y064633D02*
X025792Y065153D01*
X026792Y065153D02*
X026792Y064633D01*
X026792Y067633D02*
X026792Y068153D01*
X025792Y068153D02*
X025792Y067633D01*
X024792Y067633D02*
X024792Y068153D01*
X023792Y068153D02*
X023792Y067633D01*
D24*
X028560Y066299D03*
X036434Y066299D03*
D25*
X023131Y066480D03*
X022131Y066480D03*
D26*
X023843Y063630D03*
X023843Y062630D03*
X024843Y062630D03*
X024843Y063630D03*
X025843Y063630D03*
X026843Y063630D03*
X026843Y062630D03*
X025843Y062630D03*
X049036Y062354D03*
X049036Y061354D03*
X049036Y060354D03*
X049036Y059354D03*
X049036Y058354D03*
X049036Y057354D03*
X049036Y056354D03*
X049036Y055354D03*
X049036Y054354D03*
X050036Y054354D03*
X050036Y055354D03*
X050036Y056354D03*
X050036Y057354D03*
X050036Y058354D03*
X050036Y059354D03*
X050036Y060354D03*
X050036Y061354D03*
X050036Y062354D03*
X050036Y063354D03*
X050036Y064354D03*
X050036Y065354D03*
X050036Y066354D03*
X050036Y067354D03*
X049036Y067354D03*
X049036Y066354D03*
X049036Y065354D03*
X049036Y064354D03*
X049036Y063354D03*
X049036Y068354D03*
X049036Y069354D03*
X049036Y070354D03*
X049036Y071354D03*
X050036Y071354D03*
X050036Y070354D03*
X050036Y069354D03*
X050036Y068354D03*
D27*
X050032Y071354D03*
X049032Y071354D03*
X046032Y071354D03*
X045032Y071354D03*
X044032Y071354D03*
X043032Y071354D03*
X042032Y071354D03*
X041032Y071354D03*
X040032Y071354D03*
X039032Y071354D03*
X037032Y071354D03*
X036032Y071354D03*
X035032Y071354D03*
X034032Y071354D03*
X033032Y071354D03*
X032032Y071354D03*
X031032Y071354D03*
X030032Y071354D03*
X028432Y071354D03*
X027432Y071354D03*
X026432Y071354D03*
X025432Y071354D03*
X024432Y071354D03*
X023432Y071354D03*
X022432Y071354D03*
X021432Y071354D03*
X025032Y052354D03*
X026032Y052354D03*
X027032Y052354D03*
X028032Y052354D03*
X029032Y052354D03*
X030032Y052354D03*
X032032Y052354D03*
X033032Y052354D03*
X034032Y052354D03*
X035032Y052354D03*
X036032Y052354D03*
X037032Y052354D03*
X038032Y052354D03*
X039032Y052354D03*
X041032Y052354D03*
X042032Y052354D03*
X043032Y052354D03*
X044032Y052354D03*
X045032Y052354D03*
X046032Y052354D03*
X047032Y052354D03*
X048032Y052354D03*
X049032Y054354D03*
X050032Y054354D03*
D28*
X050032Y055354D03*
X050032Y056354D03*
X050032Y057354D03*
X050032Y058354D03*
X049032Y058354D03*
X049032Y057354D03*
X049032Y056354D03*
X049032Y055354D03*
X049032Y059354D03*
X049032Y060354D03*
X049032Y061354D03*
X049032Y062354D03*
X049032Y063354D03*
X049032Y064354D03*
X049032Y065354D03*
X049032Y066354D03*
X049032Y067354D03*
X049032Y068354D03*
X049032Y069354D03*
X049032Y070354D03*
X050032Y070354D03*
X050032Y069354D03*
X050032Y068354D03*
X050032Y067354D03*
X050032Y066354D03*
X050032Y065354D03*
X050032Y064354D03*
X050032Y063354D03*
X050032Y062354D03*
X050032Y061354D03*
X050032Y060354D03*
X050032Y059354D03*
X031398Y074193D03*
X031398Y075193D03*
X030398Y075193D03*
X030398Y074193D03*
X029398Y074193D03*
X029398Y075193D03*
X028398Y075193D03*
X028398Y074193D03*
X027398Y074193D03*
X027398Y075193D03*
D29*
X045095Y075771D03*
X046945Y076913D03*
X046945Y074590D03*
D30*
X025154Y073626D03*
X025154Y072956D03*
D31*
X022536Y072791D03*
X021867Y072791D03*
D32*
X009574Y062002D03*
X009570Y055644D03*
D33*
X036119Y075992D03*
X038119Y075992D03*
X040127Y075992D03*
X042123Y075980D03*
D34*
X042032Y071354D03*
X041032Y071354D03*
X040032Y071354D03*
X039032Y071354D03*
X037032Y071354D03*
X036032Y071354D03*
X035032Y071354D03*
X034032Y071354D03*
X033032Y071354D03*
X032032Y071354D03*
X031032Y071354D03*
X030032Y071354D03*
X028430Y071358D03*
X027430Y071358D03*
X026430Y071358D03*
X025430Y071358D03*
X024430Y071358D03*
X023430Y071358D03*
X022430Y071358D03*
X021430Y071358D03*
X025032Y052358D03*
X026032Y052358D03*
X027032Y052358D03*
X028032Y052358D03*
X029032Y052358D03*
X030032Y052358D03*
X032032Y052358D03*
X033032Y052358D03*
X034032Y052358D03*
X035032Y052358D03*
X036032Y052358D03*
X037032Y052358D03*
X038032Y052358D03*
X039032Y052358D03*
X041044Y052366D03*
X042044Y052366D03*
X043044Y052366D03*
X044044Y052366D03*
X045044Y052366D03*
X046044Y052366D03*
X047044Y052366D03*
X048044Y052366D03*
X046032Y071354D03*
X045032Y071354D03*
X044032Y071354D03*
X043032Y071354D03*
D35*
X026229Y074181D03*
X025146Y072291D03*
X023375Y072803D03*
X022745Y074102D03*
X021524Y074220D03*
X020162Y072669D03*
X019713Y073590D03*
X019162Y074378D03*
X017784Y074704D03*
X017784Y073354D03*
X017823Y072763D03*
X017823Y072094D03*
X017823Y071504D03*
X017863Y070874D03*
X017863Y070323D03*
X017705Y069220D03*
X017705Y068039D03*
X017705Y067055D03*
X016524Y067055D03*
X016879Y066071D03*
X016540Y064598D03*
X017194Y063952D03*
X016292Y063389D03*
X016194Y062366D03*
X015634Y061460D03*
X014816Y062366D03*
X014394Y061452D03*
X013646Y062429D03*
X012268Y062823D03*
X011087Y062823D03*
X010221Y063334D03*
X010103Y064200D03*
X011087Y064594D03*
X012268Y064594D03*
X013449Y064594D03*
X015024Y063807D03*
X017020Y061657D03*
X017863Y061071D03*
X018414Y060519D03*
X019359Y059574D03*
X019831Y062370D03*
X018650Y063433D03*
X018375Y064063D03*
X019083Y065086D03*
X019083Y065874D03*
X019083Y066661D03*
X016524Y068236D03*
X016524Y069417D03*
X015579Y071267D03*
X014201Y071267D03*
X013217Y071661D03*
X014005Y073039D03*
X014359Y074181D03*
X015540Y074181D03*
X016800Y074181D03*
X017194Y073000D03*
X017154Y071858D03*
X021091Y068945D03*
X013253Y059476D03*
X013253Y058295D03*
X013056Y057114D03*
X013768Y057134D03*
X013768Y055795D03*
X014709Y055815D03*
X016406Y057055D03*
X012111Y055815D03*
X011678Y057114D03*
X011678Y058295D03*
X011481Y059476D03*
X009906Y059476D03*
X008335Y058905D03*
X008134Y057901D03*
X007347Y057114D03*
X007938Y056130D03*
X006560Y056326D03*
X005379Y056326D03*
X007091Y058405D03*
X005973Y059693D03*
X006363Y060263D03*
X007347Y060263D03*
X008134Y061051D03*
X008331Y062035D03*
X008725Y062823D03*
X008772Y063799D03*
X007741Y063610D03*
X006560Y063610D03*
X005379Y063610D03*
X005379Y060263D03*
X005894Y067291D03*
X007430Y067055D03*
X008257Y067134D03*
X008296Y068669D03*
X008178Y069338D03*
X008571Y069653D03*
X007548Y069102D03*
X006800Y069141D03*
X006170Y069141D03*
X005540Y069141D03*
X004949Y069141D03*
X004949Y072724D03*
X005658Y072724D03*
X005737Y073393D03*
X006406Y072724D03*
X007154Y072724D03*
X007902Y072645D03*
X008296Y072094D03*
X008493Y071425D03*
X010071Y072220D03*
X009241Y073826D03*
X009107Y075354D03*
X009398Y076622D03*
X009398Y077409D03*
X010186Y077409D03*
X010973Y077409D03*
X010973Y076622D03*
X010186Y076622D03*
X008611Y076622D03*
X008611Y077409D03*
X007823Y077409D03*
X007823Y076622D03*
X007036Y077409D03*
X005737Y075401D03*
X010068Y068669D03*
X010064Y067889D03*
X012194Y072882D03*
X012194Y073590D03*
X012194Y074181D03*
X011091Y073866D03*
X010461Y074653D03*
X011760Y077409D03*
X010890Y055815D03*
D36*
X016879Y056149D03*
X020619Y055441D03*
X021288Y051543D03*
X013217Y073905D03*
D37*
X023532Y060283D03*
X036957Y056149D03*
X041367Y056149D03*
X047745Y070244D03*
D38*
X030658Y063630D03*
M02*
